G04 Layer_Color=65535*
%FSLAX24Y24*%
%MOIN*%
G70*
G01*
G75*
%ADD10C,0.0060*%
%ADD11C,0.0080*%
%ADD75C,0.0100*%
%ADD79C,0.0120*%
%ADD93C,0.0050*%
%ADD114C,0.0090*%
%ADD115C,0.0098*%
%ADD116C,0.0098*%
%ADD117C,0.0236*%
%ADD118C,0.0075*%
%ADD119C,0.0040*%
%ADD120C,0.0079*%
%ADD121C,0.0080*%
%ADD122C,0.0080*%
%ADD123R,0.0571X0.1998*%
%ADD124R,0.1821X0.0522*%
G36*
X28803Y18453D02*
X28830D01*
Y18446D01*
X28837D01*
Y18440D01*
Y18433D01*
X28851D01*
Y18426D01*
Y18419D01*
X28858D01*
Y18413D01*
Y18406D01*
Y18399D01*
X28864D01*
Y18392D01*
Y18386D01*
Y18379D01*
Y18372D01*
Y18365D01*
Y18358D01*
Y18352D01*
Y18345D01*
Y18338D01*
Y18331D01*
Y18325D01*
Y18318D01*
X28858D01*
Y18311D01*
Y18304D01*
Y18298D01*
Y18291D01*
Y18284D01*
Y18277D01*
X28851D01*
Y18270D01*
Y18264D01*
Y18257D01*
Y18250D01*
Y18243D01*
Y18237D01*
Y18230D01*
Y18223D01*
Y18216D01*
Y18210D01*
Y18203D01*
X28844D01*
Y18196D01*
Y18189D01*
Y18182D01*
Y18176D01*
Y18169D01*
Y18162D01*
Y18155D01*
Y18149D01*
X28837D01*
Y18142D01*
Y18135D01*
Y18128D01*
Y18122D01*
Y18115D01*
Y18108D01*
X28830D01*
Y18101D01*
Y18094D01*
Y18088D01*
Y18081D01*
Y18074D01*
Y18067D01*
Y18061D01*
Y18054D01*
Y18047D01*
Y18040D01*
Y18034D01*
Y18027D01*
Y18020D01*
Y18013D01*
Y18006D01*
Y18000D01*
Y17993D01*
Y17986D01*
Y17979D01*
Y17973D01*
Y17966D01*
Y17959D01*
Y17952D01*
Y17946D01*
Y17939D01*
Y17932D01*
Y17925D01*
Y17918D01*
Y17912D01*
Y17905D01*
Y17898D01*
Y17891D01*
Y17885D01*
Y17878D01*
Y17871D01*
Y17864D01*
Y17858D01*
Y17851D01*
Y17844D01*
Y17837D01*
Y17830D01*
Y17824D01*
X28824D01*
Y17817D01*
Y17810D01*
Y17803D01*
Y17797D01*
Y17790D01*
Y17783D01*
Y17776D01*
Y17770D01*
Y17763D01*
Y17756D01*
Y17749D01*
Y17743D01*
Y17736D01*
Y17729D01*
Y17722D01*
Y17715D01*
Y17709D01*
Y17702D01*
Y17695D01*
Y17688D01*
Y17682D01*
Y17675D01*
Y17668D01*
Y17661D01*
Y17655D01*
X28817D01*
Y17648D01*
Y17641D01*
Y17634D01*
Y17627D01*
Y17621D01*
Y17614D01*
Y17607D01*
Y17600D01*
Y17594D01*
Y17587D01*
Y17580D01*
Y17573D01*
Y17567D01*
Y17560D01*
Y17553D01*
Y17546D01*
Y17539D01*
Y17533D01*
Y17526D01*
Y17519D01*
Y17512D01*
Y17506D01*
X28810D01*
Y17499D01*
Y17492D01*
Y17485D01*
Y17479D01*
Y17472D01*
Y17465D01*
Y17458D01*
Y17451D01*
Y17445D01*
Y17438D01*
Y17431D01*
Y17424D01*
Y17418D01*
Y17411D01*
Y17404D01*
Y17397D01*
Y17391D01*
Y17384D01*
Y17377D01*
Y17370D01*
Y17363D01*
Y17357D01*
Y17350D01*
Y17343D01*
Y17336D01*
Y17330D01*
Y17323D01*
Y17316D01*
Y17309D01*
Y17303D01*
Y17296D01*
Y17289D01*
Y17282D01*
Y17275D01*
Y17269D01*
Y17262D01*
Y17255D01*
Y17248D01*
Y17242D01*
Y17235D01*
Y17228D01*
Y17221D01*
Y17215D01*
Y17208D01*
Y17201D01*
Y17194D01*
Y17187D01*
Y17181D01*
Y17174D01*
Y17167D01*
Y17160D01*
Y17154D01*
Y17147D01*
Y17140D01*
Y17133D01*
Y17127D01*
Y17120D01*
Y17113D01*
Y17106D01*
Y17099D01*
Y17093D01*
Y17086D01*
Y17079D01*
Y17072D01*
Y17066D01*
Y17059D01*
Y17052D01*
Y17045D01*
Y17039D01*
Y17032D01*
X28803D01*
Y17025D01*
Y17018D01*
Y17011D01*
Y17005D01*
Y16998D01*
X28797D01*
Y16991D01*
Y16984D01*
X28790D01*
Y16978D01*
Y16971D01*
X28776D01*
Y16964D01*
Y16957D01*
X28763D01*
Y16951D01*
X28742D01*
Y16944D01*
X28682D01*
Y16951D01*
X28661D01*
Y16957D01*
X28648D01*
Y16964D01*
X28634D01*
Y16971D01*
Y16978D01*
X28627D01*
Y16984D01*
X28621D01*
Y16991D01*
X28614D01*
Y16998D01*
Y17005D01*
X28607D01*
Y17011D01*
Y17018D01*
X28600D01*
Y17025D01*
X28594D01*
Y17032D01*
Y17039D01*
Y17045D01*
X28587D01*
Y17052D01*
Y17059D01*
Y17066D01*
Y17072D01*
Y17079D01*
X28580D01*
Y17086D01*
Y17093D01*
Y17099D01*
Y17106D01*
Y17113D01*
Y17120D01*
Y17127D01*
Y17133D01*
X28573D01*
Y17140D01*
Y17147D01*
X28560D01*
Y17140D01*
X28553D01*
Y17133D01*
X28546D01*
Y17127D01*
Y17120D01*
X28533D01*
Y17113D01*
Y17106D01*
X28519D01*
Y17099D01*
Y17093D01*
X28506D01*
Y17086D01*
Y17079D01*
X28492D01*
Y17072D01*
X28485D01*
Y17066D01*
X28479D01*
Y17059D01*
X28472D01*
Y17052D01*
X28458D01*
Y17045D01*
X28438D01*
Y17039D01*
X28424D01*
Y17032D01*
X28391D01*
Y17025D01*
X28363D01*
Y17018D01*
X28350D01*
Y17025D01*
X28309D01*
Y17032D01*
X28289D01*
Y17039D01*
X28282D01*
Y17045D01*
X28275D01*
Y17052D01*
X28262D01*
Y17059D01*
X28248D01*
Y17066D01*
X28242D01*
Y17072D01*
X28235D01*
Y17079D01*
X28228D01*
Y17086D01*
Y17093D01*
X28221D01*
Y17099D01*
Y17106D01*
X28215D01*
Y17113D01*
X28208D01*
Y17120D01*
Y17127D01*
X28201D01*
Y17133D01*
Y17140D01*
X28194D01*
Y17147D01*
Y17154D01*
Y17160D01*
X28187D01*
Y17167D01*
Y17174D01*
Y17181D01*
Y17187D01*
Y17194D01*
Y17201D01*
Y17208D01*
Y17215D01*
X28181D01*
Y17221D01*
Y17228D01*
Y17235D01*
Y17242D01*
Y17248D01*
X28174D01*
Y17255D01*
Y17262D01*
Y17269D01*
Y17275D01*
X28167D01*
Y17282D01*
Y17289D01*
Y17296D01*
Y17303D01*
Y17309D01*
Y17316D01*
Y17323D01*
Y17330D01*
Y17336D01*
Y17343D01*
Y17350D01*
Y17357D01*
Y17363D01*
Y17370D01*
Y17377D01*
Y17384D01*
Y17391D01*
Y17397D01*
Y17404D01*
Y17411D01*
X28174D01*
Y17418D01*
Y17424D01*
Y17431D01*
Y17438D01*
Y17445D01*
Y17451D01*
X28181D01*
Y17458D01*
Y17465D01*
Y17472D01*
Y17479D01*
Y17485D01*
X28187D01*
Y17492D01*
Y17499D01*
Y17506D01*
Y17512D01*
X28194D01*
Y17519D01*
Y17526D01*
Y17533D01*
Y17539D01*
Y17546D01*
X28201D01*
Y17553D01*
Y17560D01*
Y17567D01*
Y17573D01*
Y17580D01*
X28208D01*
Y17587D01*
Y17594D01*
Y17600D01*
X28215D01*
Y17607D01*
Y17614D01*
Y17621D01*
X28221D01*
Y17627D01*
Y17634D01*
Y17641D01*
Y17648D01*
X28228D01*
Y17655D01*
Y17661D01*
Y17668D01*
X28235D01*
Y17675D01*
Y17682D01*
Y17688D01*
X28242D01*
Y17695D01*
Y17702D01*
Y17709D01*
X28248D01*
Y17715D01*
Y17722D01*
X28255D01*
Y17729D01*
Y17736D01*
X28262D01*
Y17743D01*
Y17749D01*
X28269D01*
Y17756D01*
Y17763D01*
X28275D01*
Y17770D01*
Y17776D01*
X28282D01*
Y17783D01*
X28289D01*
Y17790D01*
Y17797D01*
X28296D01*
Y17803D01*
X28303D01*
Y17810D01*
X28309D01*
Y17817D01*
Y17824D01*
X28316D01*
Y17830D01*
X28323D01*
Y17837D01*
X28330D01*
Y17844D01*
Y17851D01*
X28336D01*
Y17858D01*
X28343D01*
Y17864D01*
X28350D01*
Y17871D01*
X28357D01*
Y17878D01*
X28363D01*
Y17885D01*
X28370D01*
Y17891D01*
X28377D01*
Y17898D01*
X28384D01*
Y17905D01*
X28391D01*
Y17912D01*
X28397D01*
Y17918D01*
X28404D01*
Y17925D01*
X28411D01*
Y17932D01*
X28424D01*
Y17939D01*
Y17946D01*
X28438D01*
Y17952D01*
X28458D01*
Y17959D01*
X28512D01*
Y17966D01*
X28533D01*
Y17973D01*
X28560D01*
Y17979D01*
X28566D01*
Y17986D01*
Y17993D01*
X28573D01*
Y18000D01*
Y18006D01*
X28580D01*
Y18013D01*
Y18020D01*
Y18027D01*
Y18034D01*
X28587D01*
Y18040D01*
Y18047D01*
X28594D01*
Y18054D01*
Y18061D01*
Y18067D01*
Y18074D01*
Y18081D01*
Y18088D01*
Y18094D01*
Y18101D01*
Y18108D01*
Y18115D01*
Y18122D01*
Y18128D01*
Y18135D01*
Y18142D01*
X28587D01*
Y18149D01*
Y18155D01*
Y18162D01*
Y18169D01*
X28580D01*
Y18176D01*
Y18182D01*
Y18189D01*
Y18196D01*
Y18203D01*
X28573D01*
Y18210D01*
Y18216D01*
Y18223D01*
Y18230D01*
Y18237D01*
Y18243D01*
Y18250D01*
Y18257D01*
Y18264D01*
Y18270D01*
Y18277D01*
Y18284D01*
Y18291D01*
Y18298D01*
Y18304D01*
Y18311D01*
Y18318D01*
Y18325D01*
Y18331D01*
Y18338D01*
Y18345D01*
Y18352D01*
Y18358D01*
Y18365D01*
X28580D01*
Y18372D01*
Y18379D01*
Y18386D01*
Y18392D01*
Y18399D01*
X28587D01*
Y18406D01*
Y18413D01*
Y18419D01*
Y18426D01*
X28594D01*
Y18433D01*
Y18440D01*
X28600D01*
Y18446D01*
X28614D01*
Y18453D01*
Y18460D01*
X28803D01*
Y18453D01*
D02*
G37*
G36*
X28025Y17844D02*
X28052D01*
Y17837D01*
X28072D01*
Y17830D01*
X28079D01*
Y17824D01*
X28093D01*
Y17817D01*
X28099D01*
Y17810D01*
X28106D01*
Y17803D01*
X28113D01*
Y17797D01*
Y17790D01*
X28120D01*
Y17783D01*
Y17776D01*
Y17770D01*
X28127D01*
Y17763D01*
Y17756D01*
Y17749D01*
X28133D01*
Y17743D01*
Y17736D01*
Y17729D01*
Y17722D01*
Y17715D01*
Y17709D01*
Y17702D01*
Y17695D01*
Y17688D01*
Y17682D01*
Y17675D01*
Y17668D01*
Y17661D01*
Y17655D01*
Y17648D01*
Y17641D01*
X28127D01*
Y17634D01*
Y17627D01*
Y17621D01*
Y17614D01*
Y17607D01*
X28120D01*
Y17600D01*
Y17594D01*
Y17587D01*
Y17580D01*
Y17573D01*
X28113D01*
Y17567D01*
Y17560D01*
Y17553D01*
Y17546D01*
Y17539D01*
Y17533D01*
Y17526D01*
Y17519D01*
X28106D01*
Y17512D01*
Y17506D01*
Y17499D01*
Y17492D01*
Y17485D01*
Y17479D01*
Y17472D01*
Y17465D01*
Y17458D01*
Y17451D01*
Y17445D01*
Y17438D01*
Y17431D01*
Y17424D01*
Y17418D01*
Y17411D01*
Y17404D01*
Y17397D01*
Y17391D01*
Y17384D01*
Y17377D01*
Y17370D01*
Y17363D01*
Y17357D01*
Y17350D01*
Y17343D01*
Y17336D01*
Y17330D01*
Y17323D01*
Y17316D01*
Y17309D01*
Y17303D01*
Y17296D01*
Y17289D01*
Y17282D01*
Y17275D01*
Y17269D01*
Y17262D01*
Y17255D01*
Y17248D01*
Y17242D01*
Y17235D01*
Y17228D01*
Y17221D01*
Y17215D01*
Y17208D01*
Y17201D01*
Y17194D01*
Y17187D01*
Y17181D01*
Y17174D01*
Y17167D01*
Y17160D01*
Y17154D01*
Y17147D01*
Y17140D01*
X28099D01*
Y17133D01*
Y17127D01*
Y17120D01*
Y17113D01*
Y17106D01*
Y17099D01*
Y17093D01*
Y17086D01*
Y17079D01*
Y17072D01*
Y17066D01*
Y17059D01*
Y17052D01*
Y17045D01*
Y17039D01*
Y17032D01*
Y17025D01*
Y17018D01*
Y17011D01*
X28093D01*
Y17005D01*
Y16998D01*
Y16991D01*
Y16984D01*
Y16978D01*
Y16971D01*
Y16964D01*
Y16957D01*
X28086D01*
Y16951D01*
Y16944D01*
Y16937D01*
X28079D01*
Y16930D01*
Y16923D01*
X28072D01*
Y16917D01*
X28066D01*
Y16910D01*
X28045D01*
Y16903D01*
X28018D01*
Y16896D01*
X27984D01*
Y16903D01*
X27964D01*
Y16910D01*
X27944D01*
Y16917D01*
X27937D01*
Y16923D01*
X27923D01*
Y16930D01*
X27917D01*
Y16937D01*
X27910D01*
Y16944D01*
X27903D01*
Y16951D01*
X27896D01*
Y16957D01*
X27890D01*
Y16964D01*
X27883D01*
Y16971D01*
Y16978D01*
Y16984D01*
Y16991D01*
Y16998D01*
X27876D01*
Y17005D01*
Y17011D01*
Y17018D01*
Y17025D01*
X27869D01*
Y17032D01*
Y17039D01*
Y17045D01*
Y17052D01*
Y17059D01*
Y17066D01*
Y17072D01*
Y17079D01*
X27863D01*
Y17086D01*
Y17093D01*
Y17099D01*
Y17106D01*
Y17113D01*
Y17120D01*
Y17127D01*
Y17133D01*
Y17140D01*
Y17147D01*
Y17154D01*
Y17160D01*
Y17167D01*
Y17174D01*
Y17181D01*
Y17187D01*
Y17194D01*
Y17201D01*
Y17208D01*
Y17215D01*
Y17221D01*
Y17228D01*
Y17235D01*
Y17242D01*
Y17248D01*
Y17255D01*
Y17262D01*
Y17269D01*
Y17275D01*
Y17282D01*
Y17289D01*
Y17296D01*
Y17303D01*
Y17309D01*
Y17316D01*
Y17323D01*
Y17330D01*
Y17336D01*
Y17343D01*
Y17350D01*
Y17357D01*
Y17363D01*
Y17370D01*
Y17377D01*
Y17384D01*
Y17391D01*
Y17397D01*
Y17404D01*
Y17411D01*
Y17418D01*
Y17424D01*
Y17431D01*
Y17438D01*
Y17445D01*
Y17451D01*
Y17458D01*
Y17465D01*
Y17472D01*
Y17479D01*
Y17485D01*
Y17492D01*
Y17499D01*
X27856D01*
Y17506D01*
Y17512D01*
Y17519D01*
Y17526D01*
Y17533D01*
Y17539D01*
Y17546D01*
Y17553D01*
X27849D01*
Y17560D01*
Y17567D01*
Y17573D01*
Y17580D01*
Y17587D01*
Y17594D01*
Y17600D01*
Y17607D01*
Y17614D01*
Y17621D01*
Y17627D01*
Y17634D01*
Y17641D01*
Y17648D01*
Y17655D01*
Y17661D01*
Y17668D01*
Y17675D01*
Y17682D01*
Y17688D01*
Y17695D01*
Y17702D01*
Y17709D01*
Y17715D01*
Y17722D01*
Y17729D01*
Y17736D01*
Y17743D01*
Y17749D01*
Y17756D01*
Y17763D01*
Y17770D01*
Y17776D01*
X27856D01*
Y17783D01*
Y17790D01*
Y17797D01*
Y17803D01*
Y17810D01*
X27863D01*
Y17817D01*
X27869D01*
Y17824D01*
X27876D01*
Y17830D01*
X27883D01*
Y17837D01*
X27890D01*
Y17844D01*
X27903D01*
Y17851D01*
X28025D01*
Y17844D01*
D02*
G37*
G36*
X26373Y17715D02*
X26394D01*
Y17709D01*
X26407D01*
Y17702D01*
X26414D01*
Y17695D01*
X26421D01*
Y17688D01*
X26428D01*
Y17682D01*
X26434D01*
Y17675D01*
X26441D01*
Y17668D01*
Y17661D01*
Y17655D01*
X26448D01*
Y17648D01*
Y17641D01*
Y17634D01*
X26455D01*
Y17627D01*
Y17621D01*
Y17614D01*
X26461D01*
Y17607D01*
Y17600D01*
Y17594D01*
Y17587D01*
X26455D01*
Y17580D01*
Y17573D01*
Y17567D01*
Y17560D01*
X26448D01*
Y17553D01*
Y17546D01*
X26441D01*
Y17539D01*
X26434D01*
Y17533D01*
Y17526D01*
X26428D01*
Y17519D01*
Y17512D01*
X26414D01*
Y17506D01*
X26407D01*
Y17499D01*
X26400D01*
Y17492D01*
X26387D01*
Y17485D01*
X26373D01*
Y17479D01*
X26319D01*
Y17485D01*
X26292D01*
Y17492D01*
X26279D01*
Y17499D01*
X26272D01*
Y17506D01*
X26258D01*
Y17512D01*
X26252D01*
Y17519D01*
X26245D01*
Y17526D01*
X26238D01*
Y17533D01*
X26231D01*
Y17539D01*
X26224D01*
Y17546D01*
Y17553D01*
X26218D01*
Y17560D01*
Y17567D01*
Y17573D01*
Y17580D01*
X26211D01*
Y17587D01*
Y17594D01*
Y17600D01*
Y17607D01*
Y17614D01*
Y17621D01*
Y17627D01*
X26218D01*
Y17634D01*
Y17641D01*
X26224D01*
Y17648D01*
Y17655D01*
X26238D01*
Y17661D01*
Y17668D01*
X26245D01*
Y17675D01*
X26252D01*
Y17682D01*
Y17688D01*
X26265D01*
Y17695D01*
X26279D01*
Y17702D01*
Y17709D01*
X26285D01*
Y17715D01*
X26306D01*
Y17722D01*
X26373D01*
Y17715D01*
D02*
G37*
G36*
X29270Y18243D02*
X29304D01*
Y18237D01*
X29325D01*
Y18230D01*
X29338D01*
Y18223D01*
X29352D01*
Y18216D01*
X29372D01*
Y18210D01*
X29379D01*
Y18203D01*
X29392D01*
Y18196D01*
X29399D01*
Y18189D01*
X29406D01*
Y18182D01*
X29419D01*
Y18176D01*
X29426D01*
Y18169D01*
Y18162D01*
X29433D01*
Y18155D01*
X29440D01*
Y18149D01*
X29446D01*
Y18142D01*
Y18135D01*
X29453D01*
Y18128D01*
Y18122D01*
X29460D01*
Y18115D01*
X29467D01*
Y18108D01*
Y18101D01*
Y18094D01*
X29474D01*
Y18088D01*
Y18081D01*
X29480D01*
Y18074D01*
Y18067D01*
Y18061D01*
Y18054D01*
Y18047D01*
Y18040D01*
Y18034D01*
Y18027D01*
Y18020D01*
Y18013D01*
Y18006D01*
Y18000D01*
Y17993D01*
Y17986D01*
Y17979D01*
Y17973D01*
X29474D01*
Y17966D01*
Y17959D01*
Y17952D01*
Y17946D01*
Y17939D01*
Y17932D01*
Y17925D01*
Y17918D01*
Y17912D01*
Y17905D01*
X29467D01*
Y17898D01*
Y17891D01*
Y17885D01*
Y17878D01*
Y17871D01*
Y17864D01*
Y17858D01*
X29460D01*
Y17851D01*
Y17844D01*
X29453D01*
Y17837D01*
X29446D01*
Y17830D01*
Y17824D01*
Y17817D01*
X29440D01*
Y17810D01*
X29433D01*
Y17803D01*
X29426D01*
Y17797D01*
X29419D01*
Y17790D01*
X29413D01*
Y17783D01*
Y17776D01*
X29406D01*
Y17770D01*
X29399D01*
Y17763D01*
X29392D01*
Y17756D01*
X29386D01*
Y17749D01*
X29372D01*
Y17743D01*
X29365D01*
Y17736D01*
X29352D01*
Y17729D01*
X29345D01*
Y17722D01*
X29338D01*
Y17715D01*
X29325D01*
Y17709D01*
X29311D01*
Y17702D01*
X29298D01*
Y17695D01*
X29277D01*
Y17688D01*
X29257D01*
Y17682D01*
X29237D01*
Y17675D01*
X29223D01*
Y17668D01*
X29210D01*
Y17661D01*
X29203D01*
Y17655D01*
X29189D01*
Y17648D01*
X29182D01*
Y17641D01*
X29169D01*
Y17634D01*
X29162D01*
Y17627D01*
X29149D01*
Y17621D01*
X29142D01*
Y17614D01*
Y17607D01*
X29135D01*
Y17600D01*
X29128D01*
Y17594D01*
Y17587D01*
Y17580D01*
X29122D01*
Y17573D01*
Y17567D01*
Y17560D01*
X29115D01*
Y17553D01*
Y17546D01*
Y17539D01*
Y17533D01*
Y17526D01*
Y17519D01*
X29122D01*
Y17512D01*
Y17506D01*
X29128D01*
Y17499D01*
X29135D01*
Y17492D01*
X29142D01*
Y17485D01*
X29155D01*
Y17479D01*
X29189D01*
Y17485D01*
X29203D01*
Y17492D01*
X29210D01*
Y17499D01*
X29216D01*
Y17506D01*
X29223D01*
Y17512D01*
X29230D01*
Y17519D01*
X29237D01*
Y17526D01*
X29243D01*
Y17533D01*
X29257D01*
Y17539D01*
Y17546D01*
X29264D01*
Y17553D01*
X29270D01*
Y17560D01*
X29277D01*
Y17567D01*
X29284D01*
Y17573D01*
X29291D01*
Y17580D01*
X29298D01*
Y17587D01*
Y17594D01*
X29304D01*
Y17600D01*
X29311D01*
Y17607D01*
X29318D01*
Y17614D01*
X29325D01*
Y17621D01*
X29331D01*
Y17627D01*
X29338D01*
Y17634D01*
X29352D01*
Y17641D01*
X29358D01*
Y17648D01*
X29379D01*
Y17655D01*
X29480D01*
Y17648D01*
X29487D01*
Y17641D01*
X29494D01*
Y17634D01*
X29501D01*
Y17627D01*
X29507D01*
Y17621D01*
Y17614D01*
X29514D01*
Y17607D01*
Y17600D01*
Y17594D01*
X29521D01*
Y17587D01*
Y17580D01*
Y17573D01*
Y17567D01*
Y17560D01*
Y17553D01*
Y17546D01*
Y17539D01*
Y17533D01*
X29514D01*
Y17526D01*
Y17519D01*
X29507D01*
Y17512D01*
Y17506D01*
X29501D01*
Y17499D01*
Y17492D01*
Y17485D01*
X29494D01*
Y17479D01*
Y17472D01*
X29487D01*
Y17465D01*
X29480D01*
Y17458D01*
X29474D01*
Y17451D01*
Y17445D01*
X29460D01*
Y17438D01*
Y17431D01*
X29453D01*
Y17424D01*
X29446D01*
Y17418D01*
X29440D01*
Y17411D01*
X29433D01*
Y17404D01*
Y17397D01*
X29426D01*
Y17391D01*
X29413D01*
Y17384D01*
X29406D01*
Y17377D01*
X29399D01*
Y17370D01*
X29392D01*
Y17363D01*
X29386D01*
Y17357D01*
X29379D01*
Y17350D01*
X29372D01*
Y17343D01*
X29365D01*
Y17336D01*
Y17330D01*
X29358D01*
Y17323D01*
X29345D01*
Y17316D01*
X29338D01*
Y17309D01*
X29331D01*
Y17303D01*
X29318D01*
Y17296D01*
X29304D01*
Y17289D01*
X29284D01*
Y17282D01*
X29270D01*
Y17275D01*
X29250D01*
Y17269D01*
X29210D01*
Y17262D01*
X29142D01*
Y17269D01*
X29094D01*
Y17275D01*
X29081D01*
Y17282D01*
X29067D01*
Y17289D01*
X29061D01*
Y17296D01*
X29047D01*
Y17303D01*
X29034D01*
Y17309D01*
Y17316D01*
X29027D01*
Y17323D01*
X29013D01*
Y17330D01*
X29006D01*
Y17336D01*
X29000D01*
Y17343D01*
X28993D01*
Y17350D01*
X28986D01*
Y17357D01*
X28979D01*
Y17363D01*
X28973D01*
Y17370D01*
X28966D01*
Y17377D01*
Y17384D01*
X28959D01*
Y17391D01*
X28952D01*
Y17397D01*
X28946D01*
Y17404D01*
Y17411D01*
X28932D01*
Y17418D01*
Y17424D01*
X28925D01*
Y17431D01*
X28918D01*
Y17438D01*
Y17445D01*
X28912D01*
Y17451D01*
Y17458D01*
X28905D01*
Y17465D01*
X28898D01*
Y17472D01*
Y17479D01*
Y17485D01*
X28891D01*
Y17492D01*
X28885D01*
Y17499D01*
Y17506D01*
Y17512D01*
X28878D01*
Y17519D01*
Y17526D01*
Y17533D01*
Y17539D01*
Y17546D01*
X28871D01*
Y17553D01*
Y17560D01*
Y17567D01*
Y17573D01*
Y17580D01*
Y17587D01*
Y17594D01*
Y17600D01*
Y17607D01*
Y17614D01*
Y17621D01*
Y17627D01*
Y17634D01*
Y17641D01*
Y17648D01*
Y17655D01*
Y17661D01*
Y17668D01*
Y17675D01*
Y17682D01*
Y17688D01*
Y17695D01*
Y17702D01*
Y17709D01*
Y17715D01*
Y17722D01*
Y17729D01*
Y17736D01*
Y17743D01*
X28878D01*
Y17749D01*
Y17756D01*
Y17763D01*
X28885D01*
Y17770D01*
Y17776D01*
Y17783D01*
Y17790D01*
X28891D01*
Y17797D01*
Y17803D01*
Y17810D01*
X28898D01*
Y17817D01*
Y17824D01*
Y17830D01*
Y17837D01*
X28905D01*
Y17844D01*
Y17851D01*
X28912D01*
Y17858D01*
Y17864D01*
Y17871D01*
Y17878D01*
X28918D01*
Y17885D01*
Y17891D01*
Y17898D01*
Y17905D01*
Y17912D01*
X28925D01*
Y17918D01*
Y17925D01*
X28932D01*
Y17932D01*
Y17939D01*
X28939D01*
Y17946D01*
Y17952D01*
X28946D01*
Y17959D01*
Y17966D01*
X28952D01*
Y17973D01*
X28959D01*
Y17979D01*
Y17986D01*
X28966D01*
Y17993D01*
Y18000D01*
X28973D01*
Y18006D01*
Y18013D01*
Y18020D01*
X28979D01*
Y18027D01*
Y18034D01*
X28986D01*
Y18040D01*
X28993D01*
Y18047D01*
Y18054D01*
X29000D01*
Y18061D01*
Y18067D01*
X29006D01*
Y18074D01*
X29013D01*
Y18081D01*
Y18088D01*
X29020D01*
Y18094D01*
X29027D01*
Y18101D01*
Y18108D01*
Y18115D01*
X29034D01*
Y18122D01*
Y18128D01*
X29040D01*
Y18135D01*
X29047D01*
Y18142D01*
Y18149D01*
X29054D01*
Y18155D01*
X29061D01*
Y18162D01*
X29067D01*
Y18169D01*
X29074D01*
Y18176D01*
X29081D01*
Y18182D01*
X29088D01*
Y18189D01*
X29094D01*
Y18196D01*
Y18203D01*
X29101D01*
Y18210D01*
X29108D01*
Y18216D01*
X29115D01*
Y18223D01*
X29128D01*
Y18230D01*
X29135D01*
Y18237D01*
X29149D01*
Y18243D01*
X29169D01*
Y18250D01*
X29270D01*
Y18243D01*
D02*
G37*
G36*
X26414Y17418D02*
X26428D01*
Y17411D01*
X26441D01*
Y17404D01*
X26448D01*
Y17397D01*
X26455D01*
Y17391D01*
X26461D01*
Y17384D01*
X26468D01*
Y17377D01*
X26475D01*
Y17370D01*
X26482D01*
Y17363D01*
Y17357D01*
X26488D01*
Y17350D01*
Y17343D01*
Y17336D01*
Y17330D01*
Y17323D01*
Y17316D01*
Y17309D01*
Y17303D01*
Y17296D01*
Y17289D01*
Y17282D01*
Y17275D01*
Y17269D01*
Y17262D01*
Y17255D01*
X26482D01*
Y17248D01*
Y17242D01*
Y17235D01*
Y17228D01*
Y17221D01*
Y17215D01*
Y17208D01*
Y17201D01*
Y17194D01*
Y17187D01*
Y17181D01*
Y17174D01*
Y17167D01*
Y17160D01*
Y17154D01*
Y17147D01*
Y17140D01*
Y17133D01*
X26475D01*
Y17127D01*
Y17120D01*
Y17113D01*
Y17106D01*
Y17099D01*
Y17093D01*
Y17086D01*
Y17079D01*
Y17072D01*
Y17066D01*
Y17059D01*
Y17052D01*
Y17045D01*
Y17039D01*
Y17032D01*
Y17025D01*
Y17018D01*
Y17011D01*
Y17005D01*
Y16998D01*
Y16991D01*
Y16984D01*
Y16978D01*
Y16971D01*
Y16964D01*
Y16957D01*
Y16951D01*
Y16944D01*
Y16937D01*
Y16930D01*
Y16923D01*
X26468D01*
Y16917D01*
Y16910D01*
Y16903D01*
Y16896D01*
Y16890D01*
Y16883D01*
Y16876D01*
Y16869D01*
Y16863D01*
Y16856D01*
Y16849D01*
Y16842D01*
Y16835D01*
Y16829D01*
Y16822D01*
Y16815D01*
X26461D01*
Y16808D01*
Y16802D01*
Y16795D01*
Y16788D01*
Y16781D01*
Y16775D01*
Y16768D01*
Y16761D01*
Y16754D01*
Y16747D01*
X26455D01*
Y16741D01*
Y16734D01*
Y16727D01*
Y16720D01*
Y16714D01*
Y16707D01*
Y16700D01*
X26448D01*
Y16693D01*
Y16687D01*
Y16680D01*
Y16673D01*
Y16666D01*
X26441D01*
Y16659D01*
Y16653D01*
Y16646D01*
Y16639D01*
Y16632D01*
Y16626D01*
Y16619D01*
Y16612D01*
Y16605D01*
Y16599D01*
Y16592D01*
Y16585D01*
Y16578D01*
X26434D01*
Y16572D01*
Y16565D01*
Y16558D01*
Y16551D01*
Y16544D01*
Y16538D01*
Y16531D01*
Y16524D01*
Y16517D01*
Y16511D01*
Y16504D01*
Y16497D01*
Y16490D01*
Y16484D01*
Y16477D01*
X26428D01*
Y16470D01*
Y16463D01*
X26421D01*
Y16456D01*
X26414D01*
Y16450D01*
X26400D01*
Y16443D01*
X26387D01*
Y16436D01*
X26326D01*
Y16443D01*
X26312D01*
Y16450D01*
X26285D01*
Y16456D01*
X26265D01*
Y16463D01*
Y16470D01*
X26252D01*
Y16477D01*
Y16484D01*
X26231D01*
Y16490D01*
Y16497D01*
X26224D01*
Y16504D01*
Y16511D01*
X26218D01*
Y16517D01*
Y16524D01*
Y16531D01*
Y16538D01*
Y16544D01*
Y16551D01*
Y16558D01*
Y16565D01*
Y16572D01*
Y16578D01*
Y16585D01*
Y16592D01*
Y16599D01*
Y16605D01*
Y16612D01*
Y16619D01*
X26211D01*
Y16626D01*
Y16632D01*
Y16639D01*
Y16646D01*
Y16653D01*
X26204D01*
Y16659D01*
Y16666D01*
Y16673D01*
Y16680D01*
Y16687D01*
Y16693D01*
Y16700D01*
Y16707D01*
Y16714D01*
Y16720D01*
Y16727D01*
Y16734D01*
Y16741D01*
Y16747D01*
Y16754D01*
Y16761D01*
Y16768D01*
Y16775D01*
Y16781D01*
Y16788D01*
Y16795D01*
Y16802D01*
Y16808D01*
Y16815D01*
Y16822D01*
Y16829D01*
Y16835D01*
Y16842D01*
Y16849D01*
Y16856D01*
Y16863D01*
Y16869D01*
Y16876D01*
Y16883D01*
Y16890D01*
Y16896D01*
Y16903D01*
Y16910D01*
Y16917D01*
Y16923D01*
Y16930D01*
Y16937D01*
Y16944D01*
Y16951D01*
Y16957D01*
Y16964D01*
Y16971D01*
Y16978D01*
Y16984D01*
Y16991D01*
Y16998D01*
Y17005D01*
Y17011D01*
Y17018D01*
Y17025D01*
Y17032D01*
Y17039D01*
Y17045D01*
Y17052D01*
Y17059D01*
Y17066D01*
Y17072D01*
Y17079D01*
Y17086D01*
Y17093D01*
Y17099D01*
Y17106D01*
Y17113D01*
Y17120D01*
Y17127D01*
Y17133D01*
Y17140D01*
Y17147D01*
Y17154D01*
Y17160D01*
Y17167D01*
Y17174D01*
Y17181D01*
Y17187D01*
Y17194D01*
Y17201D01*
Y17208D01*
Y17215D01*
Y17221D01*
Y17228D01*
Y17235D01*
Y17242D01*
Y17248D01*
Y17255D01*
Y17262D01*
Y17269D01*
Y17275D01*
Y17282D01*
Y17289D01*
Y17296D01*
Y17303D01*
Y17309D01*
Y17316D01*
Y17323D01*
Y17330D01*
Y17336D01*
Y17343D01*
Y17350D01*
X26211D01*
Y17357D01*
Y17363D01*
X26218D01*
Y17370D01*
Y17377D01*
Y17384D01*
X26224D01*
Y17391D01*
X26231D01*
Y17397D01*
X26238D01*
Y17404D01*
X26245D01*
Y17411D01*
X26265D01*
Y17418D01*
X26285D01*
Y17424D01*
X26414D01*
Y17418D01*
D02*
G37*
G36*
X18116Y8423D02*
Y8798D01*
X18490D01*
X18116Y8423D01*
D02*
G37*
G36*
X27720Y17891D02*
Y17885D01*
X27727D01*
Y17878D01*
X27734D01*
Y17871D01*
X27741D01*
Y17864D01*
X27747D01*
Y17858D01*
X27754D01*
Y17851D01*
X27761D01*
Y17844D01*
Y17837D01*
X27768D01*
Y17830D01*
Y17824D01*
X27775D01*
Y17817D01*
Y17810D01*
X27781D01*
Y17803D01*
Y17797D01*
Y17790D01*
X27788D01*
Y17783D01*
Y17776D01*
Y17770D01*
Y17763D01*
Y17756D01*
Y17749D01*
Y17743D01*
Y17736D01*
Y17729D01*
Y17722D01*
Y17715D01*
X27781D01*
Y17709D01*
Y17702D01*
Y17695D01*
Y17688D01*
X27775D01*
Y17682D01*
X27768D01*
Y17675D01*
X27761D01*
Y17668D01*
Y17661D01*
X27754D01*
Y17655D01*
Y17648D01*
X27741D01*
Y17641D01*
X27734D01*
Y17634D01*
X27727D01*
Y17627D01*
X27720D01*
Y17621D01*
Y17614D01*
X27714D01*
Y17607D01*
X27707D01*
Y17600D01*
Y17594D01*
X27693D01*
Y17587D01*
X27687D01*
Y17580D01*
X27680D01*
Y17573D01*
X27666D01*
Y17567D01*
Y17560D01*
X27653D01*
Y17553D01*
X27646D01*
Y17546D01*
X27632D01*
Y17539D01*
X27626D01*
Y17533D01*
X27619D01*
Y17526D01*
X27605D01*
Y17519D01*
Y17512D01*
X27599D01*
Y17506D01*
X27585D01*
Y17499D01*
X27578D01*
Y17492D01*
Y17485D01*
X27571D01*
Y17479D01*
X27565D01*
Y17472D01*
Y17465D01*
Y17458D01*
X27558D01*
Y17451D01*
Y17445D01*
Y17438D01*
Y17431D01*
Y17424D01*
X27565D01*
Y17418D01*
Y17411D01*
X27571D01*
Y17404D01*
Y17397D01*
Y17391D01*
X27578D01*
Y17384D01*
X27592D01*
Y17377D01*
X27605D01*
Y17370D01*
Y17363D01*
X27619D01*
Y17357D01*
X27626D01*
Y17350D01*
X27632D01*
Y17343D01*
X27646D01*
Y17336D01*
Y17330D01*
X27653D01*
Y17323D01*
X27659D01*
Y17316D01*
X27666D01*
Y17309D01*
X27673D01*
Y17303D01*
X27680D01*
Y17296D01*
X27687D01*
Y17289D01*
X27693D01*
Y17282D01*
X27700D01*
Y17275D01*
X27707D01*
Y17269D01*
X27714D01*
Y17262D01*
X27720D01*
Y17255D01*
X27727D01*
Y17248D01*
Y17242D01*
X27734D01*
Y17235D01*
X27741D01*
Y17228D01*
X27747D01*
Y17221D01*
X27754D01*
Y17215D01*
Y17208D01*
X27761D01*
Y17201D01*
Y17194D01*
X27768D01*
Y17187D01*
Y17181D01*
X27775D01*
Y17174D01*
Y17167D01*
X27781D01*
Y17160D01*
Y17154D01*
X27788D01*
Y17147D01*
Y17140D01*
Y17133D01*
Y17127D01*
Y17120D01*
Y17113D01*
Y17106D01*
Y17099D01*
Y17093D01*
Y17086D01*
Y17079D01*
Y17072D01*
Y17066D01*
Y17059D01*
Y17052D01*
Y17045D01*
Y17039D01*
Y17032D01*
Y17025D01*
Y17018D01*
Y17011D01*
Y17005D01*
Y16998D01*
X27781D01*
Y16991D01*
Y16984D01*
Y16978D01*
X27775D01*
Y16971D01*
Y16964D01*
X27768D01*
Y16957D01*
Y16951D01*
X27761D01*
Y16944D01*
Y16937D01*
X27754D01*
Y16930D01*
Y16923D01*
X27747D01*
Y16917D01*
X27741D01*
Y16910D01*
X27734D01*
Y16903D01*
Y16896D01*
X27727D01*
Y16890D01*
Y16883D01*
X27720D01*
Y16876D01*
X27714D01*
Y16869D01*
X27707D01*
Y16863D01*
X27700D01*
Y16856D01*
X27693D01*
Y16849D01*
X27687D01*
Y16842D01*
Y16835D01*
X27680D01*
Y16829D01*
X27673D01*
Y16822D01*
X27666D01*
Y16815D01*
X27659D01*
Y16808D01*
Y16802D01*
X27653D01*
Y16795D01*
X27646D01*
Y16788D01*
Y16781D01*
X27639D01*
Y16775D01*
X27626D01*
Y16768D01*
X27619D01*
Y16761D01*
Y16754D01*
X27605D01*
Y16747D01*
X27599D01*
Y16741D01*
X27592D01*
Y16734D01*
Y16727D01*
X27585D01*
Y16720D01*
X27571D01*
Y16714D01*
Y16707D01*
X27565D01*
Y16700D01*
X27551D01*
Y16693D01*
X27544D01*
Y16687D01*
X27531D01*
Y16680D01*
X27517D01*
Y16673D01*
X27511D01*
Y16666D01*
X27423D01*
Y16673D01*
X27409D01*
Y16680D01*
X27389D01*
Y16687D01*
X27382D01*
Y16693D01*
X27368D01*
Y16700D01*
X27362D01*
Y16707D01*
X27355D01*
Y16714D01*
X27341D01*
Y16720D01*
X27335D01*
Y16727D01*
X27328D01*
Y16734D01*
Y16741D01*
X27321D01*
Y16747D01*
Y16754D01*
Y16761D01*
Y16768D01*
Y16775D01*
X27314D01*
Y16781D01*
Y16788D01*
X27321D01*
Y16795D01*
Y16802D01*
Y16808D01*
Y16815D01*
X27328D01*
Y16822D01*
X27335D01*
Y16829D01*
X27341D01*
Y16835D01*
X27348D01*
Y16842D01*
Y16849D01*
X27355D01*
Y16856D01*
X27362D01*
Y16863D01*
X27368D01*
Y16869D01*
X27375D01*
Y16876D01*
Y16883D01*
X27382D01*
Y16890D01*
X27389D01*
Y16896D01*
X27395D01*
Y16903D01*
X27402D01*
Y16910D01*
X27409D01*
Y16917D01*
X27416D01*
Y16923D01*
Y16930D01*
X27423D01*
Y16937D01*
Y16944D01*
X27429D01*
Y16951D01*
X27436D01*
Y16957D01*
X27443D01*
Y16964D01*
X27450D01*
Y16971D01*
X27456D01*
Y16978D01*
X27463D01*
Y16984D01*
X27470D01*
Y16991D01*
Y16998D01*
X27477D01*
Y17005D01*
X27483D01*
Y17011D01*
X27490D01*
Y17018D01*
X27497D01*
Y17025D01*
Y17032D01*
X27511D01*
Y17039D01*
Y17045D01*
X27524D01*
Y17052D01*
Y17059D01*
X27531D01*
Y17066D01*
Y17072D01*
Y17079D01*
X27538D01*
Y17086D01*
Y17093D01*
X27544D01*
Y17099D01*
Y17106D01*
Y17113D01*
Y17120D01*
X27538D01*
Y17127D01*
Y17133D01*
Y17140D01*
X27531D01*
Y17147D01*
Y17154D01*
Y17160D01*
X27524D01*
Y17167D01*
Y17174D01*
Y17181D01*
X27517D01*
Y17187D01*
Y17194D01*
X27511D01*
Y17201D01*
X27504D01*
Y17208D01*
X27497D01*
Y17215D01*
X27490D01*
Y17221D01*
X27483D01*
Y17228D01*
X27477D01*
Y17235D01*
X27470D01*
Y17242D01*
X27463D01*
Y17248D01*
X27456D01*
Y17255D01*
X27450D01*
Y17262D01*
X27436D01*
Y17269D01*
X27429D01*
Y17275D01*
X27416D01*
Y17282D01*
X27409D01*
Y17289D01*
X27402D01*
Y17296D01*
X27389D01*
Y17303D01*
X27375D01*
Y17309D01*
X27362D01*
Y17316D01*
X27355D01*
Y17323D01*
X27348D01*
Y17330D01*
Y17336D01*
X27341D01*
Y17343D01*
X27335D01*
Y17350D01*
X27328D01*
Y17357D01*
Y17363D01*
X27321D01*
Y17370D01*
X27314D01*
Y17377D01*
X27307D01*
Y17384D01*
Y17391D01*
X27301D01*
Y17397D01*
Y17404D01*
Y17411D01*
Y17418D01*
Y17424D01*
Y17431D01*
X27294D01*
Y17438D01*
Y17445D01*
Y17451D01*
Y17458D01*
Y17465D01*
Y17472D01*
Y17479D01*
Y17485D01*
Y17492D01*
Y17499D01*
X27301D01*
Y17506D01*
Y17512D01*
Y17519D01*
Y17526D01*
Y17533D01*
X27307D01*
Y17539D01*
Y17546D01*
X27314D01*
Y17553D01*
Y17560D01*
Y17567D01*
Y17573D01*
X27321D01*
Y17580D01*
Y17587D01*
Y17594D01*
X27328D01*
Y17600D01*
X27335D01*
Y17607D01*
Y17614D01*
Y17621D01*
X27341D01*
Y17627D01*
Y17634D01*
X27348D01*
Y17641D01*
Y17648D01*
X27355D01*
Y17655D01*
X27362D01*
Y17661D01*
X27368D01*
Y17668D01*
X27375D01*
Y17675D01*
Y17682D01*
X27382D01*
Y17688D01*
X27389D01*
Y17695D01*
Y17702D01*
X27395D01*
Y17709D01*
X27409D01*
Y17715D01*
X27416D01*
Y17722D01*
X27423D01*
Y17729D01*
Y17736D01*
X27429D01*
Y17743D01*
X27436D01*
Y17749D01*
Y17756D01*
X27443D01*
Y17763D01*
X27450D01*
Y17770D01*
X27463D01*
Y17776D01*
X27470D01*
Y17783D01*
X27477D01*
Y17790D01*
X27490D01*
Y17797D01*
X27497D01*
Y17803D01*
Y17810D01*
X27511D01*
Y17817D01*
X27524D01*
Y17824D01*
X27531D01*
Y17830D01*
X27544D01*
Y17837D01*
X27558D01*
Y17844D01*
X27565D01*
Y17851D01*
X27571D01*
Y17858D01*
X27578D01*
Y17864D01*
X27592D01*
Y17871D01*
X27605D01*
Y17878D01*
Y17885D01*
X27619D01*
Y17891D01*
X27639D01*
Y17898D01*
X27720D01*
Y17891D01*
D02*
G37*
G36*
X26725Y17634D02*
X26752D01*
Y17627D01*
X26773D01*
Y17621D01*
X26780D01*
Y17614D01*
X26793D01*
Y17607D01*
X26800D01*
Y17600D01*
X26807D01*
Y17594D01*
X26813D01*
Y17587D01*
X26820D01*
Y17580D01*
X26827D01*
Y17573D01*
X26834D01*
Y17567D01*
X26840D01*
Y17560D01*
X26847D01*
Y17553D01*
X26854D01*
Y17546D01*
X26861D01*
Y17539D01*
X26868D01*
Y17533D01*
X26874D01*
Y17526D01*
Y17519D01*
X26881D01*
Y17512D01*
X26888D01*
Y17506D01*
X26901D01*
Y17512D01*
Y17519D01*
X26908D01*
Y17526D01*
Y17533D01*
Y17539D01*
X26915D01*
Y17546D01*
X26922D01*
Y17553D01*
Y17560D01*
X26928D01*
Y17567D01*
X26935D01*
Y17573D01*
X26942D01*
Y17580D01*
X27098D01*
Y17573D01*
X27111D01*
Y17567D01*
X27125D01*
Y17560D01*
X27138D01*
Y17553D01*
X27152D01*
Y17546D01*
X27159D01*
Y17539D01*
X27165D01*
Y17533D01*
Y17526D01*
X27172D01*
Y17519D01*
X27179D01*
Y17512D01*
Y17506D01*
X27186D01*
Y17499D01*
Y17492D01*
X27192D01*
Y17485D01*
Y17479D01*
Y17472D01*
Y17465D01*
Y17458D01*
Y17451D01*
X27199D01*
Y17445D01*
Y17438D01*
Y17431D01*
Y17424D01*
X27206D01*
Y17418D01*
Y17411D01*
Y17404D01*
Y17397D01*
X27213D01*
Y17391D01*
Y17384D01*
Y17377D01*
Y17370D01*
Y17363D01*
Y17357D01*
Y17350D01*
Y17343D01*
Y17336D01*
X27220D01*
Y17330D01*
Y17323D01*
Y17316D01*
Y17309D01*
Y17303D01*
Y17296D01*
Y17289D01*
Y17282D01*
Y17275D01*
Y17269D01*
Y17262D01*
Y17255D01*
X27226D01*
Y17248D01*
Y17242D01*
Y17235D01*
Y17228D01*
Y17221D01*
Y17215D01*
Y17208D01*
Y17201D01*
Y17194D01*
Y17187D01*
Y17181D01*
Y17174D01*
Y17167D01*
X27233D01*
Y17160D01*
Y17154D01*
Y17147D01*
Y17140D01*
Y17133D01*
Y17127D01*
X27240D01*
Y17120D01*
Y17113D01*
Y17106D01*
Y17099D01*
Y17093D01*
Y17086D01*
Y17079D01*
X27247D01*
Y17072D01*
Y17066D01*
Y17059D01*
Y17052D01*
Y17045D01*
Y17039D01*
Y17032D01*
Y17025D01*
Y17018D01*
Y17011D01*
X27253D01*
Y17005D01*
Y16998D01*
Y16991D01*
Y16984D01*
Y16978D01*
Y16971D01*
Y16964D01*
Y16957D01*
X27260D01*
Y16951D01*
Y16944D01*
Y16937D01*
Y16930D01*
Y16923D01*
Y16917D01*
Y16910D01*
Y16903D01*
X27267D01*
Y16896D01*
Y16890D01*
Y16883D01*
Y16876D01*
Y16869D01*
X27274D01*
Y16863D01*
Y16856D01*
Y16849D01*
X27280D01*
Y16842D01*
Y16835D01*
X27287D01*
Y16829D01*
Y16822D01*
Y16815D01*
Y16808D01*
Y16802D01*
X27294D01*
Y16795D01*
Y16788D01*
Y16781D01*
Y16775D01*
Y16768D01*
Y16761D01*
X27301D01*
Y16754D01*
Y16747D01*
Y16741D01*
Y16734D01*
Y16727D01*
Y16720D01*
X27307D01*
Y16714D01*
Y16707D01*
Y16700D01*
Y16693D01*
X27314D01*
Y16687D01*
Y16680D01*
Y16673D01*
Y16666D01*
Y16659D01*
Y16653D01*
Y16646D01*
Y16639D01*
Y16632D01*
Y16626D01*
Y16619D01*
Y16612D01*
X27307D01*
Y16605D01*
Y16599D01*
Y16592D01*
Y16585D01*
X27301D01*
Y16578D01*
X27294D01*
Y16572D01*
Y16565D01*
X27287D01*
Y16558D01*
X27267D01*
Y16551D01*
X27253D01*
Y16544D01*
X27159D01*
Y16551D01*
X27145D01*
Y16558D01*
X27132D01*
Y16565D01*
Y16572D01*
X27118D01*
Y16578D01*
Y16585D01*
X27104D01*
Y16592D01*
Y16599D01*
Y16605D01*
Y16612D01*
X27098D01*
Y16619D01*
X27091D01*
Y16626D01*
Y16632D01*
Y16639D01*
Y16646D01*
X27084D01*
Y16653D01*
Y16659D01*
X27077D01*
Y16666D01*
Y16673D01*
X27071D01*
Y16680D01*
Y16687D01*
X27064D01*
Y16693D01*
Y16700D01*
Y16707D01*
Y16714D01*
X27057D01*
Y16720D01*
Y16727D01*
Y16734D01*
Y16741D01*
Y16747D01*
Y16754D01*
X27050D01*
Y16761D01*
Y16768D01*
Y16775D01*
Y16781D01*
X27044D01*
Y16788D01*
Y16795D01*
Y16802D01*
Y16808D01*
Y16815D01*
Y16822D01*
Y16829D01*
Y16835D01*
Y16842D01*
Y16849D01*
Y16856D01*
Y16863D01*
Y16869D01*
Y16876D01*
X27037D01*
Y16883D01*
Y16890D01*
Y16896D01*
Y16903D01*
Y16910D01*
Y16917D01*
Y16923D01*
Y16930D01*
Y16937D01*
X27030D01*
Y16944D01*
Y16951D01*
Y16957D01*
Y16964D01*
X27023D01*
Y16971D01*
Y16978D01*
Y16984D01*
Y16991D01*
Y16998D01*
Y17005D01*
Y17011D01*
Y17018D01*
X27016D01*
Y17025D01*
Y17032D01*
Y17039D01*
X27010D01*
Y17045D01*
Y17052D01*
Y17059D01*
Y17066D01*
X27003D01*
Y17072D01*
Y17079D01*
Y17086D01*
X26996D01*
Y17093D01*
Y17099D01*
Y17106D01*
Y17113D01*
Y17120D01*
Y17127D01*
Y17133D01*
X26989D01*
Y17140D01*
Y17147D01*
Y17154D01*
Y17160D01*
Y17167D01*
X26983D01*
Y17174D01*
Y17181D01*
Y17187D01*
Y17194D01*
X26976D01*
Y17201D01*
Y17208D01*
X26969D01*
Y17215D01*
Y17221D01*
Y17228D01*
X26962D01*
Y17235D01*
Y17242D01*
X26956D01*
Y17248D01*
Y17255D01*
X26949D01*
Y17262D01*
X26942D01*
Y17269D01*
X26935D01*
Y17275D01*
X26915D01*
Y17269D01*
X26908D01*
Y17262D01*
X26901D01*
Y17255D01*
Y17248D01*
X26895D01*
Y17242D01*
X26888D01*
Y17235D01*
Y17228D01*
X26881D01*
Y17221D01*
Y17215D01*
X26874D01*
Y17208D01*
Y17201D01*
Y17194D01*
Y17187D01*
X26868D01*
Y17181D01*
Y17174D01*
Y17167D01*
X26861D01*
Y17160D01*
Y17154D01*
X26854D01*
Y17147D01*
Y17140D01*
Y17133D01*
X26847D01*
Y17127D01*
Y17120D01*
X26840D01*
Y17113D01*
Y17106D01*
Y17099D01*
X26834D01*
Y17093D01*
Y17086D01*
Y17079D01*
Y17072D01*
X26827D01*
Y17066D01*
Y17059D01*
Y17052D01*
Y17045D01*
X26820D01*
Y17039D01*
Y17032D01*
X26813D01*
Y17025D01*
Y17018D01*
Y17011D01*
Y17005D01*
X26807D01*
Y16998D01*
Y16991D01*
Y16984D01*
Y16978D01*
Y16971D01*
Y16964D01*
Y16957D01*
Y16951D01*
Y16944D01*
Y16937D01*
Y16930D01*
X26800D01*
Y16923D01*
Y16917D01*
Y16910D01*
Y16903D01*
Y16896D01*
Y16890D01*
Y16883D01*
Y16876D01*
Y16869D01*
Y16863D01*
Y16856D01*
Y16849D01*
Y16842D01*
Y16835D01*
Y16829D01*
Y16822D01*
Y16815D01*
Y16808D01*
Y16802D01*
Y16795D01*
Y16788D01*
Y16781D01*
Y16775D01*
Y16768D01*
Y16761D01*
Y16754D01*
Y16747D01*
Y16741D01*
Y16734D01*
Y16727D01*
Y16720D01*
Y16714D01*
Y16707D01*
Y16700D01*
X26793D01*
Y16693D01*
Y16687D01*
Y16680D01*
X26786D01*
Y16673D01*
Y16666D01*
X26780D01*
Y16659D01*
Y16653D01*
X26773D01*
Y16646D01*
X26766D01*
Y16639D01*
Y16632D01*
X26752D01*
Y16626D01*
X26739D01*
Y16619D01*
X26658D01*
Y16626D01*
X26637D01*
Y16632D01*
X26624D01*
Y16639D01*
X26617D01*
Y16646D01*
X26610D01*
Y16653D01*
X26604D01*
Y16659D01*
Y16666D01*
X26597D01*
Y16673D01*
X26590D01*
Y16680D01*
Y16687D01*
Y16693D01*
X26583D01*
Y16700D01*
Y16707D01*
Y16714D01*
Y16720D01*
X26576D01*
Y16727D01*
Y16734D01*
Y16741D01*
X26570D01*
Y16747D01*
Y16754D01*
Y16761D01*
Y16768D01*
Y16775D01*
Y16781D01*
Y16788D01*
Y16795D01*
Y16802D01*
Y16808D01*
Y16815D01*
Y16822D01*
Y16829D01*
Y16835D01*
Y16842D01*
Y16849D01*
Y16856D01*
Y16863D01*
Y16869D01*
Y16876D01*
Y16883D01*
Y16890D01*
Y16896D01*
Y16903D01*
Y16910D01*
Y16917D01*
Y16923D01*
Y16930D01*
Y16937D01*
Y16944D01*
Y16951D01*
Y16957D01*
Y16964D01*
Y16971D01*
Y16978D01*
Y16984D01*
Y16991D01*
Y16998D01*
Y17005D01*
Y17011D01*
Y17018D01*
Y17025D01*
Y17032D01*
Y17039D01*
Y17045D01*
Y17052D01*
Y17059D01*
Y17066D01*
Y17072D01*
Y17079D01*
Y17086D01*
Y17093D01*
Y17099D01*
Y17106D01*
Y17113D01*
Y17120D01*
Y17127D01*
Y17133D01*
Y17140D01*
Y17147D01*
Y17154D01*
Y17160D01*
Y17167D01*
Y17174D01*
Y17181D01*
Y17187D01*
Y17194D01*
Y17201D01*
Y17208D01*
Y17215D01*
Y17221D01*
Y17228D01*
Y17235D01*
Y17242D01*
Y17248D01*
Y17255D01*
Y17262D01*
Y17269D01*
Y17275D01*
Y17282D01*
Y17289D01*
Y17296D01*
Y17303D01*
Y17309D01*
Y17316D01*
Y17323D01*
Y17330D01*
Y17336D01*
Y17343D01*
Y17350D01*
Y17357D01*
Y17363D01*
Y17370D01*
Y17377D01*
Y17384D01*
Y17391D01*
Y17397D01*
Y17404D01*
Y17411D01*
Y17418D01*
Y17424D01*
Y17431D01*
Y17438D01*
Y17445D01*
Y17451D01*
Y17458D01*
Y17465D01*
Y17472D01*
Y17479D01*
Y17485D01*
Y17492D01*
Y17499D01*
Y17506D01*
Y17512D01*
Y17519D01*
Y17526D01*
Y17533D01*
Y17539D01*
Y17546D01*
Y17553D01*
Y17560D01*
Y17567D01*
Y17573D01*
Y17580D01*
X26576D01*
Y17587D01*
Y17594D01*
X26583D01*
Y17600D01*
Y17607D01*
X26597D01*
Y17614D01*
Y17621D01*
X26604D01*
Y17627D01*
X26617D01*
Y17634D01*
X26631D01*
Y17641D01*
X26725D01*
Y17634D01*
D02*
G37*
G36*
X25744Y19137D02*
X25764D01*
Y19130D01*
X25778D01*
Y19123D01*
X25791D01*
Y19117D01*
X25805D01*
Y19110D01*
X25818D01*
Y19103D01*
X25825D01*
Y19096D01*
X25832D01*
Y19089D01*
X25839D01*
Y19083D01*
X25845D01*
Y19076D01*
Y19069D01*
X25852D01*
Y19062D01*
Y19056D01*
Y19049D01*
Y19042D01*
X25859D01*
Y19035D01*
Y19029D01*
Y19022D01*
Y19015D01*
Y19008D01*
Y19001D01*
Y18995D01*
Y18988D01*
Y18981D01*
Y18974D01*
Y18968D01*
Y18961D01*
Y18954D01*
Y18947D01*
Y18941D01*
Y18934D01*
Y18927D01*
Y18920D01*
Y18914D01*
Y18907D01*
Y18900D01*
Y18893D01*
Y18886D01*
Y18880D01*
Y18873D01*
X25852D01*
Y18866D01*
Y18859D01*
Y18853D01*
Y18846D01*
Y18839D01*
Y18832D01*
Y18826D01*
Y18819D01*
X25845D01*
Y18812D01*
Y18805D01*
Y18798D01*
Y18792D01*
Y18785D01*
Y18778D01*
Y18771D01*
Y18765D01*
X25839D01*
Y18758D01*
Y18751D01*
Y18744D01*
Y18738D01*
Y18731D01*
Y18724D01*
X25832D01*
Y18717D01*
Y18710D01*
Y18704D01*
Y18697D01*
Y18690D01*
Y18683D01*
Y18677D01*
Y18670D01*
Y18663D01*
Y18656D01*
X25825D01*
Y18650D01*
Y18643D01*
Y18636D01*
Y18629D01*
Y18622D01*
Y18616D01*
Y18609D01*
Y18602D01*
Y18595D01*
Y18589D01*
Y18582D01*
Y18575D01*
Y18568D01*
Y18562D01*
Y18555D01*
Y18548D01*
Y18541D01*
Y18534D01*
Y18528D01*
Y18521D01*
Y18514D01*
Y18507D01*
Y18501D01*
X25818D01*
Y18494D01*
Y18487D01*
Y18480D01*
Y18474D01*
Y18467D01*
Y18460D01*
Y18453D01*
Y18446D01*
Y18440D01*
Y18433D01*
Y18426D01*
X25812D01*
Y18419D01*
Y18413D01*
Y18406D01*
Y18399D01*
Y18392D01*
Y18386D01*
Y18379D01*
X25805D01*
Y18372D01*
Y18365D01*
Y18358D01*
Y18352D01*
Y18345D01*
Y18338D01*
X25798D01*
Y18331D01*
Y18325D01*
Y18318D01*
Y18311D01*
Y18304D01*
Y18298D01*
Y18291D01*
Y18284D01*
Y18277D01*
Y18270D01*
X25791D01*
Y18264D01*
Y18257D01*
Y18250D01*
Y18243D01*
Y18237D01*
Y18230D01*
Y18223D01*
Y18216D01*
Y18210D01*
Y18203D01*
Y18196D01*
Y18189D01*
Y18182D01*
Y18176D01*
Y18169D01*
Y18162D01*
Y18155D01*
Y18149D01*
Y18142D01*
Y18135D01*
Y18128D01*
Y18122D01*
Y18115D01*
Y18108D01*
Y18101D01*
Y18094D01*
Y18088D01*
Y18081D01*
Y18074D01*
Y18067D01*
Y18061D01*
Y18054D01*
Y18047D01*
Y18040D01*
Y18034D01*
Y18027D01*
Y18020D01*
Y18013D01*
Y18006D01*
Y18000D01*
Y17993D01*
Y17986D01*
Y17979D01*
Y17973D01*
Y17966D01*
Y17959D01*
Y17952D01*
Y17946D01*
Y17939D01*
Y17932D01*
Y17925D01*
Y17918D01*
Y17912D01*
Y17905D01*
Y17898D01*
Y17891D01*
Y17885D01*
Y17878D01*
Y17871D01*
Y17864D01*
Y17858D01*
Y17851D01*
Y17844D01*
Y17837D01*
Y17830D01*
Y17824D01*
Y17817D01*
Y17810D01*
Y17803D01*
Y17797D01*
Y17790D01*
Y17783D01*
Y17776D01*
Y17770D01*
Y17763D01*
Y17756D01*
Y17749D01*
Y17743D01*
Y17736D01*
Y17729D01*
Y17722D01*
Y17715D01*
Y17709D01*
X25785D01*
Y17702D01*
Y17695D01*
Y17688D01*
Y17682D01*
Y17675D01*
Y17668D01*
Y17661D01*
Y17655D01*
Y17648D01*
Y17641D01*
Y17634D01*
Y17627D01*
Y17621D01*
X25778D01*
Y17614D01*
Y17607D01*
X25764D01*
Y17600D01*
Y17594D01*
X25757D01*
Y17587D01*
X25744D01*
Y17580D01*
X25730D01*
Y17573D01*
X25642D01*
Y17580D01*
X25636D01*
Y17587D01*
X25622D01*
Y17594D01*
X25615D01*
Y17600D01*
X25602D01*
Y17607D01*
Y17614D01*
X25595D01*
Y17621D01*
Y17627D01*
X25588D01*
Y17634D01*
Y17641D01*
X25581D01*
Y17648D01*
Y17655D01*
Y17661D01*
Y17668D01*
Y17675D01*
Y17682D01*
Y17688D01*
Y17695D01*
Y17702D01*
Y17709D01*
Y17715D01*
Y17722D01*
Y17729D01*
Y17736D01*
Y17743D01*
Y17749D01*
Y17756D01*
Y17763D01*
Y17770D01*
Y17776D01*
Y17783D01*
Y17790D01*
X25575D01*
Y17797D01*
Y17803D01*
Y17810D01*
Y17817D01*
Y17824D01*
Y17830D01*
Y17837D01*
Y17844D01*
Y17851D01*
Y17858D01*
Y17864D01*
Y17871D01*
Y17878D01*
Y17885D01*
Y17891D01*
Y17898D01*
Y17905D01*
Y17912D01*
Y17918D01*
Y17925D01*
Y17932D01*
Y17939D01*
X25568D01*
Y17946D01*
Y17952D01*
Y17959D01*
Y17966D01*
Y17973D01*
Y17979D01*
Y17986D01*
Y17993D01*
Y18000D01*
Y18006D01*
Y18013D01*
Y18020D01*
Y18027D01*
Y18034D01*
X25561D01*
Y18040D01*
Y18047D01*
Y18054D01*
Y18061D01*
Y18067D01*
Y18074D01*
Y18081D01*
Y18088D01*
Y18094D01*
Y18101D01*
Y18108D01*
Y18115D01*
Y18122D01*
Y18128D01*
Y18135D01*
Y18142D01*
Y18149D01*
Y18155D01*
Y18162D01*
Y18169D01*
Y18176D01*
Y18182D01*
Y18189D01*
Y18196D01*
Y18203D01*
Y18210D01*
Y18216D01*
Y18223D01*
Y18230D01*
Y18237D01*
Y18243D01*
Y18250D01*
Y18257D01*
Y18264D01*
Y18270D01*
Y18277D01*
Y18284D01*
Y18291D01*
Y18298D01*
Y18304D01*
Y18311D01*
Y18318D01*
Y18325D01*
Y18331D01*
Y18338D01*
Y18345D01*
Y18352D01*
Y18358D01*
Y18365D01*
Y18372D01*
Y18379D01*
Y18386D01*
Y18392D01*
Y18399D01*
Y18406D01*
Y18413D01*
Y18419D01*
Y18426D01*
Y18433D01*
Y18440D01*
Y18446D01*
Y18453D01*
Y18460D01*
Y18467D01*
Y18474D01*
Y18480D01*
Y18487D01*
Y18494D01*
Y18501D01*
Y18507D01*
Y18514D01*
Y18521D01*
Y18528D01*
Y18534D01*
Y18541D01*
Y18548D01*
Y18555D01*
Y18562D01*
Y18568D01*
Y18575D01*
Y18582D01*
Y18589D01*
Y18595D01*
Y18602D01*
Y18609D01*
Y18616D01*
Y18622D01*
Y18629D01*
Y18636D01*
Y18643D01*
Y18650D01*
Y18656D01*
Y18663D01*
Y18670D01*
X25554D01*
Y18677D01*
Y18683D01*
Y18690D01*
Y18697D01*
Y18704D01*
Y18710D01*
Y18717D01*
Y18724D01*
Y18731D01*
Y18738D01*
Y18744D01*
Y18751D01*
Y18758D01*
Y18765D01*
Y18771D01*
Y18778D01*
X25548D01*
Y18785D01*
Y18792D01*
Y18798D01*
Y18805D01*
Y18812D01*
Y18819D01*
Y18826D01*
Y18832D01*
Y18839D01*
Y18846D01*
Y18853D01*
Y18859D01*
Y18866D01*
Y18873D01*
Y18880D01*
Y18886D01*
Y18893D01*
Y18900D01*
Y18907D01*
Y18914D01*
Y18920D01*
Y18927D01*
Y18934D01*
Y18941D01*
Y18947D01*
Y18954D01*
Y18961D01*
Y18968D01*
Y18974D01*
Y18981D01*
Y18988D01*
Y18995D01*
Y19001D01*
Y19008D01*
Y19015D01*
Y19022D01*
Y19029D01*
Y19035D01*
Y19042D01*
Y19049D01*
Y19056D01*
Y19062D01*
Y19069D01*
Y19076D01*
Y19083D01*
X25554D01*
Y19089D01*
Y19096D01*
X25561D01*
Y19103D01*
X25568D01*
Y19110D01*
X25575D01*
Y19117D01*
X25588D01*
Y19123D01*
X25595D01*
Y19130D01*
X25622D01*
Y19137D01*
X25642D01*
Y19144D01*
X25744D01*
Y19137D01*
D02*
G37*
G36*
X26157Y19035D02*
X26170D01*
Y19029D01*
X26177D01*
Y19022D01*
X26184D01*
Y19015D01*
X26197D01*
Y19008D01*
X26204D01*
Y19001D01*
Y18995D01*
X26211D01*
Y18988D01*
Y18981D01*
Y18974D01*
X26218D01*
Y18968D01*
Y18961D01*
Y18954D01*
X26224D01*
Y18947D01*
Y18941D01*
Y18934D01*
X26231D01*
Y18927D01*
Y18920D01*
Y18914D01*
Y18907D01*
X26224D01*
Y18900D01*
Y18893D01*
Y18886D01*
Y18880D01*
X26218D01*
Y18873D01*
Y18866D01*
X26211D01*
Y18859D01*
X26204D01*
Y18853D01*
Y18846D01*
X26197D01*
Y18839D01*
Y18832D01*
X26184D01*
Y18826D01*
X26177D01*
Y18819D01*
X26170D01*
Y18812D01*
X26157D01*
Y18805D01*
X26143D01*
Y18798D01*
X26089D01*
Y18805D01*
X26062D01*
Y18812D01*
X26049D01*
Y18819D01*
X26042D01*
Y18826D01*
X26028D01*
Y18832D01*
X26021D01*
Y18839D01*
Y18846D01*
X26008D01*
Y18853D01*
X26001D01*
Y18859D01*
X25994D01*
Y18866D01*
Y18873D01*
X25988D01*
Y18880D01*
Y18886D01*
Y18893D01*
Y18900D01*
X25981D01*
Y18907D01*
Y18914D01*
Y18920D01*
Y18927D01*
Y18934D01*
Y18941D01*
Y18947D01*
X25988D01*
Y18954D01*
Y18961D01*
X25994D01*
Y18968D01*
Y18974D01*
X26008D01*
Y18981D01*
Y18988D01*
X26015D01*
Y18995D01*
X26021D01*
Y19001D01*
Y19008D01*
X26035D01*
Y19015D01*
X26042D01*
Y19022D01*
Y19029D01*
X26055D01*
Y19035D01*
X26076D01*
Y19042D01*
X26157D01*
Y19035D01*
D02*
G37*
G36*
X27720Y19374D02*
X27734D01*
Y19367D01*
X27747D01*
Y19360D01*
X27754D01*
Y19353D01*
X27761D01*
Y19347D01*
X27768D01*
Y19340D01*
X27775D01*
Y19333D01*
X27781D01*
Y19326D01*
Y19320D01*
X27788D01*
Y19313D01*
Y19306D01*
X27795D01*
Y19299D01*
Y19293D01*
Y19286D01*
Y19279D01*
Y19272D01*
X27802D01*
Y19265D01*
Y19259D01*
Y19252D01*
Y19245D01*
Y19238D01*
Y19232D01*
Y19225D01*
Y19218D01*
Y19211D01*
Y19205D01*
Y19198D01*
X27808D01*
Y19191D01*
Y19184D01*
Y19177D01*
Y19171D01*
Y19164D01*
Y19157D01*
Y19150D01*
Y19144D01*
Y19137D01*
Y19130D01*
Y19123D01*
Y19117D01*
Y19110D01*
Y19103D01*
Y19096D01*
Y19089D01*
Y19083D01*
Y19076D01*
Y19069D01*
Y19062D01*
Y19056D01*
Y19049D01*
Y19042D01*
Y19035D01*
Y19029D01*
Y19022D01*
Y19015D01*
Y19008D01*
Y19001D01*
Y18995D01*
Y18988D01*
Y18981D01*
Y18974D01*
Y18968D01*
Y18961D01*
Y18954D01*
Y18947D01*
Y18941D01*
Y18934D01*
Y18927D01*
Y18920D01*
Y18914D01*
Y18907D01*
Y18900D01*
Y18893D01*
Y18886D01*
Y18880D01*
Y18873D01*
Y18866D01*
Y18859D01*
Y18853D01*
Y18846D01*
Y18839D01*
Y18832D01*
Y18826D01*
Y18819D01*
Y18812D01*
Y18805D01*
Y18798D01*
X27815D01*
Y18792D01*
Y18785D01*
Y18778D01*
Y18771D01*
Y18765D01*
Y18758D01*
Y18751D01*
Y18744D01*
Y18738D01*
Y18731D01*
Y18724D01*
Y18717D01*
Y18710D01*
Y18704D01*
Y18697D01*
Y18690D01*
Y18683D01*
Y18677D01*
Y18670D01*
Y18663D01*
Y18656D01*
Y18650D01*
Y18643D01*
Y18636D01*
Y18629D01*
Y18622D01*
Y18616D01*
Y18609D01*
Y18602D01*
Y18595D01*
Y18589D01*
Y18582D01*
Y18575D01*
Y18568D01*
Y18562D01*
Y18555D01*
Y18548D01*
Y18541D01*
Y18534D01*
Y18528D01*
Y18521D01*
Y18514D01*
Y18507D01*
Y18501D01*
Y18494D01*
Y18487D01*
Y18480D01*
Y18474D01*
Y18467D01*
Y18460D01*
Y18453D01*
Y18446D01*
Y18440D01*
Y18433D01*
Y18426D01*
Y18419D01*
Y18413D01*
Y18406D01*
Y18399D01*
Y18392D01*
Y18386D01*
Y18379D01*
Y18372D01*
Y18365D01*
Y18358D01*
X27808D01*
Y18352D01*
Y18345D01*
X27802D01*
Y18338D01*
Y18331D01*
X27788D01*
Y18325D01*
Y18318D01*
X27781D01*
Y18311D01*
X27768D01*
Y18304D01*
X27632D01*
Y18311D01*
X27612D01*
Y18318D01*
X27605D01*
Y18325D01*
X27592D01*
Y18331D01*
X27585D01*
Y18338D01*
X27578D01*
Y18345D01*
X27571D01*
Y18352D01*
X27565D01*
Y18358D01*
X27558D01*
Y18365D01*
X27551D01*
Y18372D01*
X27544D01*
Y18379D01*
X27538D01*
Y18386D01*
X27531D01*
Y18392D01*
X27524D01*
Y18399D01*
X27517D01*
Y18406D01*
X27511D01*
Y18413D01*
Y18419D01*
X27504D01*
Y18426D01*
X27497D01*
Y18433D01*
X27483D01*
Y18426D01*
Y18419D01*
X27477D01*
Y18413D01*
Y18406D01*
Y18399D01*
X27470D01*
Y18392D01*
X27463D01*
Y18386D01*
Y18379D01*
X27456D01*
Y18372D01*
Y18365D01*
X27450D01*
Y18358D01*
X27443D01*
Y18352D01*
X27287D01*
Y18358D01*
X27274D01*
Y18365D01*
X27260D01*
Y18372D01*
X27247D01*
Y18379D01*
X27233D01*
Y18386D01*
X27226D01*
Y18392D01*
X27220D01*
Y18399D01*
Y18406D01*
X27213D01*
Y18413D01*
X27206D01*
Y18419D01*
X27199D01*
Y18426D01*
X27192D01*
Y18433D01*
X27186D01*
Y18440D01*
X27179D01*
Y18446D01*
X27172D01*
Y18453D01*
Y18460D01*
X27165D01*
Y18467D01*
Y18474D01*
X27159D01*
Y18480D01*
Y18487D01*
X27152D01*
Y18494D01*
Y18501D01*
X27145D01*
Y18507D01*
Y18514D01*
X27138D01*
Y18521D01*
Y18528D01*
Y18534D01*
Y18541D01*
Y18548D01*
Y18555D01*
Y18562D01*
Y18568D01*
Y18575D01*
Y18582D01*
Y18589D01*
Y18595D01*
Y18602D01*
Y18609D01*
Y18616D01*
Y18622D01*
Y18629D01*
Y18636D01*
Y18643D01*
Y18650D01*
Y18656D01*
Y18663D01*
Y18670D01*
Y18677D01*
Y18683D01*
Y18690D01*
Y18697D01*
Y18704D01*
Y18710D01*
Y18717D01*
Y18724D01*
Y18731D01*
Y18738D01*
Y18744D01*
Y18751D01*
Y18758D01*
Y18765D01*
Y18771D01*
Y18778D01*
Y18785D01*
Y18792D01*
Y18798D01*
Y18805D01*
Y18812D01*
Y18819D01*
Y18826D01*
Y18832D01*
Y18839D01*
Y18846D01*
Y18853D01*
Y18859D01*
Y18866D01*
Y18873D01*
Y18880D01*
Y18886D01*
Y18893D01*
Y18900D01*
X27145D01*
Y18907D01*
Y18914D01*
Y18920D01*
Y18927D01*
Y18934D01*
Y18941D01*
Y18947D01*
Y18954D01*
Y18961D01*
Y18968D01*
Y18974D01*
Y18981D01*
Y18988D01*
Y18995D01*
Y19001D01*
Y19008D01*
Y19015D01*
Y19022D01*
Y19029D01*
Y19035D01*
Y19042D01*
Y19049D01*
Y19056D01*
Y19062D01*
Y19069D01*
Y19076D01*
Y19083D01*
Y19089D01*
Y19096D01*
Y19103D01*
Y19110D01*
Y19117D01*
Y19123D01*
Y19130D01*
Y19137D01*
Y19144D01*
Y19150D01*
Y19157D01*
Y19164D01*
Y19171D01*
Y19177D01*
Y19184D01*
Y19191D01*
Y19198D01*
Y19205D01*
Y19211D01*
Y19218D01*
Y19225D01*
Y19232D01*
Y19238D01*
Y19245D01*
Y19252D01*
Y19259D01*
Y19265D01*
Y19272D01*
X27152D01*
Y19279D01*
Y19286D01*
X27159D01*
Y19293D01*
Y19299D01*
X27165D01*
Y19306D01*
X27172D01*
Y19313D01*
X27179D01*
Y19320D01*
X27186D01*
Y19326D01*
X27192D01*
Y19333D01*
X27206D01*
Y19340D01*
X27220D01*
Y19347D01*
X27280D01*
Y19340D01*
X27294D01*
Y19333D01*
X27328D01*
Y19326D01*
X27348D01*
Y19320D01*
X27355D01*
Y19313D01*
X27362D01*
Y19306D01*
X27375D01*
Y19299D01*
Y19293D01*
X27382D01*
Y19286D01*
Y19279D01*
X27389D01*
Y19272D01*
Y19265D01*
Y19259D01*
Y19252D01*
Y19245D01*
Y19238D01*
Y19232D01*
Y19225D01*
Y19218D01*
Y19211D01*
Y19205D01*
Y19198D01*
Y19191D01*
Y19184D01*
Y19177D01*
Y19171D01*
Y19164D01*
Y19157D01*
Y19150D01*
Y19144D01*
Y19137D01*
Y19130D01*
Y19123D01*
Y19117D01*
Y19110D01*
Y19103D01*
Y19096D01*
Y19089D01*
Y19083D01*
Y19076D01*
Y19069D01*
Y19062D01*
Y19056D01*
Y19049D01*
Y19042D01*
Y19035D01*
Y19029D01*
Y19022D01*
Y19015D01*
Y19008D01*
Y19001D01*
Y18995D01*
Y18988D01*
Y18981D01*
Y18974D01*
Y18968D01*
Y18961D01*
Y18954D01*
Y18947D01*
Y18941D01*
Y18934D01*
Y18927D01*
Y18920D01*
Y18914D01*
Y18907D01*
Y18900D01*
Y18893D01*
Y18886D01*
Y18880D01*
Y18873D01*
Y18866D01*
Y18859D01*
Y18853D01*
Y18846D01*
Y18839D01*
Y18832D01*
Y18826D01*
Y18819D01*
Y18812D01*
Y18805D01*
Y18798D01*
Y18792D01*
Y18785D01*
Y18778D01*
Y18771D01*
Y18765D01*
Y18758D01*
Y18751D01*
Y18744D01*
Y18738D01*
Y18731D01*
Y18724D01*
Y18717D01*
Y18710D01*
Y18704D01*
Y18697D01*
Y18690D01*
Y18683D01*
Y18677D01*
X27395D01*
Y18670D01*
Y18663D01*
X27402D01*
Y18656D01*
Y18650D01*
Y18643D01*
Y18636D01*
Y18629D01*
X27409D01*
Y18622D01*
X27436D01*
Y18629D01*
X27443D01*
Y18636D01*
X27450D01*
Y18643D01*
X27463D01*
Y18650D01*
X27470D01*
Y18656D01*
X27477D01*
Y18663D01*
Y18670D01*
X27483D01*
Y18677D01*
Y18683D01*
X27490D01*
Y18690D01*
Y18697D01*
Y18704D01*
X27497D01*
Y18710D01*
Y18717D01*
Y18724D01*
X27504D01*
Y18731D01*
Y18738D01*
X27511D01*
Y18744D01*
Y18751D01*
Y18758D01*
X27517D01*
Y18765D01*
Y18771D01*
Y18778D01*
X27524D01*
Y18785D01*
Y18792D01*
Y18798D01*
Y18805D01*
X27531D01*
Y18812D01*
Y18819D01*
X27538D01*
Y18826D01*
Y18832D01*
Y18839D01*
X27544D01*
Y18846D01*
Y18853D01*
Y18859D01*
Y18866D01*
X27551D01*
Y18873D01*
Y18880D01*
Y18886D01*
Y18893D01*
X27558D01*
Y18900D01*
Y18907D01*
X27565D01*
Y18914D01*
Y18920D01*
Y18927D01*
Y18934D01*
Y18941D01*
Y18947D01*
Y18954D01*
X27571D01*
Y18961D01*
Y18968D01*
Y18974D01*
Y18981D01*
Y18988D01*
Y18995D01*
Y19001D01*
Y19008D01*
X27578D01*
Y19015D01*
Y19022D01*
Y19029D01*
Y19035D01*
Y19042D01*
Y19049D01*
Y19056D01*
Y19062D01*
Y19069D01*
Y19076D01*
Y19083D01*
Y19089D01*
Y19096D01*
Y19103D01*
Y19110D01*
Y19117D01*
Y19123D01*
Y19130D01*
Y19137D01*
Y19144D01*
Y19150D01*
Y19157D01*
Y19164D01*
Y19171D01*
Y19177D01*
Y19184D01*
Y19191D01*
Y19198D01*
Y19205D01*
Y19211D01*
Y19218D01*
Y19225D01*
Y19232D01*
Y19238D01*
Y19245D01*
Y19252D01*
Y19259D01*
Y19265D01*
Y19272D01*
X27585D01*
Y19279D01*
Y19286D01*
Y19293D01*
Y19299D01*
Y19306D01*
X27592D01*
Y19313D01*
Y19320D01*
X27599D01*
Y19326D01*
Y19333D01*
X27605D01*
Y19340D01*
X27612D01*
Y19347D01*
X27619D01*
Y19353D01*
X27626D01*
Y19360D01*
X27632D01*
Y19367D01*
X27646D01*
Y19374D01*
X27659D01*
Y19381D01*
X27720D01*
Y19374D01*
D02*
G37*
G36*
X28336Y20491D02*
X28458D01*
Y20484D01*
X28539D01*
Y20477D01*
X28634D01*
Y20470D01*
X28702D01*
Y20464D01*
X28763D01*
Y20457D01*
X28824D01*
Y20450D01*
X28871D01*
Y20443D01*
X28912D01*
Y20436D01*
X28946D01*
Y20430D01*
X28993D01*
Y20423D01*
X29027D01*
Y20416D01*
X29061D01*
Y20409D01*
X29101D01*
Y20403D01*
X29128D01*
Y20396D01*
X29169D01*
Y20389D01*
X29196D01*
Y20382D01*
X29210D01*
Y20376D01*
X29237D01*
Y20369D01*
X29257D01*
Y20362D01*
X29284D01*
Y20355D01*
X29311D01*
Y20348D01*
X29331D01*
Y20342D01*
X29345D01*
Y20335D01*
X29372D01*
Y20328D01*
X29386D01*
Y20321D01*
X29399D01*
Y20315D01*
X29413D01*
Y20308D01*
X29426D01*
Y20301D01*
Y20294D01*
Y20288D01*
Y20281D01*
X29419D01*
Y20274D01*
Y20267D01*
Y20261D01*
Y20254D01*
Y20247D01*
X29413D01*
Y20240D01*
Y20233D01*
Y20227D01*
Y20220D01*
X29406D01*
Y20213D01*
Y20206D01*
Y20200D01*
Y20193D01*
X29399D01*
Y20186D01*
Y20179D01*
Y20173D01*
Y20166D01*
Y20159D01*
X29392D01*
Y20152D01*
Y20145D01*
Y20139D01*
Y20132D01*
Y20125D01*
X29386D01*
Y20118D01*
Y20112D01*
Y20105D01*
Y20098D01*
Y20091D01*
X29379D01*
Y20085D01*
Y20078D01*
Y20071D01*
Y20064D01*
Y20057D01*
X29372D01*
Y20051D01*
Y20044D01*
Y20037D01*
Y20030D01*
Y20024D01*
Y20017D01*
Y20010D01*
X29365D01*
Y20003D01*
Y19997D01*
Y19990D01*
Y19983D01*
Y19976D01*
X29358D01*
Y19969D01*
Y19963D01*
Y19956D01*
Y19949D01*
Y19942D01*
Y19936D01*
X29352D01*
Y19929D01*
Y19922D01*
Y19915D01*
Y19909D01*
Y19902D01*
Y19895D01*
X29345D01*
Y19888D01*
Y19881D01*
Y19875D01*
Y19868D01*
Y19861D01*
Y19854D01*
X29338D01*
Y19848D01*
Y19841D01*
X29331D01*
Y19834D01*
Y19827D01*
Y19821D01*
Y19814D01*
X29325D01*
Y19807D01*
Y19800D01*
X29318D01*
Y19793D01*
X29284D01*
Y19800D01*
X29270D01*
Y19807D01*
X29257D01*
Y19814D01*
X29243D01*
Y19821D01*
X29223D01*
Y19827D01*
X29210D01*
Y19834D01*
X29196D01*
Y19841D01*
X29182D01*
Y19848D01*
X29162D01*
Y19854D01*
X29149D01*
Y19861D01*
X29128D01*
Y19868D01*
X29115D01*
Y19875D01*
X29101D01*
Y19881D01*
X29081D01*
Y19888D01*
X29067D01*
Y19895D01*
X29047D01*
Y19902D01*
X29034D01*
Y19909D01*
X29006D01*
Y19915D01*
X28993D01*
Y19922D01*
X28973D01*
Y19929D01*
X28952D01*
Y19936D01*
X28932D01*
Y19942D01*
X28912D01*
Y19949D01*
X28885D01*
Y19956D01*
X28858D01*
Y19963D01*
X28830D01*
Y19969D01*
X28810D01*
Y19976D01*
X28783D01*
Y19983D01*
X28756D01*
Y19990D01*
X28736D01*
Y19997D01*
X28709D01*
Y20003D01*
X28668D01*
Y20010D01*
X28648D01*
Y20017D01*
X28614D01*
Y20024D01*
X28566D01*
Y20030D01*
X28526D01*
Y20037D01*
X28479D01*
Y20044D01*
X28397D01*
Y20051D01*
X28330D01*
Y20057D01*
X28120D01*
Y20051D01*
X28052D01*
Y20044D01*
X27991D01*
Y20037D01*
X27930D01*
Y20030D01*
X27835D01*
Y20024D01*
X27714D01*
Y20017D01*
X27619D01*
Y20010D01*
X27565D01*
Y20003D01*
X27531D01*
Y19997D01*
X27504D01*
Y19990D01*
X27483D01*
Y19983D01*
X27436D01*
Y19976D01*
X27409D01*
Y19969D01*
X27362D01*
Y19963D01*
X27341D01*
Y19956D01*
X27307D01*
Y19949D01*
X27260D01*
Y19942D01*
X27240D01*
Y19936D01*
X27199D01*
Y19929D01*
X27172D01*
Y19922D01*
X27159D01*
Y19915D01*
X27138D01*
Y19909D01*
X27111D01*
Y19902D01*
X27091D01*
Y19895D01*
X27071D01*
Y19888D01*
X27050D01*
Y19881D01*
X27023D01*
Y19875D01*
X26996D01*
Y19868D01*
X26962D01*
Y19861D01*
X26928D01*
Y19854D01*
X26901D01*
Y19848D01*
X26874D01*
Y19841D01*
X26854D01*
Y19834D01*
X26840D01*
Y19827D01*
X26827D01*
Y19821D01*
X26813D01*
Y19814D01*
X26800D01*
Y19807D01*
X26780D01*
Y19800D01*
X26759D01*
Y19793D01*
X26739D01*
Y19787D01*
X26719D01*
Y19780D01*
X26705D01*
Y19773D01*
X26685D01*
Y19766D01*
X26678D01*
Y19760D01*
X26658D01*
Y19753D01*
X26637D01*
Y19746D01*
X26617D01*
Y19739D01*
X26590D01*
Y19733D01*
X26576D01*
Y19726D01*
X26556D01*
Y19719D01*
X26543D01*
Y19712D01*
X26522D01*
Y19705D01*
X26502D01*
Y19699D01*
X26482D01*
Y19692D01*
X26468D01*
Y19685D01*
X26461D01*
Y19678D01*
X26441D01*
Y19672D01*
X26428D01*
Y19665D01*
X26407D01*
Y19658D01*
X26380D01*
Y19651D01*
X26367D01*
Y19645D01*
X26353D01*
Y19638D01*
X26340D01*
Y19631D01*
X26326D01*
Y19624D01*
X26306D01*
Y19617D01*
X26285D01*
Y19611D01*
X26279D01*
Y19604D01*
X26265D01*
Y19597D01*
X26245D01*
Y19590D01*
X26238D01*
Y19584D01*
X26224D01*
Y19577D01*
X26211D01*
Y19570D01*
X26204D01*
Y19563D01*
X26184D01*
Y19557D01*
X26170D01*
Y19550D01*
X26164D01*
Y19543D01*
X26150D01*
Y19536D01*
X26123D01*
Y19529D01*
X26109D01*
Y19523D01*
X26103D01*
Y19516D01*
X26089D01*
Y19509D01*
X26076D01*
Y19502D01*
X26055D01*
Y19496D01*
X26049D01*
Y19489D01*
X26028D01*
Y19482D01*
X26015D01*
Y19475D01*
X26008D01*
Y19469D01*
X25994D01*
Y19462D01*
X25974D01*
Y19455D01*
X25961D01*
Y19448D01*
X25947D01*
Y19441D01*
X25940D01*
Y19435D01*
X25933D01*
Y19428D01*
X25920D01*
Y19421D01*
X25913D01*
Y19414D01*
X25900D01*
Y19408D01*
X25886D01*
Y19401D01*
X25879D01*
Y19394D01*
X25873D01*
Y19387D01*
X25866D01*
Y19381D01*
X25859D01*
Y19374D01*
X25845D01*
Y19367D01*
X25839D01*
Y19360D01*
X25832D01*
Y19353D01*
X25818D01*
Y19347D01*
X25805D01*
Y19340D01*
X25798D01*
Y19333D01*
X25785D01*
Y19326D01*
X25771D01*
Y19320D01*
X25764D01*
Y19313D01*
X25751D01*
Y19306D01*
X25744D01*
Y19299D01*
X25737D01*
Y19293D01*
X25730D01*
Y19286D01*
X25717D01*
Y19279D01*
X25710D01*
Y19272D01*
X25697D01*
Y19265D01*
X25690D01*
Y19259D01*
X25683D01*
Y19252D01*
X25669D01*
Y19245D01*
X25663D01*
Y19238D01*
X25656D01*
Y19232D01*
X25649D01*
Y19225D01*
X25642D01*
Y19218D01*
X25636D01*
Y19211D01*
X25622D01*
Y19205D01*
X25615D01*
Y19198D01*
X25609D01*
Y19191D01*
X25602D01*
Y19184D01*
X25595D01*
Y19177D01*
X25581D01*
Y19171D01*
X25575D01*
Y19164D01*
X25568D01*
Y19157D01*
X25554D01*
Y19150D01*
X25548D01*
Y19144D01*
X25541D01*
Y19137D01*
X25534D01*
Y19130D01*
Y19123D01*
X25527D01*
Y19117D01*
X25521D01*
Y19110D01*
X25514D01*
Y19103D01*
X25507D01*
Y19096D01*
X25500D01*
Y19089D01*
X25493D01*
Y19083D01*
X25487D01*
Y19076D01*
X25480D01*
Y19069D01*
X25473D01*
Y19062D01*
X25466D01*
Y19056D01*
X25460D01*
Y19049D01*
X25453D01*
Y19042D01*
X25446D01*
Y19035D01*
X25439D01*
Y19029D01*
X25433D01*
Y19022D01*
X25426D01*
Y19015D01*
X25419D01*
Y19008D01*
X25412D01*
Y19001D01*
X25405D01*
Y18995D01*
X25399D01*
Y18988D01*
X25392D01*
Y18981D01*
X25385D01*
Y18974D01*
X25378D01*
Y18968D01*
X25372D01*
Y18961D01*
X25365D01*
Y18954D01*
X25358D01*
Y18947D01*
X25351D01*
Y18941D01*
X25345D01*
Y18934D01*
X25338D01*
Y18927D01*
X25331D01*
Y18920D01*
X25324D01*
Y18914D01*
X25317D01*
Y18907D01*
Y18900D01*
X25311D01*
Y18893D01*
X25304D01*
Y18886D01*
Y18880D01*
X25297D01*
Y18873D01*
X25290D01*
Y18866D01*
Y18859D01*
X25284D01*
Y18853D01*
X25277D01*
Y18846D01*
Y18839D01*
X25270D01*
Y18832D01*
X25263D01*
Y18826D01*
X25257D01*
Y18819D01*
Y18812D01*
X25250D01*
Y18805D01*
X25243D01*
Y18798D01*
X25236D01*
Y18792D01*
Y18785D01*
X25229D01*
Y18778D01*
Y18771D01*
X25223D01*
Y18765D01*
X25216D01*
Y18758D01*
Y18751D01*
X25209D01*
Y18744D01*
X25202D01*
Y18738D01*
Y18731D01*
X25196D01*
Y18724D01*
X25189D01*
Y18717D01*
X25182D01*
Y18710D01*
Y18704D01*
X25175D01*
Y18697D01*
Y18690D01*
X25162D01*
Y18683D01*
Y18677D01*
X25155D01*
Y18670D01*
Y18663D01*
X25148D01*
Y18656D01*
X25141D01*
Y18650D01*
Y18643D01*
X25135D01*
Y18636D01*
Y18629D01*
X25128D01*
Y18622D01*
X25121D01*
Y18616D01*
Y18609D01*
X25114D01*
Y18602D01*
X25108D01*
Y18595D01*
Y18589D01*
X25101D01*
Y18582D01*
X25094D01*
Y18575D01*
Y18568D01*
X25087D01*
Y18562D01*
Y18555D01*
X25081D01*
Y18548D01*
Y18541D01*
X25074D01*
Y18534D01*
Y18528D01*
X25067D01*
Y18521D01*
Y18514D01*
X25060D01*
Y18507D01*
Y18501D01*
X25053D01*
Y18494D01*
Y18487D01*
X25047D01*
Y18480D01*
Y18474D01*
X25040D01*
Y18467D01*
Y18460D01*
X25033D01*
Y18453D01*
Y18446D01*
Y18440D01*
Y18433D01*
X25026D01*
Y18426D01*
Y18419D01*
Y18413D01*
X25020D01*
Y18406D01*
Y18399D01*
Y18392D01*
X25013D01*
Y18386D01*
X25006D01*
Y18379D01*
Y18372D01*
Y18365D01*
X24999D01*
Y18358D01*
Y18352D01*
X24993D01*
Y18345D01*
Y18338D01*
X24986D01*
Y18331D01*
Y18325D01*
X24979D01*
Y18318D01*
Y18311D01*
Y18304D01*
X24972D01*
Y18298D01*
Y18291D01*
X24965D01*
Y18284D01*
Y18277D01*
X24959D01*
Y18270D01*
Y18264D01*
X24952D01*
Y18257D01*
Y18250D01*
Y18243D01*
X24945D01*
Y18237D01*
Y18230D01*
Y18223D01*
Y18216D01*
X24938D01*
Y18210D01*
Y18203D01*
X24932D01*
Y18196D01*
Y18189D01*
X24925D01*
Y18182D01*
Y18176D01*
Y18169D01*
Y18162D01*
X24918D01*
Y18155D01*
Y18149D01*
Y18142D01*
Y18135D01*
X24911D01*
Y18128D01*
Y18122D01*
Y18115D01*
Y18108D01*
Y18101D01*
X24905D01*
Y18094D01*
Y18088D01*
Y18081D01*
Y18074D01*
Y18067D01*
X24898D01*
Y18061D01*
Y18054D01*
Y18047D01*
Y18040D01*
Y18034D01*
Y18027D01*
Y18020D01*
X24891D01*
Y18013D01*
Y18006D01*
Y18000D01*
Y17993D01*
Y17986D01*
Y17979D01*
Y17973D01*
X24884D01*
Y17966D01*
Y17959D01*
Y17952D01*
Y17946D01*
Y17939D01*
X24877D01*
Y17932D01*
Y17925D01*
Y17918D01*
Y17912D01*
Y17905D01*
Y17898D01*
X24871D01*
Y17891D01*
Y17885D01*
Y17878D01*
Y17871D01*
Y17864D01*
Y17858D01*
Y17851D01*
X24864D01*
Y17844D01*
Y17837D01*
Y17830D01*
Y17824D01*
Y17817D01*
Y17810D01*
Y17803D01*
Y17797D01*
Y17790D01*
Y17783D01*
Y17776D01*
Y17770D01*
Y17763D01*
Y17756D01*
Y17749D01*
Y17743D01*
Y17736D01*
Y17729D01*
Y17722D01*
X24871D01*
Y17715D01*
Y17709D01*
Y17702D01*
Y17695D01*
Y17688D01*
Y17682D01*
Y17675D01*
Y17668D01*
Y17661D01*
Y17655D01*
Y17648D01*
Y17641D01*
X24877D01*
Y17634D01*
Y17627D01*
Y17621D01*
Y17614D01*
X24884D01*
Y17607D01*
Y17600D01*
Y17594D01*
Y17587D01*
Y17580D01*
Y17573D01*
Y17567D01*
X24891D01*
Y17560D01*
Y17553D01*
Y17546D01*
Y17539D01*
Y17533D01*
Y17526D01*
Y17519D01*
Y17512D01*
Y17506D01*
X24898D01*
Y17499D01*
Y17492D01*
Y17485D01*
Y17479D01*
Y17472D01*
X24905D01*
Y17465D01*
Y17458D01*
Y17451D01*
Y17445D01*
Y17438D01*
X24911D01*
Y17431D01*
Y17424D01*
Y17418D01*
X24918D01*
Y17411D01*
Y17404D01*
Y17397D01*
X24925D01*
Y17391D01*
Y17384D01*
Y17377D01*
X24932D01*
Y17370D01*
Y17363D01*
Y17357D01*
X24938D01*
Y17350D01*
Y17343D01*
Y17336D01*
Y17330D01*
X24945D01*
Y17323D01*
Y17316D01*
Y17309D01*
X24952D01*
Y17303D01*
Y17296D01*
Y17289D01*
Y17282D01*
X24959D01*
Y17275D01*
Y17269D01*
X24965D01*
Y17262D01*
Y17255D01*
Y17248D01*
X24972D01*
Y17242D01*
Y17235D01*
X24979D01*
Y17228D01*
Y17221D01*
X24986D01*
Y17215D01*
Y17208D01*
X24993D01*
Y17201D01*
Y17194D01*
Y17187D01*
X24999D01*
Y17181D01*
Y17174D01*
X25006D01*
Y17167D01*
Y17160D01*
X25013D01*
Y17154D01*
X25020D01*
Y17147D01*
Y17140D01*
X25026D01*
Y17133D01*
Y17127D01*
X25033D01*
Y17120D01*
Y17113D01*
X25040D01*
Y17106D01*
Y17099D01*
X25047D01*
Y17093D01*
Y17086D01*
X25053D01*
Y17079D01*
Y17072D01*
X25060D01*
Y17066D01*
X25067D01*
Y17059D01*
Y17052D01*
X25074D01*
Y17045D01*
Y17039D01*
X25081D01*
Y17032D01*
X25087D01*
Y17025D01*
X25094D01*
Y17018D01*
Y17011D01*
X25101D01*
Y17005D01*
Y16998D01*
X25108D01*
Y16991D01*
X25114D01*
Y16984D01*
Y16978D01*
X25121D01*
Y16971D01*
X25128D01*
Y16964D01*
X25135D01*
Y16957D01*
Y16951D01*
X25141D01*
Y16944D01*
Y16937D01*
X25148D01*
Y16930D01*
X25155D01*
Y16923D01*
X25162D01*
Y16917D01*
X25169D01*
Y16910D01*
Y16903D01*
X25175D01*
Y16896D01*
X25182D01*
Y16890D01*
Y16883D01*
X25189D01*
Y16876D01*
X25196D01*
Y16869D01*
X25202D01*
Y16863D01*
X25209D01*
Y16856D01*
X25216D01*
Y16849D01*
Y16842D01*
X25223D01*
Y16835D01*
X25229D01*
Y16829D01*
Y16822D01*
X25236D01*
Y16815D01*
X25243D01*
Y16808D01*
X25250D01*
Y16802D01*
X25257D01*
Y16795D01*
X25263D01*
Y16788D01*
X25270D01*
Y16781D01*
X25277D01*
Y16775D01*
X25284D01*
Y16768D01*
X25290D01*
Y16761D01*
X25297D01*
Y16754D01*
X25304D01*
Y16747D01*
X25311D01*
Y16741D01*
X25317D01*
Y16734D01*
X25324D01*
Y16727D01*
X25338D01*
Y16720D01*
X25345D01*
Y16714D01*
X25351D01*
Y16707D01*
X25358D01*
Y16700D01*
X25365D01*
Y16693D01*
X25372D01*
Y16687D01*
X25378D01*
Y16680D01*
X25392D01*
Y16673D01*
X25399D01*
Y16666D01*
X25405D01*
Y16659D01*
X25419D01*
Y16653D01*
X25426D01*
Y16646D01*
X25433D01*
Y16639D01*
X25439D01*
Y16632D01*
X25453D01*
Y16626D01*
X25460D01*
Y16619D01*
X25466D01*
Y16612D01*
X25473D01*
Y16605D01*
X25480D01*
Y16599D01*
X25493D01*
Y16592D01*
X25500D01*
Y16585D01*
X25514D01*
Y16578D01*
X25521D01*
Y16572D01*
X25527D01*
Y16565D01*
X25541D01*
Y16558D01*
X25548D01*
Y16551D01*
X25554D01*
Y16544D01*
X25561D01*
Y16538D01*
X25568D01*
Y16531D01*
X25575D01*
Y16524D01*
X25581D01*
Y16517D01*
X25588D01*
Y16511D01*
X25595D01*
Y16504D01*
X25609D01*
Y16497D01*
X25615D01*
Y16490D01*
X25622D01*
Y16484D01*
X25636D01*
Y16477D01*
X25649D01*
Y16470D01*
X25656D01*
Y16463D01*
X25663D01*
Y16456D01*
X25669D01*
Y16450D01*
X25676D01*
Y16443D01*
X25690D01*
Y16436D01*
X25697D01*
Y16429D01*
X25710D01*
Y16423D01*
X25717D01*
Y16416D01*
X25730D01*
Y16409D01*
X25737D01*
Y16402D01*
X25744D01*
Y16396D01*
X25757D01*
Y16389D01*
X25764D01*
Y16382D01*
X25771D01*
Y16375D01*
X25785D01*
Y16368D01*
X25798D01*
Y16362D01*
X25812D01*
Y16355D01*
X25825D01*
Y16348D01*
X25839D01*
Y16341D01*
X25859D01*
Y16335D01*
X25873D01*
Y16328D01*
X25886D01*
Y16321D01*
X25893D01*
Y16314D01*
X25913D01*
Y16308D01*
X25927D01*
Y16301D01*
X25947D01*
Y16294D01*
X25961D01*
Y16287D01*
X25974D01*
Y16280D01*
X25994D01*
Y16274D01*
X26015D01*
Y16267D01*
X26035D01*
Y16260D01*
X26049D01*
Y16253D01*
X26069D01*
Y16247D01*
X26082D01*
Y16240D01*
X26096D01*
Y16233D01*
X26116D01*
Y16226D01*
X26136D01*
Y16220D01*
X26157D01*
Y16213D01*
X26177D01*
Y16206D01*
X26197D01*
Y16199D01*
X26211D01*
Y16192D01*
X26238D01*
Y16186D01*
X26265D01*
Y16179D01*
X26285D01*
Y16172D01*
X26299D01*
Y16165D01*
X26312D01*
Y16159D01*
X26340D01*
Y16152D01*
X26353D01*
Y16145D01*
X26373D01*
Y16138D01*
X26400D01*
Y16132D01*
X26421D01*
Y16125D01*
X26448D01*
Y16118D01*
X26475D01*
Y16111D01*
X26502D01*
Y16104D01*
X26543D01*
Y16098D01*
X26576D01*
Y16091D01*
X26604D01*
Y16084D01*
X26644D01*
Y16077D01*
X26685D01*
Y16071D01*
X26719D01*
Y16064D01*
X26746D01*
Y16057D01*
X26780D01*
Y16050D01*
X26820D01*
Y16044D01*
X26881D01*
Y16037D01*
X26942D01*
Y16030D01*
X27044D01*
Y16023D01*
X27233D01*
Y16030D01*
X27321D01*
Y16037D01*
X27409D01*
Y16044D01*
X27504D01*
Y16050D01*
X27578D01*
Y16057D01*
X27619D01*
Y16064D01*
X27653D01*
Y16071D01*
X27687D01*
Y16077D01*
X27727D01*
Y16084D01*
X27781D01*
Y16091D01*
X27808D01*
Y16098D01*
X27829D01*
Y16104D01*
X27869D01*
Y16111D01*
X27896D01*
Y16118D01*
X27917D01*
Y16125D01*
X27957D01*
Y16132D01*
X27991D01*
Y16138D01*
X28032D01*
Y16145D01*
X28052D01*
Y16152D01*
X28079D01*
Y16159D01*
X28106D01*
Y16165D01*
X28133D01*
Y16172D01*
X28160D01*
Y16179D01*
X28174D01*
Y16186D01*
X28194D01*
Y16192D01*
X28215D01*
Y16199D01*
X28242D01*
Y16206D01*
X28262D01*
Y16213D01*
X28282D01*
Y16220D01*
X28303D01*
Y16226D01*
X28336D01*
Y16233D01*
X28363D01*
Y16240D01*
X28384D01*
Y16247D01*
X28404D01*
Y16253D01*
X28418D01*
Y16260D01*
X28431D01*
Y16267D01*
X28451D01*
Y16274D01*
X28472D01*
Y16280D01*
X28492D01*
Y16287D01*
X28512D01*
Y16294D01*
X28526D01*
Y16301D01*
X28539D01*
Y16308D01*
X28560D01*
Y16314D01*
X28573D01*
Y16321D01*
X28587D01*
Y16328D01*
X28600D01*
Y16335D01*
X28614D01*
Y16341D01*
X28627D01*
Y16348D01*
X28641D01*
Y16355D01*
X28661D01*
Y16362D01*
X28675D01*
Y16368D01*
X28688D01*
Y16375D01*
X28702D01*
Y16382D01*
X28715D01*
Y16389D01*
X28722D01*
Y16396D01*
X28736D01*
Y16402D01*
X28749D01*
Y16409D01*
X28763D01*
Y16416D01*
X28770D01*
Y16423D01*
X28783D01*
Y16429D01*
X28797D01*
Y16436D01*
X28810D01*
Y16443D01*
X28830D01*
Y16450D01*
X28837D01*
Y16456D01*
X28851D01*
Y16463D01*
X28871D01*
Y16470D01*
X28885D01*
Y16477D01*
X28898D01*
Y16484D01*
X28905D01*
Y16490D01*
X28925D01*
Y16497D01*
X28932D01*
Y16504D01*
X28946D01*
Y16511D01*
X28959D01*
Y16517D01*
X28973D01*
Y16524D01*
X28979D01*
Y16531D01*
X28993D01*
Y16538D01*
X29000D01*
Y16544D01*
X29006D01*
Y16551D01*
X29020D01*
Y16558D01*
X29034D01*
Y16565D01*
X29040D01*
Y16572D01*
X29054D01*
Y16578D01*
X29067D01*
Y16585D01*
X29081D01*
Y16592D01*
X29088D01*
Y16599D01*
X29101D01*
Y16605D01*
X29115D01*
Y16612D01*
X29122D01*
Y16619D01*
X29128D01*
Y16626D01*
X29142D01*
Y16632D01*
X29149D01*
Y16639D01*
X29155D01*
Y16646D01*
X29162D01*
Y16653D01*
X29169D01*
Y16659D01*
X29182D01*
Y16666D01*
X29189D01*
Y16673D01*
X29196D01*
Y16680D01*
X29203D01*
Y16687D01*
X29210D01*
Y16693D01*
X29216D01*
Y16700D01*
X29223D01*
Y16707D01*
X29230D01*
Y16714D01*
X29237D01*
Y16720D01*
X29243D01*
Y16727D01*
X29250D01*
Y16734D01*
X29257D01*
Y16741D01*
X29264D01*
Y16747D01*
X29270D01*
Y16754D01*
X29277D01*
Y16761D01*
X29284D01*
Y16768D01*
X29291D01*
Y16775D01*
X29298D01*
Y16781D01*
X29304D01*
Y16788D01*
X29311D01*
Y16795D01*
X29318D01*
Y16802D01*
X29325D01*
Y16808D01*
X29331D01*
Y16815D01*
X29338D01*
Y16822D01*
X29345D01*
Y16829D01*
X29352D01*
Y16835D01*
X29358D01*
Y16842D01*
X29365D01*
Y16849D01*
X29372D01*
Y16856D01*
Y16863D01*
X29379D01*
Y16869D01*
X29386D01*
Y16876D01*
X29392D01*
Y16883D01*
X29399D01*
Y16890D01*
X29406D01*
Y16896D01*
X29413D01*
Y16903D01*
X29419D01*
Y16910D01*
X29426D01*
Y16917D01*
X29433D01*
Y16923D01*
X29440D01*
Y16930D01*
X29446D01*
Y16937D01*
X29453D01*
Y16944D01*
X29460D01*
Y16951D01*
X29467D01*
Y16957D01*
X29474D01*
Y16964D01*
X29480D01*
Y16971D01*
Y16978D01*
X29487D01*
Y16984D01*
X29494D01*
Y16991D01*
X29501D01*
Y16998D01*
X29507D01*
Y17005D01*
X29514D01*
Y17011D01*
X29521D01*
Y17018D01*
X29528D01*
Y17025D01*
X29534D01*
Y17032D01*
Y17039D01*
X29541D01*
Y17045D01*
X29548D01*
Y17052D01*
Y17059D01*
X29555D01*
Y17066D01*
X29562D01*
Y17072D01*
Y17079D01*
X29568D01*
Y17086D01*
Y17093D01*
X29575D01*
Y17099D01*
X29582D01*
Y17106D01*
Y17113D01*
Y17120D01*
X29589D01*
Y17127D01*
Y17133D01*
X29595D01*
Y17140D01*
Y17147D01*
X29602D01*
Y17154D01*
Y17160D01*
X29609D01*
Y17167D01*
Y17174D01*
X29616D01*
Y17181D01*
Y17187D01*
Y17194D01*
Y17201D01*
X29622D01*
Y17208D01*
Y17215D01*
X29629D01*
Y17221D01*
Y17228D01*
X29636D01*
Y17235D01*
X29643D01*
Y17242D01*
Y17248D01*
Y17255D01*
X29650D01*
Y17262D01*
X29656D01*
Y17269D01*
Y17275D01*
X29663D01*
Y17282D01*
Y17289D01*
X29670D01*
Y17296D01*
Y17303D01*
X29677D01*
Y17309D01*
X29683D01*
Y17316D01*
X29690D01*
Y17323D01*
Y17330D01*
Y17336D01*
X29697D01*
Y17343D01*
Y17350D01*
X29704D01*
Y17357D01*
Y17363D01*
X29710D01*
Y17370D01*
Y17377D01*
X29717D01*
Y17384D01*
X29724D01*
Y17391D01*
Y17397D01*
X29731D01*
Y17404D01*
Y17411D01*
Y17418D01*
X29737D01*
Y17424D01*
Y17431D01*
X29744D01*
Y17438D01*
Y17445D01*
Y17451D01*
X29751D01*
Y17458D01*
Y17465D01*
X29758D01*
Y17472D01*
Y17479D01*
X29765D01*
Y17485D01*
Y17492D01*
X29771D01*
Y17499D01*
Y17506D01*
Y17512D01*
Y17519D01*
X29778D01*
Y17526D01*
Y17533D01*
X29785D01*
Y17539D01*
Y17546D01*
Y17553D01*
X29792D01*
Y17560D01*
Y17567D01*
Y17573D01*
Y17580D01*
Y17587D01*
X29798D01*
Y17594D01*
Y17600D01*
Y17607D01*
X29805D01*
Y17614D01*
Y17621D01*
Y17627D01*
Y17634D01*
Y17641D01*
Y17648D01*
Y17655D01*
Y17661D01*
X29812D01*
Y17668D01*
Y17675D01*
Y17682D01*
Y17688D01*
Y17695D01*
Y17702D01*
X29819D01*
Y17709D01*
Y17715D01*
Y17722D01*
X29825D01*
Y17729D01*
Y17736D01*
Y17743D01*
Y17749D01*
Y17756D01*
Y17763D01*
X29832D01*
Y17770D01*
Y17776D01*
X29839D01*
Y17783D01*
Y17790D01*
Y17797D01*
Y17803D01*
Y17810D01*
X29846D01*
Y17817D01*
Y17824D01*
Y17830D01*
Y17837D01*
Y17844D01*
Y17851D01*
Y17858D01*
Y17864D01*
Y17871D01*
X29853D01*
Y17878D01*
Y17885D01*
Y17891D01*
Y17898D01*
Y17905D01*
Y17912D01*
X29859D01*
Y17918D01*
Y17925D01*
Y17932D01*
Y17939D01*
Y17946D01*
Y17952D01*
Y17959D01*
Y17966D01*
Y17973D01*
Y17979D01*
Y17986D01*
Y17993D01*
Y18000D01*
Y18006D01*
Y18013D01*
Y18020D01*
X29853D01*
Y18027D01*
Y18034D01*
Y18040D01*
Y18047D01*
Y18054D01*
Y18061D01*
Y18067D01*
X29846D01*
Y18074D01*
Y18081D01*
Y18088D01*
Y18094D01*
Y18101D01*
Y18108D01*
Y18115D01*
Y18122D01*
Y18128D01*
Y18135D01*
Y18142D01*
Y18149D01*
Y18155D01*
X29839D01*
Y18162D01*
Y18169D01*
Y18176D01*
Y18182D01*
X29832D01*
Y18189D01*
Y18196D01*
Y18203D01*
X29825D01*
Y18210D01*
Y18216D01*
Y18223D01*
Y18230D01*
X29819D01*
Y18237D01*
Y18243D01*
Y18250D01*
Y18257D01*
Y18264D01*
X29812D01*
Y18270D01*
Y18277D01*
Y18284D01*
Y18291D01*
X29805D01*
Y18298D01*
Y18304D01*
Y18311D01*
X29798D01*
Y18318D01*
Y18325D01*
Y18331D01*
X29792D01*
Y18338D01*
Y18345D01*
Y18352D01*
Y18358D01*
X29785D01*
Y18365D01*
Y18372D01*
Y18379D01*
X29778D01*
Y18386D01*
Y18392D01*
X29771D01*
Y18399D01*
X29765D01*
Y18406D01*
Y18413D01*
X29758D01*
Y18419D01*
X29751D01*
Y18426D01*
Y18433D01*
Y18440D01*
X29744D01*
Y18446D01*
X29737D01*
Y18453D01*
Y18460D01*
Y18467D01*
X29731D01*
Y18474D01*
Y18480D01*
X29724D01*
Y18487D01*
Y18494D01*
Y18501D01*
Y18507D01*
X29717D01*
Y18514D01*
Y18521D01*
X29710D01*
Y18528D01*
Y18534D01*
X29704D01*
Y18541D01*
Y18548D01*
X29697D01*
Y18555D01*
X29690D01*
Y18562D01*
Y18568D01*
X29683D01*
Y18575D01*
Y18582D01*
X29677D01*
Y18589D01*
X29663D01*
Y18595D01*
Y18602D01*
X29656D01*
Y18609D01*
X29650D01*
Y18616D01*
Y18622D01*
X29643D01*
Y18629D01*
Y18636D01*
X29636D01*
Y18643D01*
X29629D01*
Y18650D01*
Y18656D01*
X29622D01*
Y18663D01*
X29616D01*
Y18670D01*
Y18677D01*
X29609D01*
Y18683D01*
Y18690D01*
X29602D01*
Y18697D01*
X29595D01*
Y18704D01*
X29589D01*
Y18710D01*
Y18717D01*
X29582D01*
Y18724D01*
X29575D01*
Y18731D01*
X29568D01*
Y18738D01*
Y18744D01*
X29562D01*
Y18751D01*
X29555D01*
Y18758D01*
X29548D01*
Y18765D01*
X29541D01*
Y18771D01*
X29534D01*
Y18778D01*
Y18785D01*
X29528D01*
Y18792D01*
X29521D01*
Y18798D01*
X29514D01*
Y18805D01*
Y18812D01*
X29507D01*
Y18819D01*
Y18826D01*
X29501D01*
Y18832D01*
X29494D01*
Y18839D01*
X29487D01*
Y18846D01*
X29480D01*
Y18853D01*
X29474D01*
Y18859D01*
X29460D01*
Y18866D01*
Y18873D01*
X29446D01*
Y18880D01*
Y18886D01*
X29440D01*
Y18893D01*
X29433D01*
Y18900D01*
X29419D01*
Y18907D01*
X29413D01*
Y18914D01*
X29406D01*
Y18920D01*
X29399D01*
Y18927D01*
X29386D01*
Y18934D01*
X29379D01*
Y18941D01*
Y18947D01*
X29365D01*
Y18954D01*
X29358D01*
Y18961D01*
X29352D01*
Y18968D01*
X29338D01*
Y18974D01*
X29325D01*
Y18981D01*
X29318D01*
Y18988D01*
X29311D01*
Y18995D01*
X29304D01*
Y19001D01*
X29291D01*
Y19008D01*
X29284D01*
Y19015D01*
X29277D01*
Y19022D01*
X29270D01*
Y19029D01*
X29257D01*
Y19035D01*
X29243D01*
Y19042D01*
X29230D01*
Y19049D01*
X29216D01*
Y19056D01*
X29210D01*
Y19062D01*
X29196D01*
Y19069D01*
X29176D01*
Y19076D01*
X29162D01*
Y19083D01*
X29155D01*
Y19089D01*
X29142D01*
Y19096D01*
X29128D01*
Y19103D01*
X29115D01*
Y19110D01*
X29108D01*
Y19117D01*
X29094D01*
Y19123D01*
X29081D01*
Y19130D01*
X29067D01*
Y19137D01*
X29061D01*
Y19144D01*
X29047D01*
Y19150D01*
X29034D01*
Y19157D01*
X29020D01*
Y19164D01*
X29006D01*
Y19171D01*
X28993D01*
Y19177D01*
X28986D01*
Y19184D01*
X28959D01*
Y19191D01*
X28939D01*
Y19198D01*
X28918D01*
Y19205D01*
X28898D01*
Y19211D01*
X28878D01*
Y19218D01*
X28858D01*
Y19225D01*
X28844D01*
Y19232D01*
X28830D01*
Y19238D01*
X28817D01*
Y19245D01*
X28790D01*
Y19252D01*
X28776D01*
Y19259D01*
X28763D01*
Y19265D01*
X28756D01*
Y19272D01*
X28749D01*
Y19279D01*
X28742D01*
Y19286D01*
Y19293D01*
Y19299D01*
Y19306D01*
Y19313D01*
Y19320D01*
Y19326D01*
Y19333D01*
Y19340D01*
Y19347D01*
Y19353D01*
Y19360D01*
Y19367D01*
Y19374D01*
Y19381D01*
Y19387D01*
Y19394D01*
X28749D01*
Y19401D01*
Y19408D01*
Y19414D01*
Y19421D01*
Y19428D01*
Y19435D01*
Y19441D01*
Y19448D01*
Y19455D01*
X28756D01*
Y19462D01*
Y19469D01*
Y19475D01*
Y19482D01*
Y19489D01*
Y19496D01*
Y19502D01*
Y19509D01*
X28763D01*
Y19516D01*
Y19523D01*
Y19529D01*
Y19536D01*
Y19543D01*
Y19550D01*
Y19557D01*
Y19563D01*
Y19570D01*
X28770D01*
Y19577D01*
Y19584D01*
Y19590D01*
Y19597D01*
Y19604D01*
Y19611D01*
Y19617D01*
Y19624D01*
X28776D01*
Y19631D01*
Y19638D01*
Y19645D01*
Y19651D01*
Y19658D01*
Y19665D01*
Y19672D01*
Y19678D01*
Y19685D01*
Y19692D01*
Y19699D01*
Y19705D01*
X28783D01*
Y19712D01*
Y19719D01*
X28790D01*
Y19726D01*
X28837D01*
Y19719D01*
X28871D01*
Y19712D01*
X28891D01*
Y19705D01*
X28905D01*
Y19699D01*
X28918D01*
Y19692D01*
X28932D01*
Y19685D01*
X28946D01*
Y19678D01*
X28959D01*
Y19672D01*
X28979D01*
Y19665D01*
X28993D01*
Y19658D01*
X29006D01*
Y19651D01*
X29020D01*
Y19645D01*
X29034D01*
Y19638D01*
X29047D01*
Y19631D01*
X29061D01*
Y19624D01*
X29074D01*
Y19617D01*
X29081D01*
Y19611D01*
X29094D01*
Y19604D01*
X29108D01*
Y19597D01*
X29115D01*
Y19590D01*
X29135D01*
Y19584D01*
X29142D01*
Y19577D01*
X29155D01*
Y19570D01*
X29169D01*
Y19563D01*
X29176D01*
Y19557D01*
X29189D01*
Y19550D01*
X29203D01*
Y19543D01*
X29210D01*
Y19536D01*
X29216D01*
Y19529D01*
X29230D01*
Y19523D01*
X29237D01*
Y19516D01*
X29243D01*
Y19509D01*
X29257D01*
Y19502D01*
X29264D01*
Y19496D01*
X29277D01*
Y19489D01*
X29291D01*
Y19482D01*
X29298D01*
Y19475D01*
X29311D01*
Y19469D01*
X29318D01*
Y19462D01*
X29325D01*
Y19455D01*
X29338D01*
Y19448D01*
X29345D01*
Y19441D01*
X29352D01*
Y19435D01*
X29358D01*
Y19428D01*
X29365D01*
Y19421D01*
X29379D01*
Y19414D01*
X29386D01*
Y19408D01*
X29399D01*
Y19401D01*
X29406D01*
Y19394D01*
X29413D01*
Y19387D01*
X29426D01*
Y19381D01*
X29433D01*
Y19374D01*
X29446D01*
Y19367D01*
X29453D01*
Y19360D01*
X29460D01*
Y19353D01*
X29467D01*
Y19347D01*
X29480D01*
Y19340D01*
Y19333D01*
X29494D01*
Y19326D01*
X29501D01*
Y19320D01*
Y19313D01*
X29514D01*
Y19306D01*
X29521D01*
Y19299D01*
X29528D01*
Y19293D01*
X29534D01*
Y19286D01*
X29541D01*
Y19279D01*
Y19272D01*
X29548D01*
Y19265D01*
Y19259D01*
X29555D01*
Y19252D01*
X29568D01*
Y19245D01*
Y19238D01*
X29582D01*
Y19232D01*
Y19225D01*
X29595D01*
Y19218D01*
Y19211D01*
X29602D01*
Y19205D01*
X29609D01*
Y19198D01*
X29616D01*
Y19191D01*
X29622D01*
Y19184D01*
X29629D01*
Y19177D01*
Y19171D01*
X29636D01*
Y19164D01*
X29643D01*
Y19157D01*
X29650D01*
Y19150D01*
X29663D01*
Y19144D01*
Y19137D01*
X29670D01*
Y19130D01*
Y19123D01*
X29677D01*
Y19117D01*
X29683D01*
Y19110D01*
X29690D01*
Y19103D01*
Y19096D01*
X29704D01*
Y19089D01*
Y19083D01*
X29717D01*
Y19076D01*
Y19069D01*
X29724D01*
Y19062D01*
X29731D01*
Y19056D01*
X29737D01*
Y19049D01*
Y19042D01*
X29744D01*
Y19035D01*
X29751D01*
Y19029D01*
Y19022D01*
X29758D01*
Y19015D01*
Y19008D01*
X29765D01*
Y19001D01*
Y18995D01*
Y18988D01*
X29771D01*
Y18981D01*
Y18974D01*
X29778D01*
Y18968D01*
X29785D01*
Y18961D01*
Y18954D01*
X29792D01*
Y18947D01*
X29798D01*
Y18941D01*
Y18934D01*
X29805D01*
Y18927D01*
X29812D01*
Y18920D01*
Y18914D01*
X29819D01*
Y18907D01*
X29825D01*
Y18900D01*
X29832D01*
Y18893D01*
Y18886D01*
X29839D01*
Y18880D01*
X29846D01*
Y18873D01*
X29853D01*
Y18866D01*
Y18859D01*
X29859D01*
Y18853D01*
Y18846D01*
X29866D01*
Y18839D01*
Y18832D01*
X29873D01*
Y18826D01*
Y18819D01*
X29880D01*
Y18812D01*
Y18805D01*
Y18798D01*
X29886D01*
Y18792D01*
Y18785D01*
X29893D01*
Y18778D01*
Y18771D01*
Y18765D01*
X29900D01*
Y18758D01*
Y18751D01*
X29907D01*
Y18744D01*
Y18738D01*
X29913D01*
Y18731D01*
Y18724D01*
X29920D01*
Y18717D01*
Y18710D01*
Y18704D01*
X29927D01*
Y18697D01*
Y18690D01*
X29934D01*
Y18683D01*
Y18677D01*
Y18670D01*
Y18663D01*
X29941D01*
Y18656D01*
Y18650D01*
Y18643D01*
X29947D01*
Y18636D01*
Y18629D01*
X29954D01*
Y18622D01*
Y18616D01*
X29961D01*
Y18609D01*
Y18602D01*
Y18595D01*
X29968D01*
Y18589D01*
Y18582D01*
Y18575D01*
X29974D01*
Y18568D01*
X29981D01*
Y18562D01*
Y18555D01*
X29988D01*
Y18548D01*
Y18541D01*
X29995D01*
Y18534D01*
Y18528D01*
Y18521D01*
X30001D01*
Y18514D01*
Y18507D01*
Y18501D01*
X30008D01*
Y18494D01*
Y18487D01*
Y18480D01*
Y18474D01*
X30015D01*
Y18467D01*
Y18460D01*
X30022D01*
Y18453D01*
Y18446D01*
X30029D01*
Y18440D01*
Y18433D01*
X30035D01*
Y18426D01*
Y18419D01*
Y18413D01*
Y18406D01*
Y18399D01*
X30042D01*
Y18392D01*
Y18386D01*
Y18379D01*
Y18372D01*
Y18365D01*
Y18358D01*
Y18352D01*
X30049D01*
Y18345D01*
Y18338D01*
Y18331D01*
Y18325D01*
Y18318D01*
X30056D01*
Y18311D01*
Y18304D01*
Y18298D01*
Y18291D01*
Y18284D01*
Y18277D01*
Y18270D01*
Y18264D01*
X30062D01*
Y18257D01*
Y18250D01*
Y18243D01*
Y18237D01*
Y18230D01*
X30069D01*
Y18223D01*
Y18216D01*
Y18210D01*
Y18203D01*
Y18196D01*
Y18189D01*
Y18182D01*
Y18176D01*
Y18169D01*
Y18162D01*
Y18155D01*
X30076D01*
Y18149D01*
Y18142D01*
Y18135D01*
Y18128D01*
Y18122D01*
Y18115D01*
Y18108D01*
Y18101D01*
Y18094D01*
Y18088D01*
Y18081D01*
Y18074D01*
Y18067D01*
Y18061D01*
Y18054D01*
Y18047D01*
Y18040D01*
Y18034D01*
Y18027D01*
Y18020D01*
Y18013D01*
Y18006D01*
Y18000D01*
Y17993D01*
Y17986D01*
Y17979D01*
Y17973D01*
Y17966D01*
Y17959D01*
X30069D01*
Y17952D01*
Y17946D01*
Y17939D01*
Y17932D01*
Y17925D01*
Y17918D01*
Y17912D01*
Y17905D01*
Y17898D01*
Y17891D01*
Y17885D01*
Y17878D01*
Y17871D01*
X30062D01*
Y17864D01*
Y17858D01*
Y17851D01*
Y17844D01*
Y17837D01*
Y17830D01*
Y17824D01*
Y17817D01*
Y17810D01*
X30056D01*
Y17803D01*
Y17797D01*
Y17790D01*
Y17783D01*
Y17776D01*
X30049D01*
Y17770D01*
Y17763D01*
Y17756D01*
Y17749D01*
X30042D01*
Y17743D01*
Y17736D01*
Y17729D01*
Y17722D01*
X30035D01*
Y17715D01*
Y17709D01*
Y17702D01*
Y17695D01*
Y17688D01*
X30029D01*
Y17682D01*
Y17675D01*
Y17668D01*
Y17661D01*
Y17655D01*
Y17648D01*
Y17641D01*
X30022D01*
Y17634D01*
Y17627D01*
Y17621D01*
Y17614D01*
Y17607D01*
Y17600D01*
X30015D01*
Y17594D01*
Y17587D01*
Y17580D01*
X30008D01*
Y17573D01*
Y17567D01*
Y17560D01*
Y17553D01*
Y17546D01*
X30001D01*
Y17539D01*
Y17533D01*
Y17526D01*
X29995D01*
Y17519D01*
Y17512D01*
Y17506D01*
X29988D01*
Y17499D01*
Y17492D01*
Y17485D01*
X29981D01*
Y17479D01*
Y17472D01*
Y17465D01*
X29974D01*
Y17458D01*
Y17451D01*
Y17445D01*
Y17438D01*
X29968D01*
Y17431D01*
Y17424D01*
Y17418D01*
Y17411D01*
X29961D01*
Y17404D01*
Y17397D01*
X29954D01*
Y17391D01*
Y17384D01*
X29947D01*
Y17377D01*
Y17370D01*
X29941D01*
Y17363D01*
Y17357D01*
X29934D01*
Y17350D01*
Y17343D01*
Y17336D01*
X29927D01*
Y17330D01*
Y17323D01*
Y17316D01*
X29920D01*
Y17309D01*
Y17303D01*
X29913D01*
Y17296D01*
Y17289D01*
X29907D01*
Y17282D01*
Y17275D01*
X29900D01*
Y17269D01*
Y17262D01*
Y17255D01*
X29893D01*
Y17248D01*
Y17242D01*
X29886D01*
Y17235D01*
Y17228D01*
X29880D01*
Y17221D01*
Y17215D01*
Y17208D01*
X29873D01*
Y17201D01*
X29866D01*
Y17194D01*
Y17187D01*
X29859D01*
Y17181D01*
Y17174D01*
Y17167D01*
X29853D01*
Y17160D01*
Y17154D01*
X29846D01*
Y17147D01*
Y17140D01*
Y17133D01*
X29839D01*
Y17127D01*
Y17120D01*
X29832D01*
Y17113D01*
Y17106D01*
X29825D01*
Y17099D01*
X29819D01*
Y17093D01*
Y17086D01*
X29812D01*
Y17079D01*
Y17072D01*
X29805D01*
Y17066D01*
X29798D01*
Y17059D01*
Y17052D01*
X29792D01*
Y17045D01*
X29785D01*
Y17039D01*
Y17032D01*
X29778D01*
Y17025D01*
Y17018D01*
X29771D01*
Y17011D01*
Y17005D01*
X29765D01*
Y16998D01*
Y16991D01*
X29758D01*
Y16984D01*
Y16978D01*
X29751D01*
Y16971D01*
X29744D01*
Y16964D01*
Y16957D01*
X29737D01*
Y16951D01*
X29731D01*
Y16944D01*
Y16937D01*
X29724D01*
Y16930D01*
Y16923D01*
X29717D01*
Y16917D01*
X29710D01*
Y16910D01*
X29704D01*
Y16903D01*
Y16896D01*
X29697D01*
Y16890D01*
X29690D01*
Y16883D01*
X29683D01*
Y16876D01*
X29677D01*
Y16869D01*
Y16863D01*
X29670D01*
Y16856D01*
X29663D01*
Y16849D01*
X29656D01*
Y16842D01*
Y16835D01*
X29650D01*
Y16829D01*
Y16822D01*
X29643D01*
Y16815D01*
X29636D01*
Y16808D01*
X29629D01*
Y16802D01*
X29622D01*
Y16795D01*
Y16788D01*
X29616D01*
Y16781D01*
Y16775D01*
X29609D01*
Y16768D01*
X29602D01*
Y16761D01*
Y16754D01*
X29595D01*
Y16747D01*
Y16741D01*
X29589D01*
Y16734D01*
X29582D01*
Y16727D01*
X29575D01*
Y16720D01*
X29568D01*
Y16714D01*
X29562D01*
Y16707D01*
X29555D01*
Y16700D01*
Y16693D01*
X29548D01*
Y16687D01*
X29541D01*
Y16680D01*
X29534D01*
Y16673D01*
X29528D01*
Y16666D01*
X29521D01*
Y16659D01*
X29514D01*
Y16653D01*
X29507D01*
Y16646D01*
Y16639D01*
X29501D01*
Y16632D01*
X29494D01*
Y16626D01*
X29487D01*
Y16619D01*
X29480D01*
Y16612D01*
X29474D01*
Y16605D01*
X29467D01*
Y16599D01*
X29460D01*
Y16592D01*
X29453D01*
Y16585D01*
X29446D01*
Y16578D01*
X29440D01*
Y16572D01*
Y16565D01*
X29433D01*
Y16558D01*
X29426D01*
Y16551D01*
X29419D01*
Y16544D01*
X29413D01*
Y16538D01*
X29406D01*
Y16531D01*
X29399D01*
Y16524D01*
X29392D01*
Y16517D01*
X29386D01*
Y16511D01*
Y16504D01*
X29379D01*
Y16497D01*
X29372D01*
Y16490D01*
X29365D01*
Y16484D01*
X29358D01*
Y16477D01*
X29352D01*
Y16470D01*
X29345D01*
Y16463D01*
X29338D01*
Y16456D01*
X29331D01*
Y16450D01*
X29318D01*
Y16443D01*
X29311D01*
Y16436D01*
X29304D01*
Y16429D01*
X29298D01*
Y16423D01*
X29284D01*
Y16416D01*
X29277D01*
Y16409D01*
X29270D01*
Y16402D01*
X29264D01*
Y16396D01*
X29257D01*
Y16389D01*
X29243D01*
Y16382D01*
X29237D01*
Y16375D01*
X29223D01*
Y16368D01*
X29216D01*
Y16362D01*
X29210D01*
Y16355D01*
X29203D01*
Y16348D01*
X29189D01*
Y16341D01*
X29182D01*
Y16335D01*
X29169D01*
Y16328D01*
X29162D01*
Y16321D01*
X29155D01*
Y16314D01*
X29135D01*
Y16308D01*
X29128D01*
Y16301D01*
X29115D01*
Y16294D01*
X29108D01*
Y16287D01*
X29094D01*
Y16280D01*
X29088D01*
Y16274D01*
X29081D01*
Y16267D01*
X29067D01*
Y16260D01*
X29061D01*
Y16253D01*
X29047D01*
Y16247D01*
X29040D01*
Y16240D01*
X29027D01*
Y16233D01*
X29020D01*
Y16226D01*
X29006D01*
Y16220D01*
X29000D01*
Y16213D01*
X28979D01*
Y16206D01*
X28973D01*
Y16199D01*
X28959D01*
Y16192D01*
X28946D01*
Y16186D01*
X28939D01*
Y16179D01*
X28925D01*
Y16172D01*
X28918D01*
Y16165D01*
X28905D01*
Y16159D01*
X28891D01*
Y16152D01*
X28871D01*
Y16145D01*
X28858D01*
Y16138D01*
X28851D01*
Y16132D01*
X28837D01*
Y16125D01*
X28824D01*
Y16118D01*
X28810D01*
Y16111D01*
X28797D01*
Y16104D01*
X28776D01*
Y16098D01*
X28763D01*
Y16091D01*
X28749D01*
Y16084D01*
X28736D01*
Y16077D01*
X28722D01*
Y16071D01*
X28715D01*
Y16064D01*
X28702D01*
Y16057D01*
X28682D01*
Y16050D01*
X28668D01*
Y16044D01*
X28648D01*
Y16037D01*
X28634D01*
Y16030D01*
X28627D01*
Y16023D01*
X28607D01*
Y16016D01*
X28594D01*
Y16010D01*
X28573D01*
Y16003D01*
X28560D01*
Y15996D01*
X28546D01*
Y15989D01*
X28539D01*
Y15983D01*
X28519D01*
Y15976D01*
X28499D01*
Y15969D01*
X28485D01*
Y15962D01*
X28472D01*
Y15956D01*
X28458D01*
Y15949D01*
X28438D01*
Y15942D01*
X28424D01*
Y15935D01*
X28397D01*
Y15928D01*
X28384D01*
Y15922D01*
X28357D01*
Y15915D01*
X28336D01*
Y15908D01*
X28316D01*
Y15901D01*
X28296D01*
Y15895D01*
X28289D01*
Y15888D01*
X28269D01*
Y15881D01*
X28248D01*
Y15874D01*
X28221D01*
Y15868D01*
X28201D01*
Y15861D01*
X28187D01*
Y15854D01*
X28174D01*
Y15847D01*
X28154D01*
Y15840D01*
X28140D01*
Y15834D01*
X28120D01*
Y15827D01*
X28099D01*
Y15820D01*
X28086D01*
Y15813D01*
X28066D01*
Y15807D01*
X28052D01*
Y15800D01*
X28032D01*
Y15793D01*
X28011D01*
Y15786D01*
X27984D01*
Y15780D01*
X27964D01*
Y15773D01*
X27944D01*
Y15766D01*
X27923D01*
Y15759D01*
X27896D01*
Y15752D01*
X27869D01*
Y15746D01*
X27842D01*
Y15739D01*
X27815D01*
Y15732D01*
X27781D01*
Y15725D01*
X27734D01*
Y15719D01*
X27707D01*
Y15712D01*
X27653D01*
Y15705D01*
X27619D01*
Y15698D01*
X27558D01*
Y15692D01*
X27490D01*
Y15685D01*
X27348D01*
Y15678D01*
X27071D01*
Y15685D01*
X26908D01*
Y15692D01*
X26840D01*
Y15698D01*
X26786D01*
Y15705D01*
X26719D01*
Y15712D01*
X26664D01*
Y15719D01*
X26610D01*
Y15725D01*
X26583D01*
Y15732D01*
X26543D01*
Y15739D01*
X26495D01*
Y15746D01*
X26455D01*
Y15752D01*
X26414D01*
Y15759D01*
X26387D01*
Y15766D01*
X26367D01*
Y15773D01*
X26319D01*
Y15780D01*
X26292D01*
Y15786D01*
X26272D01*
Y15793D01*
X26252D01*
Y15800D01*
X26224D01*
Y15807D01*
X26204D01*
Y15813D01*
X26184D01*
Y15820D01*
X26164D01*
Y15827D01*
X26150D01*
Y15834D01*
X26136D01*
Y15840D01*
X26109D01*
Y15847D01*
X26089D01*
Y15854D01*
X26076D01*
Y15861D01*
X26062D01*
Y15868D01*
X26049D01*
Y15874D01*
X26021D01*
Y15881D01*
X26008D01*
Y15888D01*
X25988D01*
Y15895D01*
X25974D01*
Y15901D01*
X25961D01*
Y15908D01*
X25947D01*
Y15915D01*
X25933D01*
Y15922D01*
X25920D01*
Y15928D01*
X25900D01*
Y15935D01*
X25886D01*
Y15942D01*
X25879D01*
Y15949D01*
X25866D01*
Y15956D01*
X25845D01*
Y15962D01*
X25839D01*
Y15969D01*
X25825D01*
Y15976D01*
X25812D01*
Y15983D01*
X25798D01*
Y15989D01*
X25785D01*
Y15996D01*
X25771D01*
Y16003D01*
X25751D01*
Y16010D01*
X25737D01*
Y16016D01*
X25724D01*
Y16023D01*
X25710D01*
Y16030D01*
X25703D01*
Y16037D01*
X25697D01*
Y16044D01*
X25683D01*
Y16050D01*
X25669D01*
Y16057D01*
X25656D01*
Y16064D01*
X25649D01*
Y16071D01*
X25642D01*
Y16077D01*
X25629D01*
Y16084D01*
X25622D01*
Y16091D01*
X25615D01*
Y16098D01*
X25609D01*
Y16104D01*
X25602D01*
Y16111D01*
X25588D01*
Y16118D01*
X25581D01*
Y16125D01*
X25568D01*
Y16132D01*
X25561D01*
Y16138D01*
X25548D01*
Y16145D01*
X25541D01*
Y16152D01*
X25534D01*
Y16159D01*
X25521D01*
Y16165D01*
X25507D01*
Y16172D01*
X25500D01*
Y16179D01*
X25493D01*
Y16186D01*
X25480D01*
Y16192D01*
X25473D01*
Y16199D01*
X25466D01*
Y16206D01*
X25460D01*
Y16213D01*
X25453D01*
Y16220D01*
X25446D01*
Y16226D01*
X25439D01*
Y16233D01*
X25433D01*
Y16240D01*
X25426D01*
Y16247D01*
X25412D01*
Y16253D01*
X25405D01*
Y16260D01*
X25399D01*
Y16267D01*
X25392D01*
Y16274D01*
X25385D01*
Y16280D01*
X25378D01*
Y16287D01*
X25372D01*
Y16294D01*
X25358D01*
Y16301D01*
X25351D01*
Y16308D01*
X25345D01*
Y16314D01*
X25338D01*
Y16321D01*
X25331D01*
Y16328D01*
X25324D01*
Y16335D01*
X25317D01*
Y16341D01*
X25311D01*
Y16348D01*
X25304D01*
Y16355D01*
X25297D01*
Y16362D01*
X25290D01*
Y16368D01*
X25284D01*
Y16375D01*
X25277D01*
Y16382D01*
X25270D01*
Y16389D01*
X25263D01*
Y16396D01*
X25257D01*
Y16402D01*
X25250D01*
Y16409D01*
X25243D01*
Y16416D01*
X25236D01*
Y16423D01*
X25229D01*
Y16429D01*
X25223D01*
Y16436D01*
X25216D01*
Y16443D01*
X25209D01*
Y16450D01*
X25202D01*
Y16456D01*
X25196D01*
Y16463D01*
X25189D01*
Y16470D01*
X25175D01*
Y16477D01*
X25169D01*
Y16484D01*
X25162D01*
Y16490D01*
X25155D01*
Y16497D01*
X25148D01*
Y16504D01*
X25141D01*
Y16511D01*
X25135D01*
Y16517D01*
X25128D01*
Y16524D01*
X25121D01*
Y16531D01*
X25114D01*
Y16538D01*
X25108D01*
Y16544D01*
X25101D01*
Y16551D01*
X25094D01*
Y16558D01*
X25087D01*
Y16565D01*
X25081D01*
Y16572D01*
Y16578D01*
X25074D01*
Y16585D01*
X25067D01*
Y16592D01*
X25060D01*
Y16599D01*
X25053D01*
Y16605D01*
X25047D01*
Y16612D01*
X25040D01*
Y16619D01*
X25033D01*
Y16626D01*
Y16632D01*
X25026D01*
Y16639D01*
X25020D01*
Y16646D01*
X25013D01*
Y16653D01*
X25006D01*
Y16659D01*
X24999D01*
Y16666D01*
X24993D01*
Y16673D01*
X24986D01*
Y16680D01*
X24979D01*
Y16687D01*
Y16693D01*
X24972D01*
Y16700D01*
X24965D01*
Y16707D01*
Y16714D01*
X24959D01*
Y16720D01*
Y16727D01*
X24952D01*
Y16734D01*
Y16741D01*
X24945D01*
Y16747D01*
Y16754D01*
X24938D01*
Y16761D01*
X24932D01*
Y16768D01*
X24925D01*
Y16775D01*
Y16781D01*
X24918D01*
Y16788D01*
Y16795D01*
X24911D01*
Y16802D01*
Y16808D01*
X24905D01*
Y16815D01*
Y16822D01*
X24898D01*
Y16829D01*
X24891D01*
Y16835D01*
X24884D01*
Y16842D01*
Y16849D01*
X24877D01*
Y16856D01*
Y16863D01*
X24871D01*
Y16869D01*
Y16876D01*
X24864D01*
Y16883D01*
Y16890D01*
X24857D01*
Y16896D01*
Y16903D01*
X24850D01*
Y16910D01*
Y16917D01*
X24844D01*
Y16923D01*
X24837D01*
Y16930D01*
Y16937D01*
Y16944D01*
X24830D01*
Y16951D01*
Y16957D01*
X24823D01*
Y16964D01*
Y16971D01*
X24817D01*
Y16978D01*
Y16984D01*
X24810D01*
Y16991D01*
Y16998D01*
X24803D01*
Y17005D01*
Y17011D01*
X24796D01*
Y17018D01*
Y17025D01*
Y17032D01*
X24790D01*
Y17039D01*
Y17045D01*
X24783D01*
Y17052D01*
Y17059D01*
X24776D01*
Y17066D01*
Y17072D01*
X24769D01*
Y17079D01*
Y17086D01*
X24762D01*
Y17093D01*
Y17099D01*
Y17106D01*
X24756D01*
Y17113D01*
Y17120D01*
Y17127D01*
X24749D01*
Y17133D01*
Y17140D01*
Y17147D01*
X24742D01*
Y17154D01*
Y17160D01*
X24735D01*
Y17167D01*
Y17174D01*
Y17181D01*
X24729D01*
Y17187D01*
Y17194D01*
Y17201D01*
Y17208D01*
X24722D01*
Y17215D01*
Y17221D01*
Y17228D01*
Y17235D01*
X24715D01*
Y17242D01*
Y17248D01*
Y17255D01*
Y17262D01*
X24708D01*
Y17269D01*
Y17275D01*
Y17282D01*
Y17289D01*
Y17296D01*
X24701D01*
Y17303D01*
Y17309D01*
Y17316D01*
Y17323D01*
Y17330D01*
Y17336D01*
X24695D01*
Y17343D01*
Y17350D01*
Y17357D01*
Y17363D01*
Y17370D01*
Y17377D01*
X24688D01*
Y17384D01*
Y17391D01*
Y17397D01*
Y17404D01*
Y17411D01*
Y17418D01*
Y17424D01*
X24681D01*
Y17431D01*
Y17438D01*
Y17445D01*
Y17451D01*
Y17458D01*
Y17465D01*
Y17472D01*
Y17479D01*
Y17485D01*
Y17492D01*
Y17499D01*
Y17506D01*
Y17512D01*
X24674D01*
Y17519D01*
Y17526D01*
Y17533D01*
Y17539D01*
Y17546D01*
Y17553D01*
Y17560D01*
Y17567D01*
Y17573D01*
Y17580D01*
Y17587D01*
Y17594D01*
Y17600D01*
Y17607D01*
Y17614D01*
Y17621D01*
Y17627D01*
X24668D01*
Y17634D01*
Y17641D01*
Y17648D01*
Y17655D01*
Y17661D01*
Y17668D01*
Y17675D01*
Y17682D01*
Y17688D01*
Y17695D01*
Y17702D01*
X24661D01*
Y17709D01*
Y17715D01*
Y17722D01*
Y17729D01*
Y17736D01*
Y17743D01*
Y17749D01*
Y17756D01*
Y17763D01*
Y17770D01*
Y17776D01*
Y17783D01*
Y17790D01*
Y17797D01*
Y17803D01*
Y17810D01*
Y17817D01*
Y17824D01*
Y17830D01*
Y17837D01*
Y17844D01*
Y17851D01*
Y17858D01*
Y17864D01*
Y17871D01*
Y17878D01*
Y17885D01*
Y17891D01*
Y17898D01*
Y17905D01*
Y17912D01*
Y17918D01*
Y17925D01*
X24668D01*
Y17932D01*
Y17939D01*
Y17946D01*
Y17952D01*
Y17959D01*
Y17966D01*
Y17973D01*
Y17979D01*
Y17986D01*
Y17993D01*
Y18000D01*
Y18006D01*
Y18013D01*
Y18020D01*
Y18027D01*
Y18034D01*
Y18040D01*
Y18047D01*
Y18054D01*
X24674D01*
Y18061D01*
Y18067D01*
Y18074D01*
Y18081D01*
Y18088D01*
X24681D01*
Y18094D01*
Y18101D01*
Y18108D01*
Y18115D01*
Y18122D01*
Y18128D01*
Y18135D01*
X24688D01*
Y18142D01*
Y18149D01*
Y18155D01*
Y18162D01*
Y18169D01*
X24695D01*
Y18176D01*
Y18182D01*
Y18189D01*
Y18196D01*
Y18203D01*
Y18210D01*
X24701D01*
Y18216D01*
Y18223D01*
Y18230D01*
Y18237D01*
X24708D01*
Y18243D01*
Y18250D01*
Y18257D01*
Y18264D01*
X24715D01*
Y18270D01*
Y18277D01*
Y18284D01*
X24722D01*
Y18291D01*
Y18298D01*
Y18304D01*
Y18311D01*
Y18318D01*
X24729D01*
Y18325D01*
Y18331D01*
X24735D01*
Y18338D01*
Y18345D01*
Y18352D01*
Y18358D01*
X24742D01*
Y18365D01*
Y18372D01*
Y18379D01*
X24749D01*
Y18386D01*
Y18392D01*
Y18399D01*
Y18406D01*
Y18413D01*
X24756D01*
Y18419D01*
Y18426D01*
Y18433D01*
X24762D01*
Y18440D01*
Y18446D01*
X24769D01*
Y18453D01*
Y18460D01*
X24776D01*
Y18467D01*
Y18474D01*
X24783D01*
Y18480D01*
Y18487D01*
X24790D01*
Y18494D01*
Y18501D01*
Y18507D01*
Y18514D01*
Y18521D01*
X24796D01*
Y18528D01*
Y18534D01*
X24803D01*
Y18541D01*
Y18548D01*
Y18555D01*
X24810D01*
Y18562D01*
X24817D01*
Y18568D01*
Y18575D01*
Y18582D01*
X24823D01*
Y18589D01*
Y18595D01*
Y18602D01*
X24830D01*
Y18609D01*
Y18616D01*
X24837D01*
Y18622D01*
X24844D01*
Y18629D01*
Y18636D01*
X24850D01*
Y18643D01*
Y18650D01*
Y18656D01*
X24857D01*
Y18663D01*
X24864D01*
Y18670D01*
Y18677D01*
X24871D01*
Y18683D01*
Y18690D01*
X24877D01*
Y18697D01*
Y18704D01*
X24884D01*
Y18710D01*
Y18717D01*
Y18724D01*
X24891D01*
Y18731D01*
Y18738D01*
X24898D01*
Y18744D01*
X24905D01*
Y18751D01*
Y18758D01*
Y18765D01*
X24911D01*
Y18771D01*
X24918D01*
Y18778D01*
Y18785D01*
X24925D01*
Y18792D01*
Y18798D01*
X24932D01*
Y18805D01*
Y18812D01*
Y18819D01*
X24938D01*
Y18826D01*
X24945D01*
Y18832D01*
Y18839D01*
X24952D01*
Y18846D01*
Y18853D01*
X24959D01*
Y18859D01*
X24965D01*
Y18866D01*
Y18873D01*
X24972D01*
Y18880D01*
Y18886D01*
X24979D01*
Y18893D01*
X24986D01*
Y18900D01*
Y18907D01*
X24993D01*
Y18914D01*
X24999D01*
Y18920D01*
Y18927D01*
X25006D01*
Y18934D01*
X25013D01*
Y18941D01*
Y18947D01*
X25020D01*
Y18954D01*
X25026D01*
Y18961D01*
Y18968D01*
X25033D01*
Y18974D01*
Y18981D01*
X25040D01*
Y18988D01*
Y18995D01*
X25047D01*
Y19001D01*
X25053D01*
Y19008D01*
Y19015D01*
X25060D01*
Y19022D01*
Y19029D01*
X25067D01*
Y19035D01*
X25074D01*
Y19042D01*
X25081D01*
Y19049D01*
X25087D01*
Y19056D01*
Y19062D01*
X25094D01*
Y19069D01*
X25101D01*
Y19076D01*
Y19083D01*
X25108D01*
Y19089D01*
X25114D01*
Y19096D01*
Y19103D01*
X25121D01*
Y19110D01*
X25128D01*
Y19117D01*
X25135D01*
Y19123D01*
X25141D01*
Y19130D01*
Y19137D01*
X25148D01*
Y19144D01*
X25155D01*
Y19150D01*
X25162D01*
Y19157D01*
Y19164D01*
X25169D01*
Y19171D01*
X25175D01*
Y19177D01*
X25182D01*
Y19184D01*
X25189D01*
Y19191D01*
X25196D01*
Y19198D01*
Y19205D01*
X25202D01*
Y19211D01*
X25209D01*
Y19218D01*
Y19225D01*
X25223D01*
Y19232D01*
Y19238D01*
X25229D01*
Y19245D01*
Y19252D01*
X25236D01*
Y19259D01*
X25243D01*
Y19265D01*
Y19272D01*
X25257D01*
Y19279D01*
Y19286D01*
X25270D01*
Y19293D01*
Y19299D01*
X25277D01*
Y19306D01*
X25284D01*
Y19313D01*
X25290D01*
Y19320D01*
X25297D01*
Y19326D01*
X25304D01*
Y19333D01*
X25311D01*
Y19340D01*
X25317D01*
Y19347D01*
X25324D01*
Y19353D01*
X25331D01*
Y19360D01*
X25338D01*
Y19367D01*
X25345D01*
Y19374D01*
X25351D01*
Y19381D01*
Y19387D01*
X25358D01*
Y19394D01*
X25365D01*
Y19401D01*
X25372D01*
Y19408D01*
X25378D01*
Y19414D01*
X25385D01*
Y19421D01*
X25392D01*
Y19428D01*
X25399D01*
Y19435D01*
X25405D01*
Y19441D01*
X25412D01*
Y19448D01*
X25419D01*
Y19455D01*
X25426D01*
Y19462D01*
X25433D01*
Y19469D01*
X25439D01*
Y19475D01*
X25453D01*
Y19482D01*
X25460D01*
Y19489D01*
X25466D01*
Y19496D01*
X25473D01*
Y19502D01*
X25480D01*
Y19509D01*
X25487D01*
Y19516D01*
X25493D01*
Y19523D01*
X25500D01*
Y19529D01*
X25507D01*
Y19536D01*
X25514D01*
Y19543D01*
X25527D01*
Y19550D01*
X25534D01*
Y19557D01*
X25541D01*
Y19563D01*
X25548D01*
Y19570D01*
X25554D01*
Y19577D01*
X25561D01*
Y19584D01*
X25568D01*
Y19590D01*
X25575D01*
Y19597D01*
X25581D01*
Y19604D01*
X25588D01*
Y19611D01*
X25595D01*
Y19617D01*
X25609D01*
Y19624D01*
X25622D01*
Y19631D01*
Y19638D01*
X25636D01*
Y19645D01*
X25642D01*
Y19651D01*
X25656D01*
Y19658D01*
X25663D01*
Y19665D01*
X25669D01*
Y19672D01*
X25683D01*
Y19678D01*
X25697D01*
Y19685D01*
X25703D01*
Y19692D01*
X25717D01*
Y19699D01*
X25724D01*
Y19705D01*
X25730D01*
Y19712D01*
X25744D01*
Y19719D01*
X25757D01*
Y19726D01*
X25764D01*
Y19733D01*
X25771D01*
Y19739D01*
X25778D01*
Y19746D01*
X25785D01*
Y19753D01*
X25798D01*
Y19760D01*
X25805D01*
Y19766D01*
X25818D01*
Y19773D01*
X25825D01*
Y19780D01*
X25832D01*
Y19787D01*
X25845D01*
Y19793D01*
X25859D01*
Y19800D01*
X25866D01*
Y19807D01*
X25879D01*
Y19814D01*
X25886D01*
Y19821D01*
X25900D01*
Y19827D01*
X25906D01*
Y19834D01*
X25920D01*
Y19841D01*
X25927D01*
Y19848D01*
X25940D01*
Y19854D01*
X25947D01*
Y19861D01*
X25961D01*
Y19868D01*
X25967D01*
Y19875D01*
X25974D01*
Y19881D01*
X25988D01*
Y19888D01*
X26001D01*
Y19895D01*
X26008D01*
Y19902D01*
X26021D01*
Y19909D01*
X26035D01*
Y19915D01*
X26042D01*
Y19922D01*
X26055D01*
Y19929D01*
X26062D01*
Y19936D01*
X26076D01*
Y19942D01*
X26089D01*
Y19949D01*
X26109D01*
Y19956D01*
X26123D01*
Y19963D01*
X26136D01*
Y19969D01*
X26150D01*
Y19976D01*
X26164D01*
Y19983D01*
X26177D01*
Y19990D01*
X26184D01*
Y19997D01*
X26197D01*
Y20003D01*
X26204D01*
Y20010D01*
X26218D01*
Y20017D01*
X26224D01*
Y20024D01*
X26238D01*
Y20030D01*
X26252D01*
Y20037D01*
X26265D01*
Y20044D01*
X26279D01*
Y20051D01*
X26292D01*
Y20057D01*
X26312D01*
Y20064D01*
X26326D01*
Y20071D01*
X26333D01*
Y20078D01*
X26353D01*
Y20085D01*
X26367D01*
Y20091D01*
X26387D01*
Y20098D01*
X26407D01*
Y20105D01*
X26428D01*
Y20112D01*
X26441D01*
Y20118D01*
X26448D01*
Y20125D01*
X26468D01*
Y20132D01*
X26482D01*
Y20139D01*
X26495D01*
Y20145D01*
X26516D01*
Y20152D01*
X26522D01*
Y20159D01*
X26543D01*
Y20166D01*
X26556D01*
Y20173D01*
X26570D01*
Y20179D01*
X26590D01*
Y20186D01*
X26610D01*
Y20193D01*
X26631D01*
Y20200D01*
X26658D01*
Y20206D01*
X26678D01*
Y20213D01*
X26692D01*
Y20220D01*
X26719D01*
Y20227D01*
X26739D01*
Y20233D01*
X26752D01*
Y20240D01*
X26773D01*
Y20247D01*
X26793D01*
Y20254D01*
X26807D01*
Y20261D01*
X26827D01*
Y20267D01*
X26854D01*
Y20274D01*
X26881D01*
Y20281D01*
X26895D01*
Y20288D01*
X26922D01*
Y20294D01*
X26956D01*
Y20301D01*
X26983D01*
Y20308D01*
X27003D01*
Y20315D01*
X27023D01*
Y20321D01*
X27050D01*
Y20328D01*
X27064D01*
Y20335D01*
X27091D01*
Y20342D01*
X27118D01*
Y20348D01*
X27132D01*
Y20355D01*
X27159D01*
Y20362D01*
X27192D01*
Y20369D01*
X27220D01*
Y20376D01*
X27253D01*
Y20382D01*
X27287D01*
Y20389D01*
X27321D01*
Y20396D01*
X27355D01*
Y20403D01*
X27375D01*
Y20409D01*
X27416D01*
Y20416D01*
X27443D01*
Y20423D01*
X27477D01*
Y20430D01*
X27517D01*
Y20436D01*
X27544D01*
Y20443D01*
X27578D01*
Y20450D01*
X27599D01*
Y20457D01*
X27653D01*
Y20464D01*
X27707D01*
Y20470D01*
X27788D01*
Y20477D01*
X27842D01*
Y20484D01*
X27984D01*
Y20491D01*
X28120D01*
Y20497D01*
X28336D01*
Y20491D01*
D02*
G37*
G36*
X28641Y19590D02*
X28654D01*
Y19584D01*
X28668D01*
Y19577D01*
X28675D01*
Y19570D01*
X28682D01*
Y19563D01*
X28688D01*
Y19557D01*
X28695D01*
Y19550D01*
X28702D01*
Y19543D01*
Y19536D01*
X28709D01*
Y19529D01*
Y19523D01*
X28715D01*
Y19516D01*
Y19509D01*
Y19502D01*
Y19496D01*
Y19489D01*
Y19482D01*
Y19475D01*
Y19469D01*
Y19462D01*
X28709D01*
Y19455D01*
Y19448D01*
X28702D01*
Y19441D01*
Y19435D01*
X28695D01*
Y19428D01*
X28688D01*
Y19421D01*
Y19414D01*
X28682D01*
Y19408D01*
Y19401D01*
X28675D01*
Y19394D01*
Y19387D01*
X28668D01*
Y19381D01*
Y19374D01*
X28661D01*
Y19367D01*
X28654D01*
Y19360D01*
Y19353D01*
X28648D01*
Y19347D01*
X28641D01*
Y19340D01*
X28634D01*
Y19333D01*
X28627D01*
Y19326D01*
X28621D01*
Y19320D01*
X28614D01*
Y19313D01*
X28607D01*
Y19306D01*
X28600D01*
Y19299D01*
X28587D01*
Y19293D01*
Y19286D01*
X28580D01*
Y19279D01*
Y19272D01*
X28573D01*
Y19265D01*
X28566D01*
Y19259D01*
X28560D01*
Y19252D01*
Y19245D01*
X28553D01*
Y19238D01*
X28546D01*
Y19232D01*
X28539D01*
Y19225D01*
X28533D01*
Y19218D01*
X28526D01*
Y19211D01*
Y19205D01*
X28519D01*
Y19198D01*
X28512D01*
Y19191D01*
Y19184D01*
X28506D01*
Y19177D01*
Y19171D01*
X28499D01*
Y19164D01*
Y19157D01*
X28492D01*
Y19150D01*
X28485D01*
Y19144D01*
Y19137D01*
X28479D01*
Y19130D01*
X28472D01*
Y19123D01*
Y19117D01*
X28465D01*
Y19110D01*
X28458D01*
Y19103D01*
X28451D01*
Y19096D01*
Y19089D01*
Y19083D01*
X28465D01*
Y19076D01*
Y19069D01*
Y19062D01*
X28479D01*
Y19056D01*
X28485D01*
Y19049D01*
X28492D01*
Y19042D01*
Y19035D01*
X28499D01*
Y19029D01*
X28506D01*
Y19022D01*
X28512D01*
Y19015D01*
X28519D01*
Y19008D01*
X28526D01*
Y19001D01*
X28533D01*
Y18995D01*
X28539D01*
Y18988D01*
X28553D01*
Y18981D01*
X28560D01*
Y18974D01*
X28566D01*
Y18968D01*
X28573D01*
Y18961D01*
X28587D01*
Y18954D01*
X28594D01*
Y18947D01*
X28600D01*
Y18941D01*
X28607D01*
Y18934D01*
X28614D01*
Y18927D01*
X28621D01*
Y18920D01*
X28627D01*
Y18914D01*
X28634D01*
Y18907D01*
X28641D01*
Y18900D01*
X28648D01*
Y18893D01*
X28654D01*
Y18886D01*
X28661D01*
Y18880D01*
X28668D01*
Y18873D01*
X28675D01*
Y18866D01*
X28682D01*
Y18859D01*
X28688D01*
Y18853D01*
X28695D01*
Y18846D01*
X28702D01*
Y18839D01*
X28709D01*
Y18832D01*
X28715D01*
Y18826D01*
X28722D01*
Y18819D01*
X28729D01*
Y18812D01*
X28736D01*
Y18805D01*
X28742D01*
Y18798D01*
X28749D01*
Y18792D01*
X28756D01*
Y18785D01*
Y18778D01*
X28763D01*
Y18771D01*
X28770D01*
Y18765D01*
X28776D01*
Y18758D01*
Y18751D01*
X28783D01*
Y18744D01*
Y18738D01*
Y18731D01*
X28790D01*
Y18724D01*
Y18717D01*
X28797D01*
Y18710D01*
Y18704D01*
X28803D01*
Y18697D01*
Y18690D01*
Y18683D01*
Y18677D01*
Y18670D01*
Y18663D01*
Y18656D01*
Y18650D01*
Y18643D01*
Y18636D01*
X28797D01*
Y18629D01*
Y18622D01*
X28790D01*
Y18616D01*
Y18609D01*
X28783D01*
Y18602D01*
X28776D01*
Y18595D01*
X28770D01*
Y18589D01*
X28763D01*
Y18582D01*
X28756D01*
Y18575D01*
X28742D01*
Y18568D01*
X28729D01*
Y18562D01*
X28715D01*
Y18555D01*
X28627D01*
Y18562D01*
X28614D01*
Y18568D01*
X28600D01*
Y18575D01*
X28594D01*
Y18582D01*
X28587D01*
Y18589D01*
X28580D01*
Y18595D01*
X28573D01*
Y18602D01*
X28560D01*
Y18609D01*
X28546D01*
Y18616D01*
X28539D01*
Y18622D01*
X28533D01*
Y18629D01*
X28526D01*
Y18636D01*
X28519D01*
Y18643D01*
X28512D01*
Y18650D01*
Y18656D01*
X28506D01*
Y18663D01*
Y18670D01*
X28499D01*
Y18677D01*
X28492D01*
Y18683D01*
X28485D01*
Y18690D01*
X28479D01*
Y18697D01*
X28472D01*
Y18704D01*
X28465D01*
Y18710D01*
X28458D01*
Y18717D01*
X28451D01*
Y18724D01*
X28445D01*
Y18731D01*
X28438D01*
Y18738D01*
X28431D01*
Y18744D01*
Y18751D01*
X28424D01*
Y18758D01*
Y18765D01*
X28418D01*
Y18771D01*
X28411D01*
Y18778D01*
X28404D01*
Y18785D01*
X28397D01*
Y18792D01*
Y18798D01*
X28391D01*
Y18805D01*
X28384D01*
Y18812D01*
X28377D01*
Y18819D01*
X28370D01*
Y18826D01*
X28363D01*
Y18832D01*
X28357D01*
Y18839D01*
X28350D01*
Y18846D01*
X28343D01*
Y18853D01*
X28336D01*
Y18859D01*
X28330D01*
Y18866D01*
Y18873D01*
X28323D01*
Y18866D01*
Y18859D01*
X28316D01*
Y18853D01*
X28309D01*
Y18846D01*
X28303D01*
Y18839D01*
X28296D01*
Y18832D01*
X28289D01*
Y18826D01*
X28282D01*
Y18819D01*
Y18812D01*
X28275D01*
Y18805D01*
X28269D01*
Y18798D01*
X28262D01*
Y18792D01*
X28255D01*
Y18785D01*
Y18778D01*
Y18771D01*
Y18765D01*
X28248D01*
Y18758D01*
X28242D01*
Y18751D01*
X28235D01*
Y18744D01*
X28228D01*
Y18738D01*
Y18731D01*
X28221D01*
Y18724D01*
Y18717D01*
X28215D01*
Y18710D01*
X28208D01*
Y18704D01*
Y18697D01*
X28201D01*
Y18690D01*
Y18683D01*
Y18677D01*
X28194D01*
Y18670D01*
Y18663D01*
X28187D01*
Y18656D01*
Y18650D01*
X28181D01*
Y18643D01*
Y18636D01*
X28174D01*
Y18629D01*
Y18622D01*
X28167D01*
Y18616D01*
Y18609D01*
X28160D01*
Y18602D01*
X28154D01*
Y18595D01*
X28147D01*
Y18589D01*
X28140D01*
Y18582D01*
Y18575D01*
X28133D01*
Y18568D01*
X28127D01*
Y18562D01*
Y18555D01*
X28120D01*
Y18548D01*
Y18541D01*
X28113D01*
Y18534D01*
Y18528D01*
X28106D01*
Y18521D01*
X28099D01*
Y18514D01*
X28093D01*
Y18507D01*
Y18501D01*
X28086D01*
Y18494D01*
Y18487D01*
X28079D01*
Y18480D01*
X28072D01*
Y18474D01*
X28066D01*
Y18467D01*
X28059D01*
Y18460D01*
X28052D01*
Y18453D01*
X28039D01*
Y18446D01*
X28025D01*
Y18440D01*
X27930D01*
Y18446D01*
X27917D01*
Y18453D01*
X27903D01*
Y18460D01*
X27896D01*
Y18467D01*
X27890D01*
Y18474D01*
X27883D01*
Y18480D01*
X27876D01*
Y18487D01*
X27869D01*
Y18494D01*
Y18501D01*
X27863D01*
Y18507D01*
Y18514D01*
Y18521D01*
Y18528D01*
Y18534D01*
Y18541D01*
Y18548D01*
Y18555D01*
Y18562D01*
Y18568D01*
Y18575D01*
Y18582D01*
Y18589D01*
Y18595D01*
Y18602D01*
X27869D01*
Y18609D01*
Y18616D01*
Y18622D01*
Y18629D01*
X27876D01*
Y18636D01*
Y18643D01*
X27883D01*
Y18650D01*
X27890D01*
Y18656D01*
Y18663D01*
X27896D01*
Y18670D01*
Y18677D01*
X27903D01*
Y18683D01*
X27910D01*
Y18690D01*
Y18697D01*
X27917D01*
Y18704D01*
X27923D01*
Y18710D01*
Y18717D01*
X27930D01*
Y18724D01*
X27937D01*
Y18731D01*
X27944D01*
Y18738D01*
Y18744D01*
Y18751D01*
X27951D01*
Y18758D01*
X27957D01*
Y18765D01*
Y18771D01*
X27964D01*
Y18778D01*
Y18785D01*
X27971D01*
Y18792D01*
X27978D01*
Y18798D01*
Y18805D01*
X27984D01*
Y18812D01*
X27991D01*
Y18819D01*
Y18826D01*
Y18832D01*
X27998D01*
Y18839D01*
Y18846D01*
X28005D01*
Y18853D01*
X28011D01*
Y18859D01*
Y18866D01*
X28018D01*
Y18873D01*
X28025D01*
Y18880D01*
Y18886D01*
X28032D01*
Y18893D01*
Y18900D01*
X28039D01*
Y18907D01*
X28045D01*
Y18914D01*
X28052D01*
Y18920D01*
Y18927D01*
X28059D01*
Y18934D01*
Y18941D01*
X28066D01*
Y18947D01*
Y18954D01*
X28072D01*
Y18961D01*
Y18968D01*
X28079D01*
Y18974D01*
Y18981D01*
X28086D01*
Y18988D01*
X28093D01*
Y18995D01*
Y19001D01*
X28099D01*
Y19008D01*
X28106D01*
Y19015D01*
Y19022D01*
X28113D01*
Y19029D01*
Y19035D01*
X28120D01*
Y19042D01*
Y19049D01*
Y19056D01*
X28127D01*
Y19062D01*
X28120D01*
Y19069D01*
X28113D01*
Y19076D01*
X28106D01*
Y19083D01*
X28099D01*
Y19089D01*
Y19096D01*
X28093D01*
Y19103D01*
Y19110D01*
X28086D01*
Y19117D01*
X28079D01*
Y19123D01*
X28072D01*
Y19130D01*
X28066D01*
Y19137D01*
X28059D01*
Y19144D01*
X28052D01*
Y19150D01*
X28045D01*
Y19157D01*
X28039D01*
Y19164D01*
X28032D01*
Y19171D01*
X28025D01*
Y19177D01*
X28018D01*
Y19184D01*
X28011D01*
Y19191D01*
X28005D01*
Y19198D01*
X27998D01*
Y19205D01*
X27991D01*
Y19211D01*
X27984D01*
Y19218D01*
X27978D01*
Y19225D01*
X27971D01*
Y19232D01*
X27964D01*
Y19238D01*
X27957D01*
Y19245D01*
X27951D01*
Y19252D01*
X27937D01*
Y19259D01*
X27923D01*
Y19265D01*
X27917D01*
Y19272D01*
X27910D01*
Y19279D01*
X27903D01*
Y19286D01*
X27896D01*
Y19293D01*
X27890D01*
Y19299D01*
Y19306D01*
X27883D01*
Y19313D01*
Y19320D01*
X27876D01*
Y19326D01*
Y19333D01*
X27869D01*
Y19340D01*
X27863D01*
Y19347D01*
X27856D01*
Y19353D01*
Y19360D01*
X27849D01*
Y19367D01*
X27842D01*
Y19374D01*
Y19381D01*
X27835D01*
Y19387D01*
Y19394D01*
X27829D01*
Y19401D01*
Y19408D01*
Y19414D01*
Y19421D01*
Y19428D01*
Y19435D01*
Y19441D01*
Y19448D01*
X27835D01*
Y19455D01*
Y19462D01*
X27842D01*
Y19469D01*
Y19475D01*
X27849D01*
Y19482D01*
X27856D01*
Y19489D01*
X27863D01*
Y19496D01*
X27869D01*
Y19502D01*
X27876D01*
Y19509D01*
X27883D01*
Y19516D01*
X27890D01*
Y19523D01*
X27896D01*
Y19529D01*
X27910D01*
Y19536D01*
X27923D01*
Y19543D01*
X27978D01*
Y19536D01*
X27991D01*
Y19529D01*
X28005D01*
Y19523D01*
X28018D01*
Y19516D01*
X28025D01*
Y19509D01*
X28032D01*
Y19502D01*
X28039D01*
Y19496D01*
X28052D01*
Y19489D01*
X28059D01*
Y19482D01*
X28066D01*
Y19475D01*
X28072D01*
Y19469D01*
X28079D01*
Y19462D01*
X28086D01*
Y19455D01*
X28093D01*
Y19448D01*
X28099D01*
Y19441D01*
X28106D01*
Y19435D01*
X28113D01*
Y19428D01*
X28127D01*
Y19421D01*
X28133D01*
Y19414D01*
X28140D01*
Y19408D01*
X28147D01*
Y19401D01*
X28160D01*
Y19394D01*
X28167D01*
Y19387D01*
X28174D01*
Y19381D01*
X28181D01*
Y19374D01*
X28187D01*
Y19367D01*
X28194D01*
Y19360D01*
X28201D01*
Y19353D01*
Y19347D01*
X28215D01*
Y19340D01*
X28221D01*
Y19333D01*
X28228D01*
Y19326D01*
X28235D01*
Y19320D01*
X28242D01*
Y19313D01*
X28248D01*
Y19306D01*
X28255D01*
Y19299D01*
X28262D01*
Y19293D01*
X28269D01*
Y19286D01*
Y19279D01*
X28282D01*
Y19272D01*
Y19265D01*
X28296D01*
Y19272D01*
X28303D01*
Y19279D01*
X28309D01*
Y19286D01*
Y19293D01*
X28316D01*
Y19299D01*
X28323D01*
Y19306D01*
Y19313D01*
X28330D01*
Y19320D01*
X28336D01*
Y19326D01*
X28343D01*
Y19333D01*
X28350D01*
Y19340D01*
X28357D01*
Y19347D01*
Y19353D01*
X28363D01*
Y19360D01*
Y19367D01*
Y19374D01*
X28370D01*
Y19381D01*
X28377D01*
Y19387D01*
Y19394D01*
X28384D01*
Y19401D01*
Y19408D01*
X28391D01*
Y19414D01*
Y19421D01*
X28404D01*
Y19428D01*
Y19435D01*
X28411D01*
Y19441D01*
Y19448D01*
X28418D01*
Y19455D01*
X28424D01*
Y19462D01*
X28431D01*
Y19469D01*
X28438D01*
Y19475D01*
X28445D01*
Y19482D01*
X28458D01*
Y19489D01*
Y19496D01*
X28465D01*
Y19502D01*
Y19509D01*
X28472D01*
Y19516D01*
Y19523D01*
X28479D01*
Y19529D01*
X28485D01*
Y19536D01*
X28492D01*
Y19543D01*
X28499D01*
Y19550D01*
X28506D01*
Y19557D01*
X28519D01*
Y19563D01*
X28526D01*
Y19570D01*
X28533D01*
Y19577D01*
X28546D01*
Y19584D01*
X28560D01*
Y19590D01*
X28573D01*
Y19597D01*
X28641D01*
Y19590D01*
D02*
G37*
G36*
X26509Y19123D02*
X26536D01*
Y19117D01*
X26556D01*
Y19110D01*
X26563D01*
Y19103D01*
X26576D01*
Y19096D01*
X26583D01*
Y19089D01*
X26590D01*
Y19083D01*
X26597D01*
Y19076D01*
X26604D01*
Y19069D01*
X26610D01*
Y19062D01*
X26617D01*
Y19056D01*
X26624D01*
Y19049D01*
X26631D01*
Y19042D01*
X26637D01*
Y19035D01*
X26644D01*
Y19029D01*
X26651D01*
Y19022D01*
X26658D01*
Y19015D01*
Y19008D01*
X26664D01*
Y19001D01*
X26671D01*
Y18995D01*
X26685D01*
Y19001D01*
Y19008D01*
X26692D01*
Y19015D01*
Y19022D01*
Y19029D01*
X26698D01*
Y19035D01*
X26705D01*
Y19042D01*
Y19049D01*
X26712D01*
Y19056D01*
X26719D01*
Y19062D01*
X26725D01*
Y19069D01*
X26881D01*
Y19062D01*
X26895D01*
Y19056D01*
X26908D01*
Y19049D01*
X26922D01*
Y19042D01*
X26935D01*
Y19035D01*
X26942D01*
Y19029D01*
X26949D01*
Y19022D01*
Y19015D01*
X26956D01*
Y19008D01*
X26962D01*
Y19001D01*
Y18995D01*
X26969D01*
Y18988D01*
Y18981D01*
X26976D01*
Y18974D01*
Y18968D01*
Y18961D01*
Y18954D01*
Y18947D01*
Y18941D01*
X26983D01*
Y18934D01*
Y18927D01*
Y18920D01*
Y18914D01*
X26989D01*
Y18907D01*
Y18900D01*
Y18893D01*
Y18886D01*
X26996D01*
Y18880D01*
Y18873D01*
Y18866D01*
Y18859D01*
Y18853D01*
Y18846D01*
Y18839D01*
Y18832D01*
Y18826D01*
X27003D01*
Y18819D01*
Y18812D01*
Y18805D01*
Y18798D01*
Y18792D01*
Y18785D01*
Y18778D01*
Y18771D01*
Y18765D01*
Y18758D01*
Y18751D01*
Y18744D01*
X27010D01*
Y18738D01*
Y18731D01*
Y18724D01*
Y18717D01*
Y18710D01*
Y18704D01*
Y18697D01*
Y18690D01*
Y18683D01*
Y18677D01*
Y18670D01*
Y18663D01*
Y18656D01*
Y18650D01*
X27016D01*
Y18643D01*
Y18636D01*
Y18629D01*
Y18622D01*
Y18616D01*
X27023D01*
Y18609D01*
Y18602D01*
Y18595D01*
Y18589D01*
Y18582D01*
Y18575D01*
Y18568D01*
X27030D01*
Y18562D01*
Y18555D01*
Y18548D01*
Y18541D01*
Y18534D01*
Y18528D01*
Y18521D01*
Y18514D01*
Y18507D01*
Y18501D01*
X27037D01*
Y18494D01*
Y18487D01*
Y18480D01*
Y18474D01*
Y18467D01*
Y18460D01*
Y18453D01*
Y18446D01*
X27044D01*
Y18440D01*
Y18433D01*
Y18426D01*
Y18419D01*
Y18413D01*
Y18406D01*
Y18399D01*
Y18392D01*
X27050D01*
Y18386D01*
Y18379D01*
Y18372D01*
Y18365D01*
Y18358D01*
X27057D01*
Y18352D01*
Y18345D01*
Y18338D01*
X27064D01*
Y18331D01*
Y18325D01*
X27071D01*
Y18318D01*
Y18311D01*
Y18304D01*
Y18298D01*
Y18291D01*
X27077D01*
Y18284D01*
Y18277D01*
Y18270D01*
Y18264D01*
Y18257D01*
Y18250D01*
X27084D01*
Y18243D01*
Y18237D01*
Y18230D01*
Y18223D01*
Y18216D01*
Y18210D01*
X27091D01*
Y18203D01*
Y18196D01*
Y18189D01*
Y18182D01*
Y18176D01*
Y18169D01*
Y18162D01*
Y18155D01*
Y18149D01*
Y18142D01*
Y18135D01*
Y18128D01*
Y18122D01*
Y18115D01*
Y18108D01*
Y18101D01*
Y18094D01*
Y18088D01*
Y18081D01*
Y18074D01*
X27084D01*
Y18067D01*
X27077D01*
Y18061D01*
Y18054D01*
X27071D01*
Y18047D01*
X27050D01*
Y18040D01*
X27037D01*
Y18034D01*
X26942D01*
Y18040D01*
X26928D01*
Y18047D01*
X26915D01*
Y18054D01*
Y18061D01*
X26901D01*
Y18067D01*
Y18074D01*
X26888D01*
Y18081D01*
Y18088D01*
Y18094D01*
Y18101D01*
X26881D01*
Y18108D01*
X26874D01*
Y18115D01*
Y18122D01*
Y18128D01*
Y18135D01*
X26868D01*
Y18142D01*
Y18149D01*
X26861D01*
Y18155D01*
Y18162D01*
X26854D01*
Y18169D01*
Y18176D01*
X26847D01*
Y18182D01*
Y18189D01*
Y18196D01*
Y18203D01*
X26840D01*
Y18210D01*
Y18216D01*
Y18223D01*
Y18230D01*
Y18237D01*
Y18243D01*
X26834D01*
Y18250D01*
Y18257D01*
Y18264D01*
Y18270D01*
X26827D01*
Y18277D01*
Y18284D01*
Y18291D01*
Y18298D01*
Y18304D01*
Y18311D01*
Y18318D01*
Y18325D01*
Y18331D01*
Y18338D01*
Y18345D01*
Y18352D01*
Y18358D01*
Y18365D01*
X26820D01*
Y18372D01*
Y18379D01*
Y18386D01*
Y18392D01*
Y18399D01*
Y18406D01*
Y18413D01*
Y18419D01*
Y18426D01*
X26813D01*
Y18433D01*
Y18440D01*
Y18446D01*
Y18453D01*
X26807D01*
Y18460D01*
Y18467D01*
Y18474D01*
Y18480D01*
Y18487D01*
Y18494D01*
Y18501D01*
Y18507D01*
X26800D01*
Y18514D01*
Y18521D01*
Y18528D01*
X26793D01*
Y18534D01*
Y18541D01*
Y18548D01*
Y18555D01*
X26786D01*
Y18562D01*
Y18568D01*
Y18575D01*
X26780D01*
Y18582D01*
Y18589D01*
Y18595D01*
Y18602D01*
Y18609D01*
Y18616D01*
Y18622D01*
X26773D01*
Y18629D01*
Y18636D01*
Y18643D01*
Y18650D01*
Y18656D01*
X26766D01*
Y18663D01*
Y18670D01*
Y18677D01*
Y18683D01*
X26759D01*
Y18690D01*
Y18697D01*
X26752D01*
Y18704D01*
Y18710D01*
Y18717D01*
X26746D01*
Y18724D01*
Y18731D01*
X26739D01*
Y18738D01*
Y18744D01*
X26732D01*
Y18751D01*
X26725D01*
Y18758D01*
X26719D01*
Y18765D01*
X26698D01*
Y18758D01*
X26692D01*
Y18751D01*
X26685D01*
Y18744D01*
Y18738D01*
X26678D01*
Y18731D01*
X26671D01*
Y18724D01*
Y18717D01*
X26664D01*
Y18710D01*
Y18704D01*
X26658D01*
Y18697D01*
Y18690D01*
Y18683D01*
Y18677D01*
X26651D01*
Y18670D01*
Y18663D01*
Y18656D01*
X26644D01*
Y18650D01*
Y18643D01*
X26637D01*
Y18636D01*
Y18629D01*
Y18622D01*
X26631D01*
Y18616D01*
Y18609D01*
X26624D01*
Y18602D01*
Y18595D01*
Y18589D01*
X26617D01*
Y18582D01*
Y18575D01*
Y18568D01*
Y18562D01*
X26610D01*
Y18555D01*
Y18548D01*
Y18541D01*
Y18534D01*
X26604D01*
Y18528D01*
Y18521D01*
X26597D01*
Y18514D01*
Y18507D01*
Y18501D01*
Y18494D01*
X26590D01*
Y18487D01*
Y18480D01*
Y18474D01*
Y18467D01*
Y18460D01*
Y18453D01*
Y18446D01*
Y18440D01*
Y18433D01*
Y18426D01*
Y18419D01*
X26583D01*
Y18413D01*
Y18406D01*
Y18399D01*
Y18392D01*
Y18386D01*
Y18379D01*
Y18372D01*
Y18365D01*
Y18358D01*
Y18352D01*
Y18345D01*
Y18338D01*
Y18331D01*
Y18325D01*
Y18318D01*
Y18311D01*
Y18304D01*
Y18298D01*
Y18291D01*
Y18284D01*
Y18277D01*
Y18270D01*
Y18264D01*
Y18257D01*
Y18250D01*
Y18243D01*
Y18237D01*
Y18230D01*
Y18223D01*
Y18216D01*
Y18210D01*
Y18203D01*
Y18196D01*
Y18189D01*
Y18182D01*
Y18176D01*
Y18169D01*
Y18162D01*
Y18155D01*
Y18149D01*
Y18142D01*
Y18135D01*
Y18128D01*
Y18122D01*
Y18115D01*
Y18108D01*
Y18101D01*
Y18094D01*
Y18088D01*
Y18081D01*
Y18074D01*
Y18067D01*
Y18061D01*
X26576D01*
Y18054D01*
Y18047D01*
Y18040D01*
Y18034D01*
Y18027D01*
Y18020D01*
X26570D01*
Y18013D01*
Y18006D01*
X26563D01*
Y18000D01*
X26549D01*
Y17993D01*
X26536D01*
Y17986D01*
X26529D01*
Y17979D01*
X26509D01*
Y17973D01*
X26495D01*
Y17966D01*
X26468D01*
Y17959D01*
X26414D01*
Y17966D01*
X26400D01*
Y17973D01*
X26394D01*
Y17979D01*
X26387D01*
Y17986D01*
X26373D01*
Y17993D01*
X26367D01*
Y18000D01*
Y18006D01*
X26360D01*
Y18013D01*
Y18020D01*
Y18027D01*
X26353D01*
Y18034D01*
Y18040D01*
Y18047D01*
Y18054D01*
Y18061D01*
Y18067D01*
Y18074D01*
Y18081D01*
Y18088D01*
Y18094D01*
Y18101D01*
Y18108D01*
Y18115D01*
Y18122D01*
Y18128D01*
Y18135D01*
Y18142D01*
Y18149D01*
Y18155D01*
Y18162D01*
Y18169D01*
Y18176D01*
Y18182D01*
Y18189D01*
Y18196D01*
Y18203D01*
Y18210D01*
Y18216D01*
Y18223D01*
Y18230D01*
Y18237D01*
Y18243D01*
Y18250D01*
Y18257D01*
Y18264D01*
Y18270D01*
Y18277D01*
Y18284D01*
Y18291D01*
Y18298D01*
Y18304D01*
Y18311D01*
Y18318D01*
Y18325D01*
Y18331D01*
Y18338D01*
Y18345D01*
Y18352D01*
Y18358D01*
Y18365D01*
Y18372D01*
Y18379D01*
Y18386D01*
Y18392D01*
Y18399D01*
Y18406D01*
Y18413D01*
Y18419D01*
Y18426D01*
Y18433D01*
Y18440D01*
Y18446D01*
Y18453D01*
Y18460D01*
Y18467D01*
Y18474D01*
Y18480D01*
Y18487D01*
Y18494D01*
Y18501D01*
Y18507D01*
Y18514D01*
Y18521D01*
Y18528D01*
Y18534D01*
Y18541D01*
Y18548D01*
Y18555D01*
Y18562D01*
Y18568D01*
Y18575D01*
Y18582D01*
Y18589D01*
Y18595D01*
Y18602D01*
Y18609D01*
Y18616D01*
Y18622D01*
Y18629D01*
Y18636D01*
Y18643D01*
Y18650D01*
Y18656D01*
Y18663D01*
Y18670D01*
Y18677D01*
Y18683D01*
Y18690D01*
Y18697D01*
Y18704D01*
Y18710D01*
Y18717D01*
Y18724D01*
Y18731D01*
Y18738D01*
Y18744D01*
Y18751D01*
Y18758D01*
Y18765D01*
Y18771D01*
Y18778D01*
Y18785D01*
Y18792D01*
Y18798D01*
Y18805D01*
Y18812D01*
Y18819D01*
Y18826D01*
Y18832D01*
Y18839D01*
Y18846D01*
Y18853D01*
Y18859D01*
Y18866D01*
Y18873D01*
Y18880D01*
Y18886D01*
Y18893D01*
Y18900D01*
Y18907D01*
Y18914D01*
Y18920D01*
Y18927D01*
Y18934D01*
Y18941D01*
Y18947D01*
Y18954D01*
Y18961D01*
Y18968D01*
Y18974D01*
Y18981D01*
Y18988D01*
Y18995D01*
Y19001D01*
Y19008D01*
Y19015D01*
Y19022D01*
Y19029D01*
Y19035D01*
Y19042D01*
Y19049D01*
Y19056D01*
Y19062D01*
Y19069D01*
X26360D01*
Y19076D01*
Y19083D01*
X26367D01*
Y19089D01*
Y19096D01*
X26380D01*
Y19103D01*
Y19110D01*
X26387D01*
Y19117D01*
X26400D01*
Y19123D01*
X26414D01*
Y19130D01*
X26509D01*
Y19123D01*
D02*
G37*
G36*
X26170Y18717D02*
X26184D01*
Y18710D01*
X26197D01*
Y18704D01*
X26204D01*
Y18697D01*
X26211D01*
Y18690D01*
X26218D01*
Y18683D01*
X26224D01*
Y18677D01*
X26231D01*
Y18670D01*
X26238D01*
Y18663D01*
Y18656D01*
X26245D01*
Y18650D01*
Y18643D01*
Y18636D01*
Y18629D01*
Y18622D01*
Y18616D01*
Y18609D01*
Y18602D01*
Y18595D01*
Y18589D01*
Y18582D01*
Y18575D01*
Y18568D01*
Y18562D01*
Y18555D01*
X26238D01*
Y18548D01*
Y18541D01*
Y18534D01*
Y18528D01*
Y18521D01*
Y18514D01*
Y18507D01*
Y18501D01*
Y18494D01*
Y18487D01*
Y18480D01*
Y18474D01*
Y18467D01*
Y18460D01*
Y18453D01*
Y18446D01*
Y18440D01*
Y18433D01*
X26231D01*
Y18426D01*
Y18419D01*
Y18413D01*
Y18406D01*
Y18399D01*
Y18392D01*
Y18386D01*
Y18379D01*
Y18372D01*
Y18365D01*
Y18358D01*
Y18352D01*
Y18345D01*
Y18338D01*
Y18331D01*
Y18325D01*
Y18318D01*
Y18311D01*
Y18304D01*
Y18298D01*
Y18291D01*
Y18284D01*
Y18277D01*
Y18270D01*
Y18264D01*
Y18257D01*
Y18250D01*
Y18243D01*
Y18237D01*
Y18230D01*
Y18223D01*
X26224D01*
Y18216D01*
Y18210D01*
Y18203D01*
Y18196D01*
Y18189D01*
Y18182D01*
Y18176D01*
Y18169D01*
Y18162D01*
Y18155D01*
Y18149D01*
Y18142D01*
Y18135D01*
Y18128D01*
Y18122D01*
Y18115D01*
X26218D01*
Y18108D01*
Y18101D01*
Y18094D01*
Y18088D01*
Y18081D01*
Y18074D01*
Y18067D01*
Y18061D01*
Y18054D01*
Y18047D01*
X26211D01*
Y18040D01*
Y18034D01*
Y18027D01*
Y18020D01*
Y18013D01*
Y18006D01*
Y18000D01*
X26204D01*
Y17993D01*
Y17986D01*
Y17979D01*
Y17973D01*
Y17966D01*
X26197D01*
Y17959D01*
Y17952D01*
Y17946D01*
Y17939D01*
Y17932D01*
Y17925D01*
Y17918D01*
Y17912D01*
Y17905D01*
Y17898D01*
Y17891D01*
Y17885D01*
Y17878D01*
X26191D01*
Y17871D01*
Y17864D01*
Y17858D01*
Y17851D01*
Y17844D01*
Y17837D01*
Y17830D01*
Y17824D01*
Y17817D01*
Y17810D01*
Y17803D01*
Y17797D01*
Y17790D01*
Y17783D01*
Y17776D01*
X26184D01*
Y17770D01*
Y17763D01*
X26177D01*
Y17756D01*
X26170D01*
Y17749D01*
X26157D01*
Y17743D01*
X26143D01*
Y17736D01*
X26042D01*
Y17743D01*
X26028D01*
Y17749D01*
X26015D01*
Y17756D01*
Y17763D01*
X26008D01*
Y17770D01*
X26001D01*
Y17776D01*
X25994D01*
Y17783D01*
X25988D01*
Y17790D01*
Y17797D01*
X25981D01*
Y17803D01*
Y17810D01*
X25974D01*
Y17817D01*
Y17824D01*
Y17830D01*
Y17837D01*
Y17844D01*
Y17851D01*
Y17858D01*
Y17864D01*
Y17871D01*
Y17878D01*
Y17885D01*
Y17891D01*
Y17898D01*
Y17905D01*
Y17912D01*
Y17918D01*
X25967D01*
Y17925D01*
Y17932D01*
Y17939D01*
Y17946D01*
Y17952D01*
X25961D01*
Y17959D01*
Y17966D01*
Y17973D01*
Y17979D01*
Y17986D01*
Y17993D01*
Y18000D01*
Y18006D01*
Y18013D01*
Y18020D01*
Y18027D01*
Y18034D01*
Y18040D01*
Y18047D01*
Y18054D01*
Y18061D01*
Y18067D01*
Y18074D01*
Y18081D01*
Y18088D01*
Y18094D01*
Y18101D01*
Y18108D01*
Y18115D01*
Y18122D01*
Y18128D01*
Y18135D01*
Y18142D01*
Y18149D01*
Y18155D01*
Y18162D01*
Y18169D01*
Y18176D01*
Y18182D01*
Y18189D01*
Y18196D01*
Y18203D01*
Y18210D01*
Y18216D01*
Y18223D01*
Y18230D01*
Y18237D01*
Y18243D01*
Y18250D01*
Y18257D01*
Y18264D01*
Y18270D01*
Y18277D01*
Y18284D01*
Y18291D01*
Y18298D01*
Y18304D01*
Y18311D01*
Y18318D01*
Y18325D01*
Y18331D01*
Y18338D01*
Y18345D01*
Y18352D01*
Y18358D01*
Y18365D01*
Y18372D01*
Y18379D01*
Y18386D01*
Y18392D01*
Y18399D01*
Y18406D01*
Y18413D01*
Y18419D01*
Y18426D01*
Y18433D01*
Y18440D01*
Y18446D01*
Y18453D01*
Y18460D01*
Y18467D01*
Y18474D01*
Y18480D01*
Y18487D01*
Y18494D01*
Y18501D01*
Y18507D01*
Y18514D01*
Y18521D01*
Y18528D01*
Y18534D01*
Y18541D01*
Y18548D01*
Y18555D01*
Y18562D01*
Y18568D01*
Y18575D01*
Y18582D01*
Y18589D01*
Y18595D01*
Y18602D01*
Y18609D01*
Y18616D01*
Y18622D01*
Y18629D01*
Y18636D01*
Y18643D01*
Y18650D01*
X25967D01*
Y18656D01*
Y18663D01*
X25974D01*
Y18670D01*
Y18677D01*
Y18683D01*
X25981D01*
Y18690D01*
X25988D01*
Y18697D01*
X25994D01*
Y18704D01*
X26001D01*
Y18710D01*
X26021D01*
Y18717D01*
X26042D01*
Y18724D01*
X26170D01*
Y18717D01*
D02*
G37*
G36*
X28099Y18149D02*
X28113D01*
Y18142D01*
X28120D01*
Y18135D01*
X28127D01*
Y18128D01*
Y18122D01*
X28133D01*
Y18115D01*
X28147D01*
Y18108D01*
X28154D01*
Y18101D01*
Y18094D01*
Y18088D01*
X28160D01*
Y18081D01*
Y18074D01*
Y18067D01*
X28167D01*
Y18061D01*
Y18054D01*
Y18047D01*
Y18040D01*
Y18034D01*
Y18027D01*
Y18020D01*
X28160D01*
Y18013D01*
Y18006D01*
Y18000D01*
Y17993D01*
X28154D01*
Y17986D01*
Y17979D01*
X28147D01*
Y17973D01*
X28140D01*
Y17966D01*
Y17959D01*
X28133D01*
Y17952D01*
Y17946D01*
X28120D01*
Y17939D01*
X28113D01*
Y17932D01*
X28106D01*
Y17925D01*
X28093D01*
Y17918D01*
X28079D01*
Y17912D01*
X28025D01*
Y17918D01*
X28011D01*
Y17925D01*
X27998D01*
Y17932D01*
X27984D01*
Y17939D01*
X27978D01*
Y17946D01*
X27964D01*
Y17952D01*
X27957D01*
Y17959D01*
Y17966D01*
X27944D01*
Y17973D01*
X27937D01*
Y17979D01*
X27930D01*
Y17986D01*
Y17993D01*
X27923D01*
Y18000D01*
Y18006D01*
Y18013D01*
Y18020D01*
X27917D01*
Y18027D01*
Y18034D01*
Y18040D01*
Y18047D01*
Y18054D01*
X27923D01*
Y18061D01*
Y18067D01*
X27930D01*
Y18074D01*
Y18081D01*
X27937D01*
Y18088D01*
Y18094D01*
X27951D01*
Y18101D01*
Y18108D01*
X27957D01*
Y18115D01*
X27964D01*
Y18122D01*
Y18128D01*
X27978D01*
Y18135D01*
X27991D01*
Y18142D01*
Y18149D01*
X27998D01*
Y18155D01*
X28099D01*
Y18149D01*
D02*
G37*
%LPC*%
G36*
X28566Y17709D02*
X28546D01*
Y17702D01*
X28533D01*
Y17695D01*
X28526D01*
Y17688D01*
X28519D01*
Y17682D01*
Y17675D01*
X28512D01*
Y17668D01*
X28506D01*
Y17661D01*
X28499D01*
Y17655D01*
Y17648D01*
X28492D01*
Y17641D01*
X28485D01*
Y17634D01*
Y17627D01*
X28479D01*
Y17621D01*
Y17614D01*
X28472D01*
Y17607D01*
Y17600D01*
X28465D01*
Y17594D01*
X28458D01*
Y17587D01*
X28451D01*
Y17580D01*
Y17573D01*
Y17567D01*
X28445D01*
Y17560D01*
Y17553D01*
Y17546D01*
X28438D01*
Y17539D01*
X28431D01*
Y17533D01*
Y17526D01*
Y17519D01*
Y17512D01*
Y17506D01*
X28424D01*
Y17499D01*
Y17492D01*
X28418D01*
Y17485D01*
Y17479D01*
Y17472D01*
Y17465D01*
X28411D01*
Y17458D01*
Y17451D01*
Y17445D01*
Y17438D01*
Y17431D01*
Y17424D01*
Y17418D01*
Y17411D01*
Y17404D01*
Y17397D01*
Y17391D01*
Y17384D01*
Y17377D01*
Y17370D01*
Y17363D01*
X28418D01*
Y17357D01*
Y17350D01*
Y17343D01*
Y17336D01*
X28424D01*
Y17330D01*
X28431D01*
Y17323D01*
X28438D01*
Y17316D01*
X28445D01*
Y17309D01*
X28458D01*
Y17316D01*
X28472D01*
Y17323D01*
X28485D01*
Y17330D01*
X28492D01*
Y17336D01*
X28499D01*
Y17343D01*
X28506D01*
Y17350D01*
X28519D01*
Y17357D01*
X28526D01*
Y17363D01*
X28533D01*
Y17370D01*
X28539D01*
Y17377D01*
X28546D01*
Y17384D01*
Y17391D01*
X28560D01*
Y17397D01*
X28566D01*
Y17404D01*
Y17411D01*
Y17418D01*
Y17424D01*
Y17431D01*
Y17438D01*
Y17445D01*
Y17451D01*
Y17458D01*
Y17465D01*
Y17472D01*
Y17479D01*
Y17485D01*
Y17492D01*
Y17499D01*
Y17506D01*
Y17512D01*
Y17519D01*
Y17526D01*
Y17533D01*
Y17539D01*
Y17546D01*
Y17553D01*
Y17560D01*
Y17567D01*
Y17573D01*
Y17580D01*
Y17587D01*
Y17594D01*
Y17600D01*
Y17607D01*
Y17614D01*
Y17621D01*
Y17627D01*
Y17634D01*
Y17641D01*
Y17648D01*
Y17655D01*
Y17661D01*
Y17668D01*
Y17675D01*
Y17682D01*
Y17688D01*
Y17695D01*
Y17702D01*
Y17709D01*
D02*
G37*
G36*
X29264Y18006D02*
X29243D01*
Y18000D01*
X29223D01*
Y17993D01*
X29216D01*
Y17986D01*
Y17979D01*
X29203D01*
Y17973D01*
X29196D01*
Y17966D01*
X29189D01*
Y17959D01*
X29182D01*
Y17952D01*
Y17946D01*
X29176D01*
Y17939D01*
Y17932D01*
X29169D01*
Y17925D01*
X29162D01*
Y17918D01*
Y17912D01*
Y17905D01*
X29155D01*
Y17898D01*
Y17891D01*
X29149D01*
Y17885D01*
Y17878D01*
Y17871D01*
Y17864D01*
X29155D01*
Y17858D01*
Y17851D01*
Y17844D01*
X29169D01*
Y17837D01*
X29189D01*
Y17844D01*
X29210D01*
Y17851D01*
X29216D01*
Y17858D01*
X29230D01*
Y17864D01*
X29237D01*
Y17871D01*
Y17878D01*
X29243D01*
Y17885D01*
X29250D01*
Y17891D01*
X29257D01*
Y17898D01*
X29264D01*
Y17905D01*
Y17912D01*
X29270D01*
Y17918D01*
Y17925D01*
Y17932D01*
X29277D01*
Y17939D01*
Y17946D01*
Y17952D01*
Y17959D01*
X29284D01*
Y17966D01*
Y17973D01*
Y17979D01*
X29277D01*
Y17986D01*
Y17993D01*
X29270D01*
Y18000D01*
X29264D01*
Y18006D01*
D02*
G37*
%LPD*%
D10*
X7720Y9780D02*
Y10030D01*
X8480Y9780D02*
Y10030D01*
X6650Y9780D02*
Y10030D01*
X7410Y9780D02*
Y10030D01*
X4770Y9780D02*
Y10030D01*
X5530Y9780D02*
Y10030D01*
X5710Y9780D02*
Y10030D01*
X6470Y9780D02*
Y10030D01*
X35580Y11100D02*
X35830D01*
X35580Y11860D02*
X35830D01*
X35580Y12000D02*
X35830D01*
X35580Y12760D02*
X35830D01*
X35580Y12900D02*
X35830D01*
X35580Y13660D02*
X35830D01*
X28784Y1236D02*
X28961Y1413D01*
X28246Y1774D02*
X28423Y1951D01*
X24730Y1230D02*
X24980D01*
X24730Y1990D02*
X24980D01*
X26020Y2240D02*
X26270D01*
X26020Y3000D02*
X26270D01*
X27010Y1760D02*
X27260D01*
X27010Y2520D02*
X27260D01*
X24730Y2940D02*
X24980D01*
X24730Y3700D02*
X24980D01*
X25870Y3550D02*
X26120D01*
X25870Y4310D02*
X26120D01*
X23620Y6680D02*
X23870D01*
X23620Y7440D02*
X23870D01*
X23140Y8030D02*
X23390D01*
X23140Y8790D02*
X23390D01*
X20070Y10270D02*
Y10520D01*
X19310Y10270D02*
Y10520D01*
X19020Y10270D02*
Y10520D01*
X18260Y10270D02*
Y10520D01*
X35960Y26100D02*
X36210D01*
X35960Y25340D02*
X36210D01*
X35940Y24890D02*
X36190D01*
X35940Y24130D02*
X36190D01*
X32820Y20420D02*
Y20670D01*
X33580Y20420D02*
Y20670D01*
X9040Y9750D02*
Y10000D01*
X9800Y9750D02*
Y10000D01*
X8520Y10800D02*
Y11050D01*
X9280Y10800D02*
Y11050D01*
X34800Y20420D02*
Y20670D01*
X34040Y20420D02*
Y20670D01*
X28670Y21250D02*
Y21500D01*
X29430Y21250D02*
Y21500D01*
X27430Y20950D02*
Y21200D01*
X28190Y20950D02*
Y21200D01*
D11*
X16610Y14880D02*
G03*
X16610Y14880I-500J0D01*
G01*
X15660Y15680D02*
G03*
X15660Y15680I-39J0D01*
G01*
X11910Y11570D02*
G03*
X11910Y11570I-500J0D01*
G01*
X10960Y12370D02*
G03*
X10960Y12370I-39J0D01*
G01*
X14670Y11570D02*
G03*
X14670Y11570I-500J0D01*
G01*
X13720Y12370D02*
G03*
X13720Y12370I-39J0D01*
G01*
X5150Y16510D02*
G03*
X5150Y16510I-500J0D01*
G01*
X4200Y17310D02*
G03*
X4200Y17310I-39J0D01*
G01*
X8460Y16510D02*
G03*
X8460Y16510I-500J0D01*
G01*
X7510Y17310D02*
G03*
X7510Y17310I-39J0D01*
G01*
X20890Y29170D02*
G03*
X20792Y29272I-100J2D01*
G01*
X18607Y29272D02*
G03*
X18490Y29170I-7J-110D01*
G01*
X19546Y14892D02*
G03*
X19546Y14892I-100J0D01*
G01*
X19046Y14142D02*
G03*
X19046Y14142I-100J0D01*
G01*
X31000Y28310D02*
G03*
X30744Y28584I-265J9D01*
G01*
X31000Y28310D02*
G03*
X31413Y27914I404J9D01*
G01*
X110Y15590D02*
X1640D01*
X90Y10590D02*
X1620D01*
X100Y5550D02*
X1630D01*
X37720Y20560D02*
X39250D01*
X37740Y15550D02*
X39270D01*
X37740Y10550D02*
X39270D01*
X37700Y5520D02*
X39230D01*
X37240Y23950D02*
X37350Y24060D01*
X37650D01*
X12384Y17070D02*
X12779D01*
X830Y28070D02*
X1100D01*
X1440Y27870D02*
Y28230D01*
X484Y27210D02*
X879D01*
X1260Y28070D02*
X1620D01*
X36464Y20800D02*
X36859D01*
X32704Y18230D02*
X33099D01*
X5070Y10710D02*
Y14410D01*
X2070Y10710D02*
X5070D01*
X2070D02*
Y14410D01*
X5070D01*
X3080Y21230D02*
X6780D01*
Y18230D02*
Y21230D01*
X3080Y18230D02*
X6780D01*
X3080D02*
Y21230D01*
X18824Y27599D02*
X20556D01*
Y27048D02*
Y27599D01*
Y27048D02*
X21029D01*
X18824D02*
Y27599D01*
X18351Y27048D02*
X18824D01*
X18351Y28741D02*
X21029D01*
Y29016D02*
X21265Y29253D01*
X18115D02*
X18351Y29016D01*
X18607Y29272D02*
X20792D01*
X20894Y29016D02*
X21029D01*
X20890Y29020D02*
X20894Y29016D01*
X20890Y29020D02*
Y29170D01*
X18351Y29016D02*
X18486D01*
X18490Y29020D01*
Y29170D01*
X21029Y27048D02*
Y27720D01*
Y28620D02*
Y29016D01*
X18351Y27048D02*
Y27720D01*
Y28620D02*
Y29016D01*
X19146Y14592D02*
X23846D01*
Y21542D01*
X19146Y14592D02*
Y21542D01*
X23846D01*
X29838Y22560D02*
Y27757D01*
Y22560D02*
X31767D01*
X32830D02*
X34035D01*
X35350D02*
Y27324D01*
X35074Y22560D02*
X35350D01*
X31413Y27914D02*
X34720D01*
X30429Y28584D02*
X30744D01*
X14780Y19664D02*
Y21396D01*
X13000D02*
X14780D01*
X13000Y19664D02*
Y21396D01*
Y19664D02*
X14780D01*
X14824Y22700D02*
X16556D01*
Y24480D01*
X14824D02*
X16556D01*
X14824Y22700D02*
Y24480D01*
X15130Y24484D02*
Y26216D01*
X13350D02*
X15130D01*
X13350Y24484D02*
Y26216D01*
Y24484D02*
X15130D01*
X16000Y10944D02*
Y12676D01*
Y10944D02*
X17780D01*
Y12676D01*
X16000D02*
X17780D01*
X15044Y19780D02*
X16776D01*
X15044Y18000D02*
Y19780D01*
Y18000D02*
X16776D01*
Y19780D01*
X11310Y24250D02*
Y26760D01*
X8626D02*
X11310D01*
X8626Y24250D02*
Y26760D01*
Y24250D02*
X11310D01*
X12420Y3300D02*
X14930D01*
Y5984D01*
X12420D02*
X14930D01*
X12420Y3300D02*
Y5984D01*
X1870Y2000D02*
Y1760D01*
X2050D01*
X1990Y1880D01*
Y1940D01*
X2050Y2000D01*
X2170D01*
X2230Y1940D01*
Y1820D01*
X2170Y1760D01*
X1870Y2120D02*
X2110D01*
X2230Y2240D01*
X2110Y2360D01*
X1870D01*
X37220Y560D02*
X37160Y620D01*
Y740D01*
X37220Y800D01*
X37280D01*
X37340Y740D01*
Y680D01*
Y740D01*
X37400Y800D01*
X37460D01*
X37520Y740D01*
Y620D01*
X37460Y560D01*
X37160Y920D02*
X37400D01*
X37520Y1040D01*
X37400Y1160D01*
X37160D01*
X37220Y1280D02*
X37160Y1340D01*
Y1460D01*
X37220Y1520D01*
X37280D01*
X37340Y1460D01*
Y1400D01*
Y1460D01*
X37400Y1520D01*
X37460D01*
X37520Y1460D01*
Y1340D01*
X37460Y1280D01*
X37220Y11570D02*
X37160Y11630D01*
Y11750D01*
X37220Y11810D01*
X37280D01*
X37340Y11750D01*
Y11690D01*
Y11750D01*
X37400Y11810D01*
X37460D01*
X37520Y11750D01*
Y11630D01*
X37460Y11570D01*
X37160Y11930D02*
X37400D01*
X37520Y12050D01*
X37400Y12170D01*
X37160D01*
X37220Y12290D02*
X37160Y12350D01*
Y12470D01*
X37220Y12530D01*
X37280D01*
X37340Y12470D01*
Y12410D01*
Y12470D01*
X37400Y12530D01*
X37460D01*
X37520Y12470D01*
Y12350D01*
X37460Y12290D01*
X36660Y1990D02*
X36260D01*
X36393Y2123D01*
X36260Y2257D01*
X36660D01*
X36260Y2390D02*
Y2523D01*
Y2457D01*
X36660D01*
Y2390D01*
Y2523D01*
X36327Y2990D02*
X36260Y2923D01*
Y2790D01*
X36327Y2723D01*
X36593D01*
X36660Y2790D01*
Y2923D01*
X36593Y2990D01*
X37010Y22890D02*
X36950Y22950D01*
Y23070D01*
X37010Y23130D01*
X37070D01*
X37130Y23070D01*
Y23010D01*
Y23070D01*
X37190Y23130D01*
X37250D01*
X37310Y23070D01*
Y22950D01*
X37250Y22890D01*
X36950Y23250D02*
X37190D01*
X37310Y23370D01*
X37190Y23490D01*
X36950D01*
X37010Y23610D02*
X36950Y23670D01*
Y23790D01*
X37010Y23850D01*
X37070D01*
X37130Y23790D01*
Y23730D01*
Y23790D01*
X37190Y23850D01*
X37250D01*
X37310Y23790D01*
Y23670D01*
X37250Y23610D01*
X38740Y25720D02*
X39007D01*
X39140Y25853D01*
X39007Y25987D01*
X38740D01*
Y26120D02*
Y26253D01*
Y26187D01*
X39140D01*
Y26120D01*
Y26253D01*
Y26453D02*
X38740D01*
X39140Y26720D01*
X38740D01*
X37730Y25977D02*
Y25710D01*
X37930D01*
X37863Y25843D01*
Y25910D01*
X37930Y25977D01*
X38063D01*
X38130Y25910D01*
Y25777D01*
X38063Y25710D01*
X37730Y26110D02*
X37997D01*
X38130Y26243D01*
X37997Y26376D01*
X37730D01*
X35680Y20040D02*
Y20280D01*
Y20160D01*
X36040D01*
Y20400D02*
X35680D01*
X35800Y20520D01*
X35680Y20640D01*
X36040D01*
X35740Y21000D02*
X35680Y20940D01*
Y20820D01*
X35740Y20760D01*
X35800D01*
X35860Y20820D01*
Y20940D01*
X35920Y21000D01*
X35980D01*
X36040Y20940D01*
Y20820D01*
X35980Y20760D01*
X34940Y20190D02*
Y20430D01*
Y20310D01*
X35300D01*
X34940Y20550D02*
X35300D01*
Y20730D01*
X35240Y20790D01*
X35000D01*
X34940Y20730D01*
Y20550D01*
Y20910D02*
Y21030D01*
Y20970D01*
X35300D01*
Y20910D01*
Y21030D01*
X33490Y19200D02*
Y19440D01*
Y19320D01*
X33850D01*
X33490Y19560D02*
X33850D01*
Y19740D01*
X33790Y19800D01*
X33550D01*
X33490Y19740D01*
Y19560D01*
Y20100D02*
Y19980D01*
X33550Y19920D01*
X33790D01*
X33850Y19980D01*
Y20100D01*
X33790Y20160D01*
X33550D01*
X33490Y20100D01*
X32220Y20050D02*
Y20290D01*
Y20170D01*
X32580D01*
X32280Y20650D02*
X32220Y20590D01*
Y20470D01*
X32280Y20410D01*
X32520D01*
X32580Y20470D01*
Y20590D01*
X32520Y20650D01*
X32220Y20770D02*
X32580D01*
X32460D01*
X32220Y21010D01*
X32400Y20830D01*
X32580Y21010D01*
X31780Y19340D02*
X31420D01*
Y19520D01*
X31480Y19580D01*
X31600D01*
X31660Y19520D01*
Y19340D01*
Y19460D02*
X31780Y19580D01*
X31420Y19940D02*
Y19700D01*
X31780D01*
Y19940D01*
X31600Y19700D02*
Y19820D01*
X31480Y20300D02*
X31420Y20240D01*
Y20120D01*
X31480Y20060D01*
X31540D01*
X31600Y20120D01*
Y20240D01*
X31660Y20300D01*
X31720D01*
X31780Y20240D01*
Y20120D01*
X31720Y20060D01*
X31420Y20660D02*
Y20420D01*
X31780D01*
Y20660D01*
X31600Y20420D02*
Y20540D01*
X31420Y20780D02*
Y21019D01*
Y20900D01*
X31780D01*
X30477Y19900D02*
X30410Y19967D01*
Y20100D01*
X30477Y20167D01*
X30543D01*
X30610Y20100D01*
Y20033D01*
Y20100D01*
X30676Y20167D01*
X30743D01*
X30810Y20100D01*
Y19967D01*
X30743Y19900D01*
X30410Y20300D02*
X30676D01*
X30810Y20433D01*
X30676Y20566D01*
X30410D01*
X30477Y20700D02*
X30410Y20766D01*
Y20900D01*
X30477Y20966D01*
X30543D01*
X30610Y20900D01*
Y20833D01*
Y20900D01*
X30676Y20966D01*
X30743D01*
X30810Y20900D01*
Y20766D01*
X30743Y20700D01*
X3760Y5630D02*
X4160D01*
X3760Y4630D02*
X4160D01*
X3960Y4830D02*
Y4430D01*
X15280Y13600D02*
Y13300D01*
X15340Y13240D01*
X15460D01*
X15520Y13300D01*
Y13600D01*
X15640D02*
Y13240D01*
X15820D01*
X15880Y13300D01*
Y13360D01*
X15820Y13420D01*
X15640D01*
X15820D01*
X15880Y13480D01*
Y13540D01*
X15820Y13600D01*
X15640D01*
X16180D02*
X16060D01*
X16000Y13540D01*
Y13300D01*
X16060Y13240D01*
X16180D01*
X16240Y13300D01*
Y13540D01*
X16180Y13600D01*
X16540D02*
X16420D01*
X16360Y13540D01*
Y13300D01*
X16420Y13240D01*
X16540D01*
X16600Y13300D01*
Y13540D01*
X16540Y13600D01*
X16720D02*
X16959D01*
X16839D01*
Y13240D01*
X13140Y17280D02*
Y16920D01*
X13320D01*
X13380Y16980D01*
Y17040D01*
X13320Y17100D01*
X13140D01*
X13320D01*
X13380Y17160D01*
Y17220D01*
X13320Y17280D01*
X13140D01*
X13500Y16920D02*
Y17160D01*
X13620Y17280D01*
X13740Y17160D01*
Y16920D01*
Y17100D01*
X13500D01*
X13860Y17280D02*
X14100D01*
X13980D01*
Y16920D01*
X3850Y14870D02*
Y15230D01*
X4030D01*
X4090Y15170D01*
Y15050D01*
X4030Y14990D01*
X3850D01*
X3970D02*
X4090Y14870D01*
X4450Y15230D02*
X4210D01*
Y14870D01*
X4450D01*
X4210Y15050D02*
X4330D01*
X4810Y15170D02*
X4750Y15230D01*
X4630D01*
X4570Y15170D01*
Y15110D01*
X4630Y15050D01*
X4750D01*
X4810Y14990D01*
Y14930D01*
X4750Y14870D01*
X4630D01*
X4570Y14930D01*
X5170Y15230D02*
X4930D01*
Y14870D01*
X5170D01*
X4930Y15050D02*
X5050D01*
X5290Y15230D02*
X5529D01*
X5410D01*
Y14870D01*
X7100Y14860D02*
Y15220D01*
X7280D01*
X7340Y15160D01*
Y15040D01*
X7280Y14980D01*
X7100D01*
X7640Y15220D02*
X7520D01*
X7460Y15160D01*
Y14920D01*
X7520Y14860D01*
X7640D01*
X7700Y14920D01*
Y15160D01*
X7640Y15220D01*
X7820D02*
Y14860D01*
X7940Y14980D01*
X8060Y14860D01*
Y15220D01*
X8420D02*
X8180D01*
Y14860D01*
X8420D01*
X8180Y15040D02*
X8300D01*
X8540Y14860D02*
Y15220D01*
X8719D01*
X8779Y15160D01*
Y15040D01*
X8719Y14980D01*
X8540D01*
X8659D02*
X8779Y14860D01*
D75*
X820Y28070D02*
G03*
X820Y28070I-120J0D01*
G01*
X987Y28271D02*
G03*
X959Y27835I-287J-201D01*
G01*
X15620Y27960D02*
X15720Y27860D01*
Y27360D02*
Y27860D01*
Y27360D02*
Y27860D01*
X15770Y27910D01*
X15820D01*
Y27410D02*
Y27910D01*
Y27410D02*
X15870Y27360D01*
Y27960D01*
X15620D02*
X15870D01*
X15620Y27360D02*
Y27960D01*
X15305Y27360D02*
Y28531D01*
X15935Y27360D02*
Y28531D01*
X15305Y27360D02*
X15935D01*
X15305Y28531D02*
X15935D01*
X21920Y25040D02*
X22020Y24940D01*
Y24440D02*
Y24940D01*
Y24440D02*
Y24940D01*
X22070Y24990D01*
X22120D01*
Y24490D02*
Y24990D01*
Y24490D02*
X22170Y24440D01*
Y25040D01*
X21920D02*
X22170D01*
X21920Y24440D02*
Y25040D01*
X21605Y24440D02*
Y25611D01*
X22235Y24440D02*
Y25611D01*
X21605Y24440D02*
X22235D01*
X21605Y25611D02*
X22235D01*
X16890Y10120D02*
X16990Y10220D01*
X17490D01*
X16990D02*
X17490D01*
X16940Y10270D02*
X16990Y10220D01*
X16940Y10270D02*
Y10320D01*
X17440D01*
X17490Y10370D01*
X16890D02*
X17490D01*
X16890Y10120D02*
Y10370D01*
Y10120D02*
X17490D01*
X16319Y9805D02*
X17490D01*
X16319Y10435D02*
X17490D01*
Y9805D02*
Y10435D01*
X16319Y9805D02*
Y10435D01*
X16030Y20520D02*
X16130Y20620D01*
X15530Y20520D02*
X16030D01*
X15530D02*
X16030D01*
X16080Y20470D01*
Y20420D02*
Y20470D01*
X15580Y20420D02*
X16080D01*
X15530Y20370D02*
X15580Y20420D01*
X15530Y20370D02*
X16130D01*
Y20620D01*
X15530D02*
X16130D01*
X15530Y20935D02*
X16701D01*
X15530Y20305D02*
X16701D01*
X15530D02*
Y20935D01*
X16701Y20305D02*
Y20935D01*
D79*
X6252Y24034D02*
Y29040D01*
X2708Y24034D02*
Y29040D01*
X6252D01*
X2708Y24034D02*
X6252D01*
X25031Y28420D02*
X25140Y27660D01*
X24000Y28420D02*
X25031D01*
X23890Y27660D02*
X23999Y28424D01*
X26140Y27660D02*
X26249Y28420D01*
X27281D01*
X27390Y27660D01*
X23081Y25453D02*
Y29260D01*
X28199Y25453D02*
Y29270D01*
X23081Y25453D02*
X28199D01*
X23071Y29266D02*
X28189D01*
X33560Y5020D02*
X35960D01*
X33760Y-780D02*
Y20D01*
Y-780D02*
X35760D01*
Y20D01*
X33560Y58D02*
Y5020D01*
X35960Y58D02*
Y5020D01*
X33560Y58D02*
X35960D01*
X35160Y8730D02*
X36380D01*
Y6330D02*
Y8730D01*
X35160Y6330D02*
Y8730D01*
Y6330D02*
X36380D01*
D93*
X10424Y19670D02*
G03*
X10424Y19680I-1604J0D01*
G01*
X10424Y19670D02*
G03*
X10424Y19670I-1604J0D01*
G01*
X2930Y22270D02*
G03*
X2930Y22270I-1280J0D01*
G01*
X13121Y27601D02*
Y27719D01*
X13082Y27601D02*
Y27719D01*
X13161D01*
X13082Y26301D02*
X13161D01*
X13082D02*
Y26419D01*
X13121Y26301D02*
Y26419D01*
X12137D02*
X13161D01*
Y26301D02*
Y26419D01*
Y27601D02*
Y27719D01*
X12137Y27601D02*
X13161D01*
X33890Y6210D02*
X34900D01*
X33890Y5750D02*
X34900D01*
Y6210D01*
X33890Y5750D02*
Y6210D01*
X9750Y22840D02*
X10210D01*
X9750Y21830D02*
Y22840D01*
X10210Y21830D02*
Y22840D01*
X9750Y21830D02*
X10210D01*
X18181Y18509D02*
X18299D01*
X18181Y18548D02*
X18299D01*
Y18469D02*
Y18548D01*
X16881Y18469D02*
Y18548D01*
X16999D01*
X16881Y18509D02*
X16999D01*
Y18469D02*
Y19493D01*
X16881Y18469D02*
X16999D01*
X18181D02*
X18299D01*
X18181D02*
Y19493D01*
X16140Y21420D02*
X17150D01*
Y21880D01*
X16140Y21420D02*
Y21880D01*
X17150D01*
X16140D02*
X17150D01*
Y22340D01*
X16140Y21880D02*
Y22340D01*
X17150D01*
X14940Y21170D02*
X15400D01*
X14940Y20160D02*
X15400D01*
X14940D02*
Y21170D01*
X15400Y20160D02*
Y21170D01*
X14940Y21420D02*
Y21880D01*
Y21420D02*
X15950D01*
X14940Y21880D02*
X15950D01*
Y21420D02*
Y21880D01*
X9229Y22899D02*
X10253D01*
X9229Y22781D02*
Y22899D01*
Y24081D02*
Y24199D01*
Y24081D02*
X10253D01*
X9269D02*
Y24199D01*
X9308Y24081D02*
Y24199D01*
X9229D02*
X9308D01*
X9229Y22781D02*
X9308D01*
Y22899D01*
X9269Y22781D02*
Y22899D01*
X4160Y9560D02*
Y10570D01*
X4620Y9560D02*
Y10570D01*
X4160D02*
X4620D01*
X4160Y9560D02*
X4620D01*
X14110Y7920D02*
Y8930D01*
X14570Y7920D02*
Y8930D01*
X14110D02*
X14570D01*
X14110Y7920D02*
X14570D01*
X15280Y7470D02*
X16290D01*
X15280Y7010D02*
X16290D01*
Y7470D01*
X15280Y7010D02*
Y7470D01*
X15119Y4617D02*
Y5641D01*
X15001D02*
X15119D01*
X16301D02*
X16419D01*
X16301Y4617D02*
Y5641D01*
Y5601D02*
X16419D01*
X16301Y5562D02*
X16419D01*
Y5641D01*
X15001Y5562D02*
Y5641D01*
Y5562D02*
X15119D01*
X15001Y5601D02*
X15119D01*
X23840Y9290D02*
Y9670D01*
X23020Y9290D02*
X23840D01*
X23020D02*
Y9670D01*
X23840D01*
Y8910D02*
Y9290D01*
X23020Y8910D02*
X23840D01*
X23020D02*
Y9290D01*
X23840D01*
X25260Y4800D02*
Y5810D01*
X25720Y4800D02*
Y5810D01*
X25260D02*
X25720D01*
X25260Y4800D02*
X25720D01*
Y5420D02*
Y6240D01*
Y5420D02*
X26100D01*
Y6240D01*
X25720D02*
X26100D01*
Y5420D02*
Y6240D01*
Y5420D02*
X26480D01*
Y6240D01*
X26100D02*
X26480D01*
X10720Y21210D02*
X11180D01*
X10720Y20200D02*
Y21210D01*
X11180Y20200D02*
Y21210D01*
X10720Y20200D02*
X11180D01*
X35750Y27510D02*
X37150D01*
X35750Y26810D02*
X35750Y27510D01*
X37150Y26810D02*
Y27510D01*
X35750Y26810D02*
X37150Y26810D01*
X10424Y19365D02*
X10690D01*
X7166Y18430D02*
X7560Y18036D01*
X10424D02*
Y19660D01*
X10424Y19660D02*
X10424Y19660D01*
X10424Y19680D02*
X10424Y19680D01*
X7157Y18036D02*
X10424D01*
X7157D02*
Y19670D01*
X7157Y18371D02*
X7157Y18371D01*
Y19670D01*
X6901Y19365D02*
X7157D01*
Y18627D02*
Y19670D01*
X10424Y19680D02*
Y21304D01*
X7157Y19670D02*
Y20713D01*
X10424Y19975D02*
X10690D01*
X7166Y20910D02*
X7560Y21304D01*
X7157Y19670D02*
Y20969D01*
Y19670D02*
Y21304D01*
X7157Y20969D02*
X7157Y20969D01*
Y21304D02*
X10424D01*
X6901Y19975D02*
X7157D01*
X1345Y20725D02*
Y20990D01*
X1955Y20725D02*
Y20990D01*
X1345Y23589D02*
Y23845D01*
X607Y23589D02*
X1650D01*
X351Y23195D02*
X744Y23589D01*
X1955D02*
Y23845D01*
X351Y23589D02*
X1650D01*
X351Y23589D02*
X351Y23589D01*
X351Y20990D02*
Y23589D01*
Y20990D02*
X1650D01*
X2556Y23589D02*
X2949Y23195D01*
X1650Y23589D02*
X2949D01*
X2949Y20990D02*
Y23589D01*
X1650Y20990D02*
X2949D01*
X10670Y21830D02*
Y22840D01*
X10210Y21830D02*
Y22840D01*
Y21830D02*
X10670D01*
X10210Y22840D02*
X10670D01*
X10810Y23140D02*
X11820D01*
X10810Y22680D02*
X11820D01*
Y23140D01*
X10810Y22680D02*
Y23140D01*
X15280Y24510D02*
X16290D01*
X15280Y24970D02*
X16290D01*
X15280Y24510D02*
Y24970D01*
X16290Y24510D02*
Y24970D01*
X15280D02*
X16290D01*
X15280Y25430D02*
X16290D01*
X15280Y24970D02*
Y25430D01*
X16290Y24970D02*
Y25430D01*
X11460Y19880D02*
X11940D01*
X11350Y19990D02*
Y20235D01*
Y21335D02*
X12050D01*
X11350Y20935D02*
Y21335D01*
X12050Y19990D02*
Y20235D01*
Y20935D02*
Y21335D01*
X11900Y19840D02*
X12050Y19990D01*
X11500Y19840D02*
X11900D01*
X11350Y19990D02*
X11500Y19840D01*
X12140Y25220D02*
X13150D01*
X12140Y25680D02*
X13150D01*
X12140Y25220D02*
Y25680D01*
X13150Y25220D02*
Y25680D01*
X12140D02*
X13150D01*
X12140Y26140D02*
X13150D01*
X12140Y25680D02*
Y26140D01*
X13150Y25680D02*
Y26140D01*
X35290Y8810D02*
X36300D01*
X35290Y9270D02*
X36300D01*
X35290Y8810D02*
Y9270D01*
X36300Y8810D02*
Y9270D01*
X35230Y6250D02*
X36240D01*
X35230Y5790D02*
X36240D01*
Y6250D01*
X35230Y5790D02*
Y6250D01*
X12060Y24910D02*
X13070D01*
X12060Y24450D02*
X13070D01*
Y24910D01*
X12060Y24450D02*
Y24910D01*
X17920Y26700D02*
X17920Y27400D01*
X16520Y26700D02*
Y27400D01*
X17920Y27400D01*
X16520Y26700D02*
X17920D01*
X16520Y27410D02*
X17530D01*
X16520Y27870D02*
X17530D01*
X16520Y27410D02*
Y27870D01*
X17530Y27410D02*
Y27870D01*
X16370Y26170D02*
Y27180D01*
X15910Y26170D02*
Y27180D01*
Y26170D02*
X16370D01*
X15910Y27180D02*
X16370D01*
X14790Y27420D02*
Y28430D01*
X14330Y27420D02*
Y28430D01*
Y27420D02*
X14790D01*
X14330Y28430D02*
X14790D01*
X16370Y26630D02*
X17380D01*
X16370Y26170D02*
X17380D01*
Y26630D01*
X16370Y26170D02*
Y26630D01*
X23870Y23670D02*
X23870Y24370D01*
X22470Y23670D02*
Y24370D01*
X23870Y24370D01*
X22470Y23670D02*
X23870D01*
X4030Y22450D02*
Y23460D01*
X3570Y22450D02*
Y23460D01*
Y22450D02*
X4030D01*
X3570Y23460D02*
X4030D01*
X31550Y3860D02*
X32560D01*
X31550Y4320D02*
X32560D01*
X31550Y3860D02*
Y4320D01*
X32560Y3860D02*
Y4320D01*
X21350Y24150D02*
X22360D01*
X21350Y23690D02*
X22360D01*
Y24150D01*
X21350Y23690D02*
Y24150D01*
X21060Y24430D02*
Y25440D01*
X20600Y24430D02*
Y25440D01*
Y24430D02*
X21060D01*
X20600Y25440D02*
X21060D01*
X31850Y3850D02*
X32860D01*
X31850Y3390D02*
X32860D01*
Y3850D01*
X31850Y3390D02*
Y3850D01*
X31600Y4370D02*
Y5380D01*
X32060Y4370D02*
Y5380D01*
X31600D02*
X32060D01*
X31600Y4370D02*
X32060D01*
X17640Y9800D02*
X18100D01*
X17640Y10810D02*
X18100D01*
Y9800D02*
Y10810D01*
X17640Y9800D02*
Y10810D01*
X36380Y13540D02*
Y14550D01*
X36840Y13540D02*
Y14550D01*
X36380D02*
X36840D01*
X36380Y13540D02*
X36840D01*
X35240Y14560D02*
X36250D01*
X35240Y14100D02*
X36250D01*
Y14560D01*
X35240Y14100D02*
Y14560D01*
X10110Y27330D02*
X11120D01*
X10110Y27790D02*
X11120D01*
X10110Y27330D02*
Y27790D01*
X11120Y27330D02*
Y27790D01*
X10110Y26870D02*
X11120D01*
X10110Y27330D02*
X11120D01*
X10110Y26870D02*
Y27330D01*
X11120Y26870D02*
Y27330D01*
X15280Y6550D02*
X16290D01*
X15280Y7010D02*
X16290D01*
X15280Y6550D02*
Y7010D01*
X16290Y6550D02*
Y7010D01*
X35930Y28000D02*
X36940D01*
X35930Y28460D02*
X36940D01*
X35930Y28000D02*
Y28460D01*
X36940Y28000D02*
Y28460D01*
X35930Y27980D02*
X36940D01*
X35930Y27520D02*
X36940D01*
Y27980D01*
X35930Y27520D02*
Y27980D01*
X32520Y4370D02*
Y5380D01*
X32060Y4370D02*
Y5380D01*
Y4370D02*
X32520D01*
X32060Y5380D02*
X32520D01*
X11360Y23280D02*
Y24290D01*
Y23280D02*
X11820D01*
X11360Y24290D02*
X11820D01*
Y23280D02*
Y24290D01*
X21100Y9210D02*
Y9590D01*
X20280Y9210D02*
X21100D01*
X20280D02*
Y9590D01*
X21100D01*
Y9970D01*
X20280Y9590D02*
X21100D01*
X20280D02*
Y9970D01*
X21100D01*
Y10350D01*
X20280Y9970D02*
X21100D01*
X20280D02*
Y10350D01*
X21100D01*
Y10560D02*
X21100Y10940D01*
X20280Y10560D02*
X21100D01*
X20280Y10940D02*
X20280Y10560D01*
X20280Y10940D02*
X21100D01*
X31470Y2270D02*
Y3280D01*
X31930Y2270D02*
Y3280D01*
X31470D02*
X31930D01*
X31470Y2270D02*
X31930D01*
X13500Y13880D02*
X14510D01*
X13500Y14340D02*
X14510D01*
X13500Y13880D02*
Y14340D01*
X14510Y13880D02*
Y14340D01*
X10940Y9340D02*
Y10350D01*
X10480Y9340D02*
Y10350D01*
Y9340D02*
X10940D01*
X10480Y10350D02*
X10940D01*
X14880Y9950D02*
X15890D01*
X14880Y10410D02*
X15890D01*
X14880Y9950D02*
Y10410D01*
X15890Y9950D02*
Y10410D01*
X18820Y11790D02*
Y12250D01*
X17810D02*
X18820D01*
X17810Y11790D02*
X18820D01*
X17810D02*
Y12250D01*
X18820Y12260D02*
Y12720D01*
X17810D02*
X18820D01*
X17810Y12260D02*
X18820D01*
X17810D02*
Y12720D01*
X17050Y8310D02*
Y9320D01*
Y8310D02*
X17510D01*
X17050Y9320D02*
X17510D01*
Y8310D02*
Y9320D01*
X4110Y3570D02*
Y4030D01*
X3100Y3570D02*
Y4030D01*
X4110D01*
X3100Y3570D02*
X4110D01*
D114*
X6820Y13730D02*
X6460D01*
Y13910D01*
X6520Y13970D01*
X6640D01*
X6700Y13910D01*
Y13730D01*
X6460Y14270D02*
Y14150D01*
X6520Y14090D01*
X6760D01*
X6820Y14150D01*
Y14270D01*
X6760Y14330D01*
X6520D01*
X6460Y14270D01*
Y14450D02*
X6820D01*
X6700Y14570D01*
X6820Y14690D01*
X6460D01*
X34620Y17940D02*
Y18300D01*
X34800D01*
X34860Y18240D01*
Y18120D01*
X34800Y18060D01*
X34620D01*
X34740D02*
X34860Y17940D01*
X34980Y18300D02*
X35220Y17940D01*
Y18300D02*
X34980Y17940D01*
X33590Y18300D02*
X33830D01*
X33710D01*
Y17940D01*
X33950Y18300D02*
X34190Y17940D01*
Y18300D02*
X33950Y17940D01*
D115*
X17909Y8739D02*
G03*
X17909Y8739I-49J0D01*
G01*
X4794Y23455D02*
G03*
X4794Y23455I-49J0D01*
G01*
X3265Y8840D02*
G03*
X3265Y8840I-49J0D01*
G01*
X2941Y2840D02*
G03*
X2941Y2840I-49J0D01*
G01*
X8052Y28329D02*
G03*
X8052Y28329I-49J0D01*
G01*
X13182Y7579D02*
G03*
X13182Y7579I-49J0D01*
G01*
X3848Y10312D02*
G03*
X3848Y10312I-49J0D01*
G01*
X14581Y7977D02*
G03*
X14581Y7977I-49J0D01*
G01*
X25980Y14600D02*
G03*
X25980Y14600I-49J0D01*
G01*
X14718Y21840D02*
G03*
X14718Y21840I-49J0D01*
G01*
X770Y25490D02*
X1020D01*
X1270D01*
X8650Y21770D02*
Y22020D01*
Y22270D01*
X7750Y25450D02*
X8000D01*
X8250D01*
D116*
X15499Y2533D02*
G03*
X15499Y2533I-49J0D01*
G01*
D117*
X26830Y14470D02*
G03*
X26830Y14470I-118J0D01*
G01*
D118*
X12597Y16772D02*
X12779Y17070D01*
X12580Y17080D02*
Y17290D01*
X12384Y17070D02*
X12597Y16772D01*
X680Y27550D02*
Y27690D01*
X484Y27210D02*
X697Y26912D01*
X680Y27220D02*
Y27430D01*
X697Y26912D02*
X879Y27210D01*
X36677Y20502D02*
X36859Y20800D01*
X36660Y20810D02*
Y21020D01*
X36464Y20800D02*
X36677Y20502D01*
X32704Y18230D02*
X32917Y17932D01*
X32900Y18240D02*
Y18450D01*
X32917Y17932D02*
X33099Y18230D01*
D119*
X2470Y19900D02*
Y20020D01*
X2790Y19900D02*
Y20020D01*
X770Y25740D02*
X1020D01*
X770D02*
X1020Y25490D01*
Y25740D02*
X1270D01*
X1020Y25490D02*
X1270Y25740D01*
X410Y26778D02*
X1640D01*
X410Y24416D02*
Y26778D01*
Y24416D02*
X1640D01*
Y26778D01*
X17980Y26410D02*
X18100D01*
X17980Y26090D02*
X18100D01*
X19170Y26410D02*
X19290D01*
X19170Y26090D02*
X19290D01*
X20360Y26080D02*
X20480D01*
X20360Y26400D02*
X20480D01*
X24840Y24330D02*
X24960D01*
X24840Y24010D02*
X24960D01*
X26310D02*
X26430D01*
X26310Y24330D02*
X26430D01*
X32080Y2700D02*
Y2820D01*
X32400Y2700D02*
Y2820D01*
X36110Y23660D02*
X36230D01*
X36110Y23340D02*
X36230D01*
X36260Y26650D02*
X36380D01*
X36260Y26330D02*
X36380D01*
X36050Y22960D02*
X36170D01*
X36050Y22640D02*
X36170D01*
X36770Y25560D02*
Y25680D01*
X37090Y25560D02*
Y25680D01*
X37100Y24380D02*
Y24500D01*
X36780Y24380D02*
Y24500D01*
X29360Y23540D02*
Y23660D01*
X29040Y23540D02*
Y23660D01*
X8400Y21770D02*
Y22020D01*
Y21770D02*
X8650Y22020D01*
X8400D02*
Y22270D01*
X8650Y22020D01*
X7362Y21410D02*
Y22640D01*
Y21410D02*
X9724D01*
Y22640D01*
X7362D02*
X9724D01*
X7750Y25700D02*
X8000D01*
X7750D02*
X8000Y25450D01*
Y25700D02*
X8250D01*
X8000Y25450D02*
X8250Y25700D01*
X7390Y26738D02*
X8620D01*
X7390Y24376D02*
Y26738D01*
Y24376D02*
X8620D01*
Y26738D01*
X8380Y24009D02*
X8390D01*
X8520Y23849D02*
Y23869D01*
Y23859D02*
Y24009D01*
X8420D02*
X8520D01*
X7270Y22659D02*
X8520D01*
Y24009D01*
X7270D02*
X8520D01*
X7270Y22659D02*
Y24009D01*
X12699Y9080D02*
X14049D01*
Y7830D02*
Y9080D01*
X12699Y7830D02*
X14049D01*
X12699D02*
Y9080D01*
X14049Y7830D02*
Y7930D01*
X13899Y7830D02*
X14049D01*
X13889D02*
X13909D01*
X14049Y7960D02*
Y7970D01*
X28990Y24780D02*
X29110D01*
X28990Y25100D02*
X29110D01*
X29070Y27930D02*
Y28050D01*
X29390Y27930D02*
Y28050D01*
X7452Y20121D02*
X7685D01*
X7569Y20237D02*
Y20004D01*
X1953Y23372D02*
Y23139D01*
X2070Y23256D02*
X1836D01*
D120*
X32390Y17790D02*
X35390D01*
X32390Y16790D02*
Y17790D01*
Y16790D02*
X35390D01*
Y17790D01*
X30110Y22150D02*
X37110D01*
X30110Y21150D02*
Y22150D01*
Y21150D02*
X37110D01*
Y22150D01*
X18116Y8423D02*
X18490Y8798D01*
X18116Y3286D02*
Y8798D01*
X21265Y3286D02*
Y8798D01*
X18116D02*
X21265D01*
X18116Y3286D02*
X21265D01*
X5090Y21386D02*
X6250D01*
X5090Y23354D02*
X6250D01*
Y21386D02*
Y23354D01*
X5090Y21386D02*
Y23354D01*
X2300Y6680D02*
X12350D01*
Y7090D01*
X2480Y8630D02*
X3275D01*
X2300Y6680D02*
Y7110D01*
X12180Y8210D02*
Y8630D01*
X2480Y8220D02*
Y8630D01*
X11385D02*
X12180D01*
X2183Y2151D02*
Y2594D01*
X13797Y2151D02*
Y2594D01*
X13029D02*
X13797D01*
X2183Y153D02*
X13797D01*
X2183Y2594D02*
X2951D01*
X13797Y153D02*
Y970D01*
X2183Y153D02*
Y970D01*
X17865Y175D02*
Y2230D01*
X17860Y170D02*
X17865Y175D01*
X14800Y170D02*
X17860D01*
X14795Y2230D02*
X15520D01*
X17150D02*
X17865D01*
X14795Y170D02*
Y2230D01*
X8476Y27040D02*
Y28260D01*
X9184Y27040D02*
Y28260D01*
X8476D02*
X9184D01*
X8476Y27040D02*
X9184D01*
X13606Y6290D02*
Y7510D01*
X14314Y6290D02*
Y7510D01*
X13606D02*
X14314D01*
X13606Y6290D02*
X14314D01*
X2510Y4120D02*
X3510D01*
X2510D02*
Y6120D01*
X3510D01*
Y4120D02*
Y6120D01*
X3700Y9742D02*
Y9938D01*
X2480Y9742D02*
Y9938D01*
X3700D01*
X2480Y9742D02*
X3700D01*
X12100Y17640D02*
Y18640D01*
X14100D01*
Y17640D02*
Y18640D01*
X12100Y17640D02*
X14100D01*
X15516Y8666D02*
X15831D01*
Y8390D02*
Y8666D01*
X14649D02*
X14964D01*
X14649Y8390D02*
Y8666D01*
X26342Y7082D02*
Y14838D01*
X34098Y7082D02*
Y14838D01*
X26342D02*
X34098D01*
X26342Y7082D02*
X34098D01*
X14497Y23920D02*
Y24107D01*
X14310D02*
X14497D01*
X12123Y23920D02*
Y24107D01*
X12310D01*
X12123Y21733D02*
Y21920D01*
Y21733D02*
X12310D01*
X14310D02*
X14497D01*
Y21920D01*
D121*
X15110Y13880D02*
Y15880D01*
X10410Y10570D02*
Y12570D01*
X13170Y10570D02*
Y12570D01*
X3650Y15510D02*
Y17510D01*
X6960Y15510D02*
Y17510D01*
D122*
X15110Y15880D02*
X17110D01*
Y13880D02*
Y15880D01*
X15110Y13880D02*
X17110D01*
X10410Y12570D02*
X12410D01*
Y10570D02*
Y12570D01*
X10410Y10570D02*
X12410D01*
X13170Y12570D02*
X15170D01*
Y10570D02*
Y12570D01*
X13170Y10570D02*
X15170D01*
X3650Y17510D02*
X5650D01*
Y15510D02*
Y17510D01*
X3650Y15510D02*
X5650D01*
X6960Y17510D02*
X8960D01*
Y15510D02*
Y17510D01*
X6960Y15510D02*
X8960D01*
D123*
X9686Y19704D02*
D03*
D124*
X1655Y21753D02*
D03*
M02*
