M48
;Layer_Color=9474304
;FILE_FORMAT=2:4
INCH,TZ
;TYPE=PLATED
T1F00S00C0.0100
T2F00S00C0.0157
T3F00S00C0.0197
T4F00S00C0.0354
T5F00S00C0.0591
T6F00S00C0.0906
T7F00S00C0.1181
;TYPE=NON_PLATED
T8F00S00C0.0197
T9F00S00C0.0472
T10F00S00C0.0630
T11F00S00C0.0709
%
T01
X26237Y270
X27035
X27833
X28630
X25440
X24643
X23845
X23047
X22250
X21453
X20655
X19857
X19060
Y690
X19570Y820
X18320Y2660
X18420Y3470
X17670Y2930
X16940Y1910
X17210Y1640
X16140Y1990
X15730Y1800
X15850Y3550
X15440Y3530
X13850Y1610
X12760Y1620
X12220Y1860
X11950Y2010
X11632Y1940
X11230Y1950
X11170Y1660
X10850Y1450
X11050Y2370
X10560Y2360
X12490Y2350
X12850Y600
X14220Y640
X11430Y600
X21050Y3510
X7850Y3530
X7290
X7310Y2380
X5300Y2390
X5010Y2370
X4530Y2390
X4160Y2420
X3880Y2380
X3590Y2360
X3340Y3420
X4100Y3330
X4580Y3310
X4540Y1740
X4200Y1650
X3240Y800
X2390
X1980Y2890
X5450Y710
X7060Y3700
X7000Y4130
X6800Y4380
X6760Y4630
X6540Y4840
X6560Y5120
X6360Y5370
Y5640
X6180Y5840
X5970Y6130
X5760Y6370
X5560Y6610
X5590Y6890
X5370Y7110
X5160Y7600
X4720Y7390
X4310Y7890
X4460Y8310
X4060Y8260
X4980Y8220
X4220Y9490
X4040Y10180
X3830Y10240
X3500Y10300
Y10530
X3682
X2760Y10520
X2550
X2548Y10316
X2350Y10330
Y10530
Y10740
X2550
X2750
X2950
X3430Y9790
X3160Y8740
X2800Y8700
X2090Y8400
X2040Y9050
X2240Y9560
X2010Y11790
X500Y10550
X200Y13550
X2670Y14040
X2917
X3164
X3411
X3659
X3906
X4153
X4400
X5410Y12320
X5740Y11360
X5760Y11060
X6000Y11010
X7790Y11560
X9050Y11770
X9110Y12100
X8800Y12060
X8870Y12380
X8440Y12460
X8510Y12830
X8150Y12760
X8230Y13140
X7840Y13060
X7910Y13440
X7510Y13390
X7560Y13810
X7190Y13740
X9400Y11830
X9320Y10390
X9070Y10380
X9580Y10390
X10000Y10060
X9930Y9420
X9791Y9160
X9390Y9110
X9370Y9350
X9070Y9380
X8790Y9400
X7560Y9180
X9200Y8070
X9440Y7870
X9580Y7380
X9360Y7150
Y6850
X9130Y6629
X8880Y6377
X8680Y6126
X8500Y5880
X8770Y5560
X8310Y5420
X8570Y5100
X8180Y4868
X8360Y4560
X8010Y4360
X8180Y4110
X7720Y3750
X10130Y5550
Y5842
Y6135
Y6428
Y6720
X10210Y7620
X10180Y8000
X10210Y8280
X2960Y6690
X2520Y6090
X2130Y4570
X3710Y4480
X4720Y17278
X500Y16550
X9960Y17140
X10370Y17260
X10500Y16440
X11203Y16800
X11796Y16990
X11830Y15560
X12260Y15750
X12690Y15920
X13160Y16120
X13570Y16310
X13910Y15260
X13410Y15030
X12920Y14820
X12460Y14620
X11830Y14260
X11280Y15220
X13740Y14440
X13730Y12330
X13722Y11850
X13489
X13255
X13021
X12787
X12554
X12320
X11370
X13956
X14190
X14590Y11820
Y10010
X14940Y9930
X14800Y8920
X14390Y8930
X14080Y8940
Y8660
X13710Y8920
X13140Y8450
X12870
X13580Y7070
X12500Y6720
X10590Y6460
Y6165
Y5870
X10360Y5993
Y5700
Y6287
Y6580
X10640Y7750
X10770Y5370
X10270Y4190
X11450Y4060
Y3810
X12130Y3840
X12140Y4160
X11920
X14280Y5310
Y5510
Y5710
X14490Y5720
Y5520
Y5310
X14700
Y5520
Y5720
X15380Y5850
X15620
X15860
Y5610
X15610
X15380Y5590
X15280Y6160
X15570Y6140
X15820
X16070
Y6400
X15820
X15610Y6510
X15450Y6370
X15320Y6540
X14580Y7700
X16480Y9190
X16710Y9180
X16950
X16946Y9440
X16710
X16470Y9430
X16260
X16270Y9710
X16480Y9700
X16700
X16940Y9710
X16040Y9630
Y9840
X17270Y10880
X17180Y11690
X17370
X17590
X17580Y11950
X17380
X17180
Y12210
X17380
X17580
X17790
Y11960
X18070
Y12240
X18080Y12500
X17790Y12490
X17580
X17380
X17180
X16850Y12500
Y11950
X16840Y11690
X18590Y12020
X18810Y12080
Y12310
X18590
Y12540
X18810
X19050
X19060Y12310
X19300Y12570
X17700Y14120
X20336Y14765
X20870Y14780
X21300Y14760
X21660Y14870
X21762Y14710
X21510Y15340
X22620Y15390
X22880Y14670
X23520Y14950
X23700Y15130
X23950Y15320
X25350Y15000
X25270Y14240
X25410Y13760
X25040
X24840Y13550
X24640Y13410
X25060Y13020
X25400Y13040
X25440Y11840
X25480Y8990
X21170Y8450
X21186Y8089
X21066Y7659
X20826Y7589
X20486Y7309
X21176Y7199
X21146Y6849
Y6499
X21176Y6159
X20790Y5410
X20480
X20160Y5730
X20146Y6519
X18900Y6990
Y7610
X18590Y7620
X18200Y7700
X18076Y7269
X18206Y6869
Y6509
X17690Y6230
Y5380
X18600Y5420
X18590Y5100
X18900
X18590Y4780
Y4470
Y4150
X17680Y4130
X16160Y3850
X15850Y3860
X15460
X18590Y6040
X18900
Y5730
X20140Y4790
X21186Y4639
Y4299
X21170Y3930
X21190Y4980
X20770Y8560
X19270Y7960
X18900Y8240
X18260Y8210
X18400Y8630
X17690Y17980
X17520Y18490
X17274
X17027
X16781
X16535
X16289
X16060Y18480
X15796Y18490
X15550
X15520Y18230
X15766
X16013
X16259
X16505
X16751
X16997
X17244
X14320Y18200
X22590Y17980
X25840Y18120
X25750Y15540
X26080Y15490
X26400Y15450
X26640Y15720
X26960Y15710
X27230Y15720
X27520
X27800
X28180
X28480
X28810Y15740
X29160Y15730
X29480
X29900Y15760
X30170Y15780
X31220Y15720
X31640Y14800
X32140Y14830
X33030Y13900
X33300Y13860
X32800Y13600
X33950Y12730
X34000Y10720
X35100Y11070
X35020Y11310
X35300Y10910
X35510Y10750
X35690Y10590
X35910Y10460
X36230Y11490
X36217Y11768
X36410Y12310
X36390Y12570
X36320Y14330
X34970Y14350
Y13950
X34960Y15220
X34660Y14980
X34330Y14800
X35120Y16530
X36490Y16490
X37040Y15900
X33745Y19160
X28640Y18620
X28680Y17990
X29010Y17870
X28220Y18290
X27830Y18490
X27560Y18850
X27280Y19040
X26960Y19260
X26390Y18670
X27300Y14870
X27900Y14770
X28220Y14520
X28560Y14680
X28840Y14700
X29630Y14690
X30070Y14730
X30450Y14120
X29610Y13765
X29190Y13830
X28570Y13680
X27760Y13060
X26460Y12720
X26390Y12090
X26420Y11700
X26700Y11540
X26950Y11500
X27240Y11490
X27280Y11170
X27640Y11150
X28080Y10840
X28300Y10570
X27830Y10270
X28570Y9420
X28840
X29110
X29440
X29740
X30030Y9430
X30330Y9420
X32620Y8920
X32790Y8750
X33290Y8900
X33140Y9090
X33910Y9250
X34010Y8900
X34950Y8730
X35030Y9330
X35110Y9590
X36070Y9050
X34940Y7330
X34716
X34492
X34268
X34044
X33820
Y7070
X34044
X34268
X34492
X34716
X34940
X34090Y6480
X32940Y7180
X32480Y7190
X32090Y7240
X31650Y7130
X31170Y7110
X31210Y6170
X31350Y5730
X30950Y5820
X31990Y6020
X32500Y6170
X29530Y7150
X28830Y7400
X28420Y7530
X27990Y7660
X27640Y7790
X27280Y7930
X26380Y7760
X26410Y9780
X26390Y10790
X26840Y10890
X26480Y13770
X31570Y12410
X32060Y11960
X32300Y11230
X28230Y7150
X37250Y7290
X37100Y6430
X36850Y6440
X37120Y5380
X34510Y19820
X34300Y20020
X34720Y20050
X34060Y19790
X33600Y19890
X33070Y19900
X29630Y19870
X29390Y20080
X29350Y19690
X28980Y19380
X28670Y19700
X28380
X28110Y20520
X27870Y20290
X26710Y19510
X26080Y20850
X26891Y22121
X27060Y22290
X27560Y22230
X27730Y22400
X29380Y22860
X29630Y23620
X29910Y23360
X32340Y23190
X33140Y23340
X33170Y23820
X33560Y24800
X33750Y25415
X34000Y25840
X34350Y25960
X34680Y26130
X35220Y26190
X35610Y25590
X34040Y26300
X31160Y26120
X30830Y25660
X30850Y25110
X29740Y26070
X30707Y27277
X36850Y27160
X37100Y26500
X37240Y26270
X37210Y23760
X34010Y23160
X38900Y27350
X38600Y27950
X24210Y24190
X24230Y23820
X24620Y23770
X25270Y22650
X25210Y21780
X21350Y21460
X20810Y20070
X21540Y19390
X20050Y20820
X20380Y22770
X20630Y22760
X20520Y24460
Y24660
X20790Y24670
Y24470
X21030Y24470
Y24670
X21740Y25420
X19250Y25840
X17800Y27000
Y27250
X17540
Y27000
X15480Y28060
X14760Y27410
X14530
X14310
X14110
Y27650
X14310
X13810Y26450
Y26235
Y26020
Y25805
Y25600
X13540
Y25810
Y26030
Y26250
Y26470
X13280Y25590
X13110Y24970
X12850Y24980
X12830Y24620
X12560Y24440
X12210Y24660
X12120Y24290
X11820Y24420
X11080Y24852
Y25183
Y25515
Y25847
X10710Y25840
Y25510
Y25180
Y24850
Y24520
X11190Y23300
X11040Y22910
X11050Y21970
X11290Y21920
X11490
X11710
Y21690
X11490Y21680
X11290
X11060
X11210Y22130
X11450Y22200
X11690
X12080Y21870
X12480Y22050
X12420Y22290
Y23510
X12460Y23770
X13080Y23810
X14090
X14200Y23590
Y23040
Y22570
X13540Y22020
X13117Y21408
X12860Y21390
X12870Y21200
Y20960
X12840Y20670
X12580Y20750
Y20460
X12590Y20110
X12600Y19720
X12850Y19850
Y20250
X13210Y20280
Y20540
Y20790
X13470Y20790
Y20533
Y20277
Y20020
X13210
X12200Y20630
X14390Y21490
X15570Y22100
X15350Y22330
X15750Y22510
X16370Y21880
Y21650
X16504Y21516
X16240Y21360
X16690Y21210
X16700Y20990
X17960Y21200
X17730Y21960
X18400Y21910
X18120Y23390
X17480Y23680
X17182
X16884
X16586
X16288
X15990
Y23980
X16287
X16585
X16882
X17180
X16870Y24280
X16588
X16306
X16024
X15742
X15490
X14600Y24270
X14360Y24260
X14410Y23970
X15170Y23490
X16550Y23290
X16700Y23140
X16570Y23000
X15530Y20560
X14550Y19370
X14300Y19400
X13810Y24780
X13540
X12010Y25850
X10090Y28060
X8540Y28080
X8460Y27760
X8770Y27200
X8210Y25060
X7960
X7710
Y24800
X7960
X8210
X8550Y23200
X8560Y22980
Y22750
X8550Y22530
X8790
Y22750
X8990
X9280Y22760
X9540
Y22380
X9280
X8990
Y22030
X9265
X9540
Y21650
X9265
X8990
X8790Y22960
X6980Y23120
X7050Y22120
X7010Y21620
X7670Y21070
X4860Y22120
X4900Y23120
X4700Y23750
X5300
X5900
X5600Y24350
X5000
X4180
X3940
X3740
X3530
Y24620
X3740
X3940
X4180Y24610
X4170Y24040
X3950
X3740Y24030
X3520Y24020
X2900Y24950
X3200Y25550
X3800
X4400
Y26750
X5000
X5600
X5900Y27350
X5300
X4700
X4100
X3500
X2900
X3200Y27950
X3800
X5000
X5600
X3800Y26750
X3200
X3500Y26150
X2900
X1400Y25550
X800
X200
Y26750
X500Y27350
X1100
X1400Y27950
X800
X200
Y24350
Y23150
X800
X1100Y22550
X500
X800Y21950
X1400
X2000
X1100Y21350
X500
X800Y20750
X200
X500Y20150
X200Y19550
X1400
X1700Y20150
X200Y21950
X2000Y24350
X5300Y24950
X5900
T02
X12710Y22320
Y22720
Y23120
Y23520
X13110
X13510
X13910
Y23120
X13510
X13110
Y22720
X13510
Y22320
X13910
Y22720
X13110Y22320
T03
X29370Y10080
X30220Y9980
X31080Y10090
X31200Y10960
X31120Y11790
X30220Y11940
X29350Y11820
X29240Y10960
T04
X37960Y1060
Y2060
Y3060
X38960
Y2060
Y1060
X1400Y1070
Y2070
Y3070
X400
Y2070
Y1070
Y4070
Y5070
Y6070
Y7070
Y8070
Y9070
Y10070
Y11070
Y12070
Y13070
Y14070
Y15070
Y16070
Y17070
Y18070
Y19070
X1400
Y18070
Y17070
Y16070
Y15070
Y14070
Y13070
Y12070
Y11070
Y10070
Y9070
Y8070
Y7070
Y6070
Y5070
Y4070
X3010Y4620
Y5620
X12600Y18140
X13600
X32890Y17290
X33890
X34890
X37960Y17060
Y18060
Y19060
X38960
Y18060
Y17060
Y16060
X37960
Y15060
X38960
Y14060
X37960
Y13060
X38960
Y12060
X37960
Y11060
X38960
Y10060
X37960
Y9060
X38960
Y8060
X37960
Y7060
X38960
Y6060
X37960
Y5060
X38960
Y4060
X37960
Y20060
Y21060
Y22060
Y23060
Y24060
Y25060
X38960
Y24060
Y23060
Y22060
Y21060
Y20060
X36610Y21650
X35610
X34610
X33610
X32610
X31610
X30610
T05
X5670Y22370
T06
X28227Y26910
X23053
T07
X30220Y10960
T08
X18903Y27324
X20477
T09
X34760Y1239
X34750Y1819
X34760Y3601
X34750Y4181
T10
X4480Y27971
T11
X4480Y26200
M30
