G04 Layer_Color=255*
%FSLAX24Y24*%
%MOIN*%
G70*
G01*
G75*
%ADD12R,0.0984X0.0984*%
%ADD13R,0.0394X0.1181*%
G04:AMPARAMS|DCode=14|XSize=90.6mil|YSize=70.9mil|CornerRadius=8.9mil|HoleSize=0mil|Usage=FLASHONLY|Rotation=270.000|XOffset=0mil|YOffset=0mil|HoleType=Round|Shape=RoundedRectangle|*
%AMROUNDEDRECTD14*
21,1,0.0906,0.0532,0,0,270.0*
21,1,0.0728,0.0709,0,0,270.0*
1,1,0.0177,-0.0266,-0.0364*
1,1,0.0177,-0.0266,0.0364*
1,1,0.0177,0.0266,0.0364*
1,1,0.0177,0.0266,-0.0364*
%
%ADD14ROUNDEDRECTD14*%
%ADD15R,0.0300X0.0300*%
%ADD16R,0.0300X0.0300*%
G04:AMPARAMS|DCode=17|XSize=90.6mil|YSize=70.9mil|CornerRadius=8.9mil|HoleSize=0mil|Usage=FLASHONLY|Rotation=180.000|XOffset=0mil|YOffset=0mil|HoleType=Round|Shape=RoundedRectangle|*
%AMROUNDEDRECTD17*
21,1,0.0906,0.0532,0,0,180.0*
21,1,0.0728,0.0709,0,0,180.0*
1,1,0.0177,-0.0364,0.0266*
1,1,0.0177,0.0364,0.0266*
1,1,0.0177,0.0364,-0.0266*
1,1,0.0177,-0.0364,-0.0266*
%
%ADD17ROUNDEDRECTD17*%
G04:AMPARAMS|DCode=18|XSize=39.4mil|YSize=35.4mil|CornerRadius=4.4mil|HoleSize=0mil|Usage=FLASHONLY|Rotation=180.000|XOffset=0mil|YOffset=0mil|HoleType=Round|Shape=RoundedRectangle|*
%AMROUNDEDRECTD18*
21,1,0.0394,0.0266,0,0,180.0*
21,1,0.0305,0.0354,0,0,180.0*
1,1,0.0089,-0.0153,0.0133*
1,1,0.0089,0.0153,0.0133*
1,1,0.0089,0.0153,-0.0133*
1,1,0.0089,-0.0153,-0.0133*
%
%ADD18ROUNDEDRECTD18*%
%ADD19R,0.0984X0.0787*%
G04:AMPARAMS|DCode=20|XSize=23.6mil|YSize=15.7mil|CornerRadius=2mil|HoleSize=0mil|Usage=FLASHONLY|Rotation=90.000|XOffset=0mil|YOffset=0mil|HoleType=Round|Shape=RoundedRectangle|*
%AMROUNDEDRECTD20*
21,1,0.0236,0.0118,0,0,90.0*
21,1,0.0197,0.0157,0,0,90.0*
1,1,0.0039,0.0059,0.0098*
1,1,0.0039,0.0059,-0.0098*
1,1,0.0039,-0.0059,-0.0098*
1,1,0.0039,-0.0059,0.0098*
%
%ADD20ROUNDEDRECTD20*%
G04:AMPARAMS|DCode=21|XSize=23.6mil|YSize=11.8mil|CornerRadius=1.5mil|HoleSize=0mil|Usage=FLASHONLY|Rotation=90.000|XOffset=0mil|YOffset=0mil|HoleType=Round|Shape=RoundedRectangle|*
%AMROUNDEDRECTD21*
21,1,0.0236,0.0089,0,0,90.0*
21,1,0.0207,0.0118,0,0,90.0*
1,1,0.0030,0.0044,0.0103*
1,1,0.0030,0.0044,-0.0103*
1,1,0.0030,-0.0044,-0.0103*
1,1,0.0030,-0.0044,0.0103*
%
%ADD21ROUNDEDRECTD21*%
G04:AMPARAMS|DCode=22|XSize=23.6mil|YSize=15.7mil|CornerRadius=2mil|HoleSize=0mil|Usage=FLASHONLY|Rotation=180.000|XOffset=0mil|YOffset=0mil|HoleType=Round|Shape=RoundedRectangle|*
%AMROUNDEDRECTD22*
21,1,0.0236,0.0118,0,0,180.0*
21,1,0.0197,0.0157,0,0,180.0*
1,1,0.0039,-0.0098,0.0059*
1,1,0.0039,0.0098,0.0059*
1,1,0.0039,0.0098,-0.0059*
1,1,0.0039,-0.0098,-0.0059*
%
%ADD22ROUNDEDRECTD22*%
G04:AMPARAMS|DCode=23|XSize=23.6mil|YSize=11.8mil|CornerRadius=1.5mil|HoleSize=0mil|Usage=FLASHONLY|Rotation=180.000|XOffset=0mil|YOffset=0mil|HoleType=Round|Shape=RoundedRectangle|*
%AMROUNDEDRECTD23*
21,1,0.0236,0.0089,0,0,180.0*
21,1,0.0207,0.0118,0,0,180.0*
1,1,0.0030,-0.0103,0.0044*
1,1,0.0030,0.0103,0.0044*
1,1,0.0030,0.0103,-0.0044*
1,1,0.0030,-0.0103,-0.0044*
%
%ADD23ROUNDEDRECTD23*%
%ADD24R,0.0250X0.0200*%
%ADD25R,0.0200X0.0250*%
%ADD26R,0.0650X0.0300*%
G04:AMPARAMS|DCode=27|XSize=39.4mil|YSize=35.4mil|CornerRadius=4.4mil|HoleSize=0mil|Usage=FLASHONLY|Rotation=90.000|XOffset=0mil|YOffset=0mil|HoleType=Round|Shape=RoundedRectangle|*
%AMROUNDEDRECTD27*
21,1,0.0394,0.0266,0,0,90.0*
21,1,0.0305,0.0354,0,0,90.0*
1,1,0.0089,0.0133,0.0153*
1,1,0.0089,0.0133,-0.0153*
1,1,0.0089,-0.0133,-0.0153*
1,1,0.0089,-0.0133,0.0153*
%
%ADD27ROUNDEDRECTD27*%
%ADD28R,0.0400X0.0500*%
%ADD29O,0.1181X0.0394*%
%ADD30R,0.1181X0.0394*%
G04:AMPARAMS|DCode=31|XSize=137.8mil|YSize=255.9mil|CornerRadius=34.4mil|HoleSize=0mil|Usage=FLASHONLY|Rotation=270.000|XOffset=0mil|YOffset=0mil|HoleType=Round|Shape=RoundedRectangle|*
%AMROUNDEDRECTD31*
21,1,0.1378,0.1870,0,0,270.0*
21,1,0.0689,0.2559,0,0,270.0*
1,1,0.0689,-0.0935,-0.0344*
1,1,0.0689,-0.0935,0.0344*
1,1,0.0689,0.0935,0.0344*
1,1,0.0689,0.0935,-0.0344*
%
%ADD31ROUNDEDRECTD31*%
G04:AMPARAMS|DCode=32|XSize=137.8mil|YSize=255.9mil|CornerRadius=34.4mil|HoleSize=0mil|Usage=FLASHONLY|Rotation=0.000|XOffset=0mil|YOffset=0mil|HoleType=Round|Shape=RoundedRectangle|*
%AMROUNDEDRECTD32*
21,1,0.1378,0.1870,0,0,0.0*
21,1,0.0689,0.2559,0,0,0.0*
1,1,0.0689,0.0344,-0.0935*
1,1,0.0689,-0.0344,-0.0935*
1,1,0.0689,-0.0344,0.0935*
1,1,0.0689,0.0344,0.0935*
%
%ADD32ROUNDEDRECTD32*%
%ADD33O,0.0276X0.1181*%
%ADD34R,0.0276X0.1181*%
%ADD35C,0.0157*%
G04:AMPARAMS|DCode=36|XSize=50mil|YSize=50mil|CornerRadius=6.3mil|HoleSize=0mil|Usage=FLASHONLY|Rotation=270.000|XOffset=0mil|YOffset=0mil|HoleType=Round|Shape=RoundedRectangle|*
%AMROUNDEDRECTD36*
21,1,0.0500,0.0375,0,0,270.0*
21,1,0.0375,0.0500,0,0,270.0*
1,1,0.0125,-0.0188,-0.0188*
1,1,0.0125,-0.0188,0.0188*
1,1,0.0125,0.0188,0.0188*
1,1,0.0125,0.0188,-0.0188*
%
%ADD36ROUNDEDRECTD36*%
%ADD37R,0.0748X0.0748*%
%ADD38R,0.0150X0.0532*%
%ADD39R,0.0157X0.0532*%
%ADD40R,0.0433X0.0236*%
%ADD41O,0.0866X0.0217*%
%ADD42O,0.0866X0.0197*%
G04:AMPARAMS|DCode=43|XSize=94.5mil|YSize=133.9mil|CornerRadius=11.8mil|HoleSize=0mil|Usage=FLASHONLY|Rotation=90.000|XOffset=0mil|YOffset=0mil|HoleType=Round|Shape=RoundedRectangle|*
%AMROUNDEDRECTD43*
21,1,0.0945,0.1102,0,0,90.0*
21,1,0.0709,0.1339,0,0,90.0*
1,1,0.0236,0.0551,0.0354*
1,1,0.0236,0.0551,-0.0354*
1,1,0.0236,-0.0551,-0.0354*
1,1,0.0236,-0.0551,0.0354*
%
%ADD43ROUNDEDRECTD43*%
%ADD44R,0.0118X0.0472*%
%ADD45R,0.0945X0.0945*%
%ADD46R,0.0709X0.0866*%
%ADD47R,0.0118X0.0512*%
%ADD48R,0.0827X0.1102*%
%ADD49R,0.0236X0.0748*%
%ADD50R,0.0236X0.0433*%
%ADD51R,0.0120X0.0600*%
%ADD52R,0.0787X0.0984*%
%ADD53O,0.0630X0.0157*%
%ADD54R,0.0360X0.0500*%
%ADD55R,0.0360X0.0360*%
%ADD56R,0.0709X0.0551*%
%ADD57R,0.0551X0.0748*%
%ADD58R,0.0315X0.0591*%
%ADD59R,0.0945X0.0709*%
G04:AMPARAMS|DCode=60|XSize=47.2mil|YSize=145.7mil|CornerRadius=11.8mil|HoleSize=0mil|Usage=FLASHONLY|Rotation=180.000|XOffset=0mil|YOffset=0mil|HoleType=Round|Shape=RoundedRectangle|*
%AMROUNDEDRECTD60*
21,1,0.0472,0.1220,0,0,180.0*
21,1,0.0236,0.1457,0,0,180.0*
1,1,0.0236,-0.0118,0.0610*
1,1,0.0236,0.0118,0.0610*
1,1,0.0236,0.0118,-0.0610*
1,1,0.0236,-0.0118,-0.0610*
%
%ADD60ROUNDEDRECTD60*%
G04:AMPARAMS|DCode=61|XSize=47.2mil|YSize=145.7mil|CornerRadius=11.8mil|HoleSize=0mil|Usage=FLASHONLY|Rotation=90.000|XOffset=0mil|YOffset=0mil|HoleType=Round|Shape=RoundedRectangle|*
%AMROUNDEDRECTD61*
21,1,0.0472,0.1220,0,0,90.0*
21,1,0.0236,0.1457,0,0,90.0*
1,1,0.0236,0.0610,0.0118*
1,1,0.0236,0.0610,-0.0118*
1,1,0.0236,-0.0610,-0.0118*
1,1,0.0236,-0.0610,0.0118*
%
%ADD61ROUNDEDRECTD61*%
G04:AMPARAMS|DCode=62|XSize=63mil|YSize=224.4mil|CornerRadius=15.7mil|HoleSize=0mil|Usage=FLASHONLY|Rotation=180.000|XOffset=0mil|YOffset=0mil|HoleType=Round|Shape=RoundedRectangle|*
%AMROUNDEDRECTD62*
21,1,0.0630,0.1929,0,0,180.0*
21,1,0.0315,0.2244,0,0,180.0*
1,1,0.0315,-0.0157,0.0965*
1,1,0.0315,0.0157,0.0965*
1,1,0.0315,0.0157,-0.0965*
1,1,0.0315,-0.0157,-0.0965*
%
%ADD62ROUNDEDRECTD62*%
G04:AMPARAMS|DCode=63|XSize=63mil|YSize=224.4mil|CornerRadius=15.7mil|HoleSize=0mil|Usage=FLASHONLY|Rotation=90.000|XOffset=0mil|YOffset=0mil|HoleType=Round|Shape=RoundedRectangle|*
%AMROUNDEDRECTD63*
21,1,0.0630,0.1929,0,0,90.0*
21,1,0.0315,0.2244,0,0,90.0*
1,1,0.0315,0.0965,0.0157*
1,1,0.0315,0.0965,-0.0157*
1,1,0.0315,-0.0965,-0.0157*
1,1,0.0315,-0.0965,0.0157*
%
%ADD63ROUNDEDRECTD63*%
G04:AMPARAMS|DCode=64|XSize=23.6mil|YSize=15.7mil|CornerRadius=2mil|HoleSize=0mil|Usage=FLASHONLY|Rotation=225.000|XOffset=0mil|YOffset=0mil|HoleType=Round|Shape=RoundedRectangle|*
%AMROUNDEDRECTD64*
21,1,0.0236,0.0118,0,0,225.0*
21,1,0.0197,0.0157,0,0,225.0*
1,1,0.0039,-0.0111,-0.0028*
1,1,0.0039,0.0028,0.0111*
1,1,0.0039,0.0111,0.0028*
1,1,0.0039,-0.0028,-0.0111*
%
%ADD64ROUNDEDRECTD64*%
G04:AMPARAMS|DCode=65|XSize=23.6mil|YSize=11.8mil|CornerRadius=1.5mil|HoleSize=0mil|Usage=FLASHONLY|Rotation=225.000|XOffset=0mil|YOffset=0mil|HoleType=Round|Shape=RoundedRectangle|*
%AMROUNDEDRECTD65*
21,1,0.0236,0.0089,0,0,225.0*
21,1,0.0207,0.0118,0,0,225.0*
1,1,0.0030,-0.0104,-0.0042*
1,1,0.0030,0.0042,0.0104*
1,1,0.0030,0.0104,0.0042*
1,1,0.0030,-0.0042,-0.0104*
%
%ADD65ROUNDEDRECTD65*%
%ADD66R,0.0236X0.0512*%
%ADD67R,0.0360X0.0360*%
%ADD68R,0.0500X0.0360*%
G04:AMPARAMS|DCode=69|XSize=236.2mil|YSize=236.2mil|CornerRadius=59.1mil|HoleSize=0mil|Usage=FLASHONLY|Rotation=0.000|XOffset=0mil|YOffset=0mil|HoleType=Round|Shape=RoundedRectangle|*
%AMROUNDEDRECTD69*
21,1,0.2362,0.1181,0,0,0.0*
21,1,0.1181,0.2362,0,0,0.0*
1,1,0.1181,0.0591,-0.0591*
1,1,0.1181,-0.0591,-0.0591*
1,1,0.1181,-0.0591,0.0591*
1,1,0.1181,0.0591,0.0591*
%
%ADD69ROUNDEDRECTD69*%
%ADD70O,0.0591X0.0087*%
%ADD71O,0.0087X0.0591*%
%ADD72R,0.1476X0.1476*%
%ADD73O,0.0079X0.0394*%
%ADD74O,0.0394X0.0079*%
%ADD96C,0.0630*%
%ADD97C,0.0709*%
%ADD98O,0.1378X0.1299*%
%ADD99C,0.0591*%
%ADD100R,0.0591X0.0591*%
%ADD101R,0.0591X0.0591*%
%ADD102C,0.0472*%
%ADD103R,0.0945X0.1220*%
D12*
X6744Y27971D02*
D03*
Y25570D02*
D03*
X2216Y27971D02*
D03*
Y25570D02*
D03*
D13*
X24262Y25335D02*
D03*
X25246D02*
D03*
X26034D02*
D03*
X27018D02*
D03*
D14*
X11999Y27010D02*
D03*
X13141D02*
D03*
X9249Y23490D02*
D03*
X10391D02*
D03*
D15*
X34120Y5980D02*
D03*
X34670D02*
D03*
X16920Y21650D02*
D03*
X16370D02*
D03*
X16920Y22110D02*
D03*
X16370D02*
D03*
X15170Y21650D02*
D03*
X15720D02*
D03*
X15510Y7240D02*
D03*
X16060D02*
D03*
X11040Y22910D02*
D03*
X11590D02*
D03*
X16060Y24740D02*
D03*
X15510D02*
D03*
X16060Y25200D02*
D03*
X15510D02*
D03*
X12920Y25450D02*
D03*
X12370D02*
D03*
X12920Y25910D02*
D03*
X12370D02*
D03*
X36070Y9040D02*
D03*
X35520D02*
D03*
X35460Y6020D02*
D03*
X36010D02*
D03*
X12290Y24680D02*
D03*
X12840D02*
D03*
X17300Y27640D02*
D03*
X16750D02*
D03*
X16600Y26400D02*
D03*
X17150D02*
D03*
X32330Y4090D02*
D03*
X31780D02*
D03*
X21580Y23920D02*
D03*
X22130D02*
D03*
X32080Y3620D02*
D03*
X32630D02*
D03*
X35470Y14330D02*
D03*
X36020D02*
D03*
X10890Y27560D02*
D03*
X10340D02*
D03*
X10890Y27100D02*
D03*
X10340D02*
D03*
X16060Y6780D02*
D03*
X15510D02*
D03*
X36710Y28230D02*
D03*
X36160D02*
D03*
Y27750D02*
D03*
X36710D02*
D03*
X14280Y14110D02*
D03*
X13730D02*
D03*
X15660Y10180D02*
D03*
X15110D02*
D03*
X18590Y12020D02*
D03*
X18040D02*
D03*
X18590Y12490D02*
D03*
X18040D02*
D03*
X3330Y3800D02*
D03*
X3880D02*
D03*
D16*
X9980Y22610D02*
D03*
Y22060D02*
D03*
X15170Y20390D02*
D03*
Y20940D02*
D03*
X4390Y9790D02*
D03*
Y10340D02*
D03*
X14340Y8150D02*
D03*
Y8700D02*
D03*
X25490Y5030D02*
D03*
Y5580D02*
D03*
X10950Y20980D02*
D03*
Y20430D02*
D03*
X10440Y22610D02*
D03*
Y22060D02*
D03*
X16140Y26950D02*
D03*
Y26400D02*
D03*
X14560Y28200D02*
D03*
Y27650D02*
D03*
X3800Y23230D02*
D03*
Y22680D02*
D03*
X20830Y25210D02*
D03*
Y24660D02*
D03*
X31830Y4600D02*
D03*
Y5150D02*
D03*
X17870Y10580D02*
D03*
Y10030D02*
D03*
X36610Y13770D02*
D03*
Y14320D02*
D03*
X32290Y5150D02*
D03*
Y4600D02*
D03*
X11590Y23510D02*
D03*
Y24060D02*
D03*
X31700Y2500D02*
D03*
Y3050D02*
D03*
X10710Y10120D02*
D03*
Y9570D02*
D03*
X17280Y8540D02*
D03*
Y9090D02*
D03*
D17*
X17590Y19631D02*
D03*
Y18489D02*
D03*
X15710Y5621D02*
D03*
Y4479D02*
D03*
D18*
X2630Y19625D02*
D03*
Y20295D02*
D03*
X32240Y2425D02*
D03*
Y3095D02*
D03*
X36930Y25285D02*
D03*
Y25955D02*
D03*
X36940Y24775D02*
D03*
Y24105D02*
D03*
X29200Y23935D02*
D03*
Y23265D02*
D03*
X29230Y27655D02*
D03*
Y28325D02*
D03*
D19*
X1020Y26296D02*
D03*
Y24898D02*
D03*
X8000Y26256D02*
D03*
Y24858D02*
D03*
D20*
X7795Y9703D02*
D03*
X8405D02*
D03*
Y10097D02*
D03*
X7795D02*
D03*
X6725Y9703D02*
D03*
X7335D02*
D03*
Y10097D02*
D03*
X6725D02*
D03*
X4845Y9703D02*
D03*
X5455D02*
D03*
Y10097D02*
D03*
X4845D02*
D03*
X5785Y9703D02*
D03*
X6395D02*
D03*
Y10097D02*
D03*
X5785D02*
D03*
X19385Y10587D02*
D03*
X19995D02*
D03*
Y10193D02*
D03*
X19385D02*
D03*
X18335Y10587D02*
D03*
X18945D02*
D03*
Y10193D02*
D03*
X18335D02*
D03*
X33505Y20353D02*
D03*
X32895D02*
D03*
Y20747D02*
D03*
X33505D02*
D03*
X9115Y9673D02*
D03*
X9725D02*
D03*
Y10067D02*
D03*
X9115D02*
D03*
X9205Y10733D02*
D03*
X8595D02*
D03*
Y11127D02*
D03*
X9205D02*
D03*
X34725Y20747D02*
D03*
X34115D02*
D03*
Y20353D02*
D03*
X34725D02*
D03*
X29355Y21183D02*
D03*
X28745D02*
D03*
Y21577D02*
D03*
X29355D02*
D03*
X28115Y20883D02*
D03*
X27505D02*
D03*
Y21277D02*
D03*
X28115D02*
D03*
D21*
X8002Y9703D02*
D03*
X8198D02*
D03*
Y10097D02*
D03*
X8002D02*
D03*
X6932Y9703D02*
D03*
X7128D02*
D03*
Y10097D02*
D03*
X6932D02*
D03*
X5052Y9703D02*
D03*
X5248D02*
D03*
Y10097D02*
D03*
X5052D02*
D03*
X5992Y9703D02*
D03*
X6188D02*
D03*
Y10097D02*
D03*
X5992D02*
D03*
X19592Y10587D02*
D03*
X19788D02*
D03*
Y10193D02*
D03*
X19592D02*
D03*
X18542Y10587D02*
D03*
X18738D02*
D03*
Y10193D02*
D03*
X18542D02*
D03*
X33298Y20353D02*
D03*
X33102D02*
D03*
Y20747D02*
D03*
X33298D02*
D03*
X9322Y9673D02*
D03*
X9518D02*
D03*
Y10067D02*
D03*
X9322D02*
D03*
X8998Y10733D02*
D03*
X8802D02*
D03*
Y11127D02*
D03*
X8998D02*
D03*
X34518Y20747D02*
D03*
X34322D02*
D03*
Y20353D02*
D03*
X34518D02*
D03*
X29148Y21183D02*
D03*
X28952D02*
D03*
Y21577D02*
D03*
X29148D02*
D03*
X27908Y20883D02*
D03*
X27712D02*
D03*
Y21277D02*
D03*
X27908D02*
D03*
D22*
X35907Y11175D02*
D03*
Y11785D02*
D03*
X35513D02*
D03*
Y11175D02*
D03*
X35907Y12075D02*
D03*
Y12685D02*
D03*
X35513D02*
D03*
Y12075D02*
D03*
X35907Y12975D02*
D03*
Y13585D02*
D03*
X35513D02*
D03*
Y12975D02*
D03*
X25047Y1915D02*
D03*
Y1305D02*
D03*
X24653D02*
D03*
Y1915D02*
D03*
X26337Y2925D02*
D03*
Y2315D02*
D03*
X25943D02*
D03*
Y2925D02*
D03*
X27327Y2445D02*
D03*
Y1835D02*
D03*
X26933D02*
D03*
Y2445D02*
D03*
X25047Y3625D02*
D03*
Y3015D02*
D03*
X24653D02*
D03*
Y3625D02*
D03*
X26187Y4235D02*
D03*
Y3625D02*
D03*
X25793D02*
D03*
Y4235D02*
D03*
X23937Y7365D02*
D03*
Y6755D02*
D03*
X23543D02*
D03*
Y7365D02*
D03*
X23457Y8715D02*
D03*
Y8105D02*
D03*
X23063D02*
D03*
Y8715D02*
D03*
X35893Y25415D02*
D03*
Y26025D02*
D03*
X36287D02*
D03*
Y25415D02*
D03*
X35873Y24205D02*
D03*
Y24815D02*
D03*
X36267D02*
D03*
Y24205D02*
D03*
D23*
X35907Y11382D02*
D03*
Y11578D02*
D03*
X35513D02*
D03*
Y11382D02*
D03*
X35907Y12282D02*
D03*
Y12478D02*
D03*
X35513D02*
D03*
Y12282D02*
D03*
X35907Y13182D02*
D03*
Y13378D02*
D03*
X35513D02*
D03*
Y13182D02*
D03*
X25047Y1708D02*
D03*
Y1512D02*
D03*
X24653D02*
D03*
Y1708D02*
D03*
X26337Y2718D02*
D03*
Y2522D02*
D03*
X25943D02*
D03*
Y2718D02*
D03*
X27327Y2238D02*
D03*
Y2042D02*
D03*
X26933D02*
D03*
Y2238D02*
D03*
X25047Y3418D02*
D03*
Y3222D02*
D03*
X24653D02*
D03*
Y3418D02*
D03*
X26187Y4028D02*
D03*
Y3832D02*
D03*
X25793D02*
D03*
Y4028D02*
D03*
X23937Y7158D02*
D03*
Y6962D02*
D03*
X23543D02*
D03*
Y7158D02*
D03*
X23457Y8508D02*
D03*
Y8312D02*
D03*
X23063D02*
D03*
Y8508D02*
D03*
X35893Y25622D02*
D03*
Y25818D02*
D03*
X36287D02*
D03*
Y25622D02*
D03*
X35873Y24412D02*
D03*
Y24608D02*
D03*
X36267D02*
D03*
Y24412D02*
D03*
D24*
X23630Y9480D02*
D03*
X23230D02*
D03*
X23630Y9100D02*
D03*
X23230D02*
D03*
X20890Y9400D02*
D03*
X20490D02*
D03*
X20890Y9780D02*
D03*
X20490D02*
D03*
X20890Y10160D02*
D03*
X20490D02*
D03*
X20890Y10750D02*
D03*
X20490Y10750D02*
D03*
D25*
X25910Y5630D02*
D03*
X26290D02*
D03*
X25910Y6030D02*
D03*
X26290D02*
D03*
D26*
X17110Y14112D02*
D03*
X15110D02*
D03*
X17110Y15648D02*
D03*
X15110D02*
D03*
X12410Y10802D02*
D03*
X10410D02*
D03*
X12410Y12338D02*
D03*
X10410D02*
D03*
X15170Y10802D02*
D03*
X13170D02*
D03*
X15170Y12338D02*
D03*
X13170D02*
D03*
X5650Y15742D02*
D03*
X3650D02*
D03*
X5650Y17278D02*
D03*
X3650D02*
D03*
X8960Y15742D02*
D03*
X6960D02*
D03*
X8960Y17278D02*
D03*
X6960D02*
D03*
D27*
X17705Y26250D02*
D03*
X18375D02*
D03*
X18895D02*
D03*
X19565D02*
D03*
X20755Y26240D02*
D03*
X20085D02*
D03*
X24565Y24170D02*
D03*
X25235D02*
D03*
X26705D02*
D03*
X26035D02*
D03*
X35835Y23500D02*
D03*
X36505D02*
D03*
X35985Y26490D02*
D03*
X36655D02*
D03*
X35775Y22800D02*
D03*
X36445D02*
D03*
X29385Y24940D02*
D03*
X28715D02*
D03*
D28*
X36050Y27160D02*
D03*
X36850D02*
D03*
X17620Y27050D02*
D03*
X16820D02*
D03*
X23570Y24020D02*
D03*
X22770D02*
D03*
D29*
X10170Y19670D02*
D03*
D30*
X7470D02*
D03*
D31*
X3570Y11576D02*
D03*
Y13544D02*
D03*
D32*
X5914Y19730D02*
D03*
X3946D02*
D03*
D33*
X1650Y21170D02*
D03*
D34*
Y23370D02*
D03*
D35*
X18430Y8404D02*
D03*
X18745D02*
D03*
X19060D02*
D03*
X20320D02*
D03*
X20635D02*
D03*
X20950D02*
D03*
X18430Y8089D02*
D03*
X18745D02*
D03*
X19060D02*
D03*
X20320D02*
D03*
X20635D02*
D03*
X20950D02*
D03*
X18430Y7774D02*
D03*
X18745D02*
D03*
X19060D02*
D03*
X20320D02*
D03*
X20635D02*
D03*
X20950D02*
D03*
X18430Y7459D02*
D03*
X18745D02*
D03*
X19060D02*
D03*
X20320D02*
D03*
X20635D02*
D03*
X20950D02*
D03*
X18430Y7144D02*
D03*
X18745D02*
D03*
X19060D02*
D03*
X20320D02*
D03*
X20635D02*
D03*
X20950D02*
D03*
X18430Y6829D02*
D03*
X18745D02*
D03*
X19060D02*
D03*
X20320D02*
D03*
X20635D02*
D03*
X20950D02*
D03*
X18430Y6514D02*
D03*
X18745D02*
D03*
X19060D02*
D03*
X20320D02*
D03*
X20635D02*
D03*
X20950D02*
D03*
X18430Y6199D02*
D03*
X18745D02*
D03*
X19060D02*
D03*
X20320D02*
D03*
X20635D02*
D03*
X20950D02*
D03*
X18430Y5884D02*
D03*
X18745D02*
D03*
X19060D02*
D03*
X20320D02*
D03*
X20635D02*
D03*
X20950D02*
D03*
X18430Y5569D02*
D03*
X18745D02*
D03*
X19060D02*
D03*
X20320D02*
D03*
X20635D02*
D03*
X20950D02*
D03*
X18430Y5254D02*
D03*
X18745D02*
D03*
X19060D02*
D03*
X20320D02*
D03*
X20635D02*
D03*
X20950D02*
D03*
X18430Y4939D02*
D03*
X18745D02*
D03*
X19060D02*
D03*
X20320D02*
D03*
X20635D02*
D03*
X20950D02*
D03*
X18430Y4624D02*
D03*
X18745D02*
D03*
X19060D02*
D03*
X20320D02*
D03*
X20635D02*
D03*
X20950D02*
D03*
X18430Y4310D02*
D03*
X18745D02*
D03*
X19060D02*
D03*
X20320D02*
D03*
X20635D02*
D03*
X20950D02*
D03*
X18430Y3995D02*
D03*
X18745D02*
D03*
X19060D02*
D03*
X20320D02*
D03*
X20635D02*
D03*
X20950D02*
D03*
X18430Y3680D02*
D03*
X18745D02*
D03*
X19060D02*
D03*
X20320D02*
D03*
X20635D02*
D03*
X20950D02*
D03*
D36*
X11700Y20985D02*
D03*
Y20235D02*
D03*
D37*
X18135Y28170D02*
D03*
X19218D02*
D03*
X20162D02*
D03*
X21245D02*
D03*
D38*
X19178Y27117D02*
D03*
X20202D02*
D03*
D39*
X19434D02*
D03*
X19946D02*
D03*
X19690D02*
D03*
D40*
X15100Y28334D02*
D03*
Y27586D02*
D03*
X16140Y28334D02*
D03*
Y27960D02*
D03*
Y27586D02*
D03*
X21400Y25414D02*
D03*
Y24666D02*
D03*
X22440Y25414D02*
D03*
Y25040D02*
D03*
Y24666D02*
D03*
D41*
X6766Y21620D02*
D03*
X4574D02*
D03*
Y22120D02*
D03*
Y22620D02*
D03*
Y23120D02*
D03*
D42*
X6766Y22120D02*
D03*
Y22620D02*
D03*
Y23120D02*
D03*
D43*
X36217Y1081D02*
D03*
Y3719D02*
D03*
X33303Y2105D02*
D03*
X33310Y4507D02*
D03*
X33303Y688D02*
D03*
D44*
X3491Y8716D02*
D03*
X3688D02*
D03*
X3885D02*
D03*
X4082D02*
D03*
X4279D02*
D03*
X4476D02*
D03*
X4673D02*
D03*
X4869D02*
D03*
X5066D02*
D03*
X5263D02*
D03*
X5460D02*
D03*
X5657D02*
D03*
X5854D02*
D03*
X6050D02*
D03*
X6247D02*
D03*
X6444D02*
D03*
X6641D02*
D03*
X6838D02*
D03*
X7035D02*
D03*
X7232D02*
D03*
X7428D02*
D03*
X7625D02*
D03*
X7822D02*
D03*
X8019D02*
D03*
X8216D02*
D03*
X8413D02*
D03*
X8610D02*
D03*
X8806D02*
D03*
X9003D02*
D03*
X9200D02*
D03*
X9397D02*
D03*
X9594D02*
D03*
X9791D02*
D03*
X9987D02*
D03*
X10184D02*
D03*
X10381D02*
D03*
X10578D02*
D03*
X10775D02*
D03*
X10972D02*
D03*
X11169D02*
D03*
D45*
X11995Y7653D02*
D03*
X2665D02*
D03*
D46*
X13561Y1560D02*
D03*
X2419D02*
D03*
D47*
X12813Y2840D02*
D03*
X12616D02*
D03*
X12419D02*
D03*
X12222D02*
D03*
X12025D02*
D03*
X11829D02*
D03*
X11632D02*
D03*
X11435D02*
D03*
X11238D02*
D03*
X11041D02*
D03*
X10844D02*
D03*
X10647D02*
D03*
X10451D02*
D03*
X10254D02*
D03*
X10057D02*
D03*
X9860D02*
D03*
X9663D02*
D03*
X9466D02*
D03*
X9270D02*
D03*
X9073D02*
D03*
X8876D02*
D03*
X8679D02*
D03*
X8482D02*
D03*
X8285D02*
D03*
X8088D02*
D03*
X7892D02*
D03*
X7695D02*
D03*
X7498D02*
D03*
X7301D02*
D03*
X7104D02*
D03*
X6907D02*
D03*
X6710D02*
D03*
X6514D02*
D03*
X6317D02*
D03*
X6120D02*
D03*
X5923D02*
D03*
X5726D02*
D03*
X5529D02*
D03*
X5333D02*
D03*
X5136D02*
D03*
X4939D02*
D03*
X4742D02*
D03*
X4545D02*
D03*
X4348D02*
D03*
X4151D02*
D03*
X3955D02*
D03*
X3758D02*
D03*
X3561D02*
D03*
X3364D02*
D03*
X3167D02*
D03*
D48*
X14598Y1619D02*
D03*
X18062D02*
D03*
D49*
X15739Y2544D02*
D03*
X16133D02*
D03*
X16527D02*
D03*
X16921D02*
D03*
D50*
X16516Y9600D02*
D03*
X17264D02*
D03*
X16516Y10640D02*
D03*
X16890D02*
D03*
X17264D02*
D03*
X16504Y21140D02*
D03*
X15756D02*
D03*
X16504Y20100D02*
D03*
X16130D02*
D03*
X15756D02*
D03*
X3464Y10312D02*
D03*
X3090D02*
D03*
X2716D02*
D03*
Y9368D02*
D03*
X3090D02*
D03*
X3464D02*
D03*
D51*
X21608Y14192D02*
D03*
X22002D02*
D03*
X23183Y21968D02*
D03*
X21215Y14192D02*
D03*
X21805D02*
D03*
X19443Y21968D02*
D03*
X23577D02*
D03*
X23380Y21968D02*
D03*
X19640Y21968D02*
D03*
X22986D02*
D03*
X22593D02*
D03*
X22199D02*
D03*
X21805D02*
D03*
X21215D02*
D03*
X20821D02*
D03*
X20427D02*
D03*
X20034D02*
D03*
X23774Y21968D02*
D03*
X23774Y14192D02*
D03*
X23577D02*
D03*
X23380D02*
D03*
X23183D02*
D03*
X22986D02*
D03*
X22790D02*
D03*
X22593D02*
D03*
X20624D02*
D03*
X20427D02*
D03*
X20230D02*
D03*
X20034D02*
D03*
X19837D02*
D03*
X19640D02*
D03*
X19443D02*
D03*
X19246D02*
D03*
Y21968D02*
D03*
X22396Y14192D02*
D03*
X22790Y21968D02*
D03*
X22396D02*
D03*
X22002D02*
D03*
X21608D02*
D03*
X21018D02*
D03*
X20624D02*
D03*
X20230D02*
D03*
X19837D02*
D03*
X20821Y14192D02*
D03*
X21018D02*
D03*
X22199D02*
D03*
X21412D02*
D03*
Y21968D02*
D03*
D52*
X7844Y22020D02*
D03*
X9242D02*
D03*
D53*
X8003Y28034D02*
D03*
Y27778D02*
D03*
Y27522D02*
D03*
Y27266D02*
D03*
X9657Y28034D02*
D03*
Y27778D02*
D03*
Y27522D02*
D03*
Y27266D02*
D03*
X13133Y7284D02*
D03*
Y7028D02*
D03*
Y6772D02*
D03*
Y6516D02*
D03*
X14787Y7284D02*
D03*
Y7028D02*
D03*
Y6772D02*
D03*
Y6516D02*
D03*
D54*
X7890Y22960D02*
D03*
D55*
X7520Y23760D02*
D03*
X8270D02*
D03*
D56*
X34543Y22658D02*
D03*
X32299D02*
D03*
D57*
X35173Y27895D02*
D03*
X29996Y28288D02*
D03*
D58*
X31830Y26773D02*
D03*
X32263Y26615D02*
D03*
X32696Y26773D02*
D03*
X33130Y26851D02*
D03*
X33563Y26773D02*
D03*
X33996Y26851D02*
D03*
X34429Y26773D02*
D03*
X34862D02*
D03*
D59*
X35770Y8278D02*
D03*
Y6782D02*
D03*
D60*
X14441Y20530D02*
D03*
X13339D02*
D03*
X14791Y25350D02*
D03*
X13689D02*
D03*
X16339Y11810D02*
D03*
X17441D02*
D03*
D61*
X15690Y23039D02*
D03*
Y24141D02*
D03*
X15910Y19441D02*
D03*
Y18339D02*
D03*
D62*
X10895Y25510D02*
D03*
X9045D02*
D03*
D63*
X13680Y3715D02*
D03*
Y5565D02*
D03*
D64*
X28523Y1945D02*
D03*
X28955Y1513D02*
D03*
X28677Y1235D02*
D03*
X28245Y1667D02*
D03*
D65*
X28670Y1799D02*
D03*
X28809Y1660D02*
D03*
X28530Y1381D02*
D03*
X28391Y1520D02*
D03*
D66*
X15240Y8803D02*
D03*
X15614Y7977D02*
D03*
X14866D02*
D03*
D67*
X13800Y8080D02*
D03*
Y8830D02*
D03*
D68*
X13000Y8460D02*
D03*
D69*
X30220Y10960D02*
D03*
D70*
X25929Y14346D02*
D03*
Y14188D02*
D03*
Y14031D02*
D03*
Y13873D02*
D03*
Y13716D02*
D03*
Y13558D02*
D03*
Y13401D02*
D03*
Y13243D02*
D03*
Y13086D02*
D03*
Y12928D02*
D03*
Y12771D02*
D03*
Y12614D02*
D03*
Y12456D02*
D03*
Y12299D02*
D03*
Y12141D02*
D03*
Y11984D02*
D03*
Y11826D02*
D03*
Y11669D02*
D03*
Y11511D02*
D03*
Y11354D02*
D03*
Y11196D02*
D03*
Y11039D02*
D03*
Y10881D02*
D03*
Y10724D02*
D03*
Y10566D02*
D03*
Y10409D02*
D03*
Y10251D02*
D03*
Y10094D02*
D03*
Y9936D02*
D03*
Y9779D02*
D03*
Y9621D02*
D03*
Y9464D02*
D03*
Y9306D02*
D03*
Y9149D02*
D03*
Y8991D02*
D03*
Y8834D02*
D03*
Y8677D02*
D03*
Y8519D02*
D03*
Y8362D02*
D03*
Y8204D02*
D03*
Y8047D02*
D03*
Y7889D02*
D03*
Y7732D02*
D03*
Y7574D02*
D03*
X34511D02*
D03*
Y7732D02*
D03*
Y7889D02*
D03*
Y8047D02*
D03*
Y8204D02*
D03*
Y8362D02*
D03*
Y8519D02*
D03*
Y8677D02*
D03*
Y8834D02*
D03*
Y8991D02*
D03*
Y9149D02*
D03*
Y9306D02*
D03*
Y9464D02*
D03*
Y9621D02*
D03*
Y9779D02*
D03*
Y9936D02*
D03*
Y10094D02*
D03*
Y10251D02*
D03*
Y10409D02*
D03*
Y10566D02*
D03*
Y10724D02*
D03*
Y10881D02*
D03*
Y11039D02*
D03*
Y11196D02*
D03*
Y11354D02*
D03*
Y11511D02*
D03*
Y11669D02*
D03*
Y11826D02*
D03*
Y11984D02*
D03*
Y12141D02*
D03*
Y12299D02*
D03*
Y12456D02*
D03*
Y12614D02*
D03*
Y12771D02*
D03*
Y12928D02*
D03*
Y13086D02*
D03*
Y13243D02*
D03*
Y13401D02*
D03*
Y13558D02*
D03*
Y13716D02*
D03*
Y13873D02*
D03*
Y14031D02*
D03*
Y14188D02*
D03*
Y14346D02*
D03*
D71*
X26834Y6669D02*
D03*
X26992D02*
D03*
X27149D02*
D03*
X27307D02*
D03*
X27464D02*
D03*
X27622D02*
D03*
X27779D02*
D03*
X27937D02*
D03*
X28094D02*
D03*
X28251D02*
D03*
X28409D02*
D03*
X28566D02*
D03*
X28724D02*
D03*
X28881D02*
D03*
X29039D02*
D03*
X29196D02*
D03*
X29354D02*
D03*
X29511D02*
D03*
X29669D02*
D03*
X29826D02*
D03*
X29984D02*
D03*
X30141D02*
D03*
X30299D02*
D03*
X30456D02*
D03*
X30614D02*
D03*
X30771D02*
D03*
X30929D02*
D03*
X31086D02*
D03*
X31244D02*
D03*
X31401D02*
D03*
X31559D02*
D03*
X31716D02*
D03*
X31874D02*
D03*
X32031D02*
D03*
X32188D02*
D03*
X32346D02*
D03*
X32503D02*
D03*
X32661D02*
D03*
X32818D02*
D03*
X32976D02*
D03*
X33133D02*
D03*
X33291D02*
D03*
X33448D02*
D03*
X33606D02*
D03*
Y15251D02*
D03*
X33448D02*
D03*
X33291D02*
D03*
X33133D02*
D03*
X32976D02*
D03*
X32818D02*
D03*
X32661D02*
D03*
X32503D02*
D03*
X32346D02*
D03*
X32188D02*
D03*
X32031D02*
D03*
X31874D02*
D03*
X31716D02*
D03*
X31559D02*
D03*
X31401D02*
D03*
X31244D02*
D03*
X31086D02*
D03*
X30929D02*
D03*
X30771D02*
D03*
X30614D02*
D03*
X30456D02*
D03*
X30299D02*
D03*
X30141D02*
D03*
X29984D02*
D03*
X29826D02*
D03*
X29669D02*
D03*
X29511D02*
D03*
X29354D02*
D03*
X29196D02*
D03*
X29039D02*
D03*
X28881D02*
D03*
X28724D02*
D03*
X28566D02*
D03*
X28409D02*
D03*
X28251D02*
D03*
X28094D02*
D03*
X27937D02*
D03*
X27779D02*
D03*
X27622D02*
D03*
X27464D02*
D03*
X27307D02*
D03*
X27149D02*
D03*
X26992D02*
D03*
X26834D02*
D03*
D72*
X13310Y22920D02*
D03*
D73*
X14176Y21719D02*
D03*
X14019D02*
D03*
X13861D02*
D03*
X13704D02*
D03*
X13546D02*
D03*
X13389D02*
D03*
X13231D02*
D03*
X13074D02*
D03*
X12916D02*
D03*
X12759D02*
D03*
X12601D02*
D03*
X12444D02*
D03*
Y24121D02*
D03*
X12601D02*
D03*
X12759D02*
D03*
X12916D02*
D03*
X13074D02*
D03*
X13231D02*
D03*
X13389D02*
D03*
X13546D02*
D03*
X13704D02*
D03*
X13861D02*
D03*
X14019D02*
D03*
X14176D02*
D03*
D74*
X12109Y22054D02*
D03*
Y22211D02*
D03*
Y22369D02*
D03*
Y22526D02*
D03*
Y22684D02*
D03*
Y22841D02*
D03*
Y22999D02*
D03*
Y23156D02*
D03*
Y23314D02*
D03*
Y23471D02*
D03*
Y23629D02*
D03*
Y23786D02*
D03*
X14511D02*
D03*
Y23629D02*
D03*
Y23471D02*
D03*
Y23314D02*
D03*
Y23156D02*
D03*
Y22999D02*
D03*
Y22841D02*
D03*
Y22684D02*
D03*
Y22526D02*
D03*
Y22369D02*
D03*
Y22211D02*
D03*
Y22054D02*
D03*
D96*
X4480Y27971D02*
D03*
D97*
Y26200D02*
D03*
D98*
X28227Y26910D02*
D03*
X23053D02*
D03*
D99*
X400Y19070D02*
D03*
X1400D02*
D03*
X400Y18070D02*
D03*
X1400D02*
D03*
X400Y17070D02*
D03*
X1400D02*
D03*
X400Y16070D02*
D03*
X1400D02*
D03*
X400Y15070D02*
D03*
X1400D02*
D03*
X400Y14070D02*
D03*
X1400D02*
D03*
X400Y13070D02*
D03*
X1400D02*
D03*
X400Y12070D02*
D03*
X1400D02*
D03*
X400Y11070D02*
D03*
X1400D02*
D03*
X400Y10070D02*
D03*
X1400D02*
D03*
X400Y9070D02*
D03*
X1400D02*
D03*
X400Y8070D02*
D03*
X1400D02*
D03*
X400Y7070D02*
D03*
X1400D02*
D03*
X400Y6070D02*
D03*
X1400D02*
D03*
X400Y5070D02*
D03*
X1400D02*
D03*
X400Y4070D02*
D03*
X1400D02*
D03*
X400Y3070D02*
D03*
X1400D02*
D03*
X400Y2070D02*
D03*
X1400D02*
D03*
X400Y1070D02*
D03*
X33890Y17290D02*
D03*
X32890D02*
D03*
X36610Y21650D02*
D03*
X35610D02*
D03*
X34610D02*
D03*
X33610D02*
D03*
X31610D02*
D03*
X32610D02*
D03*
X3010Y4620D02*
D03*
X12600Y18140D02*
D03*
X38960Y25060D02*
D03*
X37960Y24060D02*
D03*
X38960D02*
D03*
X37960Y23060D02*
D03*
X38960D02*
D03*
X37960Y22060D02*
D03*
X38960D02*
D03*
X37960Y21060D02*
D03*
X38960D02*
D03*
X37960Y20060D02*
D03*
X38960D02*
D03*
X37960Y19060D02*
D03*
X38960D02*
D03*
X37960Y18060D02*
D03*
X38960D02*
D03*
X37960Y17060D02*
D03*
X38960D02*
D03*
X37960Y16060D02*
D03*
X38960D02*
D03*
X37960Y15060D02*
D03*
X38960D02*
D03*
X37960Y14060D02*
D03*
X38960D02*
D03*
X37960Y13060D02*
D03*
X38960D02*
D03*
X37960Y12060D02*
D03*
X38960D02*
D03*
X37960Y11060D02*
D03*
X38960D02*
D03*
X37960Y10060D02*
D03*
X38960D02*
D03*
X37960Y9060D02*
D03*
X38960D02*
D03*
X37960Y8060D02*
D03*
X38960D02*
D03*
X37960Y7060D02*
D03*
X38960D02*
D03*
X37960Y6060D02*
D03*
X38960D02*
D03*
X37960Y5060D02*
D03*
X38960D02*
D03*
X37960Y4060D02*
D03*
X38960D02*
D03*
X37960Y3060D02*
D03*
X38960D02*
D03*
X37960Y2060D02*
D03*
X38960D02*
D03*
X37960Y1060D02*
D03*
X38960D02*
D03*
D100*
X1400Y1070D02*
D03*
X3010Y5620D02*
D03*
X37960Y25060D02*
D03*
D101*
X34890Y17290D02*
D03*
X30610Y21650D02*
D03*
X13600Y18140D02*
D03*
D102*
X34750Y1819D02*
D03*
Y4181D02*
D03*
X34760Y1239D02*
D03*
Y3601D02*
D03*
D103*
X5670Y22370D02*
D03*
M02*
