G04 Layer_Color=32896*
%FSLAX24Y24*%
%MOIN*%
G70*
G01*
G75*
%ADD10C,0.0060*%
%ADD11C,0.0080*%
%ADD78C,0.0070*%
%ADD79C,0.0120*%
%ADD93C,0.0050*%
%ADD114C,0.0090*%
%ADD115C,0.0098*%
%ADD119C,0.0040*%
%ADD120C,0.0079*%
D10*
X28960Y23080D02*
X29210D01*
X28960Y23840D02*
X29210D01*
X29130Y25340D02*
X29380D01*
X29130Y26100D02*
X29380D01*
X37020Y7000D02*
Y7250D01*
X36260Y7000D02*
Y7250D01*
D11*
X34446Y28584D02*
G03*
X34190Y28310I9J-265D01*
G01*
X33777Y27914D02*
G03*
X34190Y28310I9J404D01*
G01*
X100Y5550D02*
X1630D01*
X110Y10590D02*
X1640D01*
X90Y15590D02*
X1620D01*
X35352Y22560D02*
Y27757D01*
X33423Y22560D02*
X35352D01*
X31155D02*
X32360D01*
X29840D02*
Y27324D01*
Y22560D02*
X30116D01*
X30470Y27914D02*
X33777D01*
X34446Y28584D02*
X34761D01*
X32940Y240D02*
X33340D01*
X33140D01*
Y507D01*
X32940D01*
X33340D01*
Y640D02*
X32940D01*
Y840D01*
X33007Y906D01*
X33140D01*
X33207Y840D01*
Y640D01*
D78*
X9640Y17160D02*
Y16893D01*
X9507Y16760D01*
X9373Y16893D01*
Y17160D01*
X9240Y16760D02*
X9107D01*
X9173D01*
Y17160D01*
X9240Y17093D01*
X8907Y16760D02*
Y16827D01*
X8840D01*
Y16760D01*
X8907D01*
X8574Y17093D02*
X8507Y17160D01*
X8374D01*
X8307Y17093D01*
Y16827D01*
X8374Y16760D01*
X8507D01*
X8574Y16827D01*
Y17093D01*
X9583Y19603D02*
Y19537D01*
X9650D01*
X9517D01*
X9583D01*
Y19337D01*
X9517Y19270D01*
X9250Y19603D02*
Y19537D01*
X9317D01*
X9183D01*
X9250D01*
Y19337D01*
X9183Y19270D01*
X8984Y19537D02*
Y19337D01*
X8917Y19270D01*
X8717D01*
Y19203D01*
X8784Y19137D01*
X8850D01*
X8717Y19270D02*
Y19537D01*
X8584Y19270D02*
Y19670D01*
X8450Y19537D01*
X8317Y19670D01*
Y19270D01*
X8184D02*
Y19537D01*
X8051Y19670D01*
X7917Y19537D01*
Y19270D01*
Y19470D01*
X8184D01*
X7784Y19670D02*
Y19603D01*
X7651Y19470D01*
X7517Y19603D01*
Y19670D01*
X7651Y19470D02*
Y19270D01*
X7860Y16770D02*
X7727D01*
X7793D01*
Y17170D01*
X7860Y17103D01*
X7260Y17170D02*
X7527D01*
Y16970D01*
X7393Y17037D01*
X7327D01*
X7260Y16970D01*
Y16837D01*
X7327Y16770D01*
X7460D01*
X7527Y16837D01*
X7127Y16770D02*
X6994D01*
X7060D01*
Y17170D01*
X7127Y17103D01*
X6527Y17170D02*
X6660Y17103D01*
X6794Y16970D01*
Y16837D01*
X6727Y16770D01*
X6594D01*
X6527Y16837D01*
Y16903D01*
X6594Y16970D01*
X6794D01*
X9640Y17707D02*
Y17507D01*
X9573Y17440D01*
X9507Y17507D01*
X9440Y17440D01*
X9373Y17507D01*
Y17707D01*
X9240D02*
Y17507D01*
X9173Y17440D01*
X9107Y17507D01*
X9040Y17440D01*
X8974Y17507D01*
Y17707D01*
X8840D02*
Y17507D01*
X8774Y17440D01*
X8707Y17507D01*
X8640Y17440D01*
X8574Y17507D01*
Y17707D01*
X8440Y17440D02*
Y17507D01*
X8374D01*
Y17440D01*
X8440D01*
X7841Y17773D02*
X7907Y17840D01*
X8041D01*
X8107Y17773D01*
Y17507D01*
X8041Y17440D01*
X7907D01*
X7841Y17507D01*
X7707Y17440D02*
X7574D01*
X7641D01*
Y17707D01*
X7707D01*
X7374D02*
Y17440D01*
Y17573D01*
X7307Y17640D01*
X7241Y17707D01*
X7174D01*
X6708D02*
X6908D01*
X6974Y17640D01*
Y17507D01*
X6908Y17440D01*
X6708D01*
X6574Y17707D02*
Y17507D01*
X6508Y17440D01*
X6308D01*
Y17707D01*
X6174Y17440D02*
X6041D01*
X6108D01*
Y17707D01*
X6174D01*
X5775Y17773D02*
Y17707D01*
X5841D01*
X5708D01*
X5775D01*
Y17507D01*
X5708Y17440D01*
X5508Y17840D02*
Y17573D01*
X5375Y17440D01*
X5241Y17573D01*
Y17840D01*
X5041Y17707D02*
X4908D01*
X4842Y17640D01*
Y17440D01*
X5041D01*
X5108Y17507D01*
X5041Y17573D01*
X4842D01*
X4708Y17440D02*
X4575D01*
X4642D01*
Y17840D01*
X4708D01*
X4375Y17440D02*
X4242D01*
X4308D01*
Y17840D01*
X4375D01*
X3842Y17440D02*
X3975D01*
X4042Y17507D01*
Y17640D01*
X3975Y17707D01*
X3842D01*
X3775Y17640D01*
Y17573D01*
X4042D01*
X3642Y17707D02*
Y17507D01*
X3575Y17440D01*
X3375D01*
Y17373D01*
X3442Y17307D01*
X3509D01*
X3375Y17440D02*
Y17707D01*
X3242Y17440D02*
Y17507D01*
X3175D01*
Y17440D01*
X3242D01*
X2642Y17707D02*
X2842D01*
X2909Y17640D01*
Y17507D01*
X2842Y17440D01*
X2642D01*
X2442D02*
X2309D01*
X2242Y17507D01*
Y17640D01*
X2309Y17707D01*
X2442D01*
X2509Y17640D01*
Y17507D01*
X2442Y17440D01*
X2109D02*
Y17707D01*
X2042D01*
X1976Y17640D01*
Y17440D01*
Y17640D01*
X1909Y17707D01*
X1843Y17640D01*
Y17440D01*
X9383Y18313D02*
X9450Y18380D01*
X9583D01*
X9650Y18313D01*
Y18047D01*
X9583Y17980D01*
X9450D01*
X9383Y18047D01*
Y18180D01*
X9517D01*
X9183Y18247D02*
X9050D01*
X8984Y18180D01*
Y17980D01*
X9183D01*
X9250Y18047D01*
X9183Y18113D01*
X8984D01*
X8850Y18247D02*
Y18047D01*
X8784Y17980D01*
X8584D01*
Y18247D01*
X8450D02*
Y17980D01*
Y18113D01*
X8384Y18180D01*
X8317Y18247D01*
X8250D01*
X7984D02*
X7851D01*
X7784Y18180D01*
Y17980D01*
X7984D01*
X8051Y18047D01*
X7984Y18113D01*
X7784D01*
X7651Y18247D02*
X7517Y17980D01*
X7384Y18247D01*
X6584Y18313D02*
X6651Y18380D01*
X6784D01*
X6851Y18313D01*
Y18247D01*
X6784Y18180D01*
X6651D01*
X6584Y18113D01*
Y18047D01*
X6651Y17980D01*
X6784D01*
X6851Y18047D01*
X6451Y17980D02*
X6318D01*
X6384D01*
Y18247D01*
X6451D01*
X6118Y17980D02*
Y18247D01*
X5918D01*
X5851Y18180D01*
Y17980D01*
X5585Y17847D02*
X5518D01*
X5451Y17913D01*
Y18247D01*
X5651D01*
X5718Y18180D01*
Y18047D01*
X5651Y17980D01*
X5451D01*
X5318Y18380D02*
Y17980D01*
Y18180D01*
X5251Y18247D01*
X5118D01*
X5051Y18180D01*
Y17980D01*
X9650Y19000D02*
Y18600D01*
X9450D01*
X9383Y18667D01*
Y18933D01*
X9450Y19000D01*
X9650D01*
X9050Y18600D02*
X9183D01*
X9250Y18667D01*
Y18800D01*
X9183Y18867D01*
X9050D01*
X8984Y18800D01*
Y18733D01*
X9250D01*
X8850Y18600D02*
X8650D01*
X8584Y18667D01*
X8650Y18733D01*
X8784D01*
X8850Y18800D01*
X8784Y18867D01*
X8584D01*
X8450Y18600D02*
X8317D01*
X8384D01*
Y18867D01*
X8450D01*
X7984Y18467D02*
X7917D01*
X7851Y18533D01*
Y18867D01*
X8051D01*
X8117Y18800D01*
Y18667D01*
X8051Y18600D01*
X7851D01*
X7717D02*
Y18867D01*
X7517D01*
X7451Y18800D01*
Y18600D01*
X7117D02*
X7251D01*
X7317Y18667D01*
Y18800D01*
X7251Y18867D01*
X7117D01*
X7051Y18800D01*
Y18733D01*
X7317D01*
X6651Y19000D02*
Y18600D01*
X6851D01*
X6918Y18667D01*
Y18800D01*
X6851Y18867D01*
X6651D01*
X6118Y19000D02*
Y18600D01*
X5918D01*
X5851Y18667D01*
Y18733D01*
X5918Y18800D01*
X6118D01*
X5918D01*
X5851Y18867D01*
Y18933D01*
X5918Y19000D01*
X6118D01*
X5718Y18867D02*
Y18667D01*
X5651Y18600D01*
X5451D01*
Y18533D01*
X5518Y18467D01*
X5585D01*
X5451Y18600D02*
Y18867D01*
X5318D02*
X5251D01*
Y18800D01*
X5318D01*
Y18867D01*
Y18667D02*
X5251D01*
Y18600D01*
X5318D01*
Y18667D01*
D79*
X33550Y5600D02*
X35950D01*
X35750Y-200D02*
Y600D01*
X33750Y-200D02*
X35750D01*
X33750D02*
Y600D01*
X35950Y638D02*
Y5600D01*
X33550Y638D02*
Y5600D01*
Y638D02*
X35950D01*
D93*
X17431Y22211D02*
Y22329D01*
X17392Y22211D02*
Y22329D01*
Y22211D02*
X17471D01*
X17392Y23629D02*
X17471D01*
X17392Y23511D02*
Y23629D01*
X17431Y23511D02*
Y23629D01*
X16447Y23511D02*
X17471D01*
Y23629D01*
Y22211D02*
Y22329D01*
X16447D02*
X17471D01*
X17151Y12581D02*
Y12699D01*
X17112Y12581D02*
Y12699D01*
Y12581D02*
X17191D01*
X17112Y13999D02*
X17191D01*
X17112Y13881D02*
Y13999D01*
X17151Y13881D02*
Y13999D01*
X16167Y13881D02*
X17191D01*
Y13999D01*
Y12581D02*
Y12699D01*
X16167D02*
X17191D01*
X21450Y5970D02*
X22460D01*
X21450Y6430D02*
X22460D01*
Y5970D02*
Y6430D01*
X21450Y5970D02*
Y6430D01*
X16180Y9083D02*
Y9543D01*
X15170Y9083D02*
X16180D01*
X15170Y9543D02*
X16180D01*
X15170Y9083D02*
Y9543D01*
X16180D02*
Y10003D01*
X15170Y9543D02*
X16180D01*
X15170Y10003D02*
X16180D01*
X15170Y9543D02*
Y10003D01*
X12080Y17950D02*
Y18960D01*
X11620Y17950D02*
Y18960D01*
X12080D01*
X11620Y17950D02*
X12080D01*
X17110Y18730D02*
Y19740D01*
X17570Y18730D02*
Y19740D01*
X17110Y18730D02*
X17570D01*
X17110Y19740D02*
X17570D01*
X14090Y18980D02*
X14550D01*
Y17970D02*
Y18980D01*
X14090Y17970D02*
Y18980D01*
Y17970D02*
X14550D01*
X15350Y27440D02*
Y28450D01*
X14890Y27440D02*
Y28450D01*
X15350D01*
X14890Y27440D02*
X15350D01*
X4910Y8710D02*
Y9720D01*
X4450Y8710D02*
Y9720D01*
X4910D01*
X4450Y8710D02*
X4910D01*
X3620Y7480D02*
X4080D01*
X3620Y8490D02*
X4080D01*
X3620Y7480D02*
Y8490D01*
X4080Y7480D02*
Y8490D01*
X4850Y3530D02*
Y3990D01*
X3840Y3530D02*
Y3990D01*
Y3530D02*
X4850D01*
X3840Y3990D02*
X4850D01*
X12740Y7330D02*
Y7790D01*
X13750Y7330D02*
Y7790D01*
X12740D02*
X13750D01*
X12740Y7330D02*
X13750D01*
Y6870D02*
Y7330D01*
X12740Y6870D02*
Y7330D01*
Y6870D02*
X13750D01*
X12740Y7330D02*
X13750D01*
X12750Y6870D02*
X13760D01*
X12750Y6410D02*
X13760D01*
X12750D02*
Y6870D01*
X13760Y6410D02*
Y6870D01*
X12439Y6101D02*
X13463D01*
X12439D02*
Y6219D01*
Y4801D02*
Y4919D01*
X13463D01*
X12479Y4801D02*
Y4919D01*
X12518Y4801D02*
Y4919D01*
X12439Y4801D02*
X12518D01*
X12439Y6219D02*
X12518D01*
Y6101D02*
Y6219D01*
X12479Y6101D02*
Y6219D01*
X7970Y830D02*
Y1290D01*
X8980Y830D02*
Y1290D01*
X7970D02*
X8980D01*
X7970Y830D02*
X8980D01*
X7970Y370D02*
Y1380D01*
X7510Y370D02*
Y1380D01*
X7970D01*
X7510Y370D02*
X7970D01*
X8980D02*
Y830D01*
X7970Y370D02*
Y830D01*
Y370D02*
X8980D01*
X7970Y830D02*
X8980D01*
X7970Y1290D02*
X8980D01*
X7970Y1750D02*
X8980D01*
Y1290D02*
Y1750D01*
X7970Y1290D02*
Y1750D01*
X8980D01*
X7970Y2210D02*
X8980D01*
Y1750D02*
Y2210D01*
X7970Y1750D02*
Y2210D01*
X10860Y5670D02*
X11870D01*
X10860Y5210D02*
X11870D01*
X10860D02*
Y5670D01*
X11870Y5210D02*
Y5670D01*
X10330Y2130D02*
X11340D01*
X10330Y2590D02*
X11340D01*
Y2130D02*
Y2590D01*
X10330Y2130D02*
Y2590D01*
X11340Y2130D02*
Y2590D01*
X12350Y2130D02*
Y2590D01*
X11340D02*
X12350D01*
X11340Y2130D02*
X12350D01*
X10790Y3540D02*
X11800D01*
X10790Y3080D02*
X11800D01*
X10790D02*
Y3540D01*
X11800Y3080D02*
Y3540D01*
X10490Y2590D02*
Y3050D01*
X11500Y2590D02*
Y3050D01*
X10490D02*
X11500D01*
X10490Y2590D02*
X11500D01*
X8230Y9310D02*
X9240D01*
X8230Y8850D02*
X9240D01*
X8230D02*
Y9310D01*
X9240Y8850D02*
Y9310D01*
X3070Y9720D02*
X3530D01*
X3070Y8710D02*
X3530D01*
Y9720D01*
X3070Y8710D02*
Y9720D01*
X3990D02*
X4450D01*
X3990Y8710D02*
X4450D01*
Y9720D01*
X3990Y8710D02*
Y9720D01*
X3530D02*
X3990D01*
X3530Y8710D02*
X3990D01*
Y9720D01*
X3530Y8710D02*
Y9720D01*
X3070Y7950D02*
Y8960D01*
X2610Y7950D02*
Y8960D01*
X3070D01*
X2610Y7950D02*
X3070D01*
X16306Y470D02*
Y1480D01*
X15846Y470D02*
Y1480D01*
X16306D01*
X15846Y470D02*
X16306D01*
X16852D02*
Y1480D01*
X16392Y470D02*
Y1480D01*
X16852D01*
X16392Y470D02*
X16852D01*
X15760D02*
Y1480D01*
X15300Y470D02*
Y1480D01*
X15760D01*
X15300Y470D02*
X15760D01*
X17398Y470D02*
Y1480D01*
X16938Y470D02*
Y1480D01*
X17398D01*
X16938Y470D02*
X17398D01*
X12390Y380D02*
X12850D01*
X12390Y1390D02*
X12850D01*
X12390Y380D02*
Y1390D01*
X12850Y380D02*
Y1390D01*
X13310D02*
X13770D01*
X13310Y380D02*
X13770D01*
Y1390D01*
X13310Y380D02*
Y1390D01*
Y380D02*
Y1390D01*
X12850Y380D02*
Y1390D01*
X13310D01*
X12850Y380D02*
X13310D01*
X13770Y1390D02*
X14230D01*
X13770Y380D02*
X14230D01*
Y1390D01*
X13770Y380D02*
Y1390D01*
X12990D02*
X14000D01*
X12990Y1850D02*
X14000D01*
Y1390D02*
Y1850D01*
X12990Y1390D02*
Y1850D01*
X10980D02*
X11990D01*
X10980Y1390D02*
X11990D01*
X10980D02*
Y1850D01*
X11990Y1390D02*
Y1850D01*
X10470Y1380D02*
X10930D01*
X10470Y370D02*
X10930D01*
Y1380D01*
X10470Y370D02*
Y1380D01*
X11980Y1390D02*
Y1850D01*
X12990Y1390D02*
Y1850D01*
X11980D02*
X12990D01*
X11980Y1390D02*
X12990D01*
X10010Y8460D02*
X10470D01*
X10010Y9470D02*
X10470D01*
X10010Y8460D02*
Y9470D01*
X10470Y8460D02*
Y9470D01*
X11470Y380D02*
X11930D01*
X11470Y1390D02*
X11930D01*
X11470Y380D02*
Y1390D01*
X11930Y380D02*
Y1390D01*
X11390Y370D02*
Y1380D01*
X10930Y370D02*
Y1380D01*
X11390D01*
X10930Y370D02*
X11390D01*
X12390Y380D02*
Y1390D01*
X11930Y380D02*
Y1390D01*
X12390D01*
X11930Y380D02*
X12390D01*
X10060Y3970D02*
Y4430D01*
X9050Y3970D02*
Y4430D01*
Y3970D02*
X10060D01*
X9050Y4430D02*
X10060D01*
X9050Y3450D02*
X10060D01*
X9050Y3910D02*
X10060D01*
Y3450D02*
Y3910D01*
X9050Y3450D02*
Y3910D01*
X4850Y2600D02*
Y3060D01*
X3840Y2600D02*
Y3060D01*
Y2600D02*
X4850D01*
X3840Y3060D02*
X4850D01*
X3840D02*
X4850D01*
X3840Y3520D02*
X4850D01*
Y3060D02*
Y3520D01*
X3840Y3060D02*
Y3520D01*
X35750Y27510D02*
X35750Y26810D01*
X37150D02*
Y27510D01*
X35750Y27510D02*
X37150Y27510D01*
X35750Y26810D02*
X37150D01*
X35940Y27510D02*
X36950D01*
X35940Y27970D02*
X36950D01*
Y27510D02*
Y27970D01*
X35940Y27510D02*
Y27970D01*
Y28430D02*
X36950D01*
X35940Y27970D02*
X36950D01*
X35940D02*
Y28430D01*
X36950Y27970D02*
Y28430D01*
X7720Y21380D02*
Y21840D01*
X6710Y21380D02*
Y21840D01*
Y21380D02*
X7720D01*
X6710Y21840D02*
X7720D01*
X6250Y21860D02*
X6710D01*
X6250Y20850D02*
X6710D01*
Y21860D01*
X6250Y20850D02*
Y21860D01*
X33890Y6720D02*
X34900D01*
X33890Y6260D02*
X34900D01*
X33890D02*
Y6720D01*
X34900Y6260D02*
Y6720D01*
X31360Y6340D02*
Y7350D01*
X31820Y6340D02*
Y7350D01*
X31360Y6340D02*
X31820D01*
X31360Y7350D02*
X31820D01*
X33740Y8620D02*
X34750D01*
X33740Y8160D02*
X34750D01*
X33740D02*
Y8620D01*
X34750Y8160D02*
Y8620D01*
X32190Y7010D02*
X33200D01*
X32190Y6550D02*
X33200D01*
X32190D02*
Y7010D01*
X33200Y6550D02*
Y7010D01*
X32190Y6550D02*
X33200D01*
X32190Y6090D02*
X33200D01*
X32190D02*
Y6550D01*
X33200Y6090D02*
Y6550D01*
X31810Y5130D02*
X32820D01*
X31810Y5590D02*
X32820D01*
Y5130D02*
Y5590D01*
X31810Y5130D02*
Y5590D01*
X31820Y7010D02*
Y8020D01*
X32280Y7010D02*
Y8020D01*
X31820Y7010D02*
X32280D01*
X31820Y8020D02*
X32280D01*
X30810Y7810D02*
X31820D01*
X30810Y7350D02*
X31820D01*
X30810D02*
Y7810D01*
X31820Y7350D02*
Y7810D01*
X32280Y7010D02*
Y8020D01*
X32740Y7010D02*
Y8020D01*
X32280Y7010D02*
X32740D01*
X32280Y8020D02*
X32740D01*
X30350Y7350D02*
X31360D01*
X30350Y6890D02*
X31360D01*
X30350D02*
Y7350D01*
X31360Y6890D02*
Y7350D01*
X34040Y10510D02*
X35050D01*
X34040Y10970D02*
X35050D01*
Y10510D02*
Y10970D01*
X34040Y10510D02*
Y10970D01*
X31160Y16080D02*
X32170D01*
X31160Y15620D02*
X32170D01*
X31160D02*
Y16080D01*
X32170Y15620D02*
Y16080D01*
X33740Y9080D02*
X34750D01*
X33740Y8620D02*
X34750D01*
X33740D02*
Y9080D01*
X34750Y8620D02*
Y9080D01*
X28310Y13890D02*
Y14900D01*
X27850Y13890D02*
Y14900D01*
X28310D01*
X27850Y13890D02*
X28310D01*
X30340D02*
Y14900D01*
X29880Y13890D02*
Y14900D01*
X30340D01*
X29880Y13890D02*
X30340D01*
X25620Y12390D02*
X26630D01*
X25620Y12850D02*
X26630D01*
Y12390D02*
Y12850D01*
X25620Y12390D02*
Y12850D01*
X4650Y23410D02*
X5110D01*
Y22400D02*
Y23410D01*
X4650Y22400D02*
Y23410D01*
Y22400D02*
X5110D01*
X26020Y11030D02*
X27030D01*
X26020Y10570D02*
X27030D01*
X26020D02*
Y11030D01*
X27030Y10570D02*
Y11030D01*
X25280Y9240D02*
X26290D01*
X25280Y8780D02*
X26290D01*
X25280D02*
Y9240D01*
X26290Y8780D02*
Y9240D01*
X25680Y10010D02*
X26690D01*
X25680Y9550D02*
X26690D01*
X25680D02*
Y10010D01*
X26690Y9550D02*
Y10010D01*
X25512Y7522D02*
X26522D01*
X25512Y7982D02*
X26522D01*
Y7522D02*
Y7982D01*
X25512Y7522D02*
Y7982D01*
X27884Y6089D02*
Y7099D01*
X28344Y6089D02*
Y7099D01*
X27884Y6089D02*
X28344D01*
X27884Y7099D02*
X28344D01*
X29760Y6102D02*
Y7112D01*
X29300Y6102D02*
Y7112D01*
X29760D01*
X29300Y6102D02*
X29760D01*
X26230Y13550D02*
X27240D01*
X26230Y14010D02*
X27240D01*
Y13550D02*
Y14010D01*
X26230Y13550D02*
Y14010D01*
X33741Y9076D02*
X34751D01*
X33741Y9536D02*
X34751D01*
Y9076D02*
Y9536D01*
X33741Y9076D02*
Y9536D01*
X32300Y14610D02*
Y15620D01*
X31840Y14610D02*
Y15620D01*
X32300D01*
X31840Y14610D02*
X32300D01*
X28100Y14900D02*
X29110D01*
X28100Y15360D02*
X29110D01*
Y14900D02*
Y15360D01*
X28100Y14900D02*
Y15360D01*
X25210Y14010D02*
X26220D01*
X25210Y13550D02*
X26220D01*
X25210D02*
Y14010D01*
X26220Y13550D02*
Y14010D01*
X25210Y12850D02*
X26220D01*
X25210Y13310D02*
X26220D01*
Y12850D02*
Y13310D01*
X25210Y12850D02*
Y13310D01*
X25610Y12320D02*
X26620D01*
X25610Y11860D02*
X26620D01*
X25610D02*
Y12320D01*
X26620Y11860D02*
Y12320D01*
X28310Y13890D02*
Y14900D01*
X28770Y13890D02*
Y14900D01*
X28310Y13890D02*
X28770D01*
X28310Y14900D02*
X28770D01*
X27090D02*
X28100D01*
X27090Y15360D02*
X28100D01*
Y14900D02*
Y15360D01*
X27090Y14900D02*
Y15360D01*
X20440Y4110D02*
X21450D01*
X20440Y3650D02*
X21450D01*
X20440D02*
Y4110D01*
X21450Y3650D02*
Y4110D01*
X20440Y4830D02*
X21450D01*
X20440Y4370D02*
X21450D01*
X20440D02*
Y4830D01*
X21450Y4370D02*
Y4830D01*
X20440Y7770D02*
Y8780D01*
X20900Y7770D02*
Y8780D01*
X20440Y7770D02*
X20900D01*
X20440Y8780D02*
X20900D01*
X20550Y5290D02*
X21560D01*
X20550Y5750D02*
X21560D01*
Y5290D02*
Y5750D01*
X20550Y5290D02*
Y5750D01*
X20440Y6430D02*
X21450D01*
X20440Y5970D02*
X21450D01*
X20440D02*
Y6430D01*
X21450Y5970D02*
Y6430D01*
X20990Y6480D02*
Y7490D01*
X21450Y6480D02*
Y7490D01*
X20990Y6480D02*
X21450D01*
X20990Y7490D02*
X21450D01*
X20530Y6750D02*
Y7760D01*
X20990Y6750D02*
Y7760D01*
X20530Y6750D02*
X20990D01*
X20530Y7760D02*
X20990D01*
X21360Y7490D02*
Y8500D01*
X20900Y7490D02*
Y8500D01*
X21360D01*
X20900Y7490D02*
X21360D01*
X20450Y6430D02*
Y7440D01*
X19990Y6430D02*
Y7440D01*
X20450D01*
X19990Y6430D02*
X20450D01*
X18390Y3320D02*
Y4330D01*
X18850Y3320D02*
Y4330D01*
X18390Y3320D02*
X18850D01*
X18390Y4330D02*
X18850D01*
X17920Y5010D02*
X18930D01*
X17920Y4550D02*
X18930D01*
X17920D02*
Y5010D01*
X18930Y4550D02*
Y5010D01*
X18480Y5170D02*
Y6180D01*
X18020Y5170D02*
Y6180D01*
X18480D01*
X18020Y5170D02*
X18480D01*
X19150Y5880D02*
Y6890D01*
X18690Y5880D02*
Y6890D01*
X19150D01*
X18690Y5880D02*
X19150D01*
X17830Y7530D02*
X18840D01*
X17830Y7990D02*
X18840D01*
Y7530D02*
Y7990D01*
X17830Y7530D02*
Y7990D01*
X18170Y7950D02*
Y8960D01*
X18630Y7950D02*
Y8960D01*
X18170Y7950D02*
X18630D01*
X18170Y8960D02*
X18630D01*
X19140Y7990D02*
Y9000D01*
X18680Y7990D02*
Y9000D01*
X19140D01*
X18680Y7990D02*
X19140D01*
X19920Y4110D02*
Y5120D01*
X20380Y4110D02*
Y5120D01*
X19920Y4110D02*
X20380D01*
X19920Y5120D02*
X20380D01*
X19920D02*
Y6130D01*
X20380Y5120D02*
Y6130D01*
X19920Y5120D02*
X20380D01*
X19920Y6130D02*
X20380D01*
X19460Y4112D02*
Y5122D01*
X19920Y4112D02*
Y5122D01*
X19460Y4112D02*
X19920D01*
X19460Y5122D02*
X19920D01*
X19260Y6910D02*
Y7920D01*
X18800Y6910D02*
Y7920D01*
X19260D01*
X18800Y6910D02*
X19260D01*
X19920Y5120D02*
Y6130D01*
X19460Y5120D02*
Y6130D01*
X19920D01*
X19460Y5120D02*
X19920D01*
X20440Y5290D02*
X21450D01*
X20440Y4830D02*
X21450D01*
X20440D02*
Y5290D01*
X21450Y4830D02*
Y5290D01*
X26620Y11640D02*
Y12650D01*
X27080Y11640D02*
Y12650D01*
X26620Y11640D02*
X27080D01*
X26620Y12650D02*
X27080D01*
X25150Y11810D02*
Y12820D01*
X25610Y11810D02*
Y12820D01*
X25150Y11810D02*
X25610D01*
X25150Y12820D02*
X25610D01*
X27080Y11640D02*
Y12650D01*
X27540Y11640D02*
Y12650D01*
X27080Y11640D02*
X27540D01*
X27080Y12650D02*
X27540D01*
X27298Y10060D02*
X28308D01*
X27298Y9600D02*
X28308D01*
X27298D02*
Y10060D01*
X28308Y9600D02*
Y10060D01*
X28000Y11640D02*
Y12650D01*
X27540Y11640D02*
Y12650D01*
X28000D01*
X27540Y11640D02*
X28000D01*
X27300Y9600D02*
X28310D01*
X27300Y9140D02*
X28310D01*
X27300D02*
Y9600D01*
X28310Y9140D02*
Y9600D01*
X21100Y20600D02*
Y21610D01*
X21560Y20600D02*
Y21610D01*
X21100Y20600D02*
X21560D01*
X21100Y21610D02*
X21560D01*
X21060Y13920D02*
Y14930D01*
X21520Y13920D02*
Y14930D01*
X21060Y13920D02*
X21520D01*
X21060Y14930D02*
X21520D01*
X22000Y14470D02*
X23010D01*
X22000Y14010D02*
X23010D01*
X22000D02*
Y14470D01*
X23010Y14010D02*
Y14470D01*
X22000Y14930D02*
X23010D01*
X22000Y14470D02*
X23010D01*
X22000D02*
Y14930D01*
X23010Y14470D02*
Y14930D01*
X20600Y13920D02*
Y14930D01*
X21060Y13920D02*
Y14930D01*
X20600Y13920D02*
X21060D01*
X20600Y14930D02*
X21060D01*
X20140Y13920D02*
Y14930D01*
X20600Y13920D02*
Y14930D01*
X20140Y13920D02*
X20600D01*
X20140Y14930D02*
X20600D01*
X29420Y13890D02*
Y14900D01*
X28960Y13890D02*
Y14900D01*
X29420D01*
X28960Y13890D02*
X29420D01*
X29880D02*
Y14900D01*
X29420Y13890D02*
Y14900D01*
X29880D01*
X29420Y13890D02*
X29880D01*
X29100Y14900D02*
X30110D01*
X29100Y15360D02*
X30110D01*
Y14900D02*
Y15360D01*
X29100Y14900D02*
Y15360D01*
X32740Y7010D02*
Y8020D01*
X33200Y7010D02*
Y8020D01*
X32740Y7010D02*
X33200D01*
X32740Y8020D02*
X33200D01*
X14300Y23700D02*
X15310D01*
X14300Y24160D02*
X15310D01*
Y23700D02*
Y24160D01*
X14300Y23700D02*
Y24160D01*
X14330Y23240D02*
X15340D01*
X14330Y23700D02*
X15340D01*
Y23240D02*
Y23700D01*
X14330Y23240D02*
Y23700D01*
X14090Y22600D02*
X15100D01*
Y22140D02*
Y22600D01*
X14090Y22140D02*
Y22600D01*
Y22140D02*
X15100D01*
X14090Y21730D02*
X14550D01*
Y20720D02*
Y21730D01*
X14090Y20720D02*
Y21730D01*
Y20720D02*
X14550D01*
Y21730D02*
X15010D01*
Y20720D02*
Y21730D01*
X14550Y20720D02*
Y21730D01*
Y20720D02*
X15010D01*
X12910Y21660D02*
Y22120D01*
X13920D01*
X12910Y21660D02*
X13920D01*
Y22120D01*
X13940Y21200D02*
Y21660D01*
X12930Y21200D02*
X13940D01*
X12930Y21660D02*
X13940D01*
X12930Y21200D02*
Y21660D01*
X12300Y21100D02*
X12760D01*
X12300D02*
Y22110D01*
X12760Y21100D02*
Y22110D01*
X12300D02*
X12760D01*
X12310Y21100D02*
Y22110D01*
X11850Y21100D02*
X12310D01*
X11850Y22110D02*
X12310D01*
X11850Y21100D02*
Y22110D01*
X12500Y22120D02*
Y23130D01*
X12040Y22120D02*
X12500D01*
X12040Y23130D02*
X12500D01*
X12040Y22120D02*
Y23130D01*
X11500Y23700D02*
X12510D01*
Y23240D02*
Y23700D01*
X11500Y23240D02*
Y23700D01*
Y23240D02*
X12510D01*
X10820Y22700D02*
Y23160D01*
X11830D01*
X10820Y22700D02*
X11830D01*
Y23160D01*
X12750Y24160D02*
Y25170D01*
X12290D02*
X12750D01*
X12290Y24160D02*
X12750D01*
X12290D02*
Y25170D01*
X11640Y24160D02*
X12650D01*
X11640Y23700D02*
Y24160D01*
X12650Y23700D02*
Y24160D01*
X11640Y23700D02*
X12650D01*
X14060Y18970D02*
Y19430D01*
X13050Y18970D02*
X14060D01*
X13050Y19430D02*
X14060D01*
X13050Y18970D02*
Y19430D01*
X10390Y21097D02*
X14103D01*
Y20270D02*
Y21097D01*
X10390Y19430D02*
Y21097D01*
X14103Y19430D02*
Y20270D01*
X10390Y19430D02*
X14103D01*
X13300Y24160D02*
X14310D01*
Y23700D02*
Y24160D01*
X13300Y23700D02*
Y24160D01*
Y23700D02*
X14310D01*
X14080Y23130D02*
X15090D01*
Y22670D02*
Y23130D01*
X14080Y22670D02*
Y23130D01*
Y22670D02*
X15090D01*
X11990Y18960D02*
X13000D01*
X11990D02*
Y19420D01*
X13000Y18960D02*
Y19420D01*
X11990D02*
X13000D01*
X15710Y19220D02*
X16720D01*
X15710D02*
Y19680D01*
X16720Y19220D02*
Y19680D01*
X15710D02*
X16720D01*
X15710Y18740D02*
X16720D01*
X15710D02*
Y19200D01*
X16720Y18740D02*
Y19200D01*
X15710D02*
X16720D01*
X6730Y21890D02*
Y22900D01*
X6270Y21890D02*
X6730D01*
X6270Y22900D02*
X6730D01*
X6270Y21890D02*
Y22900D01*
X7170Y21890D02*
Y22900D01*
X6710Y21890D02*
X7170D01*
X6710Y22900D02*
X7170D01*
X6710Y21890D02*
Y22900D01*
X6270Y23920D02*
X6730D01*
Y22910D02*
Y23920D01*
X6270Y22910D02*
Y23920D01*
Y22910D02*
X6730D01*
X6710Y20850D02*
Y21310D01*
X7720D01*
X6710Y20850D02*
X7720D01*
Y21310D01*
X6730Y23360D02*
X7740D01*
Y22900D02*
Y23360D01*
X6730Y22900D02*
Y23360D01*
Y22900D02*
X7740D01*
X10030Y27290D02*
Y28300D01*
X9570Y27290D02*
X10030D01*
X9570Y28300D02*
X10030D01*
X9570Y27290D02*
Y28300D01*
X9100Y27290D02*
Y28300D01*
X9560D01*
X9100Y27290D02*
X9560D01*
Y28300D01*
X9100Y27290D02*
Y28300D01*
X8640Y27290D02*
X9100D01*
X8640Y28300D02*
X9100D01*
X8640Y27290D02*
Y28300D01*
X8180Y26980D02*
X8640D01*
X8180D02*
Y27990D01*
X8640Y26980D02*
Y27990D01*
X8180D02*
X8640D01*
X7720Y26980D02*
Y27990D01*
X8180D01*
X7720Y26980D02*
X8180D01*
Y27990D01*
X7710Y26980D02*
X8720D01*
Y26520D02*
Y26980D01*
X7710Y26520D02*
Y26980D01*
Y26520D02*
X8720D01*
X7925Y24212D02*
X8004D01*
X7925Y24330D02*
X9855D01*
X7925Y24212D02*
Y24448D01*
X8004D01*
X7965Y24212D02*
Y24330D01*
X8004Y24212D02*
Y24330D01*
X7965D02*
Y24448D01*
X8004Y24330D02*
Y24448D01*
X7925Y25512D02*
X8004D01*
X7925D02*
Y25748D01*
Y25630D02*
X9855D01*
X7925Y25748D02*
X8004D01*
X7965Y25512D02*
Y25630D01*
Y25748D01*
X8004Y25512D02*
Y25630D01*
Y25748D01*
X18480Y6580D02*
Y7590D01*
X18020Y6580D02*
Y7590D01*
X18480D01*
X18020Y6580D02*
X18480D01*
X30900Y3180D02*
X31910D01*
X30900Y3640D02*
X31910D01*
Y3180D02*
Y3640D01*
X30900Y3180D02*
Y3640D01*
Y2720D02*
X31910D01*
X30900Y3180D02*
X31910D01*
Y2720D02*
Y3180D01*
X30900Y2720D02*
Y3180D01*
X29970Y6550D02*
X30980D01*
X29970Y6090D02*
X30980D01*
X29970D02*
Y6550D01*
X30980Y6090D02*
Y6550D01*
X29970Y5630D02*
X30980D01*
X29970Y6090D02*
X30980D01*
Y5630D02*
Y6090D01*
X29970Y5630D02*
Y6090D01*
X31410Y1200D02*
Y2210D01*
X31870Y1200D02*
Y2210D01*
X31410Y1200D02*
X31870D01*
X31410Y2210D02*
X31870D01*
X31970Y4120D02*
Y5130D01*
X31510Y4120D02*
Y5130D01*
X31970D01*
X31510Y4120D02*
X31970D01*
X31400Y1700D02*
Y2710D01*
X30940Y1700D02*
Y2710D01*
X31400D01*
X30940Y1700D02*
X31400D01*
X31970Y3800D02*
Y4810D01*
X32430Y3800D02*
Y4810D01*
X31970Y3800D02*
X32430D01*
X31970Y4810D02*
X32430D01*
X11520Y6470D02*
Y6930D01*
X12530Y6470D02*
Y6930D01*
X11520D02*
X12530D01*
X11520Y6470D02*
X12530D01*
X10890Y6000D02*
X11900D01*
X10890Y6460D02*
X11900D01*
Y6000D02*
Y6460D01*
X10890Y6000D02*
Y6460D01*
X21610Y24570D02*
Y25580D01*
X21150Y24570D02*
Y25580D01*
X21610D01*
X21150Y24570D02*
X21610D01*
X3230Y3070D02*
Y4080D01*
X2770Y3070D02*
Y4080D01*
X3230D01*
X2770Y3070D02*
X3230D01*
D114*
X5573Y26940D02*
X5840D01*
X5573Y27207D01*
Y27273D01*
X5640Y27340D01*
X5773D01*
X5840Y27273D01*
X5440D02*
X5373Y27340D01*
X5240D01*
X5174Y27273D01*
Y27207D01*
X5240Y27140D01*
X5174Y27073D01*
Y27007D01*
X5240Y26940D01*
X5373D01*
X5440Y27007D01*
Y27073D01*
X5373Y27140D01*
X5440Y27207D01*
Y27273D01*
X5373Y27140D02*
X5240D01*
X5040Y27340D02*
Y27073D01*
X4907Y26940D01*
X4774Y27073D01*
Y27340D01*
X4241Y26940D02*
Y27340D01*
X4107Y27207D01*
X3974Y27340D01*
Y26940D01*
X3774Y27207D02*
X3641D01*
X3574Y27140D01*
Y26940D01*
X3774D01*
X3841Y27007D01*
X3774Y27073D01*
X3574D01*
X3441Y27207D02*
X3174Y26940D01*
X3307Y27073D01*
X3174Y27207D01*
X3441Y26940D01*
D115*
X31371Y18943D02*
G03*
X31371Y18943I-49J0D01*
G01*
X33166Y17921D02*
G03*
X33166Y17921I-49J0D01*
G01*
X7173Y1689D02*
G03*
X7173Y1689I-49J0D01*
G01*
X12078Y3967D02*
G03*
X12078Y3967I-49J0D01*
G01*
X13880Y2770D02*
Y3020D01*
Y2520D02*
Y2770D01*
X3690Y10340D02*
Y10590D01*
Y10090D02*
Y10340D01*
X16680Y20610D02*
Y20860D01*
Y20360D02*
Y20610D01*
X14660Y4640D02*
X14910D01*
X14410D02*
X14660D01*
X9700Y1450D02*
X9950D01*
X9450D02*
X9700D01*
D119*
X13630Y2770D02*
Y3020D01*
X13880Y2770D01*
X13630Y2520D02*
Y2770D01*
Y2520D02*
X13880Y2770D01*
X12592Y2150D02*
Y3380D01*
X14954D01*
Y2150D02*
Y3380D01*
X12592Y2150D02*
X14954D01*
X3440Y10340D02*
Y10590D01*
X3690Y10340D01*
X3440Y10090D02*
Y10340D01*
Y10090D02*
X3690Y10340D01*
X2402Y9720D02*
Y10950D01*
X4764D01*
Y9720D02*
Y10950D01*
X2402Y9720D02*
X4764D01*
X28990Y24400D02*
X29110D01*
X28990Y24080D02*
X29110D01*
X36260Y26320D02*
X36380D01*
X36260Y26640D02*
X36380D01*
X28990Y25100D02*
X29110D01*
X28990Y24780D02*
X29110D01*
X16430Y20610D02*
Y20860D01*
X16680Y20610D01*
X16430Y20360D02*
Y20610D01*
Y20360D02*
X16680Y20610D01*
X15392Y19990D02*
Y21220D01*
X17754D01*
Y19990D02*
Y21220D01*
X15392Y19990D02*
X17754D01*
X32070Y1700D02*
Y1820D01*
X32390Y1700D02*
Y1820D01*
X36420Y3770D02*
Y3890D01*
X36740Y3770D02*
Y3890D01*
X32510Y3020D02*
Y3140D01*
X32190Y3020D02*
Y3140D01*
X14660Y4890D02*
X14910D01*
X14660Y4640D02*
X14910Y4890D01*
X14410D02*
X14660D01*
X14410D02*
X14660Y4640D01*
X14040Y5928D02*
X15270D01*
Y3566D02*
Y5928D01*
X14040Y3566D02*
X15270D01*
X14040D02*
Y5928D01*
X9700Y1700D02*
X9950D01*
X9700Y1450D02*
X9950Y1700D01*
X9450D02*
X9700D01*
X9450D02*
X9700Y1450D01*
X9080Y2738D02*
X10310D01*
Y376D02*
Y2738D01*
X9080Y376D02*
X10310D01*
X9080D02*
Y2738D01*
X31900Y20450D02*
X32020D01*
X31900Y20770D02*
X32020D01*
X36260Y25480D02*
X36380D01*
X36260Y25800D02*
X36380D01*
X29410Y27950D02*
Y28070D01*
X29090Y27950D02*
Y28070D01*
D120*
X31439Y18254D02*
Y18530D01*
Y18254D02*
X31754D01*
X32621D02*
Y18530D01*
X32306Y18254D02*
X32621D01*
X33530Y18039D02*
X33806D01*
Y18354D01*
X33530Y19221D02*
X33806D01*
Y18906D02*
Y19221D01*
X6434Y1571D02*
X6710D01*
X6434Y1256D02*
Y1571D01*
Y389D02*
X6710D01*
X6434D02*
Y704D01*
X11911Y4380D02*
Y4656D01*
X11596D02*
X11911D01*
X10729Y4380D02*
Y4656D01*
X11044D01*
M02*
