G04 Layer_Physical_Order=3*
G04 Layer_Color=16440176*
%FSLAX24Y24*%
%MOIN*%
G70*
G01*
G75*
%ADD10C,0.0060*%
%ADD76C,0.0250*%
%ADD79C,0.0120*%
%ADD80C,0.1000*%
%ADD81C,0.0150*%
%ADD82C,0.0200*%
%ADD85C,0.0180*%
%ADD87C,0.0600*%
%ADD89C,0.0300*%
%ADD98O,0.1378X0.1299*%
%ADD99C,0.0591*%
%ADD103R,0.0945X0.1220*%
%ADD104C,0.0180*%
%ADD105C,0.1575*%
%ADD106C,0.0394*%
%ADD107C,0.0260*%
%ADD110C,0.0700*%
G36*
X39210Y25373D02*
X39165Y25350D01*
X39139Y25370D01*
X39053Y25406D01*
X38960Y25418D01*
X38867Y25406D01*
X38781Y25370D01*
X38707Y25313D01*
X38650Y25239D01*
X38614Y25153D01*
X38602Y25060D01*
X38614Y24967D01*
X38650Y24881D01*
X38707Y24807D01*
X38781Y24750D01*
X38867Y24714D01*
X38960Y24702D01*
X39053Y24714D01*
X39139Y24750D01*
X39165Y24770D01*
X39210Y24747D01*
Y22373D01*
X39165Y22350D01*
X39139Y22370D01*
X39053Y22406D01*
X38960Y22418D01*
X38867Y22406D01*
X38781Y22370D01*
X38707Y22313D01*
X38650Y22239D01*
X38614Y22153D01*
X38602Y22060D01*
X38614Y21967D01*
X38650Y21881D01*
X38707Y21807D01*
X38781Y21750D01*
X38867Y21714D01*
X38960Y21702D01*
X39053Y21714D01*
X39139Y21750D01*
X39165Y21770D01*
X39210Y21747D01*
Y21373D01*
X39165Y21350D01*
X39139Y21370D01*
X39053Y21406D01*
X38960Y21418D01*
X38867Y21406D01*
X38781Y21370D01*
X38707Y21313D01*
X38650Y21239D01*
X38614Y21153D01*
X38602Y21060D01*
X38614Y20967D01*
X38650Y20881D01*
X38707Y20807D01*
X38781Y20750D01*
X38867Y20714D01*
X38960Y20702D01*
X39053Y20714D01*
X39139Y20750D01*
X39165Y20770D01*
X39210Y20747D01*
Y20373D01*
X39165Y20350D01*
X39139Y20370D01*
X39053Y20406D01*
X38960Y20418D01*
X38867Y20406D01*
X38781Y20370D01*
X38707Y20313D01*
X38650Y20239D01*
X38614Y20153D01*
X38602Y20060D01*
X38614Y19967D01*
X38650Y19881D01*
X38707Y19807D01*
X38781Y19750D01*
X38867Y19714D01*
X38960Y19702D01*
X39053Y19714D01*
X39139Y19750D01*
X39165Y19770D01*
X39210Y19747D01*
Y19373D01*
X39165Y19350D01*
X39139Y19370D01*
X39053Y19406D01*
X38960Y19418D01*
X38867Y19406D01*
X38781Y19370D01*
X38707Y19313D01*
X38650Y19239D01*
X38614Y19153D01*
X38602Y19060D01*
X38614Y18967D01*
X38650Y18881D01*
X38707Y18807D01*
X38781Y18750D01*
X38867Y18714D01*
X38960Y18702D01*
X39053Y18714D01*
X39139Y18750D01*
X39165Y18770D01*
X39210Y18747D01*
Y18373D01*
X39165Y18350D01*
X39139Y18370D01*
X39053Y18406D01*
X38960Y18418D01*
X38867Y18406D01*
X38781Y18370D01*
X38707Y18313D01*
X38650Y18239D01*
X38614Y18153D01*
X38602Y18060D01*
X38614Y17967D01*
X38650Y17881D01*
X38707Y17807D01*
X38781Y17750D01*
X38867Y17714D01*
X38960Y17702D01*
X39053Y17714D01*
X39139Y17750D01*
X39165Y17770D01*
X39210Y17747D01*
Y17373D01*
X39165Y17350D01*
X39139Y17370D01*
X39053Y17406D01*
X38960Y17418D01*
X38867Y17406D01*
X38781Y17370D01*
X38707Y17313D01*
X38650Y17239D01*
X38614Y17153D01*
X38602Y17060D01*
X38614Y16967D01*
X38650Y16881D01*
X38707Y16807D01*
X38781Y16750D01*
X38867Y16714D01*
X38960Y16702D01*
X39053Y16714D01*
X39139Y16750D01*
X39165Y16770D01*
X39210Y16747D01*
Y16373D01*
X39165Y16350D01*
X39139Y16370D01*
X39053Y16406D01*
X38960Y16418D01*
X38867Y16406D01*
X38781Y16370D01*
X38707Y16313D01*
X38650Y16239D01*
X38614Y16153D01*
X38602Y16060D01*
X38614Y15967D01*
X38650Y15881D01*
X38707Y15807D01*
X38781Y15750D01*
X38867Y15714D01*
X38960Y15702D01*
X39053Y15714D01*
X39139Y15750D01*
X39165Y15770D01*
X39210Y15747D01*
Y15373D01*
X39165Y15350D01*
X39139Y15370D01*
X39053Y15406D01*
X38960Y15418D01*
X38867Y15406D01*
X38781Y15370D01*
X38707Y15313D01*
X38650Y15239D01*
X38614Y15153D01*
X38602Y15060D01*
X38614Y14967D01*
X38650Y14881D01*
X38707Y14807D01*
X38781Y14750D01*
X38867Y14714D01*
X38960Y14702D01*
X39053Y14714D01*
X39139Y14750D01*
X39165Y14770D01*
X39210Y14747D01*
Y14373D01*
X39165Y14350D01*
X39139Y14370D01*
X39053Y14406D01*
X38960Y14418D01*
X38867Y14406D01*
X38781Y14370D01*
X38707Y14313D01*
X38650Y14239D01*
X38614Y14153D01*
X38602Y14060D01*
X38614Y13967D01*
X38650Y13881D01*
X38707Y13807D01*
X38781Y13750D01*
X38867Y13714D01*
X38960Y13702D01*
X39053Y13714D01*
X39139Y13750D01*
X39165Y13770D01*
X39210Y13747D01*
Y13373D01*
X39165Y13350D01*
X39139Y13370D01*
X39053Y13406D01*
X38960Y13418D01*
X38867Y13406D01*
X38781Y13370D01*
X38707Y13313D01*
X38650Y13239D01*
X38614Y13153D01*
X38602Y13060D01*
X38614Y12967D01*
X38650Y12881D01*
X38707Y12807D01*
X38781Y12750D01*
X38867Y12714D01*
X38960Y12702D01*
X39053Y12714D01*
X39139Y12750D01*
X39165Y12770D01*
X39210Y12747D01*
Y11373D01*
X39165Y11350D01*
X39139Y11370D01*
X39053Y11406D01*
X38960Y11418D01*
X38867Y11406D01*
X38781Y11370D01*
X38707Y11313D01*
X38650Y11239D01*
X38614Y11153D01*
X38602Y11060D01*
X38614Y10967D01*
X38650Y10881D01*
X38707Y10807D01*
X38781Y10750D01*
X38867Y10714D01*
X38960Y10702D01*
X39053Y10714D01*
X39139Y10750D01*
X39165Y10770D01*
X39210Y10747D01*
Y10373D01*
X39165Y10350D01*
X39139Y10370D01*
X39053Y10406D01*
X38960Y10418D01*
X38867Y10406D01*
X38781Y10370D01*
X38707Y10313D01*
X38650Y10239D01*
X38614Y10153D01*
X38602Y10060D01*
X38614Y9967D01*
X38650Y9881D01*
X38707Y9807D01*
X38781Y9750D01*
X38867Y9714D01*
X38960Y9702D01*
X39053Y9714D01*
X39139Y9750D01*
X39165Y9770D01*
X39210Y9747D01*
Y9373D01*
X39165Y9350D01*
X39139Y9370D01*
X39053Y9406D01*
X38960Y9418D01*
X38867Y9406D01*
X38781Y9370D01*
X38707Y9313D01*
X38650Y9239D01*
X38614Y9153D01*
X38602Y9060D01*
X38614Y8967D01*
X38650Y8881D01*
X38707Y8807D01*
X38781Y8750D01*
X38867Y8714D01*
X38960Y8702D01*
X39053Y8714D01*
X39139Y8750D01*
X39165Y8770D01*
X39210Y8747D01*
Y8373D01*
X39165Y8350D01*
X39139Y8370D01*
X39053Y8406D01*
X38960Y8418D01*
X38867Y8406D01*
X38781Y8370D01*
X38707Y8313D01*
X38650Y8239D01*
X38614Y8153D01*
X38602Y8060D01*
X38614Y7967D01*
X38650Y7881D01*
X38707Y7807D01*
X38781Y7750D01*
X38867Y7714D01*
X38960Y7702D01*
X39053Y7714D01*
X39139Y7750D01*
X39165Y7770D01*
X39210Y7747D01*
Y7373D01*
X39165Y7350D01*
X39139Y7370D01*
X39053Y7406D01*
X38960Y7418D01*
X38867Y7406D01*
X38781Y7370D01*
X38707Y7313D01*
X38650Y7239D01*
X38614Y7153D01*
X38602Y7060D01*
X38614Y6967D01*
X38650Y6881D01*
X38707Y6807D01*
X38781Y6750D01*
X38867Y6714D01*
X38960Y6702D01*
X39053Y6714D01*
X39139Y6750D01*
X39165Y6770D01*
X39210Y6747D01*
Y6373D01*
X39165Y6350D01*
X39139Y6370D01*
X39053Y6406D01*
X38960Y6418D01*
X38867Y6406D01*
X38781Y6370D01*
X38707Y6313D01*
X38650Y6239D01*
X38614Y6153D01*
X38602Y6060D01*
X38614Y5967D01*
X38650Y5881D01*
X38707Y5807D01*
X38781Y5750D01*
X38867Y5714D01*
X38960Y5702D01*
X39053Y5714D01*
X39139Y5750D01*
X39165Y5770D01*
X39210Y5747D01*
Y4373D01*
X39165Y4350D01*
X39139Y4370D01*
X39053Y4406D01*
X38960Y4418D01*
X38867Y4406D01*
X38781Y4370D01*
X38707Y4313D01*
X38650Y4239D01*
X38614Y4153D01*
X38602Y4060D01*
X38614Y3967D01*
X38650Y3881D01*
X38707Y3807D01*
X38781Y3750D01*
X38867Y3714D01*
X38960Y3702D01*
X39053Y3714D01*
X39139Y3750D01*
X39165Y3770D01*
X39210Y3747D01*
Y3373D01*
X39165Y3350D01*
X39139Y3370D01*
X39053Y3406D01*
X38960Y3418D01*
X38867Y3406D01*
X38781Y3370D01*
X38707Y3313D01*
X38650Y3239D01*
X38614Y3153D01*
X38602Y3060D01*
X38614Y2967D01*
X38650Y2881D01*
X38707Y2807D01*
X38781Y2750D01*
X38867Y2714D01*
X38960Y2702D01*
X39053Y2714D01*
X39139Y2750D01*
X39165Y2770D01*
X39210Y2747D01*
Y2373D01*
X39165Y2350D01*
X39139Y2370D01*
X39053Y2406D01*
X38960Y2418D01*
X38867Y2406D01*
X38781Y2370D01*
X38707Y2313D01*
X38650Y2239D01*
X38614Y2153D01*
X38602Y2060D01*
X38614Y1967D01*
X38650Y1881D01*
X38707Y1807D01*
X38781Y1750D01*
X38867Y1714D01*
X38960Y1702D01*
X39053Y1714D01*
X39139Y1750D01*
X39165Y1770D01*
X39210Y1747D01*
Y200D01*
X31280D01*
Y660D01*
X29660D01*
Y200D01*
X240D01*
Y1707D01*
X282Y1735D01*
X307Y1724D01*
X400Y1712D01*
X493Y1724D01*
X579Y1760D01*
X653Y1817D01*
X710Y1891D01*
X746Y1977D01*
X758Y2070D01*
X746Y2163D01*
X710Y2249D01*
X653Y2323D01*
X579Y2380D01*
X493Y2416D01*
X400Y2428D01*
X307Y2416D01*
X282Y2405D01*
X240Y2433D01*
Y2707D01*
X282Y2735D01*
X307Y2724D01*
X400Y2712D01*
X493Y2724D01*
X579Y2760D01*
X653Y2817D01*
X710Y2891D01*
X746Y2977D01*
X758Y3070D01*
X746Y3163D01*
X710Y3249D01*
X653Y3323D01*
X579Y3380D01*
X493Y3416D01*
X400Y3428D01*
X307Y3416D01*
X282Y3405D01*
X240Y3433D01*
Y3707D01*
X282Y3735D01*
X307Y3724D01*
X400Y3712D01*
X493Y3724D01*
X579Y3760D01*
X653Y3817D01*
X710Y3891D01*
X746Y3977D01*
X758Y4070D01*
X746Y4163D01*
X710Y4249D01*
X653Y4323D01*
X579Y4380D01*
X493Y4416D01*
X400Y4428D01*
X307Y4416D01*
X282Y4405D01*
X240Y4433D01*
Y4707D01*
X282Y4735D01*
X307Y4724D01*
X400Y4712D01*
X493Y4724D01*
X579Y4760D01*
X653Y4817D01*
X710Y4891D01*
X746Y4977D01*
X758Y5070D01*
X746Y5163D01*
X710Y5249D01*
X653Y5323D01*
X579Y5380D01*
X493Y5416D01*
X400Y5428D01*
X307Y5416D01*
X282Y5405D01*
X240Y5433D01*
Y5707D01*
X282Y5735D01*
X307Y5724D01*
X400Y5712D01*
X493Y5724D01*
X579Y5760D01*
X653Y5817D01*
X710Y5891D01*
X746Y5977D01*
X758Y6070D01*
X746Y6163D01*
X710Y6249D01*
X653Y6323D01*
X579Y6380D01*
X493Y6416D01*
X400Y6428D01*
X307Y6416D01*
X282Y6405D01*
X240Y6433D01*
Y6707D01*
X282Y6735D01*
X307Y6724D01*
X400Y6712D01*
X493Y6724D01*
X579Y6760D01*
X653Y6817D01*
X710Y6891D01*
X746Y6977D01*
X758Y7070D01*
X746Y7163D01*
X710Y7249D01*
X653Y7323D01*
X579Y7380D01*
X493Y7416D01*
X400Y7428D01*
X307Y7416D01*
X282Y7405D01*
X240Y7433D01*
Y7707D01*
X282Y7735D01*
X307Y7724D01*
X400Y7712D01*
X493Y7724D01*
X579Y7760D01*
X653Y7817D01*
X710Y7891D01*
X746Y7977D01*
X758Y8070D01*
X746Y8163D01*
X710Y8249D01*
X653Y8323D01*
X579Y8380D01*
X493Y8416D01*
X400Y8428D01*
X307Y8416D01*
X282Y8405D01*
X240Y8433D01*
Y8707D01*
X282Y8735D01*
X307Y8724D01*
X400Y8712D01*
X493Y8724D01*
X579Y8760D01*
X653Y8817D01*
X710Y8891D01*
X746Y8977D01*
X758Y9070D01*
X746Y9163D01*
X710Y9249D01*
X653Y9323D01*
X579Y9380D01*
X493Y9416D01*
X400Y9428D01*
X307Y9416D01*
X282Y9405D01*
X240Y9433D01*
Y9707D01*
X282Y9735D01*
X307Y9724D01*
X400Y9712D01*
X493Y9724D01*
X579Y9760D01*
X653Y9817D01*
X710Y9891D01*
X746Y9977D01*
X758Y10070D01*
X746Y10163D01*
X710Y10249D01*
X653Y10323D01*
X579Y10380D01*
X493Y10416D01*
X400Y10428D01*
X307Y10416D01*
X282Y10405D01*
X240Y10433D01*
Y10707D01*
X282Y10735D01*
X307Y10724D01*
X400Y10712D01*
X493Y10724D01*
X579Y10760D01*
X653Y10817D01*
X710Y10891D01*
X746Y10977D01*
X758Y11070D01*
X746Y11163D01*
X710Y11249D01*
X653Y11323D01*
X579Y11380D01*
X493Y11416D01*
X400Y11428D01*
X307Y11416D01*
X282Y11405D01*
X240Y11433D01*
Y11707D01*
X282Y11735D01*
X307Y11724D01*
X400Y11712D01*
X493Y11724D01*
X579Y11760D01*
X653Y11817D01*
X710Y11891D01*
X746Y11977D01*
X758Y12070D01*
X746Y12163D01*
X710Y12249D01*
X653Y12323D01*
X579Y12380D01*
X493Y12416D01*
X400Y12428D01*
X307Y12416D01*
X282Y12405D01*
X240Y12433D01*
Y12707D01*
X282Y12735D01*
X307Y12724D01*
X400Y12712D01*
X493Y12724D01*
X579Y12760D01*
X653Y12817D01*
X710Y12891D01*
X746Y12977D01*
X758Y13070D01*
X746Y13163D01*
X710Y13249D01*
X653Y13323D01*
X579Y13380D01*
X493Y13416D01*
X400Y13428D01*
X307Y13416D01*
X282Y13405D01*
X240Y13433D01*
Y13707D01*
X282Y13735D01*
X307Y13724D01*
X400Y13712D01*
X493Y13724D01*
X579Y13760D01*
X653Y13817D01*
X710Y13891D01*
X746Y13977D01*
X758Y14070D01*
X746Y14163D01*
X710Y14249D01*
X653Y14323D01*
X579Y14380D01*
X493Y14416D01*
X400Y14428D01*
X307Y14416D01*
X282Y14405D01*
X240Y14433D01*
Y14707D01*
X282Y14735D01*
X307Y14724D01*
X400Y14712D01*
X493Y14724D01*
X579Y14760D01*
X653Y14817D01*
X710Y14891D01*
X746Y14977D01*
X758Y15070D01*
X746Y15163D01*
X710Y15249D01*
X653Y15323D01*
X579Y15380D01*
X493Y15416D01*
X400Y15428D01*
X307Y15416D01*
X282Y15405D01*
X240Y15433D01*
Y15707D01*
X282Y15735D01*
X307Y15724D01*
X400Y15712D01*
X493Y15724D01*
X579Y15760D01*
X653Y15817D01*
X710Y15891D01*
X746Y15977D01*
X758Y16070D01*
X746Y16163D01*
X710Y16249D01*
X653Y16323D01*
X579Y16380D01*
X493Y16416D01*
X400Y16428D01*
X307Y16416D01*
X282Y16405D01*
X240Y16433D01*
Y16707D01*
X282Y16735D01*
X307Y16724D01*
X400Y16712D01*
X493Y16724D01*
X579Y16760D01*
X653Y16817D01*
X710Y16891D01*
X746Y16977D01*
X758Y17070D01*
X746Y17163D01*
X710Y17249D01*
X653Y17323D01*
X579Y17380D01*
X493Y17416D01*
X400Y17428D01*
X307Y17416D01*
X282Y17405D01*
X240Y17433D01*
Y17707D01*
X282Y17735D01*
X307Y17724D01*
X400Y17712D01*
X493Y17724D01*
X579Y17760D01*
X653Y17817D01*
X710Y17891D01*
X746Y17977D01*
X758Y18070D01*
X746Y18163D01*
X710Y18249D01*
X653Y18323D01*
X579Y18380D01*
X493Y18416D01*
X400Y18428D01*
X307Y18416D01*
X282Y18405D01*
X240Y18433D01*
Y18707D01*
X282Y18735D01*
X307Y18724D01*
X400Y18712D01*
X493Y18724D01*
X579Y18760D01*
X653Y18817D01*
X710Y18891D01*
X746Y18977D01*
X758Y19070D01*
X746Y19163D01*
X710Y19249D01*
X653Y19323D01*
X579Y19380D01*
X493Y19416D01*
X400Y19428D01*
X307Y19416D01*
X282Y19405D01*
X240Y19433D01*
Y28830D01*
X39210D01*
Y25373D01*
D02*
G37*
%LPC*%
G36*
X14800Y9073D02*
X14741Y9061D01*
X14692Y9028D01*
X14659Y8979D01*
X14647Y8920D01*
X14659Y8861D01*
X14692Y8812D01*
X14741Y8779D01*
X14800Y8767D01*
X14859Y8779D01*
X14908Y8812D01*
X14941Y8861D01*
X14953Y8920D01*
X14941Y8979D01*
X14908Y9028D01*
X14859Y9061D01*
X14800Y9073D01*
D02*
G37*
G36*
X13710D02*
X13651Y9061D01*
X13602Y9028D01*
X13569Y8979D01*
X13557Y8920D01*
X13569Y8861D01*
X13602Y8812D01*
X13651Y8779D01*
X13710Y8767D01*
X13769Y8779D01*
X13818Y8812D01*
X13851Y8861D01*
X13863Y8920D01*
X13851Y8979D01*
X13818Y9028D01*
X13769Y9061D01*
X13710Y9073D01*
D02*
G37*
G36*
X14080Y9093D02*
X14021Y9081D01*
X13972Y9048D01*
X13939Y8999D01*
X13927Y8940D01*
X13939Y8881D01*
X13972Y8832D01*
X13982Y8825D01*
Y8775D01*
X13972Y8768D01*
X13939Y8719D01*
X13927Y8660D01*
X13939Y8601D01*
X13972Y8552D01*
X14021Y8519D01*
X14080Y8507D01*
X14139Y8519D01*
X14188Y8552D01*
X14221Y8601D01*
X14233Y8660D01*
X14221Y8719D01*
X14188Y8768D01*
X14183Y8771D01*
X14180Y8822D01*
X14214Y8855D01*
X14263Y8850D01*
X14282Y8822D01*
X14331Y8789D01*
X14390Y8777D01*
X14449Y8789D01*
X14498Y8822D01*
X14531Y8871D01*
X14543Y8930D01*
X14531Y8989D01*
X14498Y9038D01*
X14449Y9071D01*
X14390Y9083D01*
X14331Y9071D01*
X14282Y9038D01*
X14266Y9015D01*
X14264Y9014D01*
X14208Y9018D01*
X14188Y9048D01*
X14139Y9081D01*
X14080Y9093D01*
D02*
G37*
G36*
X25480Y9143D02*
X25421Y9131D01*
X25372Y9098D01*
X25339Y9049D01*
X25327Y8990D01*
X25339Y8931D01*
X25372Y8882D01*
X25421Y8849D01*
X25480Y8837D01*
X25539Y8849D01*
X25588Y8882D01*
X25621Y8931D01*
X25633Y8990D01*
X25621Y9049D01*
X25588Y9098D01*
X25539Y9131D01*
X25480Y9143D01*
D02*
G37*
G36*
X8790Y9553D02*
X8731Y9541D01*
X8682Y9508D01*
X8649Y9459D01*
X8637Y9400D01*
X8649Y9341D01*
X8682Y9292D01*
X8731Y9259D01*
X8790Y9247D01*
X8849Y9259D01*
X8898Y9292D01*
X8953Y9285D01*
X8962Y9272D01*
X9011Y9239D01*
X9070Y9227D01*
X9129Y9239D01*
X9178Y9272D01*
X9182Y9278D01*
X9189Y9280D01*
X9240Y9275D01*
X9262Y9242D01*
X9265Y9240D01*
X9282Y9218D01*
X9249Y9169D01*
X9237Y9110D01*
X9249Y9051D01*
X9282Y9002D01*
X9331Y8969D01*
X9390Y8957D01*
X9449Y8969D01*
X9498Y9002D01*
X9531Y9051D01*
X9543Y9110D01*
X9531Y9169D01*
X9498Y9218D01*
X9495Y9220D01*
X9478Y9242D01*
X9511Y9291D01*
X9523Y9350D01*
X9511Y9409D01*
X9478Y9458D01*
X9429Y9491D01*
X9370Y9503D01*
X9311Y9491D01*
X9262Y9458D01*
X9258Y9452D01*
X9251Y9450D01*
X9200Y9456D01*
X9178Y9488D01*
X9129Y9521D01*
X9070Y9533D01*
X9011Y9521D01*
X8962Y9488D01*
X8907Y9495D01*
X8898Y9508D01*
X8849Y9541D01*
X8790Y9553D01*
D02*
G37*
G36*
X34010Y9053D02*
X33951Y9041D01*
X33902Y9008D01*
X33869Y8959D01*
X33857Y8900D01*
X33869Y8841D01*
X33902Y8792D01*
X33951Y8759D01*
X34010Y8747D01*
X34069Y8759D01*
X34118Y8792D01*
X34151Y8841D01*
X34163Y8900D01*
X34151Y8959D01*
X34118Y9008D01*
X34069Y9041D01*
X34010Y9053D01*
D02*
G37*
G36*
X32620Y9073D02*
X32561Y9061D01*
X32512Y9028D01*
X32479Y8979D01*
X32467Y8920D01*
X32479Y8861D01*
X32512Y8812D01*
X32561Y8779D01*
X32590Y8773D01*
X32637Y8750D01*
X32648Y8692D01*
X32682Y8642D01*
X32731Y8609D01*
X32790Y8597D01*
X32848Y8609D01*
X32898Y8642D01*
X32931Y8692D01*
X32943Y8750D01*
X32931Y8809D01*
X32898Y8858D01*
X32848Y8892D01*
X32819Y8897D01*
X32773Y8920D01*
X32761Y8979D01*
X32728Y9028D01*
X32679Y9061D01*
X32620Y9073D01*
D02*
G37*
G36*
X3160Y8893D02*
X3101Y8881D01*
X3052Y8848D01*
X3019Y8799D01*
X3007Y8740D01*
X3019Y8681D01*
X3052Y8632D01*
X3101Y8599D01*
X3160Y8587D01*
X3219Y8599D01*
X3268Y8632D01*
X3301Y8681D01*
X3313Y8740D01*
X3301Y8799D01*
X3268Y8848D01*
X3219Y8881D01*
X3160Y8893D01*
D02*
G37*
G36*
X37960Y9418D02*
X37867Y9406D01*
X37781Y9370D01*
X37707Y9313D01*
X37650Y9239D01*
X37614Y9153D01*
X37602Y9060D01*
X37614Y8967D01*
X37650Y8881D01*
X37707Y8807D01*
X37781Y8750D01*
X37867Y8714D01*
X37960Y8702D01*
X38053Y8714D01*
X38139Y8750D01*
X38213Y8807D01*
X38270Y8881D01*
X38306Y8967D01*
X38318Y9060D01*
X38306Y9153D01*
X38270Y9239D01*
X38213Y9313D01*
X38139Y9370D01*
X38053Y9406D01*
X37960Y9418D01*
D02*
G37*
G36*
X33140Y9243D02*
X33081Y9231D01*
X33032Y9198D01*
X32999Y9149D01*
X32987Y9090D01*
X32999Y9031D01*
X33032Y8982D01*
X33081Y8949D01*
X33095Y8946D01*
X33137Y8900D01*
X33149Y8841D01*
X33182Y8792D01*
X33231Y8759D01*
X33290Y8747D01*
X33349Y8759D01*
X33398Y8792D01*
X33431Y8841D01*
X33443Y8900D01*
X33431Y8959D01*
X33398Y9008D01*
X33349Y9041D01*
X33335Y9044D01*
X33293Y9090D01*
X33281Y9149D01*
X33248Y9198D01*
X33199Y9231D01*
X33140Y9243D01*
D02*
G37*
G36*
X1400Y9428D02*
X1307Y9416D01*
X1221Y9380D01*
X1147Y9323D01*
X1090Y9249D01*
X1054Y9163D01*
X1042Y9070D01*
X1054Y8977D01*
X1090Y8891D01*
X1147Y8817D01*
X1221Y8760D01*
X1307Y8724D01*
X1400Y8712D01*
X1493Y8724D01*
X1579Y8760D01*
X1653Y8817D01*
X1710Y8891D01*
X1746Y8977D01*
X1758Y9070D01*
X1746Y9163D01*
X1710Y9249D01*
X1653Y9323D01*
X1579Y9380D01*
X1493Y9416D01*
X1400Y9428D01*
D02*
G37*
G36*
X14940Y10083D02*
X14881Y10071D01*
X14832Y10038D01*
X14799Y9989D01*
X14787Y9930D01*
X14799Y9871D01*
X14832Y9822D01*
X14881Y9789D01*
X14940Y9777D01*
X14999Y9789D01*
X15048Y9822D01*
X15081Y9871D01*
X15093Y9930D01*
X15081Y9989D01*
X15048Y10038D01*
X14999Y10071D01*
X14940Y10083D01*
D02*
G37*
G36*
X1400Y10428D02*
X1307Y10416D01*
X1221Y10380D01*
X1147Y10323D01*
X1090Y10249D01*
X1054Y10163D01*
X1042Y10070D01*
X1054Y9977D01*
X1090Y9891D01*
X1147Y9817D01*
X1221Y9760D01*
X1307Y9724D01*
X1400Y9712D01*
X1493Y9724D01*
X1579Y9760D01*
X1653Y9817D01*
X1710Y9891D01*
X1746Y9977D01*
X1758Y10070D01*
X1746Y10163D01*
X1710Y10249D01*
X1653Y10323D01*
X1579Y10380D01*
X1493Y10416D01*
X1400Y10428D01*
D02*
G37*
G36*
X37960Y10418D02*
X37867Y10406D01*
X37781Y10370D01*
X37707Y10313D01*
X37650Y10239D01*
X37614Y10153D01*
X37602Y10060D01*
X37614Y9967D01*
X37650Y9881D01*
X37707Y9807D01*
X37781Y9750D01*
X37867Y9714D01*
X37960Y9702D01*
X38053Y9714D01*
X38139Y9750D01*
X38213Y9807D01*
X38270Y9881D01*
X38306Y9967D01*
X38318Y10060D01*
X38306Y10153D01*
X38270Y10239D01*
X38213Y10313D01*
X38139Y10370D01*
X38053Y10406D01*
X37960Y10418D01*
D02*
G37*
G36*
X27830Y10423D02*
X27771Y10411D01*
X27722Y10378D01*
X27689Y10329D01*
X27677Y10270D01*
X27689Y10211D01*
X27722Y10162D01*
X27771Y10129D01*
X27830Y10117D01*
X27889Y10129D01*
X27938Y10162D01*
X27971Y10211D01*
X27983Y10270D01*
X27971Y10329D01*
X27938Y10378D01*
X27889Y10411D01*
X27830Y10423D01*
D02*
G37*
G36*
X10000Y10213D02*
X9941Y10201D01*
X9892Y10168D01*
X9859Y10119D01*
X9847Y10060D01*
X9859Y10001D01*
X9892Y9952D01*
X9941Y9919D01*
X10000Y9907D01*
X10059Y9919D01*
X10108Y9952D01*
X10141Y10001D01*
X10153Y10060D01*
X10141Y10119D01*
X10108Y10168D01*
X10059Y10201D01*
X10000Y10213D01*
D02*
G37*
G36*
X14590Y10163D02*
X14531Y10151D01*
X14482Y10118D01*
X14449Y10069D01*
X14437Y10010D01*
X14449Y9951D01*
X14482Y9902D01*
X14531Y9869D01*
X14590Y9857D01*
X14649Y9869D01*
X14698Y9902D01*
X14731Y9951D01*
X14743Y10010D01*
X14731Y10069D01*
X14698Y10118D01*
X14649Y10151D01*
X14590Y10163D01*
D02*
G37*
G36*
X33910Y9403D02*
X33851Y9391D01*
X33802Y9358D01*
X33769Y9309D01*
X33757Y9250D01*
X33769Y9191D01*
X33802Y9142D01*
X33851Y9109D01*
X33910Y9097D01*
X33969Y9109D01*
X34018Y9142D01*
X34051Y9191D01*
X34063Y9250D01*
X34051Y9309D01*
X34018Y9358D01*
X33969Y9391D01*
X33910Y9403D01*
D02*
G37*
G36*
X9930Y9573D02*
X9871Y9561D01*
X9822Y9528D01*
X9789Y9479D01*
X9777Y9420D01*
X9789Y9361D01*
X9790Y9360D01*
X9764Y9308D01*
X9732Y9301D01*
X9682Y9268D01*
X9649Y9219D01*
X9638Y9160D01*
X9649Y9101D01*
X9682Y9052D01*
X9732Y9019D01*
X9791Y9007D01*
X9849Y9019D01*
X9899Y9052D01*
X9932Y9101D01*
X9944Y9160D01*
X9932Y9219D01*
X9931Y9220D01*
X9956Y9272D01*
X9989Y9279D01*
X10038Y9312D01*
X10071Y9361D01*
X10083Y9420D01*
X10071Y9479D01*
X10038Y9528D01*
X9989Y9561D01*
X9930Y9573D01*
D02*
G37*
G36*
X16040Y10054D02*
X15958Y10038D01*
X15889Y9991D01*
X15842Y9922D01*
X15826Y9840D01*
Y9630D01*
X15842Y9548D01*
X15889Y9479D01*
X16089Y9279D01*
X16149Y9238D01*
X16288Y9099D01*
X16329Y9039D01*
X16398Y8992D01*
X16480Y8976D01*
X16660D01*
X16710Y8966D01*
X16950D01*
X17032Y8982D01*
X17101Y9029D01*
X17148Y9098D01*
X17164Y9180D01*
X17160Y9201D01*
Y9440D01*
Y9704D01*
X17144Y9786D01*
X17097Y9855D01*
X17091Y9861D01*
X17022Y9908D01*
X16940Y9924D01*
X16890Y9914D01*
X16320D01*
X16270Y9924D01*
X16243Y9919D01*
X16238Y9922D01*
X16191Y9991D01*
X16122Y10038D01*
X16040Y10054D01*
D02*
G37*
G36*
X26410Y9933D02*
X26351Y9921D01*
X26302Y9888D01*
X26269Y9839D01*
X26257Y9780D01*
X26269Y9721D01*
X26302Y9672D01*
X26351Y9639D01*
X26410Y9627D01*
X26469Y9639D01*
X26518Y9672D01*
X26551Y9721D01*
X26563Y9780D01*
X26551Y9839D01*
X26518Y9888D01*
X26469Y9921D01*
X26410Y9933D01*
D02*
G37*
G36*
X2240Y9713D02*
X2181Y9701D01*
X2132Y9668D01*
X2099Y9619D01*
X2087Y9560D01*
X2099Y9501D01*
X2132Y9452D01*
X2181Y9419D01*
X2240Y9407D01*
X2299Y9419D01*
X2348Y9452D01*
X2381Y9501D01*
X2393Y9560D01*
X2381Y9619D01*
X2348Y9668D01*
X2299Y9701D01*
X2240Y9713D01*
D02*
G37*
G36*
X35110Y9743D02*
X35051Y9731D01*
X35002Y9698D01*
X34969Y9649D01*
X34957Y9590D01*
X34969Y9531D01*
X34974Y9523D01*
X34971Y9471D01*
X34922Y9438D01*
X34889Y9389D01*
X34877Y9330D01*
X34889Y9271D01*
X34922Y9222D01*
X34971Y9189D01*
X35030Y9177D01*
X35089Y9189D01*
X35138Y9222D01*
X35171Y9271D01*
X35183Y9330D01*
X35171Y9389D01*
X35166Y9397D01*
X35169Y9449D01*
X35218Y9482D01*
X35251Y9531D01*
X35263Y9590D01*
X35251Y9649D01*
X35218Y9698D01*
X35169Y9731D01*
X35110Y9743D01*
D02*
G37*
G36*
X1400Y8428D02*
X1307Y8416D01*
X1221Y8380D01*
X1147Y8323D01*
X1090Y8249D01*
X1054Y8163D01*
X1042Y8070D01*
X1054Y7977D01*
X1090Y7891D01*
X1147Y7817D01*
X1221Y7760D01*
X1307Y7724D01*
X1400Y7712D01*
X1493Y7724D01*
X1579Y7760D01*
X1653Y7817D01*
X1710Y7891D01*
X1746Y7977D01*
X1758Y8070D01*
X1746Y8163D01*
X1710Y8249D01*
X1653Y8323D01*
X1579Y8380D01*
X1493Y8416D01*
X1400Y8428D01*
D02*
G37*
G36*
X37960Y8418D02*
X37867Y8406D01*
X37781Y8370D01*
X37707Y8313D01*
X37650Y8239D01*
X37614Y8153D01*
X37602Y8060D01*
X37614Y7967D01*
X37650Y7881D01*
X37707Y7807D01*
X37781Y7750D01*
X37867Y7714D01*
X37960Y7702D01*
X38053Y7714D01*
X38139Y7750D01*
X38213Y7807D01*
X38270Y7881D01*
X38306Y7967D01*
X38318Y8060D01*
X38306Y8153D01*
X38270Y8239D01*
X38213Y8313D01*
X38139Y8370D01*
X38053Y8406D01*
X37960Y8418D01*
D02*
G37*
G36*
X9440Y8023D02*
X9381Y8011D01*
X9332Y7978D01*
X9299Y7929D01*
X9287Y7870D01*
X9299Y7811D01*
X9332Y7762D01*
X9381Y7729D01*
X9440Y7717D01*
X9499Y7729D01*
X9548Y7762D01*
X9581Y7811D01*
X9593Y7870D01*
X9581Y7929D01*
X9548Y7978D01*
X9499Y8011D01*
X9440Y8023D01*
D02*
G37*
G36*
X4310Y8043D02*
X4251Y8031D01*
X4202Y7998D01*
X4169Y7949D01*
X4157Y7890D01*
X4169Y7831D01*
X4202Y7782D01*
X4251Y7749D01*
X4310Y7737D01*
X4369Y7749D01*
X4418Y7782D01*
X4451Y7831D01*
X4463Y7890D01*
X4451Y7949D01*
X4418Y7998D01*
X4369Y8031D01*
X4310Y8043D01*
D02*
G37*
G36*
X21066Y7812D02*
X21008Y7800D01*
X20958Y7767D01*
X20946Y7749D01*
X20885Y7730D01*
X20826Y7742D01*
X20768Y7730D01*
X20718Y7697D01*
X20685Y7647D01*
X20673Y7589D01*
X20685Y7530D01*
X20718Y7481D01*
X20768Y7447D01*
X20826Y7436D01*
X20885Y7447D01*
X20934Y7481D01*
X20946Y7498D01*
X21008Y7517D01*
X21066Y7506D01*
X21125Y7517D01*
X21174Y7551D01*
X21207Y7600D01*
X21219Y7659D01*
X21207Y7717D01*
X21174Y7767D01*
X21125Y7800D01*
X21066Y7812D01*
D02*
G37*
G36*
X27640Y7943D02*
X27581Y7931D01*
X27532Y7898D01*
X27499Y7849D01*
X27487Y7790D01*
X27499Y7731D01*
X27532Y7682D01*
X27581Y7649D01*
X27640Y7637D01*
X27699Y7649D01*
X27748Y7682D01*
X27781Y7731D01*
X27793Y7790D01*
X27781Y7849D01*
X27748Y7898D01*
X27699Y7931D01*
X27640Y7943D01*
D02*
G37*
G36*
X27990Y7813D02*
X27931Y7801D01*
X27882Y7768D01*
X27849Y7719D01*
X27837Y7660D01*
X27849Y7601D01*
X27882Y7552D01*
X27931Y7519D01*
X27990Y7507D01*
X28049Y7519D01*
X28098Y7552D01*
X28131Y7601D01*
X28143Y7660D01*
X28131Y7719D01*
X28098Y7768D01*
X28049Y7801D01*
X27990Y7813D01*
D02*
G37*
G36*
X10210Y7773D02*
X10151Y7761D01*
X10102Y7728D01*
X10069Y7679D01*
X10057Y7620D01*
X10069Y7561D01*
X10102Y7512D01*
X10151Y7479D01*
X10210Y7467D01*
X10269Y7479D01*
X10318Y7512D01*
X10351Y7561D01*
X10363Y7620D01*
X10351Y7679D01*
X10318Y7728D01*
X10269Y7761D01*
X10210Y7773D01*
D02*
G37*
G36*
X14580Y7853D02*
X14521Y7841D01*
X14472Y7808D01*
X14439Y7759D01*
X14427Y7700D01*
X14439Y7641D01*
X14472Y7592D01*
X14521Y7559D01*
X14580Y7547D01*
X14639Y7559D01*
X14688Y7592D01*
X14721Y7641D01*
X14733Y7700D01*
X14721Y7759D01*
X14688Y7808D01*
X14639Y7841D01*
X14580Y7853D01*
D02*
G37*
G36*
X26380Y7913D02*
X26321Y7901D01*
X26272Y7868D01*
X26239Y7819D01*
X26227Y7760D01*
X26239Y7701D01*
X26272Y7652D01*
X26321Y7619D01*
X26380Y7607D01*
X26439Y7619D01*
X26488Y7652D01*
X26521Y7701D01*
X26533Y7760D01*
X26521Y7819D01*
X26488Y7868D01*
X26439Y7901D01*
X26380Y7913D01*
D02*
G37*
G36*
X18200Y7853D02*
X18141Y7841D01*
X18092Y7808D01*
X18059Y7759D01*
X18047Y7700D01*
X18059Y7641D01*
X18092Y7592D01*
X18141Y7559D01*
X18200Y7547D01*
X18259Y7559D01*
X18308Y7592D01*
X18341Y7641D01*
X18353Y7700D01*
X18341Y7759D01*
X18308Y7808D01*
X18259Y7841D01*
X18200Y7853D01*
D02*
G37*
G36*
X27280Y8083D02*
X27221Y8071D01*
X27172Y8038D01*
X27139Y7989D01*
X27127Y7930D01*
X27139Y7871D01*
X27172Y7822D01*
X27221Y7789D01*
X27280Y7777D01*
X27339Y7789D01*
X27388Y7822D01*
X27421Y7871D01*
X27433Y7930D01*
X27421Y7989D01*
X27388Y8038D01*
X27339Y8071D01*
X27280Y8083D01*
D02*
G37*
G36*
X18400Y8783D02*
X18341Y8771D01*
X18292Y8738D01*
X18259Y8689D01*
X18247Y8630D01*
X18259Y8571D01*
X18292Y8522D01*
X18341Y8489D01*
X18400Y8477D01*
X18459Y8489D01*
X18508Y8522D01*
X18541Y8571D01*
X18553Y8630D01*
X18541Y8689D01*
X18508Y8738D01*
X18459Y8771D01*
X18400Y8783D01*
D02*
G37*
G36*
X20770Y8713D02*
X20711Y8701D01*
X20662Y8668D01*
X20629Y8619D01*
X20617Y8560D01*
X20629Y8501D01*
X20662Y8452D01*
X20711Y8419D01*
X20770Y8407D01*
X20829Y8419D01*
X20878Y8452D01*
X20911Y8501D01*
X20923Y8560D01*
X20911Y8619D01*
X20878Y8668D01*
X20829Y8701D01*
X20770Y8713D01*
D02*
G37*
G36*
X2800Y8853D02*
X2741Y8841D01*
X2692Y8808D01*
X2659Y8759D01*
X2647Y8700D01*
X2659Y8641D01*
X2692Y8592D01*
X2741Y8559D01*
X2800Y8547D01*
X2859Y8559D01*
X2908Y8592D01*
X2941Y8641D01*
X2953Y8700D01*
X2941Y8759D01*
X2908Y8808D01*
X2859Y8841D01*
X2800Y8853D01*
D02*
G37*
G36*
X34950Y8883D02*
X34891Y8871D01*
X34842Y8838D01*
X34809Y8789D01*
X34797Y8730D01*
X34809Y8671D01*
X34842Y8622D01*
X34891Y8589D01*
X34950Y8577D01*
X35009Y8589D01*
X35058Y8622D01*
X35091Y8671D01*
X35103Y8730D01*
X35091Y8789D01*
X35058Y8838D01*
X35009Y8871D01*
X34950Y8883D01*
D02*
G37*
G36*
X13140Y8603D02*
X13081Y8591D01*
X13032Y8558D01*
X13030Y8555D01*
X12980D01*
X12978Y8558D01*
X12929Y8591D01*
X12870Y8603D01*
X12811Y8591D01*
X12762Y8558D01*
X12729Y8509D01*
X12717Y8450D01*
X12729Y8391D01*
X12762Y8342D01*
X12811Y8309D01*
X12870Y8297D01*
X12929Y8309D01*
X12978Y8342D01*
X12980Y8345D01*
X13030D01*
X13032Y8342D01*
X13081Y8309D01*
X13140Y8297D01*
X13199Y8309D01*
X13248Y8342D01*
X13281Y8391D01*
X13293Y8450D01*
X13281Y8509D01*
X13248Y8558D01*
X13199Y8591D01*
X13140Y8603D01*
D02*
G37*
G36*
X2090Y8553D02*
X2031Y8541D01*
X1982Y8508D01*
X1949Y8459D01*
X1937Y8400D01*
X1949Y8341D01*
X1982Y8292D01*
X2031Y8259D01*
X2090Y8247D01*
X2149Y8259D01*
X2198Y8292D01*
X2231Y8341D01*
X2243Y8400D01*
X2231Y8459D01*
X2198Y8508D01*
X2149Y8541D01*
X2090Y8553D01*
D02*
G37*
G36*
X4980Y8373D02*
X4921Y8361D01*
X4872Y8328D01*
X4839Y8279D01*
X4827Y8220D01*
X4839Y8161D01*
X4872Y8112D01*
X4921Y8079D01*
X4980Y8067D01*
X5039Y8079D01*
X5088Y8112D01*
X5121Y8161D01*
X5133Y8220D01*
X5121Y8279D01*
X5088Y8328D01*
X5039Y8361D01*
X4980Y8373D01*
D02*
G37*
G36*
X10210Y8433D02*
X10151Y8421D01*
X10102Y8388D01*
X10069Y8339D01*
X10057Y8280D01*
X10069Y8221D01*
X10096Y8180D01*
X10102Y8172D01*
X10090Y8120D01*
X10072Y8108D01*
X10039Y8059D01*
X10027Y8000D01*
X10039Y7941D01*
X10072Y7892D01*
X10121Y7859D01*
X10180Y7847D01*
X10239Y7859D01*
X10288Y7892D01*
X10321Y7941D01*
X10333Y8000D01*
X10321Y8059D01*
X10294Y8100D01*
X10288Y8108D01*
X10300Y8160D01*
X10318Y8172D01*
X10351Y8221D01*
X10363Y8280D01*
X10351Y8339D01*
X10318Y8388D01*
X10269Y8421D01*
X10210Y8433D01*
D02*
G37*
G36*
X18900Y8393D02*
X18841Y8381D01*
X18792Y8348D01*
X18759Y8299D01*
X18747Y8240D01*
X18759Y8181D01*
X18792Y8132D01*
X18841Y8099D01*
X18900Y8087D01*
X18959Y8099D01*
X19008Y8132D01*
X19041Y8181D01*
X19053Y8240D01*
X19041Y8299D01*
X19008Y8348D01*
X18959Y8381D01*
X18900Y8393D01*
D02*
G37*
G36*
X4460Y8463D02*
X4401Y8451D01*
X4352Y8418D01*
X4319Y8369D01*
X4307Y8310D01*
X4319Y8251D01*
X4352Y8202D01*
X4401Y8169D01*
X4460Y8157D01*
X4519Y8169D01*
X4568Y8202D01*
X4601Y8251D01*
X4613Y8310D01*
X4601Y8369D01*
X4568Y8418D01*
X4519Y8451D01*
X4460Y8463D01*
D02*
G37*
G36*
X4060Y8413D02*
X4001Y8401D01*
X3952Y8368D01*
X3919Y8319D01*
X3907Y8260D01*
X3919Y8201D01*
X3952Y8152D01*
X4001Y8119D01*
X4060Y8107D01*
X4119Y8119D01*
X4168Y8152D01*
X4201Y8201D01*
X4213Y8260D01*
X4201Y8319D01*
X4168Y8368D01*
X4119Y8401D01*
X4060Y8413D01*
D02*
G37*
G36*
X8440Y12613D02*
X8381Y12601D01*
X8332Y12568D01*
X8299Y12519D01*
X8287Y12460D01*
X8299Y12401D01*
X8332Y12352D01*
X8381Y12319D01*
X8440Y12307D01*
X8499Y12319D01*
X8548Y12352D01*
X8581Y12401D01*
X8593Y12460D01*
X8581Y12519D01*
X8548Y12568D01*
X8499Y12601D01*
X8440Y12613D01*
D02*
G37*
G36*
X31570Y12563D02*
X31511Y12551D01*
X31462Y12518D01*
X31429Y12469D01*
X31417Y12410D01*
X31429Y12351D01*
X31462Y12302D01*
X31511Y12269D01*
X31570Y12257D01*
X31629Y12269D01*
X31678Y12302D01*
X31711Y12351D01*
X31723Y12410D01*
X31711Y12469D01*
X31678Y12518D01*
X31629Y12551D01*
X31570Y12563D01*
D02*
G37*
G36*
X26460Y12873D02*
X26401Y12861D01*
X26352Y12828D01*
X26319Y12779D01*
X26307Y12720D01*
X26319Y12661D01*
X26352Y12612D01*
X26401Y12579D01*
X26460Y12567D01*
X26519Y12579D01*
X26568Y12612D01*
X26601Y12661D01*
X26613Y12720D01*
X26601Y12779D01*
X26568Y12828D01*
X26519Y12861D01*
X26460Y12873D01*
D02*
G37*
G36*
X8150Y12913D02*
X8091Y12901D01*
X8042Y12868D01*
X8009Y12819D01*
X7997Y12760D01*
X8009Y12701D01*
X8042Y12652D01*
X8091Y12619D01*
X8150Y12607D01*
X8209Y12619D01*
X8258Y12652D01*
X8291Y12701D01*
X8303Y12760D01*
X8291Y12819D01*
X8258Y12868D01*
X8209Y12901D01*
X8150Y12913D01*
D02*
G37*
G36*
X33950Y12883D02*
X33891Y12871D01*
X33842Y12838D01*
X33809Y12789D01*
X33797Y12730D01*
X33809Y12671D01*
X33842Y12622D01*
X33891Y12589D01*
X33950Y12577D01*
X34009Y12589D01*
X34058Y12622D01*
X34091Y12671D01*
X34103Y12730D01*
X34091Y12789D01*
X34058Y12838D01*
X34009Y12871D01*
X33950Y12883D01*
D02*
G37*
G36*
X5410Y12473D02*
X5351Y12461D01*
X5302Y12428D01*
X5269Y12379D01*
X5257Y12320D01*
X5269Y12261D01*
X5302Y12212D01*
X5351Y12179D01*
X5410Y12167D01*
X5469Y12179D01*
X5518Y12212D01*
X5551Y12261D01*
X5563Y12320D01*
X5551Y12379D01*
X5518Y12428D01*
X5469Y12461D01*
X5410Y12473D01*
D02*
G37*
G36*
X32060Y12113D02*
X32001Y12101D01*
X31952Y12068D01*
X31919Y12019D01*
X31907Y11960D01*
X31919Y11901D01*
X31952Y11852D01*
X32001Y11819D01*
X32060Y11807D01*
X32119Y11819D01*
X32168Y11852D01*
X32201Y11901D01*
X32213Y11960D01*
X32201Y12019D01*
X32168Y12068D01*
X32119Y12101D01*
X32060Y12113D01*
D02*
G37*
G36*
X1400Y12428D02*
X1307Y12416D01*
X1221Y12380D01*
X1147Y12323D01*
X1090Y12249D01*
X1054Y12163D01*
X1042Y12070D01*
X1054Y11977D01*
X1090Y11891D01*
X1147Y11817D01*
X1221Y11760D01*
X1307Y11724D01*
X1400Y11712D01*
X1493Y11724D01*
X1579Y11760D01*
X1653Y11817D01*
X1710Y11891D01*
X1746Y11977D01*
X1758Y12070D01*
X1746Y12163D01*
X1710Y12249D01*
X1653Y12323D01*
X1579Y12380D01*
X1493Y12416D01*
X1400Y12428D01*
D02*
G37*
G36*
X26390Y12243D02*
X26331Y12231D01*
X26282Y12198D01*
X26249Y12149D01*
X26237Y12090D01*
X26249Y12031D01*
X26282Y11982D01*
X26331Y11949D01*
X26390Y11937D01*
X26449Y11949D01*
X26498Y11982D01*
X26531Y12031D01*
X26543Y12090D01*
X26531Y12149D01*
X26498Y12198D01*
X26449Y12231D01*
X26390Y12243D01*
D02*
G37*
G36*
X36390Y12723D02*
X36331Y12711D01*
X36282Y12678D01*
X36249Y12629D01*
X36237Y12570D01*
X36249Y12511D01*
X36280Y12464D01*
X36283Y12458D01*
X36288Y12398D01*
X36269Y12369D01*
X36257Y12310D01*
X36269Y12251D01*
X36302Y12202D01*
X36351Y12169D01*
X36410Y12157D01*
X36469Y12169D01*
X36518Y12202D01*
X36551Y12251D01*
X36563Y12310D01*
X36551Y12369D01*
X36520Y12416D01*
X36517Y12421D01*
X36512Y12482D01*
X36531Y12511D01*
X36543Y12570D01*
X36531Y12629D01*
X36498Y12678D01*
X36449Y12711D01*
X36390Y12723D01*
D02*
G37*
G36*
X13290Y12039D02*
X13120D01*
X13048Y12024D01*
X13047Y12024D01*
X12643D01*
X12642Y12024D01*
X12570Y12039D01*
X12320D01*
X12248Y12024D01*
X12234Y12015D01*
X12193Y12009D01*
X12093Y11968D01*
X12008Y11902D01*
X12008Y11902D01*
X11518Y11412D01*
X11452Y11327D01*
X11411Y11227D01*
X11396Y11120D01*
X11396Y11120D01*
Y7908D01*
X10323Y6834D01*
X10273Y6839D01*
X10263Y6853D01*
X10202Y6894D01*
X10130Y6909D01*
X10058Y6894D01*
X9997Y6853D01*
X9956Y6792D01*
X9941Y6720D01*
Y6428D01*
Y6135D01*
Y5842D01*
Y5550D01*
X9956Y5478D01*
X9997Y5417D01*
X10058Y5376D01*
X10130Y5361D01*
X10202Y5376D01*
X10263Y5417D01*
X10358Y5511D01*
X10420D01*
X10492Y5526D01*
X10553Y5567D01*
X10723Y5737D01*
X10764Y5798D01*
X10779Y5870D01*
Y6120D01*
X10826Y6168D01*
X10826Y6168D01*
X10854Y6196D01*
X10854Y6196D01*
X12102Y7444D01*
X12102Y7444D01*
X12168Y7530D01*
X12209Y7630D01*
X12224Y7737D01*
Y10949D01*
X12471Y11196D01*
X14060D01*
X14167Y11211D01*
X14267Y11252D01*
X14352Y11318D01*
X14418Y11403D01*
X14459Y11503D01*
X14474Y11610D01*
X14467Y11662D01*
X14513Y11691D01*
X14531Y11679D01*
X14590Y11667D01*
X14649Y11679D01*
X14698Y11712D01*
X14731Y11761D01*
X14743Y11820D01*
X14731Y11879D01*
X14698Y11928D01*
X14649Y11961D01*
X14590Y11973D01*
X14531Y11961D01*
X14482Y11928D01*
X14449Y11879D01*
X14446Y11863D01*
X14392Y11851D01*
X14352Y11902D01*
X14317Y11929D01*
X14298Y11958D01*
X14249Y11991D01*
X14190Y12003D01*
X14185Y12002D01*
X14167Y12009D01*
X14060Y12024D01*
X13363D01*
X13362Y12024D01*
X13290Y12039D01*
D02*
G37*
G36*
X8510Y12983D02*
X8451Y12971D01*
X8402Y12938D01*
X8369Y12889D01*
X8357Y12830D01*
X8369Y12771D01*
X8402Y12722D01*
X8451Y12689D01*
X8510Y12677D01*
X8569Y12689D01*
X8618Y12722D01*
X8651Y12771D01*
X8663Y12830D01*
X8651Y12889D01*
X8618Y12938D01*
X8569Y12971D01*
X8510Y12983D01*
D02*
G37*
G36*
X7910Y13593D02*
X7851Y13581D01*
X7802Y13548D01*
X7769Y13499D01*
X7757Y13440D01*
X7769Y13381D01*
X7802Y13332D01*
X7851Y13299D01*
X7910Y13287D01*
X7969Y13299D01*
X8018Y13332D01*
X8051Y13381D01*
X8063Y13440D01*
X8051Y13499D01*
X8018Y13548D01*
X7969Y13581D01*
X7910Y13593D01*
D02*
G37*
G36*
X7510Y13543D02*
X7451Y13531D01*
X7402Y13498D01*
X7369Y13449D01*
X7357Y13390D01*
X7369Y13331D01*
X7402Y13282D01*
X7451Y13249D01*
X7510Y13237D01*
X7569Y13249D01*
X7618Y13282D01*
X7651Y13331D01*
X7663Y13390D01*
X7651Y13449D01*
X7618Y13498D01*
X7569Y13531D01*
X7510Y13543D01*
D02*
G37*
G36*
X32800Y13753D02*
X32741Y13741D01*
X32692Y13708D01*
X32659Y13659D01*
X32647Y13600D01*
X32659Y13541D01*
X32692Y13492D01*
X32741Y13459D01*
X32800Y13447D01*
X32859Y13459D01*
X32908Y13492D01*
X32941Y13541D01*
X32953Y13600D01*
X32941Y13659D01*
X32908Y13708D01*
X32859Y13741D01*
X32800Y13753D01*
D02*
G37*
G36*
X7190Y13893D02*
X7131Y13881D01*
X7082Y13848D01*
X7049Y13799D01*
X7037Y13740D01*
X7049Y13681D01*
X7082Y13632D01*
X7131Y13599D01*
X7190Y13587D01*
X7249Y13599D01*
X7298Y13632D01*
X7331Y13681D01*
X7343Y13740D01*
X7331Y13799D01*
X7298Y13848D01*
X7249Y13881D01*
X7190Y13893D01*
D02*
G37*
G36*
X28570Y13833D02*
X28511Y13821D01*
X28462Y13788D01*
X28429Y13739D01*
X28417Y13680D01*
X28429Y13621D01*
X28462Y13572D01*
X28511Y13539D01*
X28570Y13527D01*
X28629Y13539D01*
X28678Y13572D01*
X28711Y13621D01*
X28723Y13680D01*
X28711Y13739D01*
X28678Y13788D01*
X28629Y13821D01*
X28570Y13833D01*
D02*
G37*
G36*
X25400Y13193D02*
X25341Y13181D01*
X25292Y13148D01*
X25259Y13099D01*
X25254Y13072D01*
X25203D01*
X25201Y13079D01*
X25168Y13128D01*
X25119Y13161D01*
X25060Y13173D01*
X25001Y13161D01*
X24952Y13128D01*
X24919Y13079D01*
X24907Y13020D01*
X24919Y12961D01*
X24952Y12912D01*
X25001Y12879D01*
X25060Y12867D01*
X25119Y12879D01*
X25168Y12912D01*
X25201Y12961D01*
X25206Y12988D01*
X25257D01*
X25259Y12981D01*
X25292Y12932D01*
X25341Y12899D01*
X25400Y12887D01*
X25459Y12899D01*
X25508Y12932D01*
X25541Y12981D01*
X25553Y13040D01*
X25541Y13099D01*
X25508Y13148D01*
X25459Y13181D01*
X25400Y13193D01*
D02*
G37*
G36*
X1400Y13428D02*
X1307Y13416D01*
X1221Y13380D01*
X1147Y13323D01*
X1090Y13249D01*
X1054Y13163D01*
X1042Y13070D01*
X1054Y12977D01*
X1090Y12891D01*
X1147Y12817D01*
X1221Y12760D01*
X1307Y12724D01*
X1400Y12712D01*
X1493Y12724D01*
X1579Y12760D01*
X1653Y12817D01*
X1710Y12891D01*
X1746Y12977D01*
X1758Y13070D01*
X1746Y13163D01*
X1710Y13249D01*
X1653Y13323D01*
X1579Y13380D01*
X1493Y13416D01*
X1400Y13428D01*
D02*
G37*
G36*
X37960Y13418D02*
X37867Y13406D01*
X37781Y13370D01*
X37707Y13313D01*
X37650Y13239D01*
X37614Y13153D01*
X37602Y13060D01*
X37614Y12967D01*
X37650Y12881D01*
X37707Y12807D01*
X37781Y12750D01*
X37867Y12714D01*
X37960Y12702D01*
X38053Y12714D01*
X38139Y12750D01*
X38213Y12807D01*
X38270Y12881D01*
X38306Y12967D01*
X38318Y13060D01*
X38306Y13153D01*
X38270Y13239D01*
X38213Y13313D01*
X38139Y13370D01*
X38053Y13406D01*
X37960Y13418D01*
D02*
G37*
G36*
X7840Y13213D02*
X7781Y13201D01*
X7732Y13168D01*
X7699Y13119D01*
X7687Y13060D01*
X7699Y13001D01*
X7732Y12952D01*
X7781Y12919D01*
X7840Y12907D01*
X7899Y12919D01*
X7948Y12952D01*
X7981Y13001D01*
X7993Y13060D01*
X7981Y13119D01*
X7948Y13168D01*
X7899Y13201D01*
X7840Y13213D01*
D02*
G37*
G36*
X8230Y13293D02*
X8171Y13281D01*
X8122Y13248D01*
X8089Y13199D01*
X8077Y13140D01*
X8089Y13081D01*
X8122Y13032D01*
X8171Y12999D01*
X8230Y12987D01*
X8289Y12999D01*
X8338Y13032D01*
X8371Y13081D01*
X8383Y13140D01*
X8371Y13199D01*
X8338Y13248D01*
X8289Y13281D01*
X8230Y13293D01*
D02*
G37*
G36*
X27760Y13213D02*
X27701Y13201D01*
X27652Y13168D01*
X27619Y13119D01*
X27607Y13060D01*
X27619Y13001D01*
X27652Y12952D01*
X27701Y12919D01*
X27760Y12907D01*
X27819Y12919D01*
X27868Y12952D01*
X27901Y13001D01*
X27913Y13060D01*
X27901Y13119D01*
X27868Y13168D01*
X27819Y13201D01*
X27760Y13213D01*
D02*
G37*
G36*
X37960Y11418D02*
X37867Y11406D01*
X37781Y11370D01*
X37707Y11313D01*
X37650Y11239D01*
X37614Y11153D01*
X37602Y11060D01*
X37614Y10967D01*
X37650Y10881D01*
X37707Y10807D01*
X37781Y10750D01*
X37867Y10714D01*
X37960Y10702D01*
X38053Y10714D01*
X38139Y10750D01*
X38213Y10807D01*
X38270Y10881D01*
X38306Y10967D01*
X38318Y11060D01*
X38306Y11153D01*
X38270Y11239D01*
X38213Y11313D01*
X38139Y11370D01*
X38053Y11406D01*
X37960Y11418D01*
D02*
G37*
G36*
X3682Y10683D02*
X3623Y10671D01*
X3591Y10650D01*
X3559Y10671D01*
X3500Y10683D01*
X3441Y10671D01*
X3392Y10638D01*
X3359Y10589D01*
X3347Y10530D01*
X3359Y10471D01*
X3370Y10454D01*
X3389Y10415D01*
X3370Y10376D01*
X3359Y10359D01*
X3347Y10300D01*
X3359Y10241D01*
X3392Y10192D01*
X3441Y10159D01*
X3500Y10147D01*
X3559Y10159D01*
X3608Y10192D01*
X3629Y10224D01*
X3682Y10213D01*
X3689Y10181D01*
X3722Y10132D01*
X3771Y10099D01*
X3830Y10087D01*
X3889Y10099D01*
X3906Y10110D01*
X3932Y10072D01*
X3981Y10039D01*
X4040Y10027D01*
X4099Y10039D01*
X4148Y10072D01*
X4181Y10121D01*
X4193Y10180D01*
X4181Y10239D01*
X4148Y10288D01*
X4099Y10321D01*
X4040Y10333D01*
X3981Y10321D01*
X3964Y10310D01*
X3938Y10348D01*
X3889Y10381D01*
X3830Y10393D01*
X3829Y10393D01*
X3801Y10438D01*
X3823Y10471D01*
X3835Y10530D01*
X3823Y10589D01*
X3790Y10638D01*
X3740Y10671D01*
X3682Y10683D01*
D02*
G37*
G36*
X1400Y11428D02*
X1307Y11416D01*
X1221Y11380D01*
X1147Y11323D01*
X1090Y11249D01*
X1054Y11163D01*
X1042Y11070D01*
X1054Y10977D01*
X1090Y10891D01*
X1147Y10817D01*
X1221Y10760D01*
X1307Y10724D01*
X1400Y10712D01*
X1493Y10724D01*
X1579Y10760D01*
X1653Y10817D01*
X1710Y10891D01*
X1746Y10977D01*
X1758Y11070D01*
X1746Y11163D01*
X1710Y11249D01*
X1653Y11323D01*
X1579Y11380D01*
X1493Y11416D01*
X1400Y11428D01*
D02*
G37*
G36*
X5740Y11513D02*
X5681Y11501D01*
X5632Y11468D01*
X5599Y11419D01*
X5587Y11360D01*
X5599Y11301D01*
X5632Y11252D01*
X5659Y11233D01*
X5663Y11175D01*
X5652Y11168D01*
X5619Y11119D01*
X5607Y11060D01*
X5619Y11001D01*
X5652Y10952D01*
X5701Y10919D01*
X5760Y10907D01*
X5819Y10919D01*
X5832Y10928D01*
X5881Y10918D01*
X5892Y10902D01*
X5941Y10869D01*
X6000Y10857D01*
X6059Y10869D01*
X6108Y10902D01*
X6141Y10951D01*
X6153Y11010D01*
X6141Y11069D01*
X6108Y11118D01*
X6059Y11151D01*
X6000Y11163D01*
X5941Y11151D01*
X5928Y11142D01*
X5879Y11152D01*
X5868Y11168D01*
X5840Y11187D01*
X5837Y11245D01*
X5848Y11252D01*
X5881Y11301D01*
X5893Y11360D01*
X5881Y11419D01*
X5848Y11468D01*
X5799Y11501D01*
X5740Y11513D01*
D02*
G37*
G36*
X17270Y11033D02*
X17211Y11021D01*
X17162Y10988D01*
X17129Y10939D01*
X17117Y10880D01*
X17129Y10821D01*
X17162Y10772D01*
X17211Y10739D01*
X17270Y10727D01*
X17329Y10739D01*
X17378Y10772D01*
X17411Y10821D01*
X17423Y10880D01*
X17411Y10939D01*
X17378Y10988D01*
X17329Y11021D01*
X17270Y11033D01*
D02*
G37*
G36*
X26390Y10943D02*
X26331Y10931D01*
X26282Y10898D01*
X26249Y10849D01*
X26237Y10790D01*
X26249Y10731D01*
X26282Y10682D01*
X26331Y10649D01*
X26390Y10637D01*
X26449Y10649D01*
X26498Y10682D01*
X26531Y10731D01*
X26543Y10790D01*
X26531Y10849D01*
X26498Y10898D01*
X26449Y10931D01*
X26390Y10943D01*
D02*
G37*
G36*
X35020Y11463D02*
X34961Y11451D01*
X34912Y11418D01*
X34879Y11369D01*
X34867Y11310D01*
X34879Y11251D01*
X34912Y11202D01*
X34961Y11169D01*
X34957Y11119D01*
X34947Y11070D01*
X34959Y11011D01*
X34992Y10962D01*
X35041Y10929D01*
X35100Y10917D01*
X35101Y10917D01*
X35154Y10877D01*
X35159Y10851D01*
X35192Y10802D01*
X35241Y10769D01*
X35300Y10757D01*
X35308Y10759D01*
X35357Y10750D01*
X35363Y10722D01*
X35369Y10691D01*
X35402Y10642D01*
X35451Y10609D01*
X35488Y10601D01*
X35537Y10590D01*
X35549Y10531D01*
X35582Y10482D01*
X35631Y10449D01*
X35690Y10437D01*
X35749Y10449D01*
X35760Y10444D01*
X35769Y10401D01*
X35802Y10352D01*
X35851Y10319D01*
X35910Y10307D01*
X35969Y10319D01*
X36018Y10352D01*
X36051Y10401D01*
X36063Y10460D01*
X36051Y10519D01*
X36018Y10568D01*
X35969Y10601D01*
X35910Y10613D01*
X35851Y10601D01*
X35840Y10606D01*
X35831Y10649D01*
X35798Y10698D01*
X35749Y10731D01*
X35712Y10739D01*
X35663Y10750D01*
X35651Y10809D01*
X35618Y10858D01*
X35569Y10891D01*
X35510Y10903D01*
X35502Y10901D01*
X35453Y10910D01*
X35447Y10938D01*
X35441Y10969D01*
X35408Y11018D01*
X35359Y11051D01*
X35300Y11063D01*
X35299Y11063D01*
X35246Y11103D01*
X35241Y11129D01*
X35208Y11178D01*
X35159Y11211D01*
X35163Y11261D01*
X35173Y11310D01*
X35161Y11369D01*
X35128Y11418D01*
X35079Y11451D01*
X35020Y11463D01*
D02*
G37*
G36*
X2950Y10903D02*
X2350D01*
X2288Y10891D01*
X2235Y10855D01*
X2199Y10802D01*
X2187Y10740D01*
Y10330D01*
X2199Y10268D01*
X2235Y10215D01*
X2288Y10179D01*
X2292Y10178D01*
X2311Y10166D01*
X2374Y10153D01*
X2556D01*
X2619Y10166D01*
X2672Y10201D01*
X2875Y10405D01*
X2911Y10458D01*
X2914Y10473D01*
X3065Y10625D01*
X3101Y10678D01*
X3113Y10740D01*
X3101Y10802D01*
X3065Y10855D01*
X3012Y10891D01*
X2950Y10903D01*
D02*
G37*
G36*
X28080Y10993D02*
X28021Y10981D01*
X27972Y10948D01*
X27939Y10899D01*
X27927Y10840D01*
X27939Y10781D01*
X27972Y10732D01*
X28021Y10699D01*
X28080Y10687D01*
X28139Y10699D01*
X28159Y10713D01*
X28192Y10678D01*
X28183Y10665D01*
X28159Y10629D01*
X28147Y10570D01*
X28159Y10511D01*
X28192Y10462D01*
X28241Y10429D01*
X28300Y10417D01*
X28359Y10429D01*
X28408Y10462D01*
X28441Y10511D01*
X28453Y10570D01*
X28441Y10629D01*
X28408Y10678D01*
X28359Y10711D01*
X28300Y10723D01*
X28241Y10711D01*
X28221Y10697D01*
X28188Y10732D01*
X28197Y10745D01*
X28221Y10781D01*
X28233Y10840D01*
X28221Y10899D01*
X28188Y10948D01*
X28139Y10981D01*
X28080Y10993D01*
D02*
G37*
G36*
X34000Y10873D02*
X33941Y10861D01*
X33892Y10828D01*
X33859Y10779D01*
X33847Y10720D01*
X33859Y10661D01*
X33892Y10612D01*
X33941Y10579D01*
X34000Y10567D01*
X34059Y10579D01*
X34108Y10612D01*
X34141Y10661D01*
X34153Y10720D01*
X34141Y10779D01*
X34108Y10828D01*
X34059Y10861D01*
X34000Y10873D01*
D02*
G37*
G36*
X9580Y10543D02*
X9521Y10531D01*
X9472Y10498D01*
X9428D01*
X9379Y10531D01*
X9320Y10543D01*
X9261Y10531D01*
X9212Y10498D01*
X9205Y10488D01*
X9178D01*
X9129Y10521D01*
X9070Y10533D01*
X9011Y10521D01*
X8962Y10488D01*
X8929Y10439D01*
X8917Y10380D01*
X8929Y10321D01*
X8962Y10272D01*
X9011Y10239D01*
X9070Y10227D01*
X9129Y10239D01*
X9178Y10272D01*
X9185Y10282D01*
X9212D01*
X9261Y10249D01*
X9320Y10237D01*
X9379Y10249D01*
X9417Y10274D01*
X9450Y10279D01*
X9483Y10274D01*
X9521Y10249D01*
X9580Y10237D01*
X9639Y10249D01*
X9688Y10282D01*
X9721Y10331D01*
X9733Y10390D01*
X9721Y10449D01*
X9688Y10498D01*
X9639Y10531D01*
X9580Y10543D01*
D02*
G37*
G36*
X27640Y11303D02*
X27581Y11291D01*
X27532Y11258D01*
X27499Y11209D01*
X27487Y11150D01*
X27499Y11091D01*
X27532Y11042D01*
X27581Y11009D01*
X27640Y10997D01*
X27699Y11009D01*
X27748Y11042D01*
X27781Y11091D01*
X27793Y11150D01*
X27781Y11209D01*
X27748Y11258D01*
X27699Y11291D01*
X27640Y11303D01*
D02*
G37*
G36*
X9400Y11983D02*
X9341Y11971D01*
X9292Y11938D01*
X9259Y11889D01*
X9247Y11830D01*
X9259Y11771D01*
X9292Y11722D01*
X9341Y11689D01*
X9400Y11677D01*
X9459Y11689D01*
X9508Y11722D01*
X9541Y11771D01*
X9553Y11830D01*
X9541Y11889D01*
X9508Y11938D01*
X9459Y11971D01*
X9400Y11983D01*
D02*
G37*
G36*
X2010Y11943D02*
X1951Y11931D01*
X1902Y11898D01*
X1869Y11849D01*
X1857Y11790D01*
X1869Y11731D01*
X1902Y11682D01*
X1951Y11649D01*
X2010Y11637D01*
X2069Y11649D01*
X2118Y11682D01*
X2151Y11731D01*
X2163Y11790D01*
X2151Y11849D01*
X2118Y11898D01*
X2069Y11931D01*
X2010Y11943D01*
D02*
G37*
G36*
X25440Y11993D02*
X25381Y11981D01*
X25332Y11948D01*
X25299Y11899D01*
X25287Y11840D01*
X25299Y11781D01*
X25332Y11732D01*
X25381Y11699D01*
X25440Y11687D01*
X25499Y11699D01*
X25548Y11732D01*
X25581Y11781D01*
X25593Y11840D01*
X25581Y11899D01*
X25548Y11948D01*
X25499Y11981D01*
X25440Y11993D01*
D02*
G37*
G36*
X37960Y12418D02*
X37867Y12406D01*
X37781Y12370D01*
X37707Y12313D01*
X37650Y12239D01*
X37614Y12153D01*
X37602Y12060D01*
X37614Y11967D01*
X37650Y11881D01*
X37707Y11807D01*
X37781Y11750D01*
X37867Y11714D01*
X37960Y11702D01*
X38053Y11714D01*
X38139Y11750D01*
X38213Y11807D01*
X38270Y11881D01*
X38306Y11967D01*
X38318Y12060D01*
X38306Y12153D01*
X38270Y12239D01*
X38213Y12313D01*
X38139Y12370D01*
X38053Y12406D01*
X37960Y12418D01*
D02*
G37*
G36*
X11370Y12003D02*
X11311Y11991D01*
X11262Y11958D01*
X11229Y11909D01*
X11217Y11850D01*
X11229Y11791D01*
X11262Y11742D01*
X11311Y11709D01*
X11370Y11697D01*
X11429Y11709D01*
X11478Y11742D01*
X11511Y11791D01*
X11523Y11850D01*
X11511Y11909D01*
X11478Y11958D01*
X11429Y11991D01*
X11370Y12003D01*
D02*
G37*
G36*
X8870Y12533D02*
X8811Y12521D01*
X8762Y12488D01*
X8729Y12439D01*
X8717Y12380D01*
X8729Y12321D01*
X8762Y12272D01*
X8780Y12260D01*
X8769Y12207D01*
X8741Y12201D01*
X8692Y12168D01*
X8659Y12119D01*
X8647Y12060D01*
X8659Y12001D01*
X8692Y11952D01*
X8741Y11919D01*
X8800Y11907D01*
X8859Y11919D01*
X8908Y11952D01*
X8938Y11997D01*
X8963Y12003D01*
X8993Y12005D01*
X9002Y11992D01*
X9034Y11971D01*
X9023Y11918D01*
X8991Y11911D01*
X8942Y11878D01*
X8909Y11829D01*
X8897Y11770D01*
X8909Y11711D01*
X8942Y11662D01*
X8991Y11629D01*
X9050Y11617D01*
X9109Y11629D01*
X9158Y11662D01*
X9191Y11711D01*
X9203Y11770D01*
X9191Y11829D01*
X9158Y11878D01*
X9126Y11899D01*
X9137Y11952D01*
X9169Y11959D01*
X9218Y11992D01*
X9251Y12041D01*
X9263Y12100D01*
X9251Y12159D01*
X9218Y12208D01*
X9169Y12241D01*
X9110Y12253D01*
X9051Y12241D01*
X9002Y12208D01*
X8975Y12167D01*
X8924Y12161D01*
X8901Y12186D01*
X8914Y12236D01*
X8929Y12239D01*
X8978Y12272D01*
X9011Y12321D01*
X9023Y12380D01*
X9011Y12439D01*
X8978Y12488D01*
X8929Y12521D01*
X8870Y12533D01*
D02*
G37*
G36*
X32300Y11383D02*
X32241Y11371D01*
X32192Y11338D01*
X32159Y11289D01*
X32147Y11230D01*
X32159Y11171D01*
X32192Y11122D01*
X32241Y11089D01*
X32300Y11077D01*
X32359Y11089D01*
X32408Y11122D01*
X32441Y11171D01*
X32453Y11230D01*
X32441Y11289D01*
X32408Y11338D01*
X32359Y11371D01*
X32300Y11383D01*
D02*
G37*
G36*
X26420Y11853D02*
X26361Y11841D01*
X26312Y11808D01*
X26279Y11759D01*
X26267Y11700D01*
X26279Y11641D01*
X26312Y11592D01*
X26361Y11559D01*
X26420Y11547D01*
X26479Y11559D01*
X26503Y11575D01*
X26548Y11545D01*
X26547Y11540D01*
X26559Y11481D01*
X26592Y11432D01*
X26641Y11399D01*
X26700Y11387D01*
X26759Y11399D01*
X26773Y11408D01*
X26839Y11396D01*
X26842Y11392D01*
X26891Y11359D01*
X26950Y11347D01*
X27009Y11359D01*
X27058Y11392D01*
X27062Y11397D01*
X27122D01*
X27132Y11382D01*
X27181Y11349D01*
X27186Y11348D01*
X27197Y11295D01*
X27172Y11278D01*
X27139Y11229D01*
X27127Y11170D01*
X27139Y11111D01*
X27172Y11062D01*
X27221Y11029D01*
X27280Y11017D01*
X27339Y11029D01*
X27388Y11062D01*
X27421Y11111D01*
X27433Y11170D01*
X27421Y11229D01*
X27388Y11278D01*
X27339Y11311D01*
X27334Y11312D01*
X27323Y11365D01*
X27348Y11382D01*
X27381Y11431D01*
X27393Y11490D01*
X27381Y11549D01*
X27348Y11598D01*
X27299Y11631D01*
X27240Y11643D01*
X27181Y11631D01*
X27132Y11598D01*
X27128Y11593D01*
X27068D01*
X27058Y11608D01*
X27009Y11641D01*
X26950Y11653D01*
X26891Y11641D01*
X26877Y11632D01*
X26811Y11644D01*
X26808Y11648D01*
X26759Y11681D01*
X26700Y11693D01*
X26641Y11681D01*
X26617Y11665D01*
X26572Y11695D01*
X26573Y11700D01*
X26561Y11759D01*
X26528Y11808D01*
X26479Y11841D01*
X26420Y11853D01*
D02*
G37*
G36*
X36217Y11921D02*
X36159Y11910D01*
X36109Y11877D01*
X36076Y11827D01*
X36065Y11768D01*
X36076Y11710D01*
X36109Y11660D01*
X36117Y11655D01*
X36122Y11598D01*
X36089Y11549D01*
X36077Y11490D01*
X36089Y11431D01*
X36122Y11382D01*
X36171Y11349D01*
X36230Y11337D01*
X36289Y11349D01*
X36338Y11382D01*
X36371Y11431D01*
X36383Y11490D01*
X36371Y11549D01*
X36338Y11598D01*
X36330Y11603D01*
X36326Y11660D01*
X36359Y11710D01*
X36370Y11768D01*
X36359Y11827D01*
X36326Y11877D01*
X36276Y11910D01*
X36217Y11921D01*
D02*
G37*
G36*
X17190Y12673D02*
X17128Y12661D01*
X17075Y12625D01*
X17039Y12572D01*
X17038Y12565D01*
X17029Y12552D01*
X17017Y12490D01*
Y12210D01*
Y11950D01*
Y11690D01*
X17029Y11628D01*
X17065Y11575D01*
X17118Y11539D01*
X17180Y11527D01*
X17590D01*
X17652Y11539D01*
X17705Y11575D01*
X17741Y11628D01*
X17753Y11690D01*
Y11797D01*
X18070D01*
X18132Y11809D01*
X18185Y11845D01*
X18221Y11898D01*
X18233Y11960D01*
Y12320D01*
X18233Y12320D01*
X18233Y12320D01*
Y12450D01*
X18243Y12500D01*
X18231Y12562D01*
X18195Y12615D01*
X18142Y12651D01*
X18080Y12663D01*
X17240D01*
X17190Y12673D01*
D02*
G37*
G36*
X7790Y11713D02*
X7731Y11701D01*
X7682Y11668D01*
X7649Y11619D01*
X7637Y11560D01*
X7649Y11501D01*
X7682Y11452D01*
X7731Y11419D01*
X7790Y11407D01*
X7849Y11419D01*
X7898Y11452D01*
X7931Y11501D01*
X7943Y11560D01*
X7931Y11619D01*
X7898Y11668D01*
X7849Y11701D01*
X7790Y11713D01*
D02*
G37*
G36*
X7720Y3903D02*
X7661Y3891D01*
X7612Y3858D01*
X7579Y3809D01*
X7567Y3750D01*
X7579Y3691D01*
X7612Y3642D01*
X7661Y3609D01*
X7704Y3600D01*
X7709Y3589D01*
X7697Y3530D01*
X7709Y3471D01*
X7742Y3422D01*
X7791Y3389D01*
X7850Y3377D01*
X7909Y3389D01*
X7958Y3422D01*
X7991Y3471D01*
X8003Y3530D01*
X7991Y3589D01*
X7958Y3638D01*
X7909Y3671D01*
X7866Y3680D01*
X7861Y3691D01*
X7873Y3750D01*
X7861Y3809D01*
X7828Y3858D01*
X7779Y3891D01*
X7720Y3903D01*
D02*
G37*
G36*
X7060Y3853D02*
X7001Y3841D01*
X6952Y3808D01*
X6919Y3759D01*
X6907Y3700D01*
X6919Y3641D01*
X6952Y3592D01*
X7001Y3559D01*
X7060Y3547D01*
X7091Y3553D01*
X7131Y3533D01*
X7140Y3516D01*
X7149Y3471D01*
X7182Y3422D01*
X7231Y3389D01*
X7290Y3377D01*
X7349Y3389D01*
X7398Y3422D01*
X7431Y3471D01*
X7443Y3530D01*
X7431Y3589D01*
X7398Y3638D01*
X7349Y3671D01*
X7290Y3683D01*
X7259Y3677D01*
X7219Y3697D01*
X7210Y3714D01*
X7201Y3759D01*
X7168Y3808D01*
X7119Y3841D01*
X7060Y3853D01*
D02*
G37*
G36*
X11450Y4213D02*
X11391Y4201D01*
X11342Y4168D01*
X11309Y4119D01*
X11297Y4060D01*
X11309Y4001D01*
X11342Y3952D01*
Y3918D01*
X11309Y3869D01*
X11297Y3810D01*
X11309Y3751D01*
X11342Y3702D01*
X11391Y3669D01*
X11450Y3657D01*
X11509Y3669D01*
X11558Y3702D01*
X11591Y3751D01*
X11603Y3810D01*
X11591Y3869D01*
X11558Y3918D01*
Y3952D01*
X11591Y4001D01*
X11603Y4060D01*
X11591Y4119D01*
X11558Y4168D01*
X11509Y4201D01*
X11450Y4213D01*
D02*
G37*
G36*
X1400Y4428D02*
X1307Y4416D01*
X1221Y4380D01*
X1147Y4323D01*
X1090Y4249D01*
X1054Y4163D01*
X1042Y4070D01*
X1054Y3977D01*
X1090Y3891D01*
X1147Y3817D01*
X1221Y3760D01*
X1307Y3724D01*
X1400Y3712D01*
X1493Y3724D01*
X1579Y3760D01*
X1653Y3817D01*
X1710Y3891D01*
X1746Y3977D01*
X1758Y4070D01*
X1746Y4163D01*
X1710Y4249D01*
X1653Y4323D01*
X1579Y4380D01*
X1493Y4416D01*
X1400Y4428D01*
D02*
G37*
G36*
X37960Y4418D02*
X37867Y4406D01*
X37781Y4370D01*
X37707Y4313D01*
X37650Y4239D01*
X37614Y4153D01*
X37602Y4060D01*
X37614Y3967D01*
X37650Y3881D01*
X37707Y3807D01*
X37781Y3750D01*
X37867Y3714D01*
X37960Y3702D01*
X38053Y3714D01*
X38139Y3750D01*
X38213Y3807D01*
X38270Y3881D01*
X38306Y3967D01*
X38318Y4060D01*
X38306Y4153D01*
X38270Y4239D01*
X38213Y4313D01*
X38139Y4370D01*
X38053Y4406D01*
X37960Y4418D01*
D02*
G37*
G36*
X34750Y4480D02*
X34673Y4470D01*
X34601Y4440D01*
X34539Y4392D01*
X34491Y4330D01*
X34461Y4258D01*
X34451Y4181D01*
X34461Y4104D01*
X34491Y4032D01*
X34539Y3970D01*
X34601Y3922D01*
X34616Y3916D01*
Y3862D01*
X34611Y3860D01*
X34549Y3812D01*
X34501Y3750D01*
X34471Y3678D01*
X34461Y3601D01*
X34471Y3524D01*
X34501Y3452D01*
X34549Y3390D01*
X34611Y3342D01*
X34683Y3313D01*
X34760Y3302D01*
X34837Y3313D01*
X34909Y3342D01*
X34971Y3390D01*
X35019Y3452D01*
X35049Y3524D01*
X35059Y3601D01*
X35049Y3678D01*
X35019Y3750D01*
X34971Y3812D01*
X34909Y3860D01*
X34894Y3866D01*
Y3920D01*
X34899Y3922D01*
X34961Y3970D01*
X35009Y4032D01*
X35039Y4104D01*
X35049Y4181D01*
X35039Y4258D01*
X35009Y4330D01*
X34961Y4392D01*
X34899Y4440D01*
X34827Y4470D01*
X34750Y4480D01*
D02*
G37*
G36*
X1980Y3043D02*
X1921Y3031D01*
X1872Y2998D01*
X1839Y2949D01*
X1827Y2890D01*
X1839Y2831D01*
X1872Y2782D01*
X1921Y2749D01*
X1980Y2737D01*
X2039Y2749D01*
X2088Y2782D01*
X2121Y2831D01*
X2133Y2890D01*
X2121Y2949D01*
X2088Y2998D01*
X2039Y3031D01*
X1980Y3043D01*
D02*
G37*
G36*
X1400Y3428D02*
X1307Y3416D01*
X1221Y3380D01*
X1147Y3323D01*
X1090Y3249D01*
X1054Y3163D01*
X1042Y3070D01*
X1054Y2977D01*
X1090Y2891D01*
X1147Y2817D01*
X1221Y2760D01*
X1307Y2724D01*
X1400Y2712D01*
X1493Y2724D01*
X1579Y2760D01*
X1653Y2817D01*
X1710Y2891D01*
X1746Y2977D01*
X1758Y3070D01*
X1746Y3163D01*
X1710Y3249D01*
X1653Y3323D01*
X1579Y3380D01*
X1493Y3416D01*
X1400Y3428D01*
D02*
G37*
G36*
X4580Y3463D02*
X4521Y3451D01*
X4472Y3418D01*
X4439Y3369D01*
X4427Y3310D01*
X4439Y3251D01*
X4472Y3202D01*
X4521Y3169D01*
X4580Y3157D01*
X4639Y3169D01*
X4688Y3202D01*
X4721Y3251D01*
X4733Y3310D01*
X4721Y3369D01*
X4688Y3418D01*
X4639Y3451D01*
X4580Y3463D01*
D02*
G37*
G36*
X3340Y3573D02*
X3281Y3561D01*
X3232Y3528D01*
X3199Y3479D01*
X3187Y3420D01*
X3199Y3361D01*
X3232Y3312D01*
X3281Y3279D01*
X3340Y3267D01*
X3399Y3279D01*
X3448Y3312D01*
X3481Y3361D01*
X3493Y3420D01*
X3481Y3479D01*
X3448Y3528D01*
X3399Y3561D01*
X3340Y3573D01*
D02*
G37*
G36*
X4100Y3483D02*
X4041Y3471D01*
X3992Y3438D01*
X3959Y3389D01*
X3947Y3330D01*
X3959Y3271D01*
X3992Y3222D01*
X4041Y3189D01*
X4100Y3177D01*
X4159Y3189D01*
X4208Y3222D01*
X4241Y3271D01*
X4253Y3330D01*
X4241Y3389D01*
X4208Y3438D01*
X4159Y3471D01*
X4100Y3483D01*
D02*
G37*
G36*
X21170Y4083D02*
X21111Y4071D01*
X21062Y4038D01*
X21029Y3989D01*
X21017Y3930D01*
X21029Y3871D01*
X21062Y3822D01*
X21111Y3789D01*
X21170Y3777D01*
X21229Y3789D01*
X21278Y3822D01*
X21311Y3871D01*
X21323Y3930D01*
X21311Y3989D01*
X21278Y4038D01*
X21229Y4071D01*
X21170Y4083D01*
D02*
G37*
G36*
X2130Y4723D02*
X2071Y4711D01*
X2022Y4678D01*
X1989Y4629D01*
X1977Y4570D01*
X1989Y4511D01*
X2022Y4462D01*
X2071Y4429D01*
X2130Y4417D01*
X2189Y4429D01*
X2238Y4462D01*
X2271Y4511D01*
X2283Y4570D01*
X2271Y4629D01*
X2238Y4678D01*
X2189Y4711D01*
X2130Y4723D01*
D02*
G37*
G36*
X8360Y4713D02*
X8301Y4701D01*
X8252Y4668D01*
X8219Y4619D01*
X8207Y4560D01*
X8219Y4501D01*
X8252Y4452D01*
X8301Y4419D01*
X8360Y4407D01*
X8419Y4419D01*
X8468Y4452D01*
X8501Y4501D01*
X8513Y4560D01*
X8501Y4619D01*
X8468Y4668D01*
X8419Y4701D01*
X8360Y4713D01*
D02*
G37*
G36*
X21186Y4792D02*
X21128Y4780D01*
X21078Y4747D01*
X21045Y4697D01*
X21033Y4639D01*
X21045Y4580D01*
X21078Y4531D01*
X21128Y4497D01*
X21186Y4486D01*
X21245Y4497D01*
X21294Y4531D01*
X21327Y4580D01*
X21339Y4639D01*
X21327Y4697D01*
X21294Y4747D01*
X21245Y4780D01*
X21186Y4792D01*
D02*
G37*
G36*
X20140Y4943D02*
X20081Y4931D01*
X20032Y4898D01*
X19999Y4849D01*
X19987Y4790D01*
X19999Y4731D01*
X20032Y4682D01*
X20081Y4649D01*
X20140Y4637D01*
X20199Y4649D01*
X20248Y4682D01*
X20281Y4731D01*
X20293Y4790D01*
X20281Y4849D01*
X20248Y4898D01*
X20199Y4931D01*
X20140Y4943D01*
D02*
G37*
G36*
X18590Y4933D02*
X18531Y4921D01*
X18482Y4888D01*
X18449Y4839D01*
X18437Y4780D01*
X18449Y4721D01*
X18482Y4672D01*
X18531Y4639D01*
X18590Y4627D01*
X18649Y4639D01*
X18698Y4672D01*
X18731Y4721D01*
X18743Y4780D01*
X18731Y4839D01*
X18698Y4888D01*
X18649Y4921D01*
X18590Y4933D01*
D02*
G37*
G36*
X12140Y4313D02*
X12081Y4301D01*
X12032Y4268D01*
X12028D01*
X11979Y4301D01*
X11920Y4313D01*
X11861Y4301D01*
X11812Y4268D01*
X11779Y4219D01*
X11767Y4160D01*
X11779Y4101D01*
X11812Y4052D01*
X11861Y4019D01*
X11920Y4007D01*
X11979Y4019D01*
X12020Y4046D01*
X12065Y4023D01*
X12066Y4013D01*
X12063Y3975D01*
X12022Y3948D01*
X11989Y3899D01*
X11977Y3840D01*
X11989Y3781D01*
X12022Y3732D01*
X12071Y3699D01*
X12130Y3687D01*
X12189Y3699D01*
X12238Y3732D01*
X12271Y3781D01*
X12283Y3840D01*
X12271Y3899D01*
X12238Y3948D01*
X12206Y3969D01*
X12204Y3987D01*
X12207Y4025D01*
X12248Y4052D01*
X12281Y4101D01*
X12293Y4160D01*
X12281Y4219D01*
X12248Y4268D01*
X12199Y4301D01*
X12140Y4313D01*
D02*
G37*
G36*
X6180Y5993D02*
X6121Y5981D01*
X6072Y5948D01*
X6039Y5899D01*
X6027Y5840D01*
X6039Y5781D01*
X6072Y5732D01*
X6121Y5699D01*
X6166Y5690D01*
X6208Y5646D01*
X6207Y5640D01*
X6219Y5581D01*
X6252Y5532D01*
X6255Y5530D01*
Y5480D01*
X6252Y5478D01*
X6219Y5429D01*
X6207Y5370D01*
X6219Y5311D01*
X6252Y5262D01*
X6301Y5229D01*
X6360Y5217D01*
X6388Y5223D01*
X6419Y5179D01*
X6407Y5120D01*
X6419Y5061D01*
X6452Y5012D01*
X6445Y4957D01*
X6432Y4948D01*
X6399Y4899D01*
X6387Y4840D01*
X6399Y4781D01*
X6432Y4732D01*
X6481Y4699D01*
X6540Y4687D01*
X6569Y4693D01*
X6611Y4652D01*
X6607Y4630D01*
X6619Y4571D01*
X6652Y4522D01*
X6692Y4495D01*
Y4488D01*
X6659Y4439D01*
X6647Y4380D01*
X6659Y4321D01*
X6692Y4272D01*
X6741Y4239D01*
X6800Y4227D01*
X6828Y4233D01*
X6859Y4189D01*
X6847Y4130D01*
X6859Y4071D01*
X6892Y4022D01*
X6941Y3989D01*
X7000Y3977D01*
X7059Y3989D01*
X7108Y4022D01*
X7141Y4071D01*
X7153Y4130D01*
X7141Y4189D01*
X7108Y4238D01*
X7059Y4271D01*
X7000Y4283D01*
X6972Y4277D01*
X6941Y4321D01*
X6953Y4380D01*
X6941Y4439D01*
X6908Y4488D01*
X6868Y4515D01*
Y4522D01*
X6901Y4571D01*
X6913Y4630D01*
X6901Y4689D01*
X6868Y4738D01*
X6819Y4771D01*
X6760Y4783D01*
X6731Y4777D01*
X6689Y4818D01*
X6693Y4840D01*
X6681Y4899D01*
X6648Y4948D01*
X6655Y5003D01*
X6668Y5012D01*
X6701Y5061D01*
X6713Y5120D01*
X6701Y5179D01*
X6668Y5228D01*
X6619Y5261D01*
X6560Y5273D01*
X6532Y5267D01*
X6501Y5311D01*
X6513Y5370D01*
X6501Y5429D01*
X6468Y5478D01*
X6465Y5480D01*
Y5530D01*
X6468Y5532D01*
X6501Y5581D01*
X6513Y5640D01*
X6501Y5699D01*
X6468Y5748D01*
X6419Y5781D01*
X6374Y5790D01*
X6332Y5834D01*
X6333Y5840D01*
X6321Y5899D01*
X6288Y5948D01*
X6239Y5981D01*
X6180Y5993D01*
D02*
G37*
G36*
X8010Y4513D02*
X7951Y4501D01*
X7902Y4468D01*
X7869Y4419D01*
X7857Y4360D01*
X7869Y4301D01*
X7902Y4252D01*
X7951Y4219D01*
X8005Y4208D01*
X8020Y4191D01*
X8037Y4162D01*
X8027Y4110D01*
X8039Y4051D01*
X8072Y4002D01*
X8121Y3969D01*
X8180Y3957D01*
X8239Y3969D01*
X8288Y4002D01*
X8321Y4051D01*
X8333Y4110D01*
X8321Y4169D01*
X8288Y4218D01*
X8239Y4251D01*
X8185Y4262D01*
X8170Y4279D01*
X8153Y4308D01*
X8163Y4360D01*
X8151Y4419D01*
X8118Y4468D01*
X8069Y4501D01*
X8010Y4513D01*
D02*
G37*
G36*
X18590Y4303D02*
X18531Y4291D01*
X18482Y4258D01*
X18449Y4209D01*
X18437Y4150D01*
X18449Y4091D01*
X18482Y4042D01*
X18531Y4009D01*
X18590Y3997D01*
X18649Y4009D01*
X18698Y4042D01*
X18731Y4091D01*
X18743Y4150D01*
X18731Y4209D01*
X18698Y4258D01*
X18649Y4291D01*
X18590Y4303D01*
D02*
G37*
G36*
X3010Y4978D02*
X2917Y4966D01*
X2831Y4930D01*
X2757Y4873D01*
X2700Y4799D01*
X2664Y4713D01*
X2652Y4620D01*
X2664Y4527D01*
X2700Y4441D01*
X2757Y4367D01*
X2831Y4310D01*
X2917Y4274D01*
X3010Y4262D01*
X3103Y4274D01*
X3189Y4310D01*
X3263Y4367D01*
X3320Y4441D01*
X3356Y4527D01*
X3368Y4620D01*
X3356Y4713D01*
X3320Y4799D01*
X3263Y4873D01*
X3189Y4930D01*
X3103Y4966D01*
X3010Y4978D01*
D02*
G37*
G36*
X10270Y4343D02*
X10211Y4331D01*
X10162Y4298D01*
X10129Y4249D01*
X10117Y4190D01*
X10129Y4131D01*
X10162Y4082D01*
X10211Y4049D01*
X10270Y4037D01*
X10329Y4049D01*
X10378Y4082D01*
X10411Y4131D01*
X10423Y4190D01*
X10411Y4249D01*
X10378Y4298D01*
X10329Y4331D01*
X10270Y4343D01*
D02*
G37*
G36*
X10850Y1603D02*
X10791Y1591D01*
X10742Y1558D01*
X10709Y1509D01*
X10697Y1450D01*
X10709Y1391D01*
X10742Y1342D01*
X10791Y1309D01*
X10850Y1297D01*
X10909Y1309D01*
X10958Y1342D01*
X10991Y1391D01*
X11003Y1450D01*
X10991Y1509D01*
X10958Y1558D01*
X10909Y1591D01*
X10850Y1603D01*
D02*
G37*
G36*
X34750Y2118D02*
X34673Y2107D01*
X34601Y2078D01*
X34539Y2030D01*
X34491Y1968D01*
X34461Y1896D01*
X34451Y1819D01*
X34461Y1742D01*
X34491Y1670D01*
X34539Y1608D01*
X34601Y1560D01*
X34616Y1554D01*
Y1500D01*
X34611Y1498D01*
X34549Y1450D01*
X34501Y1388D01*
X34471Y1316D01*
X34461Y1239D01*
X34471Y1162D01*
X34501Y1090D01*
X34549Y1028D01*
X34611Y980D01*
X34683Y950D01*
X34760Y940D01*
X34837Y950D01*
X34909Y980D01*
X34971Y1028D01*
X35019Y1090D01*
X35049Y1162D01*
X35059Y1239D01*
X35049Y1316D01*
X35019Y1388D01*
X34971Y1450D01*
X34909Y1498D01*
X34894Y1504D01*
Y1558D01*
X34899Y1560D01*
X34961Y1608D01*
X35009Y1670D01*
X35039Y1742D01*
X35049Y1819D01*
X35039Y1896D01*
X35009Y1968D01*
X34961Y2030D01*
X34899Y2078D01*
X34827Y2107D01*
X34750Y2118D01*
D02*
G37*
G36*
X17210Y1793D02*
X17151Y1781D01*
X17102Y1748D01*
X17069Y1699D01*
X17057Y1640D01*
X17069Y1581D01*
X17102Y1532D01*
X17151Y1499D01*
X17210Y1487D01*
X17269Y1499D01*
X17318Y1532D01*
X17351Y1581D01*
X17363Y1640D01*
X17351Y1699D01*
X17318Y1748D01*
X17269Y1781D01*
X17210Y1793D01*
D02*
G37*
G36*
X4540Y1893D02*
X4481Y1881D01*
X4432Y1848D01*
X4399Y1799D01*
X4387Y1740D01*
X4399Y1681D01*
X4432Y1632D01*
X4481Y1599D01*
X4540Y1587D01*
X4599Y1599D01*
X4648Y1632D01*
X4681Y1681D01*
X4693Y1740D01*
X4681Y1799D01*
X4648Y1848D01*
X4599Y1881D01*
X4540Y1893D01*
D02*
G37*
G36*
X4200Y1803D02*
X4141Y1791D01*
X4092Y1758D01*
X4059Y1709D01*
X4047Y1650D01*
X4059Y1591D01*
X4092Y1542D01*
X4141Y1509D01*
X4200Y1497D01*
X4259Y1509D01*
X4308Y1542D01*
X4341Y1591D01*
X4353Y1650D01*
X4341Y1709D01*
X4308Y1758D01*
X4259Y1791D01*
X4200Y1803D01*
D02*
G37*
G36*
X1755Y1425D02*
X1045D01*
Y715D01*
X1755D01*
Y1425D01*
D02*
G37*
G36*
X12850Y753D02*
X12791Y741D01*
X12742Y708D01*
X12709Y659D01*
X12697Y600D01*
X12709Y541D01*
X12742Y492D01*
X12791Y459D01*
X12850Y447D01*
X12909Y459D01*
X12958Y492D01*
X12991Y541D01*
X13003Y600D01*
X12991Y659D01*
X12958Y708D01*
X12909Y741D01*
X12850Y753D01*
D02*
G37*
G36*
X11430D02*
X11371Y741D01*
X11322Y708D01*
X11289Y659D01*
X11277Y600D01*
X11289Y541D01*
X11322Y492D01*
X11371Y459D01*
X11430Y447D01*
X11489Y459D01*
X11538Y492D01*
X11571Y541D01*
X11583Y600D01*
X11571Y659D01*
X11538Y708D01*
X11489Y741D01*
X11430Y753D01*
D02*
G37*
G36*
X5450Y863D02*
X5391Y851D01*
X5342Y818D01*
X5309Y769D01*
X5297Y710D01*
X5309Y651D01*
X5342Y602D01*
X5391Y569D01*
X5450Y557D01*
X5509Y569D01*
X5558Y602D01*
X5591Y651D01*
X5603Y710D01*
X5591Y769D01*
X5558Y818D01*
X5509Y851D01*
X5450Y863D01*
D02*
G37*
G36*
X37960Y1418D02*
X37867Y1406D01*
X37781Y1370D01*
X37707Y1313D01*
X37650Y1239D01*
X37614Y1153D01*
X37602Y1060D01*
X37614Y967D01*
X37650Y881D01*
X37707Y807D01*
X37781Y750D01*
X37867Y714D01*
X37960Y702D01*
X38053Y714D01*
X38139Y750D01*
X38213Y807D01*
X38270Y881D01*
X38306Y967D01*
X38318Y1060D01*
X38306Y1153D01*
X38270Y1239D01*
X38213Y1313D01*
X38139Y1370D01*
X38053Y1406D01*
X37960Y1418D01*
D02*
G37*
G36*
X3240Y953D02*
X3181Y941D01*
X3132Y908D01*
X3099Y859D01*
X3087Y800D01*
X3099Y741D01*
X3132Y692D01*
X3181Y659D01*
X3240Y647D01*
X3299Y659D01*
X3348Y692D01*
X3381Y741D01*
X3393Y800D01*
X3381Y859D01*
X3348Y908D01*
X3299Y941D01*
X3240Y953D01*
D02*
G37*
G36*
X15730Y1953D02*
X15671Y1941D01*
X15622Y1908D01*
X15589Y1859D01*
X15577Y1800D01*
X15589Y1741D01*
X15622Y1692D01*
X15671Y1659D01*
X15730Y1647D01*
X15789Y1659D01*
X15838Y1692D01*
X15871Y1741D01*
X15883Y1800D01*
X15871Y1859D01*
X15838Y1908D01*
X15789Y1941D01*
X15730Y1953D01*
D02*
G37*
G36*
X11050Y2523D02*
X10991Y2511D01*
X10942Y2478D01*
X10909Y2429D01*
X10897Y2370D01*
X10909Y2311D01*
X10942Y2262D01*
X10991Y2229D01*
X11050Y2217D01*
X11109Y2229D01*
X11158Y2262D01*
X11191Y2311D01*
X11203Y2370D01*
X11191Y2429D01*
X11158Y2478D01*
X11109Y2511D01*
X11050Y2523D01*
D02*
G37*
G36*
X3590Y2513D02*
X3531Y2501D01*
X3482Y2468D01*
X3449Y2419D01*
X3437Y2360D01*
X3449Y2301D01*
X3482Y2252D01*
X3531Y2219D01*
X3590Y2207D01*
X3649Y2219D01*
X3698Y2252D01*
X3731Y2301D01*
X3743Y2360D01*
X3731Y2419D01*
X3698Y2468D01*
X3649Y2501D01*
X3590Y2513D01*
D02*
G37*
G36*
X7310Y2533D02*
X7251Y2521D01*
X7202Y2488D01*
X7169Y2439D01*
X7157Y2380D01*
X7169Y2321D01*
X7202Y2272D01*
X7251Y2239D01*
X7310Y2227D01*
X7369Y2239D01*
X7418Y2272D01*
X7451Y2321D01*
X7463Y2380D01*
X7451Y2439D01*
X7418Y2488D01*
X7369Y2521D01*
X7310Y2533D01*
D02*
G37*
G36*
X37960Y3418D02*
X37867Y3406D01*
X37781Y3370D01*
X37707Y3313D01*
X37650Y3239D01*
X37614Y3153D01*
X37602Y3060D01*
X37614Y2967D01*
X37650Y2881D01*
X37707Y2807D01*
X37781Y2750D01*
X37867Y2714D01*
X37960Y2702D01*
X38053Y2714D01*
X38139Y2750D01*
X38213Y2807D01*
X38270Y2881D01*
X38306Y2967D01*
X38318Y3060D01*
X38306Y3153D01*
X38270Y3239D01*
X38213Y3313D01*
X38139Y3370D01*
X38053Y3406D01*
X37960Y3418D01*
D02*
G37*
G36*
X4160Y2573D02*
X4101Y2561D01*
X4052Y2528D01*
X4019Y2479D01*
X4007Y2420D01*
X4019Y2361D01*
X4052Y2312D01*
X4101Y2279D01*
X4160Y2267D01*
X4219Y2279D01*
X4268Y2312D01*
X4301Y2361D01*
X4313Y2420D01*
X4301Y2479D01*
X4268Y2528D01*
X4219Y2561D01*
X4160Y2573D01*
D02*
G37*
G36*
X11950Y2163D02*
X11891Y2151D01*
X11842Y2118D01*
X11809Y2069D01*
X11804Y2043D01*
X11751Y2032D01*
X11740Y2048D01*
X11690Y2081D01*
X11632Y2093D01*
X11573Y2081D01*
X11524Y2048D01*
X11490Y1999D01*
X11479Y1940D01*
X11490Y1881D01*
X11524Y1832D01*
X11573Y1799D01*
X11632Y1787D01*
X11690Y1799D01*
X11740Y1832D01*
X11773Y1881D01*
X11778Y1907D01*
X11831Y1918D01*
X11842Y1902D01*
X11891Y1869D01*
X11950Y1857D01*
X12009Y1869D01*
X12019Y1876D01*
X12038Y1870D01*
X12069Y1849D01*
X12079Y1801D01*
X12112Y1752D01*
X12161Y1719D01*
X12220Y1707D01*
X12279Y1719D01*
X12328Y1752D01*
X12361Y1801D01*
X12373Y1860D01*
X12361Y1919D01*
X12328Y1968D01*
X12279Y2001D01*
X12220Y2013D01*
X12161Y2001D01*
X12151Y1994D01*
X12132Y2000D01*
X12101Y2021D01*
X12091Y2069D01*
X12058Y2118D01*
X12009Y2151D01*
X11950Y2163D01*
D02*
G37*
G36*
X1400Y2428D02*
X1307Y2416D01*
X1221Y2380D01*
X1147Y2323D01*
X1090Y2249D01*
X1054Y2163D01*
X1042Y2070D01*
X1054Y1977D01*
X1090Y1891D01*
X1147Y1817D01*
X1221Y1760D01*
X1307Y1724D01*
X1400Y1712D01*
X1493Y1724D01*
X1579Y1760D01*
X1653Y1817D01*
X1710Y1891D01*
X1746Y1977D01*
X1758Y2070D01*
X1746Y2163D01*
X1710Y2249D01*
X1653Y2323D01*
X1579Y2380D01*
X1493Y2416D01*
X1400Y2428D01*
D02*
G37*
G36*
X37960Y2418D02*
X37867Y2406D01*
X37781Y2370D01*
X37707Y2313D01*
X37650Y2239D01*
X37614Y2153D01*
X37602Y2060D01*
X37614Y1967D01*
X37650Y1881D01*
X37707Y1807D01*
X37781Y1750D01*
X37867Y1714D01*
X37960Y1702D01*
X38053Y1714D01*
X38139Y1750D01*
X38213Y1807D01*
X38270Y1881D01*
X38306Y1967D01*
X38318Y2060D01*
X38306Y2153D01*
X38270Y2239D01*
X38213Y2313D01*
X38139Y2370D01*
X38053Y2406D01*
X37960Y2418D01*
D02*
G37*
G36*
X16940Y2063D02*
X16881Y2051D01*
X16832Y2018D01*
X16799Y1969D01*
X16787Y1910D01*
X16799Y1851D01*
X16832Y1802D01*
X16881Y1769D01*
X16940Y1757D01*
X16999Y1769D01*
X17048Y1802D01*
X17081Y1851D01*
X17093Y1910D01*
X17081Y1969D01*
X17048Y2018D01*
X16999Y2051D01*
X16940Y2063D01*
D02*
G37*
G36*
X16140Y2143D02*
X16081Y2131D01*
X16032Y2098D01*
X15999Y2049D01*
X15987Y1990D01*
X15999Y1931D01*
X16032Y1882D01*
X16081Y1849D01*
X16140Y1837D01*
X16199Y1849D01*
X16248Y1882D01*
X16281Y1931D01*
X16293Y1990D01*
X16281Y2049D01*
X16248Y2098D01*
X16199Y2131D01*
X16140Y2143D01*
D02*
G37*
G36*
X11230Y2103D02*
X11171Y2091D01*
X11122Y2058D01*
X11089Y2009D01*
X11077Y1950D01*
X11089Y1891D01*
X11122Y1842D01*
X11171Y1809D01*
X11230Y1797D01*
X11289Y1809D01*
X11338Y1842D01*
X11371Y1891D01*
X11383Y1950D01*
X11371Y2009D01*
X11338Y2058D01*
X11289Y2091D01*
X11230Y2103D01*
D02*
G37*
G36*
X18206Y7022D02*
X18148Y7010D01*
X18098Y6977D01*
X18065Y6927D01*
X18053Y6869D01*
X18065Y6810D01*
X18098Y6761D01*
X18148Y6727D01*
X18206Y6716D01*
X18265Y6727D01*
X18314Y6761D01*
X18347Y6810D01*
X18359Y6869D01*
X18347Y6927D01*
X18314Y6977D01*
X18265Y7010D01*
X18206Y7022D01*
D02*
G37*
G36*
X1400Y7428D02*
X1307Y7416D01*
X1221Y7380D01*
X1147Y7323D01*
X1090Y7249D01*
X1054Y7163D01*
X1042Y7070D01*
X1054Y6977D01*
X1090Y6891D01*
X1147Y6817D01*
X1221Y6760D01*
X1307Y6724D01*
X1400Y6712D01*
X1493Y6724D01*
X1579Y6760D01*
X1653Y6817D01*
X1710Y6891D01*
X1746Y6977D01*
X1758Y7070D01*
X1746Y7163D01*
X1710Y7249D01*
X1653Y7323D01*
X1579Y7380D01*
X1493Y7416D01*
X1400Y7428D01*
D02*
G37*
G36*
X13580Y7223D02*
X13521Y7211D01*
X13472Y7178D01*
X13439Y7129D01*
X13427Y7070D01*
X13439Y7011D01*
X13472Y6962D01*
X13521Y6929D01*
X13580Y6917D01*
X13639Y6929D01*
X13688Y6962D01*
X13721Y7011D01*
X13733Y7070D01*
X13721Y7129D01*
X13688Y7178D01*
X13639Y7211D01*
X13580Y7223D01*
D02*
G37*
G36*
X31650Y7283D02*
X31591Y7271D01*
X31542Y7238D01*
X31509Y7189D01*
X31497Y7130D01*
X31509Y7071D01*
X31542Y7022D01*
X31591Y6989D01*
X31650Y6977D01*
X31709Y6989D01*
X31758Y7022D01*
X31791Y7071D01*
X31803Y7130D01*
X31791Y7189D01*
X31758Y7238D01*
X31709Y7271D01*
X31650Y7283D01*
D02*
G37*
G36*
X31170Y7263D02*
X31111Y7251D01*
X31062Y7218D01*
X31029Y7169D01*
X31017Y7110D01*
X31029Y7051D01*
X31062Y7002D01*
X31111Y6969D01*
X31170Y6957D01*
X31229Y6969D01*
X31278Y7002D01*
X31311Y7051D01*
X31323Y7110D01*
X31311Y7169D01*
X31278Y7218D01*
X31229Y7251D01*
X31170Y7263D01*
D02*
G37*
G36*
X37960Y7418D02*
X37867Y7406D01*
X37781Y7370D01*
X37707Y7313D01*
X37650Y7239D01*
X37614Y7153D01*
X37602Y7060D01*
X37614Y6967D01*
X37650Y6881D01*
X37707Y6807D01*
X37781Y6750D01*
X37867Y6714D01*
X37960Y6702D01*
X38053Y6714D01*
X38139Y6750D01*
X38213Y6807D01*
X38270Y6881D01*
X38306Y6967D01*
X38318Y7060D01*
X38306Y7153D01*
X38270Y7239D01*
X38213Y7313D01*
X38139Y7370D01*
X38053Y7406D01*
X37960Y7418D01*
D02*
G37*
G36*
X34090Y6633D02*
X34031Y6621D01*
X33982Y6588D01*
X33949Y6539D01*
X33937Y6480D01*
X33949Y6421D01*
X33982Y6372D01*
X34031Y6339D01*
X34090Y6327D01*
X34149Y6339D01*
X34198Y6372D01*
X34231Y6421D01*
X34243Y6480D01*
X34231Y6539D01*
X34198Y6588D01*
X34149Y6621D01*
X34090Y6633D01*
D02*
G37*
G36*
X36850Y6593D02*
X36791Y6581D01*
X36742Y6548D01*
X36709Y6499D01*
X36697Y6440D01*
X36709Y6381D01*
X36742Y6332D01*
X36791Y6299D01*
X36850Y6287D01*
X36909Y6299D01*
X36935Y6317D01*
X36992Y6322D01*
X37041Y6289D01*
X37100Y6277D01*
X37159Y6289D01*
X37208Y6322D01*
X37241Y6371D01*
X37253Y6430D01*
X37241Y6489D01*
X37208Y6538D01*
X37159Y6571D01*
X37100Y6583D01*
X37041Y6571D01*
X37015Y6553D01*
X36958Y6548D01*
X36909Y6581D01*
X36850Y6593D01*
D02*
G37*
G36*
X20146Y6672D02*
X20088Y6660D01*
X20038Y6627D01*
X20005Y6577D01*
X19993Y6519D01*
X20005Y6460D01*
X20038Y6411D01*
X20088Y6377D01*
X20146Y6366D01*
X20205Y6377D01*
X20254Y6411D01*
X20287Y6460D01*
X20299Y6519D01*
X20287Y6577D01*
X20254Y6627D01*
X20205Y6660D01*
X20146Y6672D01*
D02*
G37*
G36*
X12500Y6873D02*
X12441Y6861D01*
X12392Y6828D01*
X12359Y6779D01*
X12347Y6720D01*
X12359Y6661D01*
X12392Y6612D01*
X12441Y6579D01*
X12500Y6567D01*
X12559Y6579D01*
X12608Y6612D01*
X12641Y6661D01*
X12653Y6720D01*
X12641Y6779D01*
X12608Y6828D01*
X12559Y6861D01*
X12500Y6873D01*
D02*
G37*
G36*
X2960Y6843D02*
X2901Y6831D01*
X2852Y6798D01*
X2819Y6749D01*
X2807Y6690D01*
X2819Y6631D01*
X2852Y6582D01*
X2901Y6549D01*
X2960Y6537D01*
X3019Y6549D01*
X3068Y6582D01*
X3101Y6631D01*
X3113Y6690D01*
X3101Y6749D01*
X3068Y6798D01*
X3019Y6831D01*
X2960Y6843D01*
D02*
G37*
G36*
X28230Y7303D02*
X28171Y7291D01*
X28122Y7258D01*
X28089Y7209D01*
X28077Y7150D01*
X28089Y7091D01*
X28122Y7042D01*
X28171Y7009D01*
X28230Y6997D01*
X28289Y7009D01*
X28338Y7042D01*
X28371Y7091D01*
X28383Y7150D01*
X28371Y7209D01*
X28338Y7258D01*
X28289Y7291D01*
X28230Y7303D01*
D02*
G37*
G36*
X30120Y9643D02*
X28740D01*
X28646Y9631D01*
X28558Y9594D01*
X28517Y9562D01*
X28511Y9561D01*
X28462Y9528D01*
X28429Y9479D01*
X28425Y9461D01*
X28389Y9374D01*
X28377Y9280D01*
X28389Y9186D01*
X28426Y9098D01*
X28483Y9023D01*
X28558Y8966D01*
X28646Y8929D01*
X28740Y8917D01*
X29727D01*
X29734Y8864D01*
X29791Y8728D01*
X29881Y8611D01*
X30911Y7581D01*
X31028Y7491D01*
X31164Y7434D01*
X31310Y7415D01*
X31310Y7415D01*
X31992D01*
X32007Y7365D01*
X31982Y7348D01*
X31949Y7299D01*
X31937Y7240D01*
X31949Y7181D01*
X31982Y7132D01*
X32031Y7099D01*
X32090Y7087D01*
X32149Y7099D01*
X32198Y7132D01*
X32231Y7181D01*
X32243Y7240D01*
X32231Y7299D01*
X32198Y7348D01*
X32173Y7365D01*
X32188Y7415D01*
X32936D01*
X32974Y7377D01*
X32949Y7331D01*
X32940Y7333D01*
X32881Y7321D01*
X32832Y7288D01*
X32799Y7239D01*
X32787Y7180D01*
X32799Y7121D01*
X32832Y7072D01*
X32881Y7039D01*
X32940Y7027D01*
X32999Y7039D01*
X33048Y7072D01*
X33081Y7121D01*
X33093Y7180D01*
X33091Y7189D01*
X33137Y7214D01*
X33421Y6931D01*
X33538Y6841D01*
X33674Y6784D01*
X33820Y6765D01*
X33966Y6784D01*
X34102Y6841D01*
X34215Y6928D01*
X34268Y6917D01*
X34327Y6929D01*
X34332Y6932D01*
X34428D01*
X34433Y6929D01*
X34492Y6917D01*
X34551Y6929D01*
X34556Y6932D01*
X34652D01*
X34657Y6929D01*
X34716Y6917D01*
X34775Y6929D01*
X34780Y6932D01*
X34876D01*
X34881Y6929D01*
X34940Y6917D01*
X34999Y6929D01*
X35048Y6962D01*
X35081Y7011D01*
X35093Y7070D01*
X35081Y7129D01*
X35078Y7134D01*
Y7200D01*
X35068Y7251D01*
X35081Y7271D01*
X35093Y7330D01*
X35081Y7389D01*
X35048Y7438D01*
X34999Y7471D01*
X34940Y7483D01*
X34881Y7471D01*
X34876Y7468D01*
X34780D01*
X34775Y7471D01*
X34716Y7483D01*
X34657Y7471D01*
X34652Y7468D01*
X34556D01*
X34551Y7471D01*
X34492Y7483D01*
X34433Y7471D01*
X34428Y7468D01*
X34367D01*
X34366Y7476D01*
X34309Y7612D01*
X34219Y7729D01*
X33569Y8379D01*
X33452Y8469D01*
X33316Y8526D01*
X33170Y8545D01*
X33170Y8545D01*
X31544D01*
X30679Y9409D01*
X30562Y9499D01*
X30426Y9556D01*
X30390Y9560D01*
X30389Y9561D01*
X30330Y9573D01*
X30330Y9573D01*
X30302Y9594D01*
X30214Y9631D01*
X30120Y9643D01*
D02*
G37*
G36*
X9580Y7533D02*
X9521Y7521D01*
X9472Y7488D01*
X9439Y7439D01*
X9427Y7380D01*
X9436Y7335D01*
X9407Y7302D01*
X9397Y7296D01*
X9360Y7303D01*
X9301Y7291D01*
X9252Y7258D01*
X9219Y7209D01*
X9207Y7150D01*
X9219Y7091D01*
X9252Y7042D01*
X9269Y7030D01*
Y6970D01*
X9252Y6958D01*
X9219Y6909D01*
X9207Y6850D01*
X9215Y6812D01*
X9208Y6801D01*
X9176Y6773D01*
X9175Y6773D01*
X9130Y6782D01*
X9071Y6770D01*
X9022Y6737D01*
X8989Y6687D01*
X8977Y6629D01*
X8989Y6570D01*
X9022Y6521D01*
X9071Y6488D01*
X9130Y6476D01*
X9189Y6488D01*
X9238Y6521D01*
X9271Y6570D01*
X9283Y6629D01*
X9275Y6667D01*
X9282Y6678D01*
X9314Y6706D01*
X9315Y6706D01*
X9360Y6697D01*
X9419Y6709D01*
X9468Y6742D01*
X9501Y6791D01*
X9513Y6850D01*
X9501Y6909D01*
X9468Y6958D01*
X9451Y6970D01*
Y7030D01*
X9468Y7042D01*
X9501Y7091D01*
X9513Y7150D01*
X9504Y7195D01*
X9533Y7228D01*
X9543Y7234D01*
X9580Y7227D01*
X9639Y7239D01*
X9688Y7272D01*
X9721Y7321D01*
X9733Y7380D01*
X9721Y7439D01*
X9688Y7488D01*
X9639Y7521D01*
X9580Y7533D01*
D02*
G37*
G36*
X28420Y7683D02*
X28361Y7671D01*
X28312Y7638D01*
X28279Y7589D01*
X28267Y7530D01*
X28279Y7471D01*
X28312Y7422D01*
X28361Y7389D01*
X28420Y7377D01*
X28479Y7389D01*
X28528Y7422D01*
X28561Y7471D01*
X28573Y7530D01*
X28561Y7589D01*
X28528Y7638D01*
X28479Y7671D01*
X28420Y7683D01*
D02*
G37*
G36*
X18900Y7763D02*
X18841Y7751D01*
X18792Y7718D01*
X18759Y7669D01*
X18747Y7610D01*
X18759Y7551D01*
X18792Y7502D01*
X18841Y7469D01*
X18900Y7457D01*
X18959Y7469D01*
X19008Y7502D01*
X19041Y7551D01*
X19053Y7610D01*
X19041Y7669D01*
X19008Y7718D01*
X18959Y7751D01*
X18900Y7763D01*
D02*
G37*
G36*
X5160Y7753D02*
X5101Y7741D01*
X5052Y7708D01*
X5019Y7659D01*
X5007Y7600D01*
X5019Y7541D01*
X5052Y7492D01*
X5101Y7459D01*
X5160Y7447D01*
X5219Y7459D01*
X5268Y7492D01*
X5301Y7541D01*
X5313Y7600D01*
X5301Y7659D01*
X5268Y7708D01*
X5219Y7741D01*
X5160Y7753D01*
D02*
G37*
G36*
X28830Y7553D02*
X28771Y7541D01*
X28722Y7508D01*
X28689Y7459D01*
X28677Y7400D01*
X28689Y7341D01*
X28722Y7292D01*
X28771Y7259D01*
X28830Y7247D01*
X28889Y7259D01*
X28938Y7292D01*
X28971Y7341D01*
X28983Y7400D01*
X28971Y7459D01*
X28938Y7508D01*
X28889Y7541D01*
X28830Y7553D01*
D02*
G37*
G36*
X32480Y7343D02*
X32421Y7331D01*
X32372Y7298D01*
X32339Y7249D01*
X32327Y7190D01*
X32339Y7131D01*
X32372Y7082D01*
X32421Y7049D01*
X32480Y7037D01*
X32539Y7049D01*
X32588Y7082D01*
X32621Y7131D01*
X32633Y7190D01*
X32621Y7249D01*
X32588Y7298D01*
X32539Y7331D01*
X32480Y7343D01*
D02*
G37*
G36*
X29530Y7303D02*
X29471Y7291D01*
X29422Y7258D01*
X29389Y7209D01*
X29377Y7150D01*
X29389Y7091D01*
X29422Y7042D01*
X29471Y7009D01*
X29530Y6997D01*
X29589Y7009D01*
X29638Y7042D01*
X29671Y7091D01*
X29683Y7150D01*
X29671Y7209D01*
X29638Y7258D01*
X29589Y7291D01*
X29530Y7303D01*
D02*
G37*
G36*
X21176Y7352D02*
X21118Y7340D01*
X21068Y7307D01*
X21035Y7257D01*
X21023Y7199D01*
X21035Y7140D01*
X21068Y7091D01*
X21118Y7057D01*
X21176Y7046D01*
X21235Y7057D01*
X21284Y7091D01*
X21317Y7140D01*
X21329Y7199D01*
X21317Y7257D01*
X21284Y7307D01*
X21235Y7340D01*
X21176Y7352D01*
D02*
G37*
G36*
X4720Y7543D02*
X4661Y7531D01*
X4612Y7498D01*
X4579Y7449D01*
X4567Y7390D01*
X4579Y7331D01*
X4612Y7282D01*
X4661Y7249D01*
X4720Y7237D01*
X4779Y7249D01*
X4828Y7282D01*
X4861Y7331D01*
X4873Y7390D01*
X4861Y7449D01*
X4828Y7498D01*
X4779Y7531D01*
X4720Y7543D01*
D02*
G37*
G36*
X37250Y7443D02*
X37191Y7431D01*
X37142Y7398D01*
X37109Y7349D01*
X37097Y7290D01*
X37109Y7231D01*
X37142Y7182D01*
X37191Y7149D01*
X37250Y7137D01*
X37309Y7149D01*
X37358Y7182D01*
X37391Y7231D01*
X37403Y7290D01*
X37391Y7349D01*
X37358Y7398D01*
X37309Y7431D01*
X37250Y7443D01*
D02*
G37*
G36*
X8310Y5573D02*
X8251Y5561D01*
X8202Y5528D01*
X8169Y5479D01*
X8157Y5420D01*
X8169Y5361D01*
X8202Y5312D01*
X8251Y5279D01*
X8310Y5267D01*
X8369Y5279D01*
X8418Y5312D01*
X8451Y5361D01*
X8463Y5420D01*
X8451Y5479D01*
X8418Y5528D01*
X8369Y5561D01*
X8310Y5573D01*
D02*
G37*
G36*
X3365Y5975D02*
X2655D01*
Y5265D01*
X3365D01*
Y5975D01*
D02*
G37*
G36*
X18600Y5573D02*
X18541Y5561D01*
X18492Y5528D01*
X18459Y5479D01*
X18447Y5420D01*
X18459Y5361D01*
X18492Y5312D01*
X18541Y5279D01*
X18600Y5267D01*
X18659Y5279D01*
X18708Y5312D01*
X18741Y5361D01*
X18753Y5420D01*
X18741Y5479D01*
X18708Y5528D01*
X18659Y5561D01*
X18600Y5573D01*
D02*
G37*
G36*
X8770Y5713D02*
X8711Y5701D01*
X8662Y5668D01*
X8629Y5619D01*
X8617Y5560D01*
X8629Y5501D01*
X8662Y5452D01*
X8711Y5419D01*
X8770Y5407D01*
X8829Y5419D01*
X8878Y5452D01*
X8911Y5501D01*
X8923Y5560D01*
X8911Y5619D01*
X8878Y5668D01*
X8829Y5701D01*
X8770Y5713D01*
D02*
G37*
G36*
X15320Y6729D02*
X15248Y6714D01*
X15187Y6673D01*
X15146Y6612D01*
X15131Y6540D01*
Y6271D01*
X15106Y6232D01*
X15091Y6160D01*
X15106Y6088D01*
X15147Y6027D01*
X15191Y5982D01*
Y5590D01*
X15206Y5518D01*
X15247Y5457D01*
X15308Y5416D01*
X15380Y5401D01*
X15452Y5416D01*
X15461Y5421D01*
X15860D01*
X15932Y5436D01*
X15993Y5477D01*
X16034Y5538D01*
X16049Y5610D01*
Y5852D01*
X16203Y6007D01*
X16244Y6068D01*
X16259Y6140D01*
Y6400D01*
X16244Y6472D01*
X16203Y6533D01*
X16142Y6574D01*
X16070Y6589D01*
X15798D01*
X15743Y6643D01*
X15682Y6684D01*
X15610Y6699D01*
X15416D01*
X15392Y6714D01*
X15320Y6729D01*
D02*
G37*
G36*
X37120Y5533D02*
X37061Y5521D01*
X37012Y5488D01*
X36979Y5439D01*
X36967Y5380D01*
X36979Y5321D01*
X37012Y5272D01*
X37061Y5239D01*
X37120Y5227D01*
X37179Y5239D01*
X37228Y5272D01*
X37261Y5321D01*
X37273Y5380D01*
X37261Y5439D01*
X37228Y5488D01*
X37179Y5521D01*
X37120Y5533D01*
D02*
G37*
G36*
X8180Y5021D02*
X8121Y5009D01*
X8072Y4976D01*
X8039Y4926D01*
X8027Y4868D01*
X8039Y4809D01*
X8072Y4760D01*
X8121Y4727D01*
X8180Y4715D01*
X8239Y4727D01*
X8288Y4760D01*
X8321Y4809D01*
X8333Y4868D01*
X8321Y4926D01*
X8288Y4976D01*
X8239Y5009D01*
X8180Y5021D01*
D02*
G37*
G36*
X1400Y5428D02*
X1307Y5416D01*
X1221Y5380D01*
X1147Y5323D01*
X1090Y5249D01*
X1054Y5163D01*
X1042Y5070D01*
X1054Y4977D01*
X1090Y4891D01*
X1147Y4817D01*
X1221Y4760D01*
X1307Y4724D01*
X1400Y4712D01*
X1493Y4724D01*
X1579Y4760D01*
X1653Y4817D01*
X1710Y4891D01*
X1746Y4977D01*
X1758Y5070D01*
X1746Y5163D01*
X1710Y5249D01*
X1653Y5323D01*
X1579Y5380D01*
X1493Y5416D01*
X1400Y5428D01*
D02*
G37*
G36*
X8570Y5253D02*
X8511Y5241D01*
X8462Y5208D01*
X8429Y5159D01*
X8417Y5100D01*
X8429Y5041D01*
X8462Y4992D01*
X8511Y4959D01*
X8570Y4947D01*
X8629Y4959D01*
X8678Y4992D01*
X8711Y5041D01*
X8723Y5100D01*
X8711Y5159D01*
X8678Y5208D01*
X8629Y5241D01*
X8570Y5253D01*
D02*
G37*
G36*
X10770Y5523D02*
X10711Y5511D01*
X10662Y5478D01*
X10629Y5429D01*
X10617Y5370D01*
X10629Y5311D01*
X10662Y5262D01*
X10711Y5229D01*
X10770Y5217D01*
X10829Y5229D01*
X10878Y5262D01*
X10911Y5311D01*
X10923Y5370D01*
X10911Y5429D01*
X10878Y5478D01*
X10829Y5511D01*
X10770Y5523D01*
D02*
G37*
G36*
X14700Y5883D02*
X14270D01*
X14208Y5871D01*
X14155Y5835D01*
X14119Y5782D01*
X14107Y5720D01*
Y5520D01*
X14117Y5470D01*
Y5310D01*
X14129Y5248D01*
X14165Y5195D01*
X14218Y5159D01*
X14280Y5147D01*
X14700D01*
X14762Y5159D01*
X14815Y5195D01*
X14851Y5248D01*
X14863Y5310D01*
Y5720D01*
X14851Y5782D01*
X14815Y5835D01*
X14762Y5871D01*
X14700Y5883D01*
D02*
G37*
G36*
X20790Y5563D02*
X20731Y5551D01*
X20682Y5518D01*
X20664Y5491D01*
X20606D01*
X20588Y5518D01*
X20539Y5551D01*
X20480Y5563D01*
X20421Y5551D01*
X20372Y5518D01*
X20339Y5469D01*
X20327Y5410D01*
X20339Y5351D01*
X20372Y5302D01*
X20421Y5269D01*
X20480Y5257D01*
X20539Y5269D01*
X20588Y5302D01*
X20606Y5329D01*
X20664D01*
X20682Y5302D01*
X20731Y5269D01*
X20790Y5257D01*
X20849Y5269D01*
X20898Y5302D01*
X20931Y5351D01*
X20943Y5410D01*
X20931Y5469D01*
X20898Y5518D01*
X20849Y5551D01*
X20790Y5563D01*
D02*
G37*
G36*
X31210Y6323D02*
X31151Y6311D01*
X31102Y6278D01*
X31069Y6229D01*
X31057Y6170D01*
X31069Y6111D01*
X31102Y6062D01*
X31151Y6029D01*
X31210Y6017D01*
X31269Y6029D01*
X31318Y6062D01*
X31351Y6111D01*
X31363Y6170D01*
X31351Y6229D01*
X31318Y6278D01*
X31269Y6311D01*
X31210Y6323D01*
D02*
G37*
G36*
X21176Y6312D02*
X21118Y6300D01*
X21068Y6267D01*
X21035Y6217D01*
X21023Y6159D01*
X21035Y6100D01*
X21068Y6051D01*
X21118Y6017D01*
X21176Y6006D01*
X21235Y6017D01*
X21284Y6051D01*
X21317Y6100D01*
X21329Y6159D01*
X21317Y6217D01*
X21284Y6267D01*
X21235Y6300D01*
X21176Y6312D01*
D02*
G37*
G36*
X32500Y6323D02*
X32441Y6311D01*
X32392Y6278D01*
X32359Y6229D01*
X32347Y6170D01*
X32359Y6111D01*
X32392Y6062D01*
X32441Y6029D01*
X32500Y6017D01*
X32559Y6029D01*
X32608Y6062D01*
X32641Y6111D01*
X32653Y6170D01*
X32641Y6229D01*
X32608Y6278D01*
X32559Y6311D01*
X32500Y6323D01*
D02*
G37*
G36*
X8880Y6530D02*
X8821Y6519D01*
X8772Y6485D01*
X8739Y6436D01*
X8727Y6377D01*
X8739Y6319D01*
X8739Y6318D01*
X8709Y6273D01*
X8680Y6279D01*
X8621Y6267D01*
X8572Y6234D01*
X8539Y6184D01*
X8527Y6126D01*
X8537Y6077D01*
X8517Y6047D01*
X8502Y6033D01*
X8500Y6033D01*
X8441Y6021D01*
X8392Y5988D01*
X8359Y5939D01*
X8347Y5880D01*
X8359Y5821D01*
X8392Y5772D01*
X8441Y5739D01*
X8500Y5727D01*
X8559Y5739D01*
X8608Y5772D01*
X8641Y5821D01*
X8653Y5880D01*
X8643Y5929D01*
X8663Y5958D01*
X8678Y5973D01*
X8680Y5973D01*
X8739Y5984D01*
X8788Y6018D01*
X8821Y6067D01*
X8833Y6126D01*
X8821Y6184D01*
X8821Y6185D01*
X8851Y6230D01*
X8880Y6224D01*
X8939Y6236D01*
X8988Y6269D01*
X9021Y6319D01*
X9033Y6377D01*
X9021Y6436D01*
X8988Y6485D01*
X8939Y6519D01*
X8880Y6530D01*
D02*
G37*
G36*
X18900Y6193D02*
X18841Y6181D01*
X18792Y6148D01*
X18774Y6121D01*
X18716D01*
X18698Y6148D01*
X18649Y6181D01*
X18590Y6193D01*
X18531Y6181D01*
X18482Y6148D01*
X18449Y6099D01*
X18437Y6040D01*
X18449Y5981D01*
X18482Y5932D01*
X18531Y5899D01*
X18590Y5887D01*
X18649Y5899D01*
X18698Y5932D01*
X18716Y5959D01*
X18774D01*
X18792Y5932D01*
X18841Y5899D01*
X18900Y5887D01*
X18959Y5899D01*
X19008Y5932D01*
X19041Y5981D01*
X19053Y6040D01*
X19041Y6099D01*
X19008Y6148D01*
X18959Y6181D01*
X18900Y6193D01*
D02*
G37*
G36*
X5370Y7263D02*
X5311Y7251D01*
X5262Y7218D01*
X5229Y7169D01*
X5217Y7110D01*
X5229Y7051D01*
X5262Y7002D01*
X5311Y6969D01*
X5370Y6957D01*
X5403Y6964D01*
X5444Y6923D01*
X5437Y6890D01*
X5449Y6831D01*
X5476Y6790D01*
X5482Y6782D01*
X5470Y6730D01*
X5452Y6718D01*
X5419Y6669D01*
X5407Y6610D01*
X5419Y6551D01*
X5452Y6502D01*
X5501Y6469D01*
X5560Y6457D01*
X5580Y6461D01*
X5595Y6449D01*
X5616Y6417D01*
X5607Y6370D01*
X5619Y6311D01*
X5652Y6262D01*
X5701Y6229D01*
X5760Y6217D01*
X5792Y6223D01*
X5808Y6208D01*
X5827Y6179D01*
X5817Y6130D01*
X5829Y6071D01*
X5862Y6022D01*
X5911Y5989D01*
X5970Y5977D01*
X6029Y5989D01*
X6078Y6022D01*
X6111Y6071D01*
X6123Y6130D01*
X6111Y6189D01*
X6078Y6238D01*
X6029Y6271D01*
X5970Y6283D01*
X5938Y6277D01*
X5922Y6292D01*
X5903Y6321D01*
X5913Y6370D01*
X5901Y6429D01*
X5868Y6478D01*
X5819Y6511D01*
X5760Y6523D01*
X5740Y6519D01*
X5725Y6531D01*
X5704Y6563D01*
X5713Y6610D01*
X5701Y6669D01*
X5674Y6710D01*
X5668Y6718D01*
X5680Y6770D01*
X5698Y6782D01*
X5731Y6831D01*
X5743Y6890D01*
X5731Y6949D01*
X5698Y6998D01*
X5649Y7031D01*
X5590Y7043D01*
X5557Y7036D01*
X5516Y7077D01*
X5523Y7110D01*
X5511Y7169D01*
X5478Y7218D01*
X5429Y7251D01*
X5370Y7263D01*
D02*
G37*
G36*
X30950Y5973D02*
X30891Y5961D01*
X30842Y5928D01*
X30809Y5879D01*
X30797Y5820D01*
X30809Y5761D01*
X30842Y5712D01*
X30891Y5679D01*
X30950Y5667D01*
X31009Y5679D01*
X31058Y5712D01*
X31091Y5761D01*
X31103Y5820D01*
X31091Y5879D01*
X31058Y5928D01*
X31009Y5961D01*
X30950Y5973D01*
D02*
G37*
G36*
X31350Y5883D02*
X31291Y5871D01*
X31242Y5838D01*
X31209Y5789D01*
X31197Y5730D01*
X31209Y5671D01*
X31242Y5622D01*
X31291Y5589D01*
X31350Y5577D01*
X31409Y5589D01*
X31458Y5622D01*
X31491Y5671D01*
X31503Y5730D01*
X31491Y5789D01*
X31458Y5838D01*
X31409Y5871D01*
X31350Y5883D01*
D02*
G37*
G36*
X37960Y6418D02*
X37867Y6406D01*
X37781Y6370D01*
X37707Y6313D01*
X37650Y6239D01*
X37614Y6153D01*
X37602Y6060D01*
X37614Y5967D01*
X37650Y5881D01*
X37707Y5807D01*
X37781Y5750D01*
X37867Y5714D01*
X37960Y5702D01*
X38053Y5714D01*
X38139Y5750D01*
X38213Y5807D01*
X38270Y5881D01*
X38306Y5967D01*
X38318Y6060D01*
X38306Y6153D01*
X38270Y6239D01*
X38213Y6313D01*
X38139Y6370D01*
X38053Y6406D01*
X37960Y6418D01*
D02*
G37*
G36*
X31990Y6173D02*
X31931Y6161D01*
X31882Y6128D01*
X31849Y6079D01*
X31837Y6020D01*
X31849Y5961D01*
X31882Y5912D01*
X31931Y5879D01*
X31990Y5867D01*
X32049Y5879D01*
X32098Y5912D01*
X32131Y5961D01*
X32143Y6020D01*
X32131Y6079D01*
X32098Y6128D01*
X32049Y6161D01*
X31990Y6173D01*
D02*
G37*
G36*
X1400Y6428D02*
X1307Y6416D01*
X1221Y6380D01*
X1147Y6323D01*
X1090Y6249D01*
X1054Y6163D01*
X1042Y6070D01*
X1054Y5977D01*
X1090Y5891D01*
X1147Y5817D01*
X1221Y5760D01*
X1307Y5724D01*
X1400Y5712D01*
X1493Y5724D01*
X1579Y5760D01*
X1653Y5817D01*
X1710Y5891D01*
X1746Y5977D01*
X1758Y6070D01*
X1746Y6163D01*
X1710Y6249D01*
X1653Y6323D01*
X1579Y6380D01*
X1493Y6416D01*
X1400Y6428D01*
D02*
G37*
G36*
X12420Y22443D02*
X12361Y22431D01*
X12312Y22398D01*
X12279Y22349D01*
X12267Y22290D01*
X12279Y22231D01*
X12312Y22182D01*
X12361Y22149D01*
X12363Y22145D01*
X12339Y22109D01*
X12327Y22050D01*
X12339Y21991D01*
X12372Y21942D01*
X12421Y21909D01*
X12480Y21897D01*
X12539Y21909D01*
X12588Y21942D01*
X12621Y21991D01*
X12633Y22050D01*
X12621Y22109D01*
X12588Y22158D01*
X12577Y22165D01*
X12561Y22231D01*
X12573Y22290D01*
X12561Y22349D01*
X12528Y22398D01*
X12479Y22431D01*
X12420Y22443D01*
D02*
G37*
G36*
X13540Y22173D02*
X13481Y22161D01*
X13432Y22128D01*
X13399Y22079D01*
X13387Y22020D01*
X13399Y21961D01*
X13432Y21912D01*
X13481Y21879D01*
X13540Y21867D01*
X13599Y21879D01*
X13648Y21912D01*
X13681Y21961D01*
X13693Y22020D01*
X13681Y22079D01*
X13648Y22128D01*
X13599Y22161D01*
X13540Y22173D01*
D02*
G37*
G36*
X15350Y22483D02*
X15291Y22471D01*
X15242Y22438D01*
X15209Y22389D01*
X15197Y22330D01*
X15209Y22271D01*
X15242Y22222D01*
X15291Y22189D01*
X15350Y22177D01*
X15387Y22184D01*
X15397Y22178D01*
X15426Y22145D01*
X15417Y22100D01*
X15429Y22041D01*
X15462Y21992D01*
X15511Y21959D01*
X15570Y21947D01*
X15629Y21959D01*
X15678Y21992D01*
X15711Y22041D01*
X15723Y22100D01*
X15711Y22159D01*
X15678Y22208D01*
X15629Y22241D01*
X15570Y22253D01*
X15533Y22246D01*
X15523Y22252D01*
X15494Y22285D01*
X15503Y22330D01*
X15491Y22389D01*
X15458Y22438D01*
X15409Y22471D01*
X15350Y22483D01*
D02*
G37*
G36*
X7050Y22273D02*
X6991Y22261D01*
X6942Y22228D01*
X6909Y22179D01*
X6897Y22120D01*
X6909Y22061D01*
X6942Y22012D01*
X6991Y21979D01*
X7050Y21967D01*
X7109Y21979D01*
X7158Y22012D01*
X7191Y22061D01*
X7203Y22120D01*
X7191Y22179D01*
X7158Y22228D01*
X7109Y22261D01*
X7050Y22273D01*
D02*
G37*
G36*
X4860D02*
X4801Y22261D01*
X4752Y22228D01*
X4719Y22179D01*
X4707Y22120D01*
X4719Y22061D01*
X4752Y22012D01*
X4801Y21979D01*
X4860Y21967D01*
X4919Y21979D01*
X4968Y22012D01*
X5001Y22061D01*
X5013Y22120D01*
X5001Y22179D01*
X4968Y22228D01*
X4919Y22261D01*
X4860Y22273D01*
D02*
G37*
G36*
X17730Y22113D02*
X17671Y22101D01*
X17622Y22068D01*
X17589Y22019D01*
X17577Y21960D01*
X17589Y21901D01*
X17622Y21852D01*
X17671Y21819D01*
X17730Y21807D01*
X17789Y21819D01*
X17838Y21852D01*
X17871Y21901D01*
X17883Y21960D01*
X17871Y22019D01*
X17838Y22068D01*
X17789Y22101D01*
X17730Y22113D01*
D02*
G37*
G36*
X25210Y21933D02*
X25151Y21921D01*
X25102Y21888D01*
X25069Y21839D01*
X25057Y21780D01*
X25069Y21721D01*
X25102Y21672D01*
X25151Y21639D01*
X25210Y21627D01*
X25269Y21639D01*
X25318Y21672D01*
X25351Y21721D01*
X25363Y21780D01*
X25351Y21839D01*
X25318Y21888D01*
X25269Y21921D01*
X25210Y21933D01*
D02*
G37*
G36*
X11690Y22363D02*
X11280D01*
X11218Y22351D01*
X11165Y22315D01*
X10935Y22085D01*
X10899Y22032D01*
X10887Y21970D01*
Y21690D01*
X10899Y21628D01*
X10935Y21575D01*
X10945Y21565D01*
X10998Y21529D01*
X11060Y21517D01*
X11110Y21527D01*
X11710D01*
X11772Y21539D01*
X11825Y21575D01*
X11861Y21628D01*
X11873Y21690D01*
X11872Y21695D01*
X11873Y21700D01*
Y22180D01*
X11861Y22242D01*
X11825Y22295D01*
X11805Y22315D01*
X11752Y22351D01*
X11690Y22363D01*
D02*
G37*
G36*
X37960Y22418D02*
X37867Y22406D01*
X37781Y22370D01*
X37707Y22313D01*
X37650Y22239D01*
X37614Y22153D01*
X37602Y22060D01*
X37614Y21967D01*
X37650Y21881D01*
X37707Y21807D01*
X37781Y21750D01*
X37867Y21714D01*
X37960Y21702D01*
X38053Y21714D01*
X38139Y21750D01*
X38213Y21807D01*
X38270Y21881D01*
X38306Y21967D01*
X38318Y22060D01*
X38306Y22153D01*
X38270Y22239D01*
X38213Y22313D01*
X38139Y22370D01*
X38053Y22406D01*
X37960Y22418D01*
D02*
G37*
G36*
X18400Y22063D02*
X18341Y22051D01*
X18292Y22018D01*
X18259Y21969D01*
X18247Y21910D01*
X18259Y21851D01*
X18292Y21802D01*
X18341Y21769D01*
X18400Y21757D01*
X18459Y21769D01*
X18508Y21802D01*
X18541Y21851D01*
X18553Y21910D01*
X18541Y21969D01*
X18508Y22018D01*
X18459Y22051D01*
X18400Y22063D01*
D02*
G37*
G36*
X12080Y22023D02*
X12021Y22011D01*
X11972Y21978D01*
X11939Y21929D01*
X11927Y21870D01*
X11939Y21811D01*
X11972Y21762D01*
X12021Y21729D01*
X12080Y21717D01*
X12139Y21729D01*
X12188Y21762D01*
X12221Y21811D01*
X12233Y21870D01*
X12221Y21929D01*
X12188Y21978D01*
X12139Y22011D01*
X12080Y22023D01*
D02*
G37*
G36*
X27060Y22443D02*
X27002Y22432D01*
X26952Y22399D01*
X26919Y22349D01*
X26907Y22290D01*
X26861Y22268D01*
X26832Y22262D01*
X26783Y22229D01*
X26749Y22179D01*
X26738Y22121D01*
X26749Y22062D01*
X26783Y22013D01*
X26832Y21979D01*
X26891Y21968D01*
X26949Y21979D01*
X26999Y22013D01*
X27032Y22062D01*
X27044Y22121D01*
X27090Y22143D01*
X27119Y22149D01*
X27169Y22182D01*
X27202Y22232D01*
X27213Y22290D01*
X27202Y22349D01*
X27169Y22399D01*
X27119Y22432D01*
X27060Y22443D01*
D02*
G37*
G36*
X14200Y23193D02*
X14141Y23181D01*
X14092Y23148D01*
X14059Y23099D01*
X14047Y23040D01*
X14059Y22981D01*
X14092Y22932D01*
X14141Y22899D01*
X14200Y22887D01*
X14259Y22899D01*
X14308Y22932D01*
X14341Y22981D01*
X14353Y23040D01*
X14341Y23099D01*
X14308Y23148D01*
X14259Y23181D01*
X14200Y23193D01*
D02*
G37*
G36*
X11040Y23063D02*
X10981Y23051D01*
X10932Y23018D01*
X10899Y22969D01*
X10887Y22910D01*
X10899Y22851D01*
X10932Y22802D01*
X10981Y22769D01*
X11040Y22757D01*
X11099Y22769D01*
X11148Y22802D01*
X11181Y22851D01*
X11193Y22910D01*
X11181Y22969D01*
X11148Y23018D01*
X11099Y23051D01*
X11040Y23063D01*
D02*
G37*
G36*
X4900Y23273D02*
X4841Y23261D01*
X4792Y23228D01*
X4759Y23179D01*
X4747Y23120D01*
X4759Y23061D01*
X4792Y23012D01*
X4841Y22979D01*
X4900Y22967D01*
X4959Y22979D01*
X5008Y23012D01*
X5041Y23061D01*
X5053Y23120D01*
X5041Y23179D01*
X5008Y23228D01*
X4959Y23261D01*
X4900Y23273D01*
D02*
G37*
G36*
X34010Y23313D02*
X33951Y23301D01*
X33902Y23268D01*
X33869Y23219D01*
X33857Y23160D01*
X33869Y23101D01*
X33902Y23052D01*
X33951Y23019D01*
X34010Y23007D01*
X34069Y23019D01*
X34118Y23052D01*
X34151Y23101D01*
X34163Y23160D01*
X34151Y23219D01*
X34118Y23268D01*
X34069Y23301D01*
X34010Y23313D01*
D02*
G37*
G36*
X6980Y23273D02*
X6921Y23261D01*
X6872Y23228D01*
X6839Y23179D01*
X6827Y23120D01*
X6839Y23061D01*
X6872Y23012D01*
X6921Y22979D01*
X6980Y22967D01*
X7039Y22979D01*
X7088Y23012D01*
X7121Y23061D01*
X7133Y23120D01*
X7121Y23179D01*
X7088Y23228D01*
X7039Y23261D01*
X6980Y23273D01*
D02*
G37*
G36*
X37960Y23418D02*
X37867Y23406D01*
X37781Y23370D01*
X37707Y23313D01*
X37650Y23239D01*
X37614Y23153D01*
X37602Y23060D01*
X37614Y22967D01*
X37650Y22881D01*
X37707Y22807D01*
X37781Y22750D01*
X37867Y22714D01*
X37960Y22702D01*
X38053Y22714D01*
X38139Y22750D01*
X38213Y22807D01*
X38270Y22881D01*
X38306Y22967D01*
X38318Y23060D01*
X38306Y23153D01*
X38270Y23239D01*
X38213Y23313D01*
X38139Y23370D01*
X38053Y23406D01*
X37960Y23418D01*
D02*
G37*
G36*
X15750Y22663D02*
X15691Y22651D01*
X15642Y22618D01*
X15609Y22569D01*
X15597Y22510D01*
X15609Y22451D01*
X15642Y22402D01*
X15691Y22369D01*
X15750Y22357D01*
X15809Y22369D01*
X15858Y22402D01*
X15891Y22451D01*
X15903Y22510D01*
X15891Y22569D01*
X15858Y22618D01*
X15809Y22651D01*
X15750Y22663D01*
D02*
G37*
G36*
X27730Y22553D02*
X27671Y22541D01*
X27622Y22508D01*
X27588Y22458D01*
X27577Y22400D01*
X27530Y22377D01*
X27501Y22371D01*
X27452Y22338D01*
X27419Y22289D01*
X27407Y22230D01*
X27419Y22171D01*
X27452Y22122D01*
X27501Y22089D01*
X27560Y22077D01*
X27619Y22089D01*
X27668Y22122D01*
X27701Y22171D01*
X27713Y22230D01*
X27759Y22253D01*
X27788Y22258D01*
X27838Y22292D01*
X27871Y22341D01*
X27883Y22400D01*
X27871Y22458D01*
X27838Y22508D01*
X27788Y22541D01*
X27730Y22553D01*
D02*
G37*
G36*
X14200Y22723D02*
X14141Y22711D01*
X14092Y22678D01*
X14059Y22629D01*
X14047Y22570D01*
X14059Y22511D01*
X14092Y22462D01*
X14141Y22429D01*
X14200Y22417D01*
X14259Y22429D01*
X14308Y22462D01*
X14341Y22511D01*
X14353Y22570D01*
X14341Y22629D01*
X14308Y22678D01*
X14259Y22711D01*
X14200Y22723D01*
D02*
G37*
G36*
X20380Y22923D02*
X20321Y22911D01*
X20272Y22878D01*
X20239Y22829D01*
X20227Y22770D01*
X20239Y22711D01*
X20272Y22662D01*
X20321Y22629D01*
X20380Y22617D01*
X20439Y22629D01*
X20465Y22647D01*
X20522Y22652D01*
X20571Y22619D01*
X20630Y22607D01*
X20689Y22619D01*
X20738Y22652D01*
X20771Y22701D01*
X20783Y22760D01*
X20771Y22819D01*
X20738Y22868D01*
X20689Y22901D01*
X20630Y22913D01*
X20571Y22901D01*
X20545Y22883D01*
X20488Y22878D01*
X20439Y22911D01*
X20380Y22923D01*
D02*
G37*
G36*
X25270Y22803D02*
X25211Y22791D01*
X25162Y22758D01*
X25129Y22709D01*
X25117Y22650D01*
X25129Y22591D01*
X25162Y22542D01*
X25211Y22509D01*
X25270Y22497D01*
X25329Y22509D01*
X25378Y22542D01*
X25411Y22591D01*
X25423Y22650D01*
X25411Y22709D01*
X25378Y22758D01*
X25329Y22791D01*
X25270Y22803D01*
D02*
G37*
G36*
X26080Y21003D02*
X26021Y20991D01*
X25972Y20958D01*
X25939Y20909D01*
X25927Y20850D01*
X25939Y20791D01*
X25972Y20742D01*
X26021Y20709D01*
X26080Y20697D01*
X26139Y20709D01*
X26188Y20742D01*
X26221Y20791D01*
X26233Y20850D01*
X26221Y20909D01*
X26188Y20958D01*
X26139Y20991D01*
X26080Y21003D01*
D02*
G37*
G36*
X12200Y20783D02*
X12141Y20771D01*
X12092Y20738D01*
X12059Y20689D01*
X12047Y20630D01*
X12059Y20571D01*
X12092Y20522D01*
X12141Y20489D01*
X12200Y20477D01*
X12259Y20489D01*
X12308Y20522D01*
X12341Y20571D01*
X12353Y20630D01*
X12341Y20689D01*
X12308Y20738D01*
X12259Y20771D01*
X12200Y20783D01*
D02*
G37*
G36*
X37960Y21418D02*
X37867Y21406D01*
X37781Y21370D01*
X37707Y21313D01*
X37650Y21239D01*
X37614Y21153D01*
X37602Y21060D01*
X37614Y20967D01*
X37650Y20881D01*
X37707Y20807D01*
X37781Y20750D01*
X37867Y20714D01*
X37960Y20702D01*
X38053Y20714D01*
X38139Y20750D01*
X38213Y20807D01*
X38270Y20881D01*
X38306Y20967D01*
X38318Y21060D01*
X38306Y21153D01*
X38270Y21239D01*
X38213Y21313D01*
X38139Y21370D01*
X38053Y21406D01*
X37960Y21418D01*
D02*
G37*
G36*
X7670Y21223D02*
X7611Y21211D01*
X7562Y21178D01*
X7529Y21129D01*
X7517Y21070D01*
X7529Y21011D01*
X7562Y20962D01*
X7611Y20929D01*
X7670Y20917D01*
X7729Y20929D01*
X7778Y20962D01*
X7811Y21011D01*
X7823Y21070D01*
X7811Y21129D01*
X7778Y21178D01*
X7729Y21211D01*
X7670Y21223D01*
D02*
G37*
G36*
X16370Y22033D02*
X16311Y22021D01*
X16262Y21988D01*
X16229Y21939D01*
X16217Y21880D01*
Y21650D01*
X16229Y21591D01*
X16239Y21576D01*
X16132Y21468D01*
X16099Y21419D01*
X16087Y21360D01*
X16099Y21301D01*
X16132Y21252D01*
X16181Y21219D01*
X16240Y21207D01*
X16299Y21219D01*
X16348Y21252D01*
X16450Y21354D01*
X16537Y21267D01*
Y21000D01*
X16549Y20941D01*
X16582Y20892D01*
X16592Y20882D01*
X16641Y20849D01*
X16700Y20837D01*
X16759Y20849D01*
X16808Y20882D01*
X16841Y20931D01*
X16853Y20990D01*
X16843Y21040D01*
Y21330D01*
X16831Y21389D01*
X16798Y21438D01*
X16523Y21713D01*
Y21880D01*
X16511Y21939D01*
X16478Y21988D01*
X16429Y22021D01*
X16370Y22033D01*
D02*
G37*
G36*
X28110Y20673D02*
X28051Y20661D01*
X28002Y20628D01*
X27969Y20579D01*
X27957Y20520D01*
X27968Y20465D01*
X27960Y20455D01*
X27929Y20431D01*
X27929Y20431D01*
X27870Y20443D01*
X27811Y20431D01*
X27762Y20398D01*
X27729Y20349D01*
X27717Y20290D01*
X27729Y20231D01*
X27762Y20182D01*
X27811Y20149D01*
X27870Y20137D01*
X27929Y20149D01*
X27978Y20182D01*
X28011Y20231D01*
X28023Y20290D01*
X28012Y20345D01*
X28020Y20355D01*
X28051Y20379D01*
X28051Y20379D01*
X28110Y20367D01*
X28169Y20379D01*
X28218Y20412D01*
X28251Y20461D01*
X28263Y20520D01*
X28251Y20579D01*
X28218Y20628D01*
X28169Y20661D01*
X28110Y20673D01*
D02*
G37*
G36*
X29390Y20233D02*
X29331Y20221D01*
X29282Y20188D01*
X29249Y20139D01*
X29237Y20080D01*
X29249Y20021D01*
X29282Y19972D01*
X29331Y19939D01*
X29390Y19927D01*
X29439Y19937D01*
X29468Y19918D01*
X29483Y19902D01*
X29477Y19870D01*
X29483Y19842D01*
X29438Y19812D01*
X29409Y19831D01*
X29350Y19843D01*
X29291Y19831D01*
X29242Y19798D01*
X29209Y19749D01*
X29197Y19690D01*
X29209Y19631D01*
X29242Y19582D01*
X29291Y19549D01*
X29350Y19537D01*
X29409Y19549D01*
X29458Y19582D01*
X29491Y19631D01*
X29503Y19690D01*
X29497Y19718D01*
X29542Y19748D01*
X29571Y19729D01*
X29630Y19717D01*
X29689Y19729D01*
X29738Y19762D01*
X29771Y19811D01*
X29783Y19870D01*
X29771Y19929D01*
X29738Y19978D01*
X29689Y20011D01*
X29630Y20023D01*
X29581Y20013D01*
X29552Y20032D01*
X29537Y20048D01*
X29543Y20080D01*
X29531Y20139D01*
X29498Y20188D01*
X29449Y20221D01*
X29390Y20233D01*
D02*
G37*
G36*
X28670Y19853D02*
X28611Y19841D01*
X28562Y19808D01*
X28555Y19798D01*
X28495D01*
X28488Y19808D01*
X28439Y19841D01*
X28380Y19853D01*
X28321Y19841D01*
X28272Y19808D01*
X28239Y19759D01*
X28227Y19700D01*
X28239Y19641D01*
X28272Y19592D01*
X28321Y19559D01*
X28380Y19547D01*
X28439Y19559D01*
X28488Y19592D01*
X28495Y19602D01*
X28555D01*
X28562Y19592D01*
X28611Y19559D01*
X28670Y19547D01*
X28729Y19559D01*
X28778Y19592D01*
X28811Y19641D01*
X28823Y19700D01*
X28811Y19759D01*
X28778Y19808D01*
X28729Y19841D01*
X28670Y19853D01*
D02*
G37*
G36*
X12850Y20003D02*
X12791Y19991D01*
X12742Y19958D01*
X12709Y19909D01*
X12705Y19890D01*
X12659Y19861D01*
X12600Y19873D01*
X12541Y19861D01*
X12492Y19828D01*
X12459Y19779D01*
X12447Y19720D01*
X12459Y19661D01*
X12492Y19612D01*
X12541Y19579D01*
X12600Y19567D01*
X12659Y19579D01*
X12708Y19612D01*
X12741Y19661D01*
X12745Y19680D01*
X12791Y19709D01*
X12850Y19697D01*
X12909Y19709D01*
X12958Y19742D01*
X12991Y19791D01*
X13003Y19850D01*
X12991Y19909D01*
X12958Y19958D01*
X12909Y19991D01*
X12850Y20003D01*
D02*
G37*
G36*
X15530Y20713D02*
X15471Y20701D01*
X15422Y20668D01*
X15389Y20619D01*
X15377Y20560D01*
X15389Y20501D01*
X15422Y20452D01*
X15471Y20419D01*
X15530Y20407D01*
X15589Y20419D01*
X15638Y20452D01*
X15671Y20501D01*
X15683Y20560D01*
X15671Y20619D01*
X15638Y20668D01*
X15589Y20701D01*
X15530Y20713D01*
D02*
G37*
G36*
X34720Y20203D02*
X34661Y20191D01*
X34612Y20158D01*
X34579Y20109D01*
X34567Y20050D01*
X34575Y20011D01*
X34543Y19971D01*
X34536Y19968D01*
X34510Y19973D01*
X34494Y19970D01*
X34451Y20012D01*
X34453Y20020D01*
X34441Y20079D01*
X34408Y20128D01*
X34359Y20161D01*
X34300Y20173D01*
X34241Y20161D01*
X34192Y20128D01*
X34159Y20079D01*
X34147Y20020D01*
X34158Y19965D01*
X34150Y19955D01*
X34119Y19931D01*
X34119Y19931D01*
X34060Y19943D01*
X34001Y19931D01*
X33952Y19898D01*
X33919Y19849D01*
X33907Y19790D01*
X33919Y19731D01*
X33952Y19682D01*
X34001Y19649D01*
X34060Y19637D01*
X34119Y19649D01*
X34168Y19682D01*
X34201Y19731D01*
X34213Y19790D01*
X34202Y19845D01*
X34210Y19855D01*
X34241Y19879D01*
X34241Y19879D01*
X34300Y19867D01*
X34316Y19870D01*
X34359Y19828D01*
X34357Y19820D01*
X34369Y19761D01*
X34402Y19712D01*
X34451Y19679D01*
X34510Y19667D01*
X34569Y19679D01*
X34618Y19712D01*
X34651Y19761D01*
X34663Y19820D01*
X34655Y19859D01*
X34687Y19899D01*
X34694Y19902D01*
X34720Y19897D01*
X34779Y19909D01*
X34828Y19942D01*
X34861Y19991D01*
X34873Y20050D01*
X34861Y20109D01*
X34828Y20158D01*
X34779Y20191D01*
X34720Y20203D01*
D02*
G37*
G36*
X17960Y21353D02*
X17901Y21341D01*
X17852Y21308D01*
X17819Y21259D01*
X17807Y21200D01*
X17819Y21141D01*
X17852Y21092D01*
X17901Y21059D01*
X17960Y21047D01*
X18019Y21059D01*
X18068Y21092D01*
X18101Y21141D01*
X18113Y21200D01*
X18101Y21259D01*
X18068Y21308D01*
X18019Y21341D01*
X17960Y21353D01*
D02*
G37*
G36*
X14390Y21643D02*
X14331Y21631D01*
X14282Y21598D01*
X14249Y21549D01*
X14237Y21490D01*
X14249Y21431D01*
X14282Y21382D01*
X14331Y21349D01*
X14390Y21337D01*
X14449Y21349D01*
X14498Y21382D01*
X14531Y21431D01*
X14543Y21490D01*
X14531Y21549D01*
X14498Y21598D01*
X14449Y21631D01*
X14390Y21643D01*
D02*
G37*
G36*
X21350Y21613D02*
X21291Y21601D01*
X21242Y21568D01*
X21209Y21519D01*
X21197Y21460D01*
X21209Y21401D01*
X21242Y21352D01*
X21291Y21319D01*
X21350Y21307D01*
X21409Y21319D01*
X21458Y21352D01*
X21491Y21401D01*
X21503Y21460D01*
X21491Y21519D01*
X21458Y21568D01*
X21409Y21601D01*
X21350Y21613D01*
D02*
G37*
G36*
X7010Y21773D02*
X6951Y21761D01*
X6902Y21728D01*
X6869Y21679D01*
X6857Y21620D01*
X6869Y21561D01*
X6902Y21512D01*
X6951Y21479D01*
X7010Y21467D01*
X7069Y21479D01*
X7118Y21512D01*
X7151Y21561D01*
X7163Y21620D01*
X7151Y21679D01*
X7118Y21728D01*
X7069Y21761D01*
X7010Y21773D01*
D02*
G37*
G36*
X13117Y21561D02*
X13058Y21550D01*
X13014Y21520D01*
X12968Y21498D01*
X12919Y21531D01*
X12860Y21543D01*
X12801Y21531D01*
X12752Y21498D01*
X12719Y21449D01*
X12707Y21390D01*
X12719Y21331D01*
X12748Y21288D01*
X12729Y21259D01*
X12717Y21200D01*
X12729Y21141D01*
X12745Y21117D01*
X12758Y21080D01*
X12745Y21043D01*
X12729Y21019D01*
X12717Y20960D01*
X12729Y20901D01*
X12739Y20886D01*
X12718Y20829D01*
X12709Y20827D01*
X12688Y20858D01*
X12639Y20891D01*
X12580Y20903D01*
X12521Y20891D01*
X12472Y20858D01*
X12439Y20809D01*
X12427Y20750D01*
X12439Y20691D01*
X12472Y20642D01*
X12482Y20635D01*
Y20575D01*
X12472Y20568D01*
X12439Y20519D01*
X12427Y20460D01*
X12439Y20401D01*
X12472Y20352D01*
X12521Y20319D01*
X12553Y20312D01*
X12568Y20309D01*
Y20259D01*
X12554Y20256D01*
X12531Y20251D01*
X12482Y20218D01*
X12449Y20169D01*
X12437Y20110D01*
X12449Y20051D01*
X12482Y20002D01*
X12531Y19969D01*
X12590Y19957D01*
X12649Y19969D01*
X12698Y20002D01*
X12731Y20051D01*
X12738Y20084D01*
X12790Y20110D01*
X12791Y20109D01*
X12850Y20097D01*
X12909Y20109D01*
X12958Y20142D01*
X12991Y20191D01*
X12997Y20219D01*
X13047Y20215D01*
Y20020D01*
X13059Y19958D01*
X13095Y19905D01*
X13148Y19869D01*
X13210Y19857D01*
X13470D01*
X13532Y19869D01*
X13585Y19905D01*
X13621Y19958D01*
X13633Y20020D01*
X13621Y20082D01*
X13592Y20125D01*
Y20190D01*
X13611Y20218D01*
X13623Y20277D01*
X13611Y20335D01*
X13592Y20364D01*
Y20446D01*
X13611Y20475D01*
X13623Y20533D01*
X13611Y20592D01*
X13592Y20620D01*
Y20685D01*
X13621Y20728D01*
X13633Y20790D01*
X13621Y20852D01*
X13585Y20905D01*
X13585Y20905D01*
X13532Y20941D01*
X13470Y20953D01*
X13210D01*
X13148Y20941D01*
X13095Y20905D01*
X13059Y20852D01*
X13047Y20790D01*
Y20540D01*
Y20285D01*
X12997Y20281D01*
X12991Y20309D01*
X12958Y20358D01*
X12909Y20391D01*
X12850Y20403D01*
X12791Y20391D01*
X12761Y20371D01*
X12730Y20395D01*
X12722Y20405D01*
X12733Y20460D01*
X12724Y20507D01*
X12752Y20534D01*
X12764Y20540D01*
X12781Y20529D01*
X12840Y20517D01*
X12899Y20529D01*
X12948Y20562D01*
X12981Y20611D01*
X12993Y20670D01*
X12981Y20729D01*
X12949Y20777D01*
X12948Y20779D01*
X12953Y20835D01*
X12978Y20852D01*
X13011Y20901D01*
X13023Y20960D01*
X13011Y21019D01*
X12995Y21043D01*
X12982Y21080D01*
X12995Y21117D01*
X13011Y21141D01*
X13023Y21200D01*
X13016Y21235D01*
X13058Y21267D01*
X13117Y21255D01*
X13175Y21267D01*
X13225Y21300D01*
X13258Y21350D01*
X13270Y21408D01*
X13258Y21467D01*
X13225Y21516D01*
X13175Y21550D01*
X13117Y21561D01*
D02*
G37*
G36*
X8550Y23363D02*
X8488Y23351D01*
X8435Y23315D01*
X8399Y23262D01*
X8387Y23200D01*
X8388Y23195D01*
X8387Y23190D01*
X8397Y23140D01*
Y22980D01*
Y22580D01*
X8387Y22530D01*
X8399Y22468D01*
X8435Y22415D01*
X8488Y22379D01*
X8550Y22367D01*
X8772D01*
X8827Y22312D01*
Y22030D01*
Y21650D01*
X8839Y21588D01*
X8875Y21535D01*
X8928Y21499D01*
X8990Y21487D01*
X9540D01*
X9602Y21499D01*
X9655Y21535D01*
X9691Y21588D01*
X9703Y21650D01*
Y22030D01*
Y22380D01*
Y22760D01*
X9691Y22822D01*
X9655Y22875D01*
X9602Y22911D01*
X9540Y22923D01*
X9048D01*
X8925Y23045D01*
X8905Y23075D01*
X8665Y23315D01*
X8612Y23351D01*
X8550Y23363D01*
D02*
G37*
G36*
X30965Y22005D02*
X30255D01*
Y21295D01*
X30965D01*
Y22005D01*
D02*
G37*
G36*
X32610Y22008D02*
X32517Y21996D01*
X32431Y21960D01*
X32357Y21903D01*
X32300Y21829D01*
X32264Y21743D01*
X32252Y21650D01*
X32264Y21557D01*
X32300Y21471D01*
X32357Y21397D01*
X32431Y21340D01*
X32517Y21304D01*
X32610Y21292D01*
X32703Y21304D01*
X32789Y21340D01*
X32863Y21397D01*
X32920Y21471D01*
X32956Y21557D01*
X32968Y21650D01*
X32956Y21743D01*
X32920Y21829D01*
X32863Y21903D01*
X32789Y21960D01*
X32703Y21996D01*
X32610Y22008D01*
D02*
G37*
G36*
X31610D02*
X31517Y21996D01*
X31431Y21960D01*
X31357Y21903D01*
X31300Y21829D01*
X31264Y21743D01*
X31252Y21650D01*
X31264Y21557D01*
X31300Y21471D01*
X31357Y21397D01*
X31431Y21340D01*
X31517Y21304D01*
X31610Y21292D01*
X31703Y21304D01*
X31789Y21340D01*
X31863Y21397D01*
X31920Y21471D01*
X31956Y21557D01*
X31968Y21650D01*
X31956Y21743D01*
X31920Y21829D01*
X31863Y21903D01*
X31789Y21960D01*
X31703Y21996D01*
X31610Y22008D01*
D02*
G37*
G36*
X33610D02*
X33517Y21996D01*
X33431Y21960D01*
X33357Y21903D01*
X33300Y21829D01*
X33264Y21743D01*
X33252Y21650D01*
X33264Y21557D01*
X33300Y21471D01*
X33357Y21397D01*
X33431Y21340D01*
X33517Y21304D01*
X33610Y21292D01*
X33703Y21304D01*
X33789Y21340D01*
X33863Y21397D01*
X33920Y21471D01*
X33956Y21557D01*
X33968Y21650D01*
X33956Y21743D01*
X33920Y21829D01*
X33863Y21903D01*
X33789Y21960D01*
X33703Y21996D01*
X33610Y22008D01*
D02*
G37*
G36*
X35610D02*
X35517Y21996D01*
X35431Y21960D01*
X35357Y21903D01*
X35300Y21829D01*
X35264Y21743D01*
X35252Y21650D01*
X35264Y21557D01*
X35300Y21471D01*
X35357Y21397D01*
X35431Y21340D01*
X35517Y21304D01*
X35610Y21292D01*
X35703Y21304D01*
X35789Y21340D01*
X35863Y21397D01*
X35920Y21471D01*
X35956Y21557D01*
X35968Y21650D01*
X35956Y21743D01*
X35920Y21829D01*
X35863Y21903D01*
X35789Y21960D01*
X35703Y21996D01*
X35610Y22008D01*
D02*
G37*
G36*
X34610D02*
X34517Y21996D01*
X34431Y21960D01*
X34357Y21903D01*
X34300Y21829D01*
X34264Y21743D01*
X34252Y21650D01*
X34264Y21557D01*
X34300Y21471D01*
X34357Y21397D01*
X34431Y21340D01*
X34517Y21304D01*
X34610Y21292D01*
X34703Y21304D01*
X34789Y21340D01*
X34863Y21397D01*
X34920Y21471D01*
X34956Y21557D01*
X34968Y21650D01*
X34956Y21743D01*
X34920Y21829D01*
X34863Y21903D01*
X34789Y21960D01*
X34703Y21996D01*
X34610Y22008D01*
D02*
G37*
G36*
X4480Y26618D02*
X4372Y26604D01*
X4271Y26562D01*
X4184Y26495D01*
X4118Y26409D01*
X4076Y26308D01*
X4062Y26200D01*
X4076Y26092D01*
X4118Y25991D01*
X4184Y25904D01*
X4271Y25838D01*
X4372Y25796D01*
X4480Y25782D01*
X4588Y25796D01*
X4689Y25838D01*
X4775Y25904D01*
X4842Y25991D01*
X4884Y26092D01*
X4898Y26200D01*
X4884Y26308D01*
X4842Y26409D01*
X4775Y26495D01*
X4689Y26562D01*
X4588Y26604D01*
X4480Y26618D01*
D02*
G37*
G36*
X13540Y26623D02*
X13481Y26611D01*
X13432Y26578D01*
X13399Y26529D01*
X13387Y26470D01*
X13399Y26411D01*
X13432Y26362D01*
Y26358D01*
X13399Y26309D01*
X13387Y26250D01*
X13399Y26191D01*
X13432Y26142D01*
Y26138D01*
X13399Y26089D01*
X13387Y26030D01*
X13399Y25971D01*
X13432Y25922D01*
Y25918D01*
X13399Y25869D01*
X13387Y25810D01*
X13399Y25751D01*
X13399Y25751D01*
X13363Y25715D01*
X13339Y25731D01*
X13280Y25743D01*
X13221Y25731D01*
X13172Y25698D01*
X13139Y25649D01*
X13127Y25590D01*
X13139Y25531D01*
X13172Y25482D01*
X13221Y25449D01*
X13280Y25437D01*
X13339Y25449D01*
X13388Y25482D01*
X13448Y25481D01*
X13481Y25459D01*
X13540Y25447D01*
X13599Y25459D01*
X13648Y25492D01*
X13650Y25495D01*
X13700D01*
X13702Y25492D01*
X13751Y25459D01*
X13810Y25447D01*
X13869Y25459D01*
X13918Y25492D01*
X13951Y25541D01*
X13963Y25600D01*
X13951Y25659D01*
X13922Y25703D01*
X13951Y25746D01*
X13963Y25805D01*
X13951Y25864D01*
X13919Y25912D01*
X13951Y25961D01*
X13963Y26020D01*
X13951Y26079D01*
X13919Y26128D01*
X13951Y26176D01*
X13963Y26235D01*
X13951Y26294D01*
X13919Y26342D01*
X13951Y26391D01*
X13963Y26450D01*
X13951Y26509D01*
X13918Y26558D01*
X13869Y26591D01*
X13810Y26603D01*
X13751Y26591D01*
X13712Y26565D01*
X13702Y26558D01*
X13652Y26573D01*
X13648Y26578D01*
X13599Y26611D01*
X13540Y26623D01*
D02*
G37*
G36*
X11080Y26010D02*
X11018Y25997D01*
X10965Y25962D01*
X10929Y25909D01*
X10920Y25862D01*
X10869D01*
X10861Y25902D01*
X10825Y25955D01*
X10772Y25991D01*
X10710Y26003D01*
X10648Y25991D01*
X10595Y25955D01*
X10559Y25902D01*
X10547Y25840D01*
Y25510D01*
Y25180D01*
Y24850D01*
Y24520D01*
X10559Y24458D01*
X10595Y24405D01*
X10648Y24369D01*
X10710Y24357D01*
X10772Y24369D01*
X10825Y24405D01*
X10861Y24458D01*
X10873Y24520D01*
Y24815D01*
X10923Y24820D01*
X10929Y24789D01*
X10965Y24736D01*
X11018Y24701D01*
X11080Y24689D01*
X11142Y24701D01*
X11195Y24736D01*
X11231Y24789D01*
X11243Y24852D01*
Y25183D01*
Y25515D01*
Y25847D01*
X11231Y25909D01*
X11195Y25962D01*
X11142Y25997D01*
X11080Y26010D01*
D02*
G37*
G36*
X34680Y26283D02*
X34621Y26271D01*
X34572Y26238D01*
X34539Y26189D01*
X34527Y26130D01*
X34539Y26071D01*
X34572Y26022D01*
X34621Y25989D01*
X34680Y25977D01*
X34739Y25989D01*
X34788Y26022D01*
X34821Y26071D01*
X34833Y26130D01*
X34821Y26189D01*
X34788Y26238D01*
X34739Y26271D01*
X34680Y26283D01*
D02*
G37*
G36*
X29740Y26223D02*
X29681Y26211D01*
X29632Y26178D01*
X29599Y26129D01*
X29587Y26070D01*
X29599Y26011D01*
X29632Y25962D01*
X29681Y25929D01*
X29740Y25917D01*
X29799Y25929D01*
X29848Y25962D01*
X29881Y26011D01*
X29893Y26070D01*
X29881Y26129D01*
X29848Y26178D01*
X29799Y26211D01*
X29740Y26223D01*
D02*
G37*
G36*
X12010Y26003D02*
X11951Y25991D01*
X11902Y25958D01*
X11869Y25909D01*
X11857Y25850D01*
X11869Y25791D01*
X11902Y25742D01*
X11951Y25709D01*
X12010Y25697D01*
X12069Y25709D01*
X12118Y25742D01*
X12151Y25791D01*
X12163Y25850D01*
X12151Y25909D01*
X12118Y25958D01*
X12069Y25991D01*
X12010Y26003D01*
D02*
G37*
G36*
X21740Y25573D02*
X21681Y25561D01*
X21632Y25528D01*
X21599Y25479D01*
X21587Y25420D01*
X21599Y25361D01*
X21632Y25312D01*
X21681Y25279D01*
X21740Y25267D01*
X21799Y25279D01*
X21848Y25312D01*
X21881Y25361D01*
X21893Y25420D01*
X21881Y25479D01*
X21848Y25528D01*
X21799Y25561D01*
X21740Y25573D01*
D02*
G37*
G36*
X33750Y25568D02*
X33691Y25556D01*
X33642Y25523D01*
X33609Y25473D01*
X33597Y25415D01*
X33609Y25356D01*
X33642Y25307D01*
X33691Y25274D01*
X33750Y25262D01*
X33809Y25274D01*
X33858Y25307D01*
X33891Y25356D01*
X33903Y25415D01*
X33891Y25473D01*
X33858Y25523D01*
X33809Y25556D01*
X33750Y25568D01*
D02*
G37*
G36*
X35610Y25743D02*
X35551Y25731D01*
X35502Y25698D01*
X35469Y25649D01*
X35457Y25590D01*
X35469Y25531D01*
X35502Y25482D01*
X35551Y25449D01*
X35610Y25437D01*
X35669Y25449D01*
X35718Y25482D01*
X35751Y25531D01*
X35763Y25590D01*
X35751Y25649D01*
X35718Y25698D01*
X35669Y25731D01*
X35610Y25743D01*
D02*
G37*
G36*
X34000Y25993D02*
X33941Y25981D01*
X33892Y25948D01*
X33859Y25899D01*
X33847Y25840D01*
X33859Y25781D01*
X33892Y25732D01*
X33941Y25699D01*
X34000Y25687D01*
X34059Y25699D01*
X34108Y25732D01*
X34141Y25781D01*
X34153Y25840D01*
X34141Y25899D01*
X34108Y25948D01*
X34059Y25981D01*
X34000Y25993D01*
D02*
G37*
G36*
X30830Y25813D02*
X30771Y25801D01*
X30722Y25768D01*
X30689Y25719D01*
X30677Y25660D01*
X30689Y25601D01*
X30722Y25552D01*
X30771Y25519D01*
X30830Y25507D01*
X30889Y25519D01*
X30938Y25552D01*
X30971Y25601D01*
X30983Y25660D01*
X30971Y25719D01*
X30938Y25768D01*
X30889Y25801D01*
X30830Y25813D01*
D02*
G37*
G36*
X35220Y26343D02*
X35161Y26331D01*
X35112Y26298D01*
X35079Y26249D01*
X35067Y26190D01*
X35079Y26131D01*
X35112Y26082D01*
X35161Y26049D01*
X35220Y26037D01*
X35279Y26049D01*
X35328Y26082D01*
X35361Y26131D01*
X35373Y26190D01*
X35361Y26249D01*
X35328Y26298D01*
X35279Y26331D01*
X35220Y26343D01*
D02*
G37*
G36*
X8540Y28233D02*
X8481Y28221D01*
X8432Y28188D01*
X8399Y28139D01*
X8387Y28080D01*
X8399Y28021D01*
X8432Y27972D01*
X8447Y27961D01*
X8437Y27908D01*
X8401Y27901D01*
X8352Y27868D01*
X8319Y27819D01*
X8307Y27760D01*
X8319Y27701D01*
X8352Y27652D01*
X8401Y27619D01*
X8460Y27607D01*
X8519Y27619D01*
X8568Y27652D01*
X8601Y27701D01*
X8613Y27760D01*
X8601Y27819D01*
X8568Y27868D01*
X8553Y27879D01*
X8563Y27932D01*
X8599Y27939D01*
X8648Y27972D01*
X8681Y28021D01*
X8693Y28080D01*
X8681Y28139D01*
X8648Y28188D01*
X8599Y28221D01*
X8540Y28233D01*
D02*
G37*
G36*
X4480Y28350D02*
X4382Y28337D01*
X4291Y28299D01*
X4213Y28239D01*
X4152Y28161D01*
X4115Y28069D01*
X4102Y27971D01*
X4115Y27874D01*
X4152Y27782D01*
X4213Y27704D01*
X4291Y27644D01*
X4382Y27606D01*
X4480Y27593D01*
X4578Y27606D01*
X4669Y27644D01*
X4747Y27704D01*
X4808Y27782D01*
X4845Y27874D01*
X4858Y27971D01*
X4845Y28069D01*
X4808Y28161D01*
X4747Y28239D01*
X4669Y28299D01*
X4578Y28337D01*
X4480Y28350D01*
D02*
G37*
G36*
X14520Y27839D02*
X14310D01*
X14238Y27824D01*
X14210Y27806D01*
X14182Y27824D01*
X14110Y27839D01*
X14038Y27824D01*
X13977Y27783D01*
X13936Y27722D01*
X13921Y27650D01*
Y27410D01*
X13936Y27338D01*
X13977Y27277D01*
X14038Y27236D01*
X14110Y27221D01*
X14760D01*
X14832Y27236D01*
X14893Y27277D01*
X14934Y27338D01*
X14949Y27410D01*
X14934Y27482D01*
X14893Y27543D01*
X14653Y27783D01*
X14592Y27824D01*
X14520Y27839D01*
D02*
G37*
G36*
X15480Y28213D02*
X15421Y28201D01*
X15372Y28168D01*
X15339Y28119D01*
X15327Y28060D01*
X15339Y28001D01*
X15372Y27952D01*
X15421Y27919D01*
X15480Y27907D01*
X15539Y27919D01*
X15588Y27952D01*
X15621Y28001D01*
X15633Y28060D01*
X15621Y28119D01*
X15588Y28168D01*
X15539Y28201D01*
X15480Y28213D01*
D02*
G37*
G36*
X10090D02*
X10031Y28201D01*
X9982Y28168D01*
X9949Y28119D01*
X9937Y28060D01*
X9949Y28001D01*
X9982Y27952D01*
X10031Y27919D01*
X10090Y27907D01*
X10149Y27919D01*
X10198Y27952D01*
X10231Y28001D01*
X10243Y28060D01*
X10231Y28119D01*
X10198Y28168D01*
X10149Y28201D01*
X10090Y28213D01*
D02*
G37*
G36*
X17800Y27413D02*
X17750Y27403D01*
X17590D01*
X17540Y27413D01*
X17478Y27401D01*
X17425Y27365D01*
X17389Y27312D01*
X17377Y27250D01*
Y27000D01*
X17389Y26938D01*
X17425Y26885D01*
X17478Y26849D01*
X17540Y26837D01*
X17800D01*
X17862Y26849D01*
X17915Y26885D01*
X17951Y26938D01*
X17963Y27000D01*
Y27250D01*
X17951Y27312D01*
X17915Y27365D01*
X17862Y27401D01*
X17800Y27413D01*
D02*
G37*
G36*
X8770Y27353D02*
X8711Y27341D01*
X8662Y27308D01*
X8629Y27259D01*
X8617Y27200D01*
X8629Y27141D01*
X8662Y27092D01*
X8711Y27059D01*
X8770Y27047D01*
X8829Y27059D01*
X8878Y27092D01*
X8911Y27141D01*
X8923Y27200D01*
X8911Y27259D01*
X8878Y27308D01*
X8829Y27341D01*
X8770Y27353D01*
D02*
G37*
G36*
X36850Y27313D02*
X36791Y27301D01*
X36742Y27268D01*
X36709Y27219D01*
X36697Y27160D01*
X36709Y27101D01*
X36742Y27052D01*
X36791Y27019D01*
X36850Y27007D01*
X36909Y27019D01*
X36958Y27052D01*
X36991Y27101D01*
X37003Y27160D01*
X36991Y27219D01*
X36958Y27268D01*
X36909Y27301D01*
X36850Y27313D01*
D02*
G37*
G36*
X30707Y27430D02*
X30649Y27418D01*
X30599Y27385D01*
X30566Y27335D01*
X30555Y27277D01*
X30566Y27218D01*
X30599Y27169D01*
X30649Y27135D01*
X30707Y27124D01*
X30766Y27135D01*
X30816Y27169D01*
X30849Y27218D01*
X30860Y27277D01*
X30849Y27335D01*
X30816Y27385D01*
X30766Y27418D01*
X30707Y27430D01*
D02*
G37*
G36*
X20477Y27485D02*
X20416Y27473D01*
X20363Y27438D01*
X20328Y27385D01*
X20316Y27324D01*
X20328Y27262D01*
X20363Y27209D01*
X20416Y27174D01*
X20477Y27162D01*
X20539Y27174D01*
X20592Y27209D01*
X20627Y27262D01*
X20639Y27324D01*
X20627Y27385D01*
X20592Y27438D01*
X20539Y27473D01*
X20477Y27485D01*
D02*
G37*
G36*
X18903D02*
X18841Y27473D01*
X18788Y27438D01*
X18753Y27385D01*
X18741Y27324D01*
X18753Y27262D01*
X18788Y27209D01*
X18841Y27174D01*
X18903Y27162D01*
X18964Y27174D01*
X19017Y27209D01*
X19052Y27262D01*
X19064Y27324D01*
X19052Y27385D01*
X19017Y27438D01*
X18964Y27473D01*
X18903Y27485D01*
D02*
G37*
G36*
X29630Y23773D02*
X29571Y23761D01*
X29522Y23728D01*
X29489Y23679D01*
X29477Y23620D01*
X29489Y23561D01*
X29522Y23512D01*
X29571Y23479D01*
X29630Y23467D01*
X29689Y23479D01*
X29738Y23512D01*
X29771Y23561D01*
X29783Y23620D01*
X29771Y23679D01*
X29738Y23728D01*
X29689Y23761D01*
X29630Y23773D01*
D02*
G37*
G36*
X14090Y23963D02*
X14031Y23951D01*
X13982Y23918D01*
X13949Y23869D01*
X13937Y23810D01*
X13949Y23751D01*
X13982Y23702D01*
X14031Y23669D01*
X14052Y23614D01*
X14047Y23590D01*
X14059Y23531D01*
X14092Y23482D01*
X14141Y23449D01*
X14200Y23437D01*
X14259Y23449D01*
X14308Y23482D01*
X14341Y23531D01*
X14353Y23590D01*
X14341Y23649D01*
X14308Y23698D01*
X14259Y23731D01*
X14238Y23786D01*
X14243Y23810D01*
X14231Y23869D01*
X14198Y23918D01*
X14149Y23951D01*
X14090Y23963D01*
D02*
G37*
G36*
X16870Y24443D02*
X15490D01*
X15428Y24431D01*
X15415Y24422D01*
X15408Y24421D01*
X15355Y24385D01*
X15319Y24332D01*
X15307Y24270D01*
X15319Y24208D01*
X15355Y24155D01*
X15408Y24119D01*
X15470Y24107D01*
X15632D01*
X15827Y23912D01*
Y23680D01*
X15839Y23618D01*
X15875Y23565D01*
X15928Y23529D01*
X15990Y23517D01*
X17470D01*
X17532Y23529D01*
X17585Y23565D01*
X17621Y23618D01*
X17633Y23680D01*
X17621Y23742D01*
X17585Y23795D01*
X17315Y24065D01*
X17295Y24095D01*
X17265Y24115D01*
X16985Y24395D01*
X16932Y24431D01*
X16870Y24443D01*
D02*
G37*
G36*
X33170Y23973D02*
X33111Y23961D01*
X33062Y23928D01*
X33029Y23879D01*
X33017Y23820D01*
X33029Y23761D01*
X33062Y23712D01*
X33111Y23679D01*
X33170Y23667D01*
X33229Y23679D01*
X33278Y23712D01*
X33311Y23761D01*
X33323Y23820D01*
X33311Y23879D01*
X33278Y23928D01*
X33229Y23961D01*
X33170Y23973D01*
D02*
G37*
G36*
X13080Y23963D02*
X13021Y23951D01*
X12972Y23918D01*
X12939Y23869D01*
X12927Y23810D01*
X12939Y23751D01*
X12972Y23702D01*
X13021Y23669D01*
X13080Y23657D01*
X13139Y23669D01*
X13188Y23702D01*
X13221Y23751D01*
X13233Y23810D01*
X13221Y23869D01*
X13188Y23918D01*
X13139Y23951D01*
X13080Y23963D01*
D02*
G37*
G36*
X12460Y23923D02*
X12401Y23911D01*
X12352Y23878D01*
X12319Y23829D01*
X12307Y23770D01*
X12319Y23711D01*
X12352Y23662D01*
X12321Y23624D01*
X12312Y23618D01*
X12279Y23569D01*
X12267Y23510D01*
X12279Y23451D01*
X12312Y23402D01*
X12361Y23369D01*
X12420Y23357D01*
X12479Y23369D01*
X12528Y23402D01*
X12561Y23451D01*
X12573Y23510D01*
X12561Y23569D01*
X12528Y23618D01*
X12559Y23656D01*
X12568Y23662D01*
X12601Y23711D01*
X12613Y23770D01*
X12601Y23829D01*
X12568Y23878D01*
X12519Y23911D01*
X12460Y23923D01*
D02*
G37*
G36*
X11190Y23453D02*
X11131Y23441D01*
X11082Y23408D01*
X11049Y23359D01*
X11037Y23300D01*
X11049Y23241D01*
X11082Y23192D01*
X11131Y23159D01*
X11190Y23147D01*
X11249Y23159D01*
X11298Y23192D01*
X11331Y23241D01*
X11343Y23300D01*
X11331Y23359D01*
X11298Y23408D01*
X11249Y23441D01*
X11190Y23453D01*
D02*
G37*
G36*
X32340Y23343D02*
X32281Y23331D01*
X32232Y23298D01*
X32199Y23249D01*
X32187Y23190D01*
X32199Y23131D01*
X32232Y23082D01*
X32281Y23049D01*
X32340Y23037D01*
X32399Y23049D01*
X32448Y23082D01*
X32481Y23131D01*
X32493Y23190D01*
X32481Y23249D01*
X32448Y23298D01*
X32399Y23331D01*
X32340Y23343D01*
D02*
G37*
G36*
X33140Y23493D02*
X33081Y23481D01*
X33032Y23448D01*
X32999Y23399D01*
X32987Y23340D01*
X32999Y23281D01*
X33032Y23232D01*
X33081Y23199D01*
X33140Y23187D01*
X33199Y23199D01*
X33248Y23232D01*
X33281Y23281D01*
X33293Y23340D01*
X33281Y23399D01*
X33248Y23448D01*
X33199Y23481D01*
X33140Y23493D01*
D02*
G37*
G36*
X18120Y23543D02*
X18061Y23531D01*
X18012Y23498D01*
X17979Y23449D01*
X17967Y23390D01*
X17979Y23331D01*
X18012Y23282D01*
X18061Y23249D01*
X18120Y23237D01*
X18179Y23249D01*
X18228Y23282D01*
X18261Y23331D01*
X18273Y23390D01*
X18261Y23449D01*
X18228Y23498D01*
X18179Y23531D01*
X18120Y23543D01*
D02*
G37*
G36*
X29910Y23513D02*
X29851Y23501D01*
X29802Y23468D01*
X29769Y23419D01*
X29757Y23360D01*
X29769Y23301D01*
X29802Y23252D01*
X29851Y23219D01*
X29910Y23207D01*
X29969Y23219D01*
X30018Y23252D01*
X30051Y23301D01*
X30063Y23360D01*
X30051Y23419D01*
X30018Y23468D01*
X29969Y23501D01*
X29910Y23513D01*
D02*
G37*
G36*
X37960Y24418D02*
X37867Y24406D01*
X37781Y24370D01*
X37707Y24313D01*
X37650Y24239D01*
X37614Y24153D01*
X37602Y24060D01*
X37614Y23967D01*
X37650Y23881D01*
X37707Y23807D01*
X37781Y23750D01*
X37867Y23714D01*
X37960Y23702D01*
X38053Y23714D01*
X38139Y23750D01*
X38213Y23807D01*
X38270Y23881D01*
X38306Y23967D01*
X38318Y24060D01*
X38306Y24153D01*
X38270Y24239D01*
X38213Y24313D01*
X38139Y24370D01*
X38053Y24406D01*
X37960Y24418D01*
D02*
G37*
G36*
X12850Y25133D02*
X12791Y25121D01*
X12742Y25088D01*
X12709Y25039D01*
X12697Y24980D01*
X12709Y24921D01*
X12742Y24872D01*
X12791Y24839D01*
X12850Y24827D01*
X12909Y24839D01*
X12942Y24861D01*
X12993Y24862D01*
X13009Y24857D01*
X13051Y24829D01*
X13110Y24817D01*
X13169Y24829D01*
X13218Y24862D01*
X13251Y24911D01*
X13263Y24970D01*
X13251Y25029D01*
X13218Y25078D01*
X13169Y25111D01*
X13110Y25123D01*
X13051Y25111D01*
X13018Y25089D01*
X12967Y25088D01*
X12951Y25093D01*
X12909Y25121D01*
X12850Y25133D01*
D02*
G37*
G36*
X3940Y24809D02*
X3550D01*
X3540Y24807D01*
X3530Y24809D01*
X3458Y24794D01*
X3397Y24753D01*
X3356Y24692D01*
X3341Y24620D01*
Y24350D01*
Y24070D01*
X3331Y24020D01*
X3346Y23948D01*
X3387Y23887D01*
X3448Y23846D01*
X3520Y23831D01*
X4150D01*
X4222Y23846D01*
X4283Y23887D01*
X4303Y23907D01*
X4344Y23968D01*
X4359Y24040D01*
Y24300D01*
X4369Y24350D01*
Y24610D01*
X4354Y24682D01*
X4313Y24743D01*
X4252Y24784D01*
X4180Y24799D01*
X3990D01*
X3940Y24809D01*
D02*
G37*
G36*
X21030Y24859D02*
X20580D01*
X20525Y24848D01*
X20520Y24849D01*
X20515Y24848D01*
X20510Y24849D01*
X20438Y24834D01*
X20377Y24793D01*
X20336Y24732D01*
X20321Y24660D01*
X20331Y24610D01*
Y24460D01*
X20346Y24388D01*
X20387Y24327D01*
X20448Y24286D01*
X20520Y24271D01*
X20780D01*
X20830Y24281D01*
X21028D01*
X21030Y24281D01*
X21102Y24295D01*
X21163Y24336D01*
X21204Y24397D01*
X21219Y24470D01*
Y24670D01*
X21204Y24742D01*
X21163Y24803D01*
X21102Y24844D01*
X21030Y24859D01*
D02*
G37*
G36*
X30850Y25263D02*
X30791Y25251D01*
X30742Y25218D01*
X30709Y25169D01*
X30697Y25110D01*
X30709Y25051D01*
X30742Y25002D01*
X30791Y24969D01*
X30850Y24957D01*
X30909Y24969D01*
X30958Y25002D01*
X30991Y25051D01*
X31003Y25110D01*
X30991Y25169D01*
X30958Y25218D01*
X30909Y25251D01*
X30850Y25263D01*
D02*
G37*
G36*
X13810Y24933D02*
X13751Y24921D01*
X13706Y24891D01*
X13690Y24885D01*
X13660D01*
X13644Y24891D01*
X13599Y24921D01*
X13540Y24933D01*
X13481Y24921D01*
X13432Y24888D01*
X13399Y24839D01*
X13387Y24780D01*
X13399Y24721D01*
X13432Y24672D01*
X13481Y24639D01*
X13540Y24627D01*
X13599Y24639D01*
X13648Y24672D01*
X13650Y24675D01*
X13700D01*
X13702Y24672D01*
X13751Y24639D01*
X13810Y24627D01*
X13869Y24639D01*
X13918Y24672D01*
X13951Y24721D01*
X13963Y24780D01*
X13951Y24839D01*
X13918Y24888D01*
X13869Y24921D01*
X13810Y24933D01*
D02*
G37*
G36*
X38315Y25415D02*
X37605D01*
Y24705D01*
X38315D01*
Y25415D01*
D02*
G37*
G36*
X14600Y24423D02*
X14541Y24411D01*
X14498Y24382D01*
X14447D01*
X14419Y24401D01*
X14360Y24413D01*
X14301Y24401D01*
X14252Y24368D01*
X14219Y24319D01*
X14207Y24260D01*
X14219Y24201D01*
X14252Y24152D01*
X14287Y24128D01*
X14298Y24091D01*
X14296Y24069D01*
X14269Y24029D01*
X14257Y23970D01*
X14269Y23911D01*
X14302Y23862D01*
X14351Y23829D01*
X14410Y23817D01*
X14469Y23829D01*
X14518Y23862D01*
X14551Y23911D01*
X14563Y23970D01*
X14551Y24029D01*
X14518Y24078D01*
X14538Y24125D01*
X14541Y24129D01*
X14600Y24117D01*
X14659Y24129D01*
X14708Y24162D01*
X14741Y24211D01*
X14753Y24270D01*
X14741Y24329D01*
X14708Y24378D01*
X14659Y24411D01*
X14600Y24423D01*
D02*
G37*
G36*
X12120Y24443D02*
X12061Y24431D01*
X12012Y24398D01*
X11979Y24349D01*
X11967Y24290D01*
X11979Y24231D01*
X12012Y24182D01*
X12061Y24149D01*
X12120Y24137D01*
X12179Y24149D01*
X12228Y24182D01*
X12261Y24231D01*
X12273Y24290D01*
X12261Y24349D01*
X12228Y24398D01*
X12179Y24431D01*
X12120Y24443D01*
D02*
G37*
G36*
X12830Y24773D02*
X12771Y24761D01*
X12722Y24728D01*
X12689Y24679D01*
X12677Y24620D01*
X12681Y24600D01*
X12636Y24570D01*
X12619Y24581D01*
X12560Y24593D01*
X12501Y24581D01*
X12452Y24548D01*
X12419Y24499D01*
X12407Y24440D01*
X12419Y24381D01*
X12452Y24332D01*
X12501Y24299D01*
X12560Y24287D01*
X12619Y24299D01*
X12668Y24332D01*
X12701Y24381D01*
X12713Y24440D01*
X12709Y24460D01*
X12754Y24490D01*
X12771Y24479D01*
X12830Y24467D01*
X12889Y24479D01*
X12938Y24512D01*
X12971Y24561D01*
X12983Y24620D01*
X12971Y24679D01*
X12938Y24728D01*
X12889Y24761D01*
X12830Y24773D01*
D02*
G37*
G36*
X33560Y24953D02*
X33501Y24941D01*
X33452Y24908D01*
X33419Y24859D01*
X33407Y24800D01*
X33419Y24741D01*
X33452Y24692D01*
X33501Y24659D01*
X33560Y24647D01*
X33619Y24659D01*
X33668Y24692D01*
X33701Y24741D01*
X33713Y24800D01*
X33701Y24859D01*
X33668Y24908D01*
X33619Y24941D01*
X33560Y24953D01*
D02*
G37*
G36*
X8210Y25223D02*
X7710D01*
X7648Y25211D01*
X7595Y25175D01*
X7559Y25122D01*
X7547Y25060D01*
X7557Y25010D01*
Y24850D01*
X7547Y24800D01*
X7559Y24738D01*
X7595Y24685D01*
X7648Y24649D01*
X7710Y24637D01*
X8210D01*
X8272Y24649D01*
X8325Y24685D01*
X8361Y24738D01*
X8373Y24800D01*
Y25060D01*
X8361Y25122D01*
X8325Y25175D01*
X8272Y25211D01*
X8210Y25223D01*
D02*
G37*
G36*
X32140Y14983D02*
X32081Y14971D01*
X32032Y14938D01*
X31999Y14889D01*
X31987Y14830D01*
X31999Y14771D01*
X32032Y14722D01*
X32081Y14689D01*
X32140Y14677D01*
X32199Y14689D01*
X32248Y14722D01*
X32281Y14771D01*
X32293Y14830D01*
X32281Y14889D01*
X32248Y14938D01*
X32199Y14971D01*
X32140Y14983D01*
D02*
G37*
G36*
X12920Y14973D02*
X12861Y14961D01*
X12812Y14928D01*
X12779Y14879D01*
X12767Y14820D01*
X12779Y14761D01*
X12812Y14712D01*
X12861Y14679D01*
X12920Y14667D01*
X12979Y14679D01*
X13028Y14712D01*
X13061Y14761D01*
X13073Y14820D01*
X13061Y14879D01*
X13028Y14928D01*
X12979Y14961D01*
X12920Y14973D01*
D02*
G37*
G36*
X37960Y15418D02*
X37867Y15406D01*
X37781Y15370D01*
X37707Y15313D01*
X37650Y15239D01*
X37614Y15153D01*
X37602Y15060D01*
X37614Y14967D01*
X37650Y14881D01*
X37707Y14807D01*
X37781Y14750D01*
X37867Y14714D01*
X37960Y14702D01*
X38053Y14714D01*
X38139Y14750D01*
X38213Y14807D01*
X38270Y14881D01*
X38306Y14967D01*
X38318Y15060D01*
X38306Y15153D01*
X38270Y15239D01*
X38213Y15313D01*
X38139Y15370D01*
X38053Y15406D01*
X37960Y15418D01*
D02*
G37*
G36*
X27300Y15023D02*
X27241Y15011D01*
X27192Y14978D01*
X27159Y14929D01*
X27147Y14870D01*
X27159Y14811D01*
X27192Y14762D01*
X27241Y14729D01*
X27300Y14717D01*
X27359Y14729D01*
X27408Y14762D01*
X27441Y14811D01*
X27453Y14870D01*
X27441Y14929D01*
X27408Y14978D01*
X27359Y15011D01*
X27300Y15023D01*
D02*
G37*
G36*
X1400Y15428D02*
X1307Y15416D01*
X1221Y15380D01*
X1147Y15323D01*
X1090Y15249D01*
X1054Y15163D01*
X1042Y15070D01*
X1054Y14977D01*
X1090Y14891D01*
X1147Y14817D01*
X1221Y14760D01*
X1307Y14724D01*
X1400Y14712D01*
X1493Y14724D01*
X1579Y14760D01*
X1653Y14817D01*
X1710Y14891D01*
X1746Y14977D01*
X1758Y15070D01*
X1746Y15163D01*
X1710Y15249D01*
X1653Y15323D01*
X1579Y15380D01*
X1493Y15416D01*
X1400Y15428D01*
D02*
G37*
G36*
X34330Y14953D02*
X34271Y14941D01*
X34222Y14908D01*
X34189Y14859D01*
X34177Y14800D01*
X34189Y14741D01*
X34222Y14692D01*
X34271Y14659D01*
X34330Y14647D01*
X34389Y14659D01*
X34438Y14692D01*
X34471Y14741D01*
X34483Y14800D01*
X34471Y14859D01*
X34438Y14908D01*
X34389Y14941D01*
X34330Y14953D01*
D02*
G37*
G36*
X20336Y14918D02*
X20277Y14907D01*
X20227Y14874D01*
X20194Y14824D01*
X20183Y14765D01*
X20194Y14707D01*
X20227Y14657D01*
X20277Y14624D01*
X20336Y14612D01*
X20394Y14624D01*
X20444Y14657D01*
X20477Y14707D01*
X20489Y14765D01*
X20477Y14824D01*
X20444Y14874D01*
X20394Y14907D01*
X20336Y14918D01*
D02*
G37*
G36*
X21300Y14913D02*
X21241Y14901D01*
X21192Y14868D01*
X21159Y14819D01*
X21147Y14760D01*
X21159Y14701D01*
X21192Y14652D01*
X21241Y14619D01*
X21300Y14607D01*
X21359Y14619D01*
X21408Y14652D01*
X21441Y14701D01*
X21453Y14760D01*
X21441Y14819D01*
X21408Y14868D01*
X21359Y14901D01*
X21300Y14913D01*
D02*
G37*
G36*
X27900Y14923D02*
X27841Y14911D01*
X27792Y14878D01*
X27759Y14829D01*
X27747Y14770D01*
X27759Y14711D01*
X27792Y14662D01*
X27841Y14629D01*
X27900Y14617D01*
X27959Y14629D01*
X28008Y14662D01*
X28041Y14711D01*
X28053Y14770D01*
X28041Y14829D01*
X28008Y14878D01*
X27959Y14911D01*
X27900Y14923D01*
D02*
G37*
G36*
X31640Y14953D02*
X31581Y14941D01*
X31532Y14908D01*
X31499Y14859D01*
X31487Y14800D01*
X31499Y14741D01*
X31532Y14692D01*
X31581Y14659D01*
X31640Y14647D01*
X31699Y14659D01*
X31748Y14692D01*
X31781Y14741D01*
X31793Y14800D01*
X31781Y14859D01*
X31748Y14908D01*
X31699Y14941D01*
X31640Y14953D01*
D02*
G37*
G36*
X20870Y14933D02*
X20811Y14921D01*
X20762Y14888D01*
X20729Y14839D01*
X20717Y14780D01*
X20729Y14721D01*
X20762Y14672D01*
X20811Y14639D01*
X20870Y14627D01*
X20929Y14639D01*
X20978Y14672D01*
X21011Y14721D01*
X21023Y14780D01*
X21011Y14839D01*
X20978Y14888D01*
X20929Y14921D01*
X20870Y14933D01*
D02*
G37*
G36*
X28840Y14853D02*
X28781Y14841D01*
X28732Y14808D01*
X28723Y14795D01*
X28668Y14788D01*
X28619Y14821D01*
X28560Y14833D01*
X28501Y14821D01*
X28452Y14788D01*
X28419Y14739D01*
X28407Y14680D01*
X28419Y14621D01*
X28452Y14572D01*
X28501Y14539D01*
X28560Y14527D01*
X28619Y14539D01*
X28668Y14572D01*
X28677Y14585D01*
X28732Y14592D01*
X28781Y14559D01*
X28840Y14547D01*
X28899Y14559D01*
X28948Y14592D01*
X28981Y14641D01*
X28993Y14700D01*
X28981Y14759D01*
X28948Y14808D01*
X28899Y14841D01*
X28840Y14853D01*
D02*
G37*
G36*
X22620Y15543D02*
X22561Y15531D01*
X22512Y15498D01*
X22479Y15449D01*
X22467Y15390D01*
X22479Y15331D01*
X22512Y15282D01*
X22561Y15249D01*
X22620Y15237D01*
X22679Y15249D01*
X22728Y15282D01*
X22761Y15331D01*
X22773Y15390D01*
X22761Y15449D01*
X22728Y15498D01*
X22679Y15531D01*
X22620Y15543D01*
D02*
G37*
G36*
X21510Y15493D02*
X21451Y15481D01*
X21402Y15448D01*
X21369Y15399D01*
X21357Y15340D01*
X21369Y15281D01*
X21402Y15232D01*
X21451Y15199D01*
X21510Y15187D01*
X21569Y15199D01*
X21618Y15232D01*
X21651Y15281D01*
X21663Y15340D01*
X21651Y15399D01*
X21618Y15448D01*
X21569Y15481D01*
X21510Y15493D01*
D02*
G37*
G36*
X23950Y15473D02*
X23891Y15461D01*
X23842Y15428D01*
X23809Y15379D01*
X23797Y15320D01*
X23800Y15303D01*
X23759Y15271D01*
X23700Y15283D01*
X23641Y15271D01*
X23592Y15238D01*
X23559Y15189D01*
X23551Y15148D01*
X23531Y15119D01*
X23502Y15099D01*
X23461Y15091D01*
X23412Y15058D01*
X23379Y15009D01*
X23367Y14950D01*
X23379Y14891D01*
X23412Y14842D01*
X23461Y14809D01*
X23520Y14797D01*
X23579Y14809D01*
X23628Y14842D01*
X23661Y14891D01*
X23669Y14932D01*
X23689Y14961D01*
X23718Y14981D01*
X23759Y14989D01*
X23808Y15022D01*
X23841Y15071D01*
X23853Y15130D01*
X23850Y15147D01*
X23891Y15179D01*
X23950Y15167D01*
X24009Y15179D01*
X24058Y15212D01*
X24091Y15261D01*
X24103Y15320D01*
X24091Y15379D01*
X24058Y15428D01*
X24009Y15461D01*
X23950Y15473D01*
D02*
G37*
G36*
X11830Y15713D02*
X11771Y15701D01*
X11722Y15668D01*
X11689Y15619D01*
X11677Y15560D01*
X11689Y15501D01*
X11722Y15452D01*
X11771Y15419D01*
X11830Y15407D01*
X11889Y15419D01*
X11938Y15452D01*
X11971Y15501D01*
X11983Y15560D01*
X11971Y15619D01*
X11938Y15668D01*
X11889Y15701D01*
X11830Y15713D01*
D02*
G37*
G36*
X25750Y15693D02*
X25691Y15681D01*
X25642Y15648D01*
X25609Y15599D01*
X25597Y15540D01*
X25609Y15481D01*
X25642Y15432D01*
X25691Y15399D01*
X25750Y15387D01*
X25809Y15399D01*
X25858Y15432D01*
X25881Y15466D01*
X25934Y15457D01*
X25939Y15431D01*
X25972Y15382D01*
X26021Y15349D01*
X26080Y15337D01*
X26139Y15349D01*
X26188Y15382D01*
X26205Y15407D01*
X26258Y15396D01*
X26259Y15391D01*
X26292Y15342D01*
X26341Y15309D01*
X26400Y15297D01*
X26459Y15309D01*
X26508Y15342D01*
X26541Y15391D01*
X26553Y15450D01*
X26541Y15509D01*
X26508Y15558D01*
X26459Y15591D01*
X26400Y15603D01*
X26341Y15591D01*
X26292Y15558D01*
X26275Y15533D01*
X26222Y15544D01*
X26221Y15549D01*
X26188Y15598D01*
X26139Y15631D01*
X26080Y15643D01*
X26021Y15631D01*
X25972Y15598D01*
X25949Y15564D01*
X25896Y15573D01*
X25891Y15599D01*
X25858Y15648D01*
X25809Y15681D01*
X25750Y15693D01*
D02*
G37*
G36*
X13910Y15413D02*
X13851Y15401D01*
X13802Y15368D01*
X13769Y15319D01*
X13757Y15260D01*
X13769Y15201D01*
X13802Y15152D01*
X13851Y15119D01*
X13910Y15107D01*
X13969Y15119D01*
X14018Y15152D01*
X14051Y15201D01*
X14063Y15260D01*
X14051Y15319D01*
X14018Y15368D01*
X13969Y15401D01*
X13910Y15413D01*
D02*
G37*
G36*
X25350Y15153D02*
X25291Y15141D01*
X25242Y15108D01*
X25209Y15059D01*
X25197Y15000D01*
X25209Y14941D01*
X25242Y14892D01*
X25291Y14859D01*
X25350Y14847D01*
X25409Y14859D01*
X25458Y14892D01*
X25491Y14941D01*
X25503Y15000D01*
X25491Y15059D01*
X25458Y15108D01*
X25409Y15141D01*
X25350Y15153D01*
D02*
G37*
G36*
X34660Y15133D02*
X34601Y15121D01*
X34552Y15088D01*
X34519Y15039D01*
X34507Y14980D01*
X34519Y14921D01*
X34552Y14872D01*
X34601Y14839D01*
X34660Y14827D01*
X34719Y14839D01*
X34768Y14872D01*
X34801Y14921D01*
X34813Y14980D01*
X34801Y15039D01*
X34768Y15088D01*
X34719Y15121D01*
X34660Y15133D01*
D02*
G37*
G36*
X13410Y15183D02*
X13351Y15171D01*
X13302Y15138D01*
X13269Y15089D01*
X13257Y15030D01*
X13269Y14971D01*
X13302Y14922D01*
X13351Y14889D01*
X13410Y14877D01*
X13469Y14889D01*
X13518Y14922D01*
X13551Y14971D01*
X13563Y15030D01*
X13551Y15089D01*
X13518Y15138D01*
X13469Y15171D01*
X13410Y15183D01*
D02*
G37*
G36*
X34960Y15373D02*
X34901Y15361D01*
X34852Y15328D01*
X34819Y15279D01*
X34807Y15220D01*
X34819Y15161D01*
X34852Y15112D01*
X34901Y15079D01*
X34960Y15067D01*
X35019Y15079D01*
X35068Y15112D01*
X35101Y15161D01*
X35113Y15220D01*
X35101Y15279D01*
X35068Y15328D01*
X35019Y15361D01*
X34960Y15373D01*
D02*
G37*
G36*
X11280D02*
X11221Y15361D01*
X11172Y15328D01*
X11139Y15279D01*
X11127Y15220D01*
X11139Y15161D01*
X11172Y15112D01*
X11221Y15079D01*
X11280Y15067D01*
X11339Y15079D01*
X11388Y15112D01*
X11421Y15161D01*
X11433Y15220D01*
X11421Y15279D01*
X11388Y15328D01*
X11339Y15361D01*
X11280Y15373D01*
D02*
G37*
G36*
X33030Y14053D02*
X32971Y14041D01*
X32922Y14008D01*
X32889Y13959D01*
X32877Y13900D01*
X32889Y13841D01*
X32922Y13792D01*
X32971Y13759D01*
X33030Y13747D01*
X33089Y13759D01*
X33118Y13779D01*
X33140Y13791D01*
X33182Y13767D01*
X33192Y13752D01*
X33241Y13719D01*
X33300Y13707D01*
X33359Y13719D01*
X33408Y13752D01*
X33441Y13801D01*
X33453Y13860D01*
X33441Y13919D01*
X33408Y13968D01*
X33359Y14001D01*
X33300Y14013D01*
X33241Y14001D01*
X33212Y13981D01*
X33190Y13969D01*
X33148Y13993D01*
X33138Y14008D01*
X33089Y14041D01*
X33030Y14053D01*
D02*
G37*
G36*
X37960Y14418D02*
X37867Y14406D01*
X37781Y14370D01*
X37707Y14313D01*
X37650Y14239D01*
X37614Y14153D01*
X37602Y14060D01*
X37614Y13967D01*
X37650Y13881D01*
X37707Y13807D01*
X37781Y13750D01*
X37867Y13714D01*
X37960Y13702D01*
X38053Y13714D01*
X38139Y13750D01*
X38213Y13807D01*
X38270Y13881D01*
X38306Y13967D01*
X38318Y14060D01*
X38306Y14153D01*
X38270Y14239D01*
X38213Y14313D01*
X38139Y14370D01*
X38053Y14406D01*
X37960Y14418D01*
D02*
G37*
G36*
X1400Y14428D02*
X1307Y14416D01*
X1221Y14380D01*
X1147Y14323D01*
X1090Y14249D01*
X1054Y14163D01*
X1042Y14070D01*
X1054Y13977D01*
X1090Y13891D01*
X1147Y13817D01*
X1221Y13760D01*
X1307Y13724D01*
X1400Y13712D01*
X1493Y13724D01*
X1579Y13760D01*
X1653Y13817D01*
X1710Y13891D01*
X1746Y13977D01*
X1758Y14070D01*
X1746Y14163D01*
X1710Y14249D01*
X1653Y14323D01*
X1579Y14380D01*
X1493Y14416D01*
X1400Y14428D01*
D02*
G37*
G36*
X4400Y14203D02*
X2670D01*
X2608Y14191D01*
X2555Y14155D01*
X2519Y14102D01*
X2507Y14040D01*
X2519Y13978D01*
X2555Y13925D01*
X2608Y13889D01*
X2670Y13877D01*
X4400D01*
X4462Y13889D01*
X4515Y13925D01*
X4551Y13978D01*
X4563Y14040D01*
X4551Y14102D01*
X4515Y14155D01*
X4462Y14191D01*
X4400Y14203D01*
D02*
G37*
G36*
X34970Y14103D02*
X34911Y14091D01*
X34862Y14058D01*
X34829Y14009D01*
X34817Y13950D01*
X34829Y13891D01*
X34862Y13842D01*
X34911Y13809D01*
X34970Y13797D01*
X35029Y13809D01*
X35078Y13842D01*
X35111Y13891D01*
X35123Y13950D01*
X35111Y14009D01*
X35078Y14058D01*
X35029Y14091D01*
X34970Y14103D01*
D02*
G37*
G36*
X25040Y13913D02*
X24981Y13901D01*
X24932Y13868D01*
X24899Y13819D01*
X24887Y13760D01*
X24890Y13744D01*
X24848Y13701D01*
X24840Y13703D01*
X24781Y13691D01*
X24732Y13658D01*
X24699Y13609D01*
X24695Y13588D01*
X24653Y13560D01*
X24640Y13563D01*
X24581Y13551D01*
X24532Y13518D01*
X24499Y13469D01*
X24487Y13410D01*
X24499Y13351D01*
X24532Y13302D01*
X24581Y13269D01*
X24640Y13257D01*
X24699Y13269D01*
X24748Y13302D01*
X24781Y13351D01*
X24785Y13372D01*
X24827Y13400D01*
X24840Y13397D01*
X24899Y13409D01*
X24948Y13442D01*
X24981Y13491D01*
X24993Y13550D01*
X24990Y13566D01*
X25032Y13609D01*
X25040Y13607D01*
X25099Y13619D01*
X25148Y13652D01*
X25181Y13701D01*
X25193Y13760D01*
X25181Y13819D01*
X25148Y13868D01*
X25099Y13901D01*
X25040Y13913D01*
D02*
G37*
G36*
X29610Y13918D02*
X29551Y13906D01*
X29502Y13873D01*
X29469Y13824D01*
X29457Y13765D01*
X29469Y13706D01*
X29502Y13657D01*
X29551Y13624D01*
X29610Y13612D01*
X29669Y13624D01*
X29718Y13657D01*
X29751Y13706D01*
X29763Y13765D01*
X29751Y13824D01*
X29718Y13873D01*
X29669Y13906D01*
X29610Y13918D01*
D02*
G37*
G36*
X25410Y13913D02*
X25351Y13901D01*
X25302Y13868D01*
X25269Y13819D01*
X25257Y13760D01*
X25269Y13701D01*
X25302Y13652D01*
X25351Y13619D01*
X25410Y13607D01*
X25469Y13619D01*
X25518Y13652D01*
X25551Y13701D01*
X25563Y13760D01*
X25551Y13819D01*
X25518Y13868D01*
X25469Y13901D01*
X25410Y13913D01*
D02*
G37*
G36*
X26480Y13923D02*
X26421Y13911D01*
X26372Y13878D01*
X26339Y13829D01*
X26327Y13770D01*
X26339Y13711D01*
X26372Y13662D01*
X26421Y13629D01*
X26480Y13617D01*
X26539Y13629D01*
X26588Y13662D01*
X26621Y13711D01*
X26633Y13770D01*
X26621Y13829D01*
X26588Y13878D01*
X26539Y13911D01*
X26480Y13923D01*
D02*
G37*
G36*
X29190Y13983D02*
X29131Y13971D01*
X29082Y13938D01*
X29049Y13889D01*
X29037Y13830D01*
X29049Y13771D01*
X29082Y13722D01*
X29131Y13689D01*
X29190Y13677D01*
X29249Y13689D01*
X29298Y13722D01*
X29331Y13771D01*
X29343Y13830D01*
X29331Y13889D01*
X29298Y13938D01*
X29249Y13971D01*
X29190Y13983D01*
D02*
G37*
G36*
X7560Y13963D02*
X7501Y13951D01*
X7452Y13918D01*
X7419Y13869D01*
X7407Y13810D01*
X7419Y13751D01*
X7452Y13702D01*
X7501Y13669D01*
X7560Y13657D01*
X7619Y13669D01*
X7668Y13702D01*
X7701Y13751D01*
X7713Y13810D01*
X7701Y13869D01*
X7668Y13918D01*
X7619Y13951D01*
X7560Y13963D01*
D02*
G37*
G36*
X17700Y14273D02*
X17641Y14261D01*
X17592Y14228D01*
X17559Y14179D01*
X17547Y14120D01*
X17559Y14061D01*
X17592Y14012D01*
X17641Y13979D01*
X17700Y13967D01*
X17759Y13979D01*
X17808Y14012D01*
X17841Y14061D01*
X17853Y14120D01*
X17841Y14179D01*
X17808Y14228D01*
X17759Y14261D01*
X17700Y14273D01*
D02*
G37*
G36*
X12460Y14773D02*
X12401Y14761D01*
X12352Y14728D01*
X12319Y14679D01*
X12307Y14620D01*
X12319Y14561D01*
X12352Y14512D01*
X12401Y14479D01*
X12460Y14467D01*
X12519Y14479D01*
X12568Y14512D01*
X12601Y14561D01*
X12613Y14620D01*
X12601Y14679D01*
X12568Y14728D01*
X12519Y14761D01*
X12460Y14773D01*
D02*
G37*
G36*
X28220Y14673D02*
X28161Y14661D01*
X28112Y14628D01*
X28079Y14579D01*
X28067Y14520D01*
X28079Y14461D01*
X28112Y14412D01*
X28161Y14379D01*
X28220Y14367D01*
X28279Y14379D01*
X28328Y14412D01*
X28361Y14461D01*
X28373Y14520D01*
X28361Y14579D01*
X28328Y14628D01*
X28279Y14661D01*
X28220Y14673D01*
D02*
G37*
G36*
X22880Y14823D02*
X22821Y14811D01*
X22772Y14778D01*
X22739Y14729D01*
X22727Y14670D01*
X22739Y14611D01*
X22772Y14562D01*
X22821Y14529D01*
X22880Y14517D01*
X22939Y14529D01*
X22988Y14562D01*
X23021Y14611D01*
X23033Y14670D01*
X23021Y14729D01*
X22988Y14778D01*
X22939Y14811D01*
X22880Y14823D01*
D02*
G37*
G36*
X30070Y14883D02*
X30011Y14871D01*
X29962Y14838D01*
X29929Y14789D01*
X29917Y14730D01*
X29929Y14671D01*
X29962Y14622D01*
X30011Y14589D01*
X30070Y14577D01*
X30129Y14589D01*
X30178Y14622D01*
X30211Y14671D01*
X30223Y14730D01*
X30211Y14789D01*
X30178Y14838D01*
X30129Y14871D01*
X30070Y14883D01*
D02*
G37*
G36*
X29630Y14843D02*
X29571Y14831D01*
X29522Y14798D01*
X29489Y14749D01*
X29477Y14690D01*
X29489Y14631D01*
X29522Y14582D01*
X29571Y14549D01*
X29630Y14537D01*
X29689Y14549D01*
X29738Y14582D01*
X29771Y14631D01*
X29783Y14690D01*
X29771Y14749D01*
X29738Y14798D01*
X29689Y14831D01*
X29630Y14843D01*
D02*
G37*
G36*
X13740Y14593D02*
X13681Y14581D01*
X13632Y14548D01*
X13599Y14499D01*
X13587Y14440D01*
X13599Y14381D01*
X13632Y14332D01*
X13681Y14299D01*
X13740Y14287D01*
X13799Y14299D01*
X13848Y14332D01*
X13881Y14381D01*
X13893Y14440D01*
X13881Y14499D01*
X13848Y14548D01*
X13799Y14581D01*
X13740Y14593D01*
D02*
G37*
G36*
X25270Y14393D02*
X25211Y14381D01*
X25162Y14348D01*
X25129Y14299D01*
X25117Y14240D01*
X25129Y14181D01*
X25162Y14132D01*
X25211Y14099D01*
X25270Y14087D01*
X25329Y14099D01*
X25378Y14132D01*
X25411Y14181D01*
X25423Y14240D01*
X25411Y14299D01*
X25378Y14348D01*
X25329Y14381D01*
X25270Y14393D01*
D02*
G37*
G36*
X30450Y14273D02*
X30391Y14261D01*
X30342Y14228D01*
X30309Y14179D01*
X30297Y14120D01*
X30309Y14061D01*
X30342Y14012D01*
X30391Y13979D01*
X30450Y13967D01*
X30509Y13979D01*
X30558Y14012D01*
X30591Y14061D01*
X30603Y14120D01*
X30591Y14179D01*
X30558Y14228D01*
X30509Y14261D01*
X30450Y14273D01*
D02*
G37*
G36*
X11830Y14413D02*
X11771Y14401D01*
X11722Y14368D01*
X11689Y14319D01*
X11677Y14260D01*
X11689Y14201D01*
X11722Y14152D01*
X11771Y14119D01*
X11830Y14107D01*
X11889Y14119D01*
X11938Y14152D01*
X11971Y14201D01*
X11983Y14260D01*
X11971Y14319D01*
X11938Y14368D01*
X11889Y14401D01*
X11830Y14413D01*
D02*
G37*
G36*
X34970Y14503D02*
X34911Y14491D01*
X34862Y14458D01*
X34829Y14409D01*
X34817Y14350D01*
X34829Y14291D01*
X34862Y14242D01*
X34911Y14209D01*
X34970Y14197D01*
X35029Y14209D01*
X35078Y14242D01*
X35111Y14291D01*
X35123Y14350D01*
X35111Y14409D01*
X35078Y14458D01*
X35029Y14491D01*
X34970Y14503D01*
D02*
G37*
G36*
X36320Y14483D02*
X36261Y14471D01*
X36212Y14438D01*
X36179Y14389D01*
X36167Y14330D01*
X36179Y14271D01*
X36212Y14222D01*
X36261Y14189D01*
X36320Y14177D01*
X36379Y14189D01*
X36428Y14222D01*
X36461Y14271D01*
X36473Y14330D01*
X36461Y14389D01*
X36428Y14438D01*
X36379Y14471D01*
X36320Y14483D01*
D02*
G37*
G36*
X17520Y18653D02*
X17520Y18653D01*
X15550D01*
X15488Y18641D01*
X15435Y18605D01*
X15415Y18575D01*
X15405Y18565D01*
X15369Y18512D01*
X15357Y18450D01*
Y18230D01*
X15369Y18168D01*
X15405Y18115D01*
X15458Y18079D01*
X15520Y18067D01*
X17260D01*
X17322Y18079D01*
X17375Y18115D01*
X17635Y18375D01*
X17671Y18428D01*
X17683Y18490D01*
X17671Y18552D01*
X17635Y18605D01*
X17582Y18641D01*
X17520Y18653D01*
D02*
G37*
G36*
X25840Y18273D02*
X25781Y18261D01*
X25732Y18228D01*
X25699Y18179D01*
X25687Y18120D01*
X25699Y18061D01*
X25732Y18012D01*
X25781Y17979D01*
X25840Y17967D01*
X25899Y17979D01*
X25948Y18012D01*
X25981Y18061D01*
X25993Y18120D01*
X25981Y18179D01*
X25948Y18228D01*
X25899Y18261D01*
X25840Y18273D01*
D02*
G37*
G36*
X28220Y18443D02*
X28161Y18431D01*
X28112Y18398D01*
X28079Y18349D01*
X28067Y18290D01*
X28079Y18231D01*
X28112Y18182D01*
X28161Y18149D01*
X28220Y18137D01*
X28279Y18149D01*
X28328Y18182D01*
X28361Y18231D01*
X28373Y18290D01*
X28361Y18349D01*
X28328Y18398D01*
X28279Y18431D01*
X28220Y18443D01*
D02*
G37*
G36*
X28640Y18773D02*
X28581Y18761D01*
X28532Y18728D01*
X28499Y18679D01*
X28487Y18620D01*
X28499Y18561D01*
X28532Y18512D01*
X28581Y18479D01*
X28640Y18467D01*
X28699Y18479D01*
X28748Y18512D01*
X28781Y18561D01*
X28793Y18620D01*
X28781Y18679D01*
X28748Y18728D01*
X28699Y18761D01*
X28640Y18773D01*
D02*
G37*
G36*
X27830Y18643D02*
X27771Y18631D01*
X27722Y18598D01*
X27689Y18549D01*
X27677Y18490D01*
X27689Y18431D01*
X27722Y18382D01*
X27771Y18349D01*
X27830Y18337D01*
X27889Y18349D01*
X27938Y18382D01*
X27971Y18431D01*
X27983Y18490D01*
X27971Y18549D01*
X27938Y18598D01*
X27889Y18631D01*
X27830Y18643D01*
D02*
G37*
G36*
X22590Y18133D02*
X22531Y18121D01*
X22482Y18088D01*
X22449Y18039D01*
X22437Y17980D01*
X22449Y17921D01*
X22482Y17872D01*
X22531Y17839D01*
X22590Y17827D01*
X22649Y17839D01*
X22698Y17872D01*
X22731Y17921D01*
X22743Y17980D01*
X22731Y18039D01*
X22698Y18088D01*
X22649Y18121D01*
X22590Y18133D01*
D02*
G37*
G36*
X1400Y18428D02*
X1307Y18416D01*
X1221Y18380D01*
X1147Y18323D01*
X1090Y18249D01*
X1054Y18163D01*
X1042Y18070D01*
X1054Y17977D01*
X1090Y17891D01*
X1147Y17817D01*
X1221Y17760D01*
X1307Y17724D01*
X1400Y17712D01*
X1493Y17724D01*
X1579Y17760D01*
X1653Y17817D01*
X1710Y17891D01*
X1746Y17977D01*
X1758Y18070D01*
X1746Y18163D01*
X1710Y18249D01*
X1653Y18323D01*
X1579Y18380D01*
X1493Y18416D01*
X1400Y18428D01*
D02*
G37*
G36*
X37960Y18418D02*
X37867Y18406D01*
X37781Y18370D01*
X37707Y18313D01*
X37650Y18239D01*
X37614Y18153D01*
X37602Y18060D01*
X37614Y17967D01*
X37650Y17881D01*
X37707Y17807D01*
X37781Y17750D01*
X37867Y17714D01*
X37960Y17702D01*
X38053Y17714D01*
X38139Y17750D01*
X38213Y17807D01*
X38270Y17881D01*
X38306Y17967D01*
X38318Y18060D01*
X38306Y18153D01*
X38270Y18239D01*
X38213Y18313D01*
X38139Y18370D01*
X38053Y18406D01*
X37960Y18418D01*
D02*
G37*
G36*
X28680Y18143D02*
X28621Y18131D01*
X28572Y18098D01*
X28539Y18049D01*
X28527Y17990D01*
X28539Y17931D01*
X28572Y17882D01*
X28621Y17849D01*
X28680Y17837D01*
X28739Y17849D01*
X28788Y17882D01*
X28821Y17931D01*
X28866Y17915D01*
X28857Y17870D01*
X28869Y17811D01*
X28902Y17762D01*
X28951Y17729D01*
X29010Y17717D01*
X29069Y17729D01*
X29118Y17762D01*
X29151Y17811D01*
X29163Y17870D01*
X29151Y17929D01*
X29118Y17978D01*
X29069Y18011D01*
X29010Y18023D01*
X28951Y18011D01*
X28902Y17978D01*
X28869Y17929D01*
X28824Y17945D01*
X28833Y17990D01*
X28821Y18049D01*
X28788Y18098D01*
X28739Y18131D01*
X28680Y18143D01*
D02*
G37*
G36*
X17690Y18133D02*
X17631Y18121D01*
X17582Y18088D01*
X17549Y18039D01*
X17537Y17980D01*
X17549Y17921D01*
X17582Y17872D01*
X17631Y17839D01*
X17690Y17827D01*
X17749Y17839D01*
X17798Y17872D01*
X17831Y17921D01*
X17843Y17980D01*
X17831Y18039D01*
X17798Y18088D01*
X17749Y18121D01*
X17690Y18133D01*
D02*
G37*
G36*
X13955Y18495D02*
X13245D01*
Y17785D01*
X13955D01*
Y18495D01*
D02*
G37*
G36*
X26390Y18823D02*
X26331Y18811D01*
X26282Y18778D01*
X26249Y18729D01*
X26237Y18670D01*
X26249Y18611D01*
X26282Y18562D01*
X26331Y18529D01*
X26390Y18517D01*
X26449Y18529D01*
X26498Y18562D01*
X26531Y18611D01*
X26543Y18670D01*
X26531Y18729D01*
X26498Y18778D01*
X26449Y18811D01*
X26390Y18823D01*
D02*
G37*
G36*
X26710Y19663D02*
X26651Y19651D01*
X26602Y19618D01*
X26569Y19569D01*
X26557Y19510D01*
X26569Y19451D01*
X26602Y19402D01*
X26651Y19369D01*
X26710Y19357D01*
X26769Y19369D01*
X26818Y19402D01*
X26851Y19451D01*
X26863Y19510D01*
X26851Y19569D01*
X26818Y19618D01*
X26769Y19651D01*
X26710Y19663D01*
D02*
G37*
G36*
X28980Y19533D02*
X28921Y19521D01*
X28872Y19488D01*
X28839Y19439D01*
X28827Y19380D01*
X28839Y19321D01*
X28872Y19272D01*
X28921Y19239D01*
X28980Y19227D01*
X29039Y19239D01*
X29088Y19272D01*
X29121Y19321D01*
X29133Y19380D01*
X29121Y19439D01*
X29088Y19488D01*
X29039Y19521D01*
X28980Y19533D01*
D02*
G37*
G36*
X37960Y20418D02*
X37867Y20406D01*
X37781Y20370D01*
X37707Y20313D01*
X37650Y20239D01*
X37614Y20153D01*
X37602Y20060D01*
X37614Y19967D01*
X37650Y19881D01*
X37707Y19807D01*
X37781Y19750D01*
X37867Y19714D01*
X37960Y19702D01*
X38053Y19714D01*
X38139Y19750D01*
X38213Y19807D01*
X38270Y19881D01*
X38306Y19967D01*
X38318Y20060D01*
X38306Y20153D01*
X38270Y20239D01*
X38213Y20313D01*
X38139Y20370D01*
X38053Y20406D01*
X37960Y20418D01*
D02*
G37*
G36*
X33070Y20053D02*
X33011Y20041D01*
X32962Y20008D01*
X32929Y19959D01*
X32917Y19900D01*
X32929Y19841D01*
X32962Y19792D01*
X33011Y19759D01*
X33070Y19747D01*
X33129Y19759D01*
X33178Y19792D01*
X33211Y19841D01*
X33223Y19900D01*
X33211Y19959D01*
X33178Y20008D01*
X33129Y20041D01*
X33070Y20053D01*
D02*
G37*
G36*
X33600Y20043D02*
X33541Y20031D01*
X33492Y19998D01*
X33459Y19949D01*
X33447Y19890D01*
X33459Y19831D01*
X33492Y19782D01*
X33541Y19749D01*
X33600Y19737D01*
X33659Y19749D01*
X33708Y19782D01*
X33741Y19831D01*
X33753Y19890D01*
X33741Y19949D01*
X33708Y19998D01*
X33659Y20031D01*
X33600Y20043D01*
D02*
G37*
G36*
X14300Y19553D02*
X14241Y19541D01*
X14192Y19508D01*
X14159Y19459D01*
X14147Y19400D01*
X14159Y19341D01*
X14192Y19292D01*
X14241Y19259D01*
X14300Y19247D01*
X14359Y19259D01*
X14375Y19270D01*
X14402Y19284D01*
X14440Y19264D01*
X14442Y19262D01*
X14491Y19229D01*
X14550Y19217D01*
X14609Y19229D01*
X14658Y19262D01*
X14691Y19311D01*
X14703Y19370D01*
X14691Y19429D01*
X14658Y19478D01*
X14609Y19511D01*
X14550Y19523D01*
X14491Y19511D01*
X14442Y19478D01*
X14410Y19506D01*
X14408Y19508D01*
X14408Y19508D01*
X14359Y19541D01*
X14300Y19553D01*
D02*
G37*
G36*
X37960Y19418D02*
X37867Y19406D01*
X37781Y19370D01*
X37707Y19313D01*
X37650Y19239D01*
X37614Y19153D01*
X37602Y19060D01*
X37614Y18967D01*
X37650Y18881D01*
X37707Y18807D01*
X37781Y18750D01*
X37867Y18714D01*
X37960Y18702D01*
X38053Y18714D01*
X38139Y18750D01*
X38213Y18807D01*
X38270Y18881D01*
X38306Y18967D01*
X38318Y19060D01*
X38306Y19153D01*
X38270Y19239D01*
X38213Y19313D01*
X38139Y19370D01*
X38053Y19406D01*
X37960Y19418D01*
D02*
G37*
G36*
X27280Y19193D02*
X27221Y19181D01*
X27172Y19148D01*
X27139Y19099D01*
X27127Y19040D01*
X27139Y18981D01*
X27172Y18932D01*
X27221Y18899D01*
X27280Y18887D01*
X27339Y18899D01*
X27371Y18921D01*
X27415Y18890D01*
X27407Y18850D01*
X27419Y18791D01*
X27452Y18742D01*
X27501Y18709D01*
X27560Y18697D01*
X27619Y18709D01*
X27668Y18742D01*
X27701Y18791D01*
X27713Y18850D01*
X27701Y18909D01*
X27668Y18958D01*
X27619Y18991D01*
X27560Y19003D01*
X27501Y18991D01*
X27469Y18970D01*
X27425Y19000D01*
X27433Y19040D01*
X27421Y19099D01*
X27388Y19148D01*
X27339Y19181D01*
X27280Y19193D01*
D02*
G37*
G36*
X1400Y19428D02*
X1307Y19416D01*
X1221Y19380D01*
X1147Y19323D01*
X1090Y19249D01*
X1054Y19163D01*
X1042Y19070D01*
X1054Y18977D01*
X1090Y18891D01*
X1147Y18817D01*
X1221Y18760D01*
X1307Y18724D01*
X1400Y18712D01*
X1493Y18724D01*
X1579Y18760D01*
X1653Y18817D01*
X1710Y18891D01*
X1746Y18977D01*
X1758Y19070D01*
X1746Y19163D01*
X1710Y19249D01*
X1653Y19323D01*
X1579Y19380D01*
X1493Y19416D01*
X1400Y19428D01*
D02*
G37*
G36*
X26960Y19413D02*
X26901Y19401D01*
X26852Y19368D01*
X26819Y19319D01*
X26807Y19260D01*
X26819Y19201D01*
X26852Y19152D01*
X26901Y19119D01*
X26960Y19107D01*
X27019Y19119D01*
X27068Y19152D01*
X27101Y19201D01*
X27113Y19260D01*
X27101Y19319D01*
X27068Y19368D01*
X27019Y19401D01*
X26960Y19413D01*
D02*
G37*
G36*
X33745Y19313D02*
X33687Y19301D01*
X33637Y19268D01*
X33604Y19219D01*
X33593Y19160D01*
X33604Y19101D01*
X33637Y19052D01*
X33687Y19019D01*
X33745Y19007D01*
X33804Y19019D01*
X33854Y19052D01*
X33887Y19101D01*
X33898Y19160D01*
X33887Y19219D01*
X33854Y19268D01*
X33804Y19301D01*
X33745Y19313D01*
D02*
G37*
G36*
X27800Y15873D02*
X27741Y15861D01*
X27692Y15828D01*
X27685Y15818D01*
X27635D01*
X27628Y15828D01*
X27579Y15861D01*
X27520Y15873D01*
X27461Y15861D01*
X27412Y15828D01*
X27405Y15818D01*
X27345D01*
X27338Y15828D01*
X27289Y15861D01*
X27230Y15873D01*
X27171Y15861D01*
X27122Y15828D01*
X27115Y15818D01*
X27059Y15824D01*
X27019Y15851D01*
X26960Y15863D01*
X26901Y15851D01*
X26852Y15818D01*
X26831Y15786D01*
X26813Y15784D01*
X26775Y15787D01*
X26748Y15828D01*
X26699Y15861D01*
X26640Y15873D01*
X26581Y15861D01*
X26532Y15828D01*
X26499Y15779D01*
X26487Y15720D01*
X26499Y15661D01*
X26532Y15612D01*
X26581Y15579D01*
X26640Y15567D01*
X26699Y15579D01*
X26748Y15612D01*
X26769Y15644D01*
X26787Y15646D01*
X26825Y15643D01*
X26852Y15602D01*
X26901Y15569D01*
X26960Y15557D01*
X27019Y15569D01*
X27068Y15602D01*
X27075Y15612D01*
X27131Y15606D01*
X27171Y15579D01*
X27230Y15567D01*
X27289Y15579D01*
X27338Y15612D01*
X27345Y15622D01*
X27405D01*
X27412Y15612D01*
X27461Y15579D01*
X27520Y15567D01*
X27579Y15579D01*
X27628Y15612D01*
X27635Y15622D01*
X27685D01*
X27692Y15612D01*
X27741Y15579D01*
X27800Y15567D01*
X27859Y15579D01*
X27908Y15612D01*
X27941Y15661D01*
X27953Y15720D01*
X27941Y15779D01*
X27908Y15828D01*
X27859Y15861D01*
X27800Y15873D01*
D02*
G37*
G36*
X28810Y15893D02*
X28751Y15881D01*
X28702Y15848D01*
X28669Y15799D01*
X28668Y15793D01*
X28651Y15788D01*
X28615Y15787D01*
X28588Y15828D01*
X28539Y15861D01*
X28480Y15873D01*
X28421Y15861D01*
X28372Y15828D01*
X28360Y15811D01*
X28300D01*
X28288Y15828D01*
X28239Y15861D01*
X28180Y15873D01*
X28121Y15861D01*
X28072Y15828D01*
X28039Y15779D01*
X28027Y15720D01*
X28039Y15661D01*
X28072Y15612D01*
X28121Y15579D01*
X28180Y15567D01*
X28239Y15579D01*
X28288Y15612D01*
X28300Y15630D01*
X28360D01*
X28372Y15612D01*
X28421Y15579D01*
X28480Y15567D01*
X28539Y15579D01*
X28588Y15612D01*
X28621Y15661D01*
X28622Y15667D01*
X28639Y15672D01*
X28675Y15673D01*
X28702Y15632D01*
X28751Y15599D01*
X28810Y15587D01*
X28869Y15599D01*
X28918Y15632D01*
X28951Y15681D01*
X28956Y15704D01*
X28959Y15718D01*
X29009D01*
X29012Y15703D01*
X29019Y15671D01*
X29052Y15622D01*
X29101Y15589D01*
X29160Y15577D01*
X29219Y15589D01*
X29268Y15622D01*
X29292Y15658D01*
X29300Y15660D01*
X29340D01*
X29348Y15658D01*
X29372Y15622D01*
X29421Y15589D01*
X29480Y15577D01*
X29539Y15589D01*
X29588Y15622D01*
X29621Y15671D01*
X29633Y15730D01*
X29621Y15789D01*
X29588Y15838D01*
X29539Y15871D01*
X29480Y15883D01*
X29421Y15871D01*
X29372Y15838D01*
X29348Y15802D01*
X29340Y15800D01*
X29300D01*
X29292Y15802D01*
X29268Y15838D01*
X29219Y15871D01*
X29160Y15883D01*
X29101Y15871D01*
X29052Y15838D01*
X29019Y15789D01*
X29014Y15766D01*
X29011Y15752D01*
X28961D01*
X28958Y15767D01*
X28951Y15799D01*
X28918Y15848D01*
X28869Y15881D01*
X28810Y15893D01*
D02*
G37*
G36*
X30170Y15933D02*
X30111Y15921D01*
X30062Y15888D01*
X30058Y15883D01*
X30008Y15868D01*
X29998Y15875D01*
X29959Y15901D01*
X29900Y15913D01*
X29841Y15901D01*
X29792Y15868D01*
X29759Y15819D01*
X29747Y15760D01*
X29759Y15701D01*
X29792Y15652D01*
X29841Y15619D01*
X29900Y15607D01*
X29959Y15619D01*
X30008Y15652D01*
X30012Y15657D01*
X30062Y15672D01*
X30072Y15665D01*
X30111Y15639D01*
X30170Y15627D01*
X30229Y15639D01*
X30278Y15672D01*
X30311Y15721D01*
X30323Y15780D01*
X30311Y15839D01*
X30278Y15888D01*
X30229Y15921D01*
X30170Y15933D01*
D02*
G37*
G36*
X13570Y16463D02*
X13511Y16451D01*
X13462Y16418D01*
X13429Y16369D01*
X13417Y16310D01*
X13429Y16251D01*
X13462Y16202D01*
X13511Y16169D01*
X13570Y16157D01*
X13629Y16169D01*
X13678Y16202D01*
X13711Y16251D01*
X13723Y16310D01*
X13711Y16369D01*
X13678Y16418D01*
X13629Y16451D01*
X13570Y16463D01*
D02*
G37*
G36*
X13160Y16273D02*
X13101Y16261D01*
X13052Y16228D01*
X13019Y16179D01*
X13007Y16120D01*
X13019Y16061D01*
X13052Y16012D01*
X13101Y15979D01*
X13160Y15967D01*
X13219Y15979D01*
X13268Y16012D01*
X13301Y16061D01*
X13313Y16120D01*
X13301Y16179D01*
X13268Y16228D01*
X13219Y16261D01*
X13160Y16273D01*
D02*
G37*
G36*
X12690Y16073D02*
X12631Y16061D01*
X12582Y16028D01*
X12549Y15979D01*
X12537Y15920D01*
X12549Y15861D01*
X12582Y15812D01*
X12631Y15779D01*
X12690Y15767D01*
X12749Y15779D01*
X12798Y15812D01*
X12831Y15861D01*
X12843Y15920D01*
X12831Y15979D01*
X12798Y16028D01*
X12749Y16061D01*
X12690Y16073D01*
D02*
G37*
G36*
X12260Y15903D02*
X12201Y15891D01*
X12152Y15858D01*
X12119Y15809D01*
X12107Y15750D01*
X12119Y15691D01*
X12152Y15642D01*
X12201Y15609D01*
X12260Y15597D01*
X12319Y15609D01*
X12368Y15642D01*
X12401Y15691D01*
X12413Y15750D01*
X12401Y15809D01*
X12368Y15858D01*
X12319Y15891D01*
X12260Y15903D01*
D02*
G37*
G36*
X31220Y15873D02*
X31161Y15861D01*
X31112Y15828D01*
X31079Y15779D01*
X31067Y15720D01*
X31079Y15661D01*
X31112Y15612D01*
X31161Y15579D01*
X31220Y15567D01*
X31279Y15579D01*
X31328Y15612D01*
X31361Y15661D01*
X31373Y15720D01*
X31361Y15779D01*
X31328Y15828D01*
X31279Y15861D01*
X31220Y15873D01*
D02*
G37*
G36*
X37960Y16418D02*
X37867Y16406D01*
X37781Y16370D01*
X37707Y16313D01*
X37650Y16239D01*
X37614Y16153D01*
X37602Y16060D01*
X37614Y15967D01*
X37650Y15881D01*
X37707Y15807D01*
X37781Y15750D01*
X37867Y15714D01*
X37960Y15702D01*
X38053Y15714D01*
X38139Y15750D01*
X38213Y15807D01*
X38270Y15881D01*
X38306Y15967D01*
X38318Y16060D01*
X38306Y16153D01*
X38270Y16239D01*
X38213Y16313D01*
X38139Y16370D01*
X38053Y16406D01*
X37960Y16418D01*
D02*
G37*
G36*
X37040Y16053D02*
X36981Y16041D01*
X36932Y16008D01*
X36899Y15959D01*
X36887Y15900D01*
X36899Y15841D01*
X36932Y15792D01*
X36981Y15759D01*
X37040Y15747D01*
X37099Y15759D01*
X37148Y15792D01*
X37181Y15841D01*
X37193Y15900D01*
X37181Y15959D01*
X37148Y16008D01*
X37099Y16041D01*
X37040Y16053D01*
D02*
G37*
G36*
X1400Y16428D02*
X1307Y16416D01*
X1221Y16380D01*
X1147Y16323D01*
X1090Y16249D01*
X1054Y16163D01*
X1042Y16070D01*
X1054Y15977D01*
X1090Y15891D01*
X1147Y15817D01*
X1221Y15760D01*
X1307Y15724D01*
X1400Y15712D01*
X1493Y15724D01*
X1579Y15760D01*
X1653Y15817D01*
X1710Y15891D01*
X1746Y15977D01*
X1758Y16070D01*
X1746Y16163D01*
X1710Y16249D01*
X1653Y16323D01*
X1579Y16380D01*
X1493Y16416D01*
X1400Y16428D01*
D02*
G37*
G36*
X10500Y16593D02*
X10441Y16581D01*
X10392Y16548D01*
X10359Y16499D01*
X10347Y16440D01*
X10359Y16381D01*
X10392Y16332D01*
X10441Y16299D01*
X10500Y16287D01*
X10559Y16299D01*
X10608Y16332D01*
X10641Y16381D01*
X10653Y16440D01*
X10641Y16499D01*
X10608Y16548D01*
X10559Y16581D01*
X10500Y16593D01*
D02*
G37*
G36*
X35245Y17645D02*
X34535D01*
Y16935D01*
X35245D01*
Y17645D01*
D02*
G37*
G36*
X33890Y17648D02*
X33797Y17636D01*
X33711Y17600D01*
X33637Y17543D01*
X33580Y17469D01*
X33544Y17383D01*
X33532Y17290D01*
X33544Y17197D01*
X33580Y17111D01*
X33637Y17037D01*
X33711Y16980D01*
X33797Y16944D01*
X33890Y16932D01*
X33983Y16944D01*
X34069Y16980D01*
X34143Y17037D01*
X34200Y17111D01*
X34236Y17197D01*
X34248Y17290D01*
X34236Y17383D01*
X34200Y17469D01*
X34143Y17543D01*
X34069Y17600D01*
X33983Y17636D01*
X33890Y17648D01*
D02*
G37*
G36*
X9960Y17293D02*
X9901Y17281D01*
X9852Y17248D01*
X9819Y17199D01*
X9807Y17140D01*
X9819Y17081D01*
X9852Y17032D01*
X9901Y16999D01*
X9960Y16987D01*
X10019Y16999D01*
X10068Y17032D01*
X10101Y17081D01*
X10113Y17140D01*
X10101Y17199D01*
X10068Y17248D01*
X10019Y17281D01*
X9960Y17293D01*
D02*
G37*
G36*
X4720Y17431D02*
X4661Y17419D01*
X4612Y17386D01*
X4579Y17336D01*
X4567Y17278D01*
X4579Y17219D01*
X4612Y17170D01*
X4661Y17136D01*
X4720Y17125D01*
X4779Y17136D01*
X4828Y17170D01*
X4861Y17219D01*
X4873Y17278D01*
X4861Y17336D01*
X4828Y17386D01*
X4779Y17419D01*
X4720Y17431D01*
D02*
G37*
G36*
X10370Y17413D02*
X10311Y17401D01*
X10262Y17368D01*
X10229Y17319D01*
X10217Y17260D01*
X10229Y17201D01*
X10262Y17152D01*
X10311Y17119D01*
X10370Y17107D01*
X10429Y17119D01*
X10478Y17152D01*
X10511Y17201D01*
X10523Y17260D01*
X10511Y17319D01*
X10478Y17368D01*
X10429Y17401D01*
X10370Y17413D01*
D02*
G37*
G36*
X11796Y17143D02*
X11738Y17131D01*
X11688Y17098D01*
X11655Y17049D01*
X11643Y16990D01*
X11655Y16931D01*
X11688Y16882D01*
X11738Y16849D01*
X11796Y16837D01*
X11855Y16849D01*
X11904Y16882D01*
X11937Y16931D01*
X11949Y16990D01*
X11937Y17049D01*
X11904Y17098D01*
X11855Y17131D01*
X11796Y17143D01*
D02*
G37*
G36*
X35120Y16683D02*
X35061Y16671D01*
X35012Y16638D01*
X34979Y16589D01*
X34967Y16530D01*
X34979Y16471D01*
X35012Y16422D01*
X35061Y16389D01*
X35120Y16377D01*
X35179Y16389D01*
X35228Y16422D01*
X35261Y16471D01*
X35273Y16530D01*
X35261Y16589D01*
X35228Y16638D01*
X35179Y16671D01*
X35120Y16683D01*
D02*
G37*
G36*
X36490Y16643D02*
X36431Y16631D01*
X36382Y16598D01*
X36349Y16549D01*
X36337Y16490D01*
X36349Y16431D01*
X36382Y16382D01*
X36431Y16349D01*
X36490Y16337D01*
X36549Y16349D01*
X36598Y16382D01*
X36631Y16431D01*
X36643Y16490D01*
X36631Y16549D01*
X36598Y16598D01*
X36549Y16631D01*
X36490Y16643D01*
D02*
G37*
G36*
X11203Y16953D02*
X11145Y16941D01*
X11095Y16908D01*
X11062Y16859D01*
X11050Y16800D01*
X11062Y16741D01*
X11095Y16692D01*
X11145Y16659D01*
X11203Y16647D01*
X11262Y16659D01*
X11311Y16692D01*
X11344Y16741D01*
X11356Y16800D01*
X11344Y16859D01*
X11311Y16908D01*
X11262Y16941D01*
X11203Y16953D01*
D02*
G37*
G36*
X1400Y17428D02*
X1307Y17416D01*
X1221Y17380D01*
X1147Y17323D01*
X1090Y17249D01*
X1054Y17163D01*
X1042Y17070D01*
X1054Y16977D01*
X1090Y16891D01*
X1147Y16817D01*
X1221Y16760D01*
X1307Y16724D01*
X1400Y16712D01*
X1493Y16724D01*
X1579Y16760D01*
X1653Y16817D01*
X1710Y16891D01*
X1746Y16977D01*
X1758Y17070D01*
X1746Y17163D01*
X1710Y17249D01*
X1653Y17323D01*
X1579Y17380D01*
X1493Y17416D01*
X1400Y17428D01*
D02*
G37*
G36*
X37960Y17418D02*
X37867Y17406D01*
X37781Y17370D01*
X37707Y17313D01*
X37650Y17239D01*
X37614Y17153D01*
X37602Y17060D01*
X37614Y16967D01*
X37650Y16881D01*
X37707Y16807D01*
X37781Y16750D01*
X37867Y16714D01*
X37960Y16702D01*
X38053Y16714D01*
X38139Y16750D01*
X38213Y16807D01*
X38270Y16881D01*
X38306Y16967D01*
X38318Y17060D01*
X38306Y17153D01*
X38270Y17239D01*
X38213Y17313D01*
X38139Y17370D01*
X38053Y17406D01*
X37960Y17418D01*
D02*
G37*
%LPD*%
D10*
X30530Y460D02*
X30590Y520D01*
X30710D01*
X30770Y460D01*
Y400D01*
X30710Y340D01*
X30650D01*
X30710D01*
X30770Y280D01*
Y220D01*
X30710Y160D01*
X30590D01*
X30530Y220D01*
D76*
X14110Y27410D02*
Y27650D01*
X436Y19106D02*
X646Y19316D01*
X14520Y27650D02*
X14760Y27410D01*
X10130Y5550D02*
X10280Y5700D01*
X10330Y6590D02*
X10460D01*
X14530Y27410D02*
X14760D01*
X14310D02*
X14530D01*
X14310Y27650D02*
X14520D01*
X14110Y27410D02*
X14310D01*
X20790Y24670D02*
X21030D01*
X20790Y24470D02*
X21030D01*
X20510Y24660D02*
X20520Y24650D01*
X20560D01*
X20580Y24670D02*
X20790D01*
X20520Y24460D02*
X20780D01*
X20520Y24650D02*
Y24660D01*
Y24460D02*
Y24650D01*
X20560D02*
X20580Y24670D01*
X21030Y24470D02*
Y24670D01*
X21030Y24470D02*
X21030Y24470D01*
X20780Y24460D02*
X20790Y24470D01*
X3730Y24020D02*
X3740Y24030D01*
X10130Y6428D02*
Y6720D01*
X10360Y5700D02*
X10420D01*
X10590Y5870D01*
X10360Y6580D02*
X10480Y6460D01*
X10130Y5550D02*
Y5842D01*
Y6135D01*
Y6428D01*
X10360Y5700D02*
Y5993D01*
Y6287D01*
Y6580D01*
X10280Y5700D02*
X10360D01*
X10590Y5870D02*
Y6165D01*
Y6460D01*
X10460Y6590D02*
X10562Y6488D01*
X10590Y6460D01*
X10480D02*
X10533D01*
X10590D01*
X12320Y11850D02*
X12554D01*
X12570D01*
X13120D02*
X13255D01*
X13290D01*
X3520Y24020D02*
X3530Y24030D01*
X4150Y24020D02*
X4170Y24040D01*
Y24340D02*
X4180Y24350D01*
Y24610D01*
X3950D02*
X4180D01*
X3940Y24620D02*
X3950Y24610D01*
X3550Y24620D02*
X3740D01*
X3940D01*
X3520Y24020D02*
X3730D01*
X3530Y24350D02*
X3740D01*
X4170Y24040D02*
Y24100D01*
Y24340D01*
X3730Y24020D02*
X4150D01*
X3940Y24350D02*
X4180D01*
X3740D02*
X3880D01*
X3530Y24600D02*
Y24620D01*
Y24600D02*
X3550Y24620D01*
X3530Y24350D02*
Y24600D01*
Y24030D02*
Y24190D01*
Y24350D01*
X3880D02*
X3940D01*
Y24620D01*
Y24330D02*
X4080Y24190D01*
X4170Y24100D01*
X3740Y24350D02*
Y24490D01*
Y24620D01*
Y24490D02*
X3880Y24350D01*
X3530Y24190D02*
X4080D01*
X15280Y6160D02*
X15320Y6200D01*
X15280Y6160D02*
X15380Y6060D01*
Y5850D02*
Y6060D01*
Y5590D02*
Y5850D01*
Y5590D02*
X15400Y5610D01*
X15610D01*
X15860D01*
Y5850D01*
Y5930D01*
X16070Y6140D02*
Y6400D01*
X15820D02*
X16070D01*
X15720D02*
X15820D01*
X15610Y6510D02*
X15720Y6400D01*
X15320Y6540D02*
X15350Y6510D01*
X15320Y6500D02*
Y6540D01*
Y6500D02*
X15450Y6370D01*
X15570Y6140D02*
Y6250D01*
Y5900D02*
Y6140D01*
Y5900D02*
X15620Y5850D01*
Y5760D02*
Y5850D01*
X15570Y5710D02*
X15620Y5760D01*
X15740Y5710D02*
X15750Y5700D01*
Y6070D02*
X15820Y6140D01*
X15930Y6250D01*
X15320Y6200D02*
Y6500D01*
X15450Y6370D02*
X15570Y6250D01*
X15350Y6510D02*
X15610D01*
X15570Y5710D02*
X15740D01*
X15750Y5700D02*
Y6070D01*
X15860Y5930D02*
X16070Y6140D01*
X15680Y6250D02*
X15930D01*
X15660Y6270D02*
X15680Y6250D01*
D79*
X14590Y24260D02*
X14600Y24270D01*
X18590Y12310D02*
X18810D01*
Y12540D02*
X19050D01*
X13470Y20020D02*
Y20277D01*
Y20533D01*
Y20790D01*
X14360Y24260D02*
X14590D01*
D80*
X31310Y7980D02*
X33170D01*
X33820Y7330D01*
X30280Y9010D02*
X31310Y7980D01*
D81*
X33910Y7200D02*
X34940D01*
X34170Y7080D02*
X34360D01*
X34160Y7090D02*
X34170Y7080D01*
X34940Y7070D02*
Y7200D01*
X33820Y7290D02*
X33910Y7200D01*
X33820Y7290D02*
Y7330D01*
X34044D01*
X34268D01*
X34492D01*
X34716D01*
X34940D01*
X33820Y7070D02*
Y7290D01*
Y7070D02*
X34044D01*
X34268D01*
X34492D01*
X34716D01*
X34940D01*
D82*
X15490Y24280D02*
X15742D01*
X17180Y11690D02*
Y11950D01*
X17590Y11690D02*
Y11940D01*
X16152Y23862D02*
X17288D01*
X15885Y24085D02*
X16825D01*
X17170Y23980D02*
X17288Y23862D01*
X17275Y12315D02*
X17380Y12210D01*
X17275Y12315D02*
X17320Y12360D01*
X18030D01*
X17200Y12500D02*
X18080D01*
X17250Y12060D02*
Y12290D01*
X17190Y12510D02*
X17200Y12500D01*
X17190Y12400D02*
Y12510D01*
X17250Y12290D02*
X17275Y12315D01*
X11700Y21690D02*
X11710Y21700D01*
X11210Y21810D02*
X11700D01*
X11070Y21690D02*
X11700D01*
Y21810D02*
X11710D01*
X11700Y21690D02*
Y21810D01*
X11170Y21850D02*
X11210Y21810D01*
X11212Y21942D02*
X11290D01*
X11156Y22076D02*
X11290Y21942D01*
X11408Y22060D01*
X11550D01*
X18830Y12080D02*
X19060Y12310D01*
Y12330D02*
X19270Y12540D01*
X18660Y12430D02*
X18990D01*
X18870Y12310D02*
X18990Y12430D01*
X17560Y27240D02*
X17790D01*
X17800Y27250D01*
Y27000D02*
Y27250D01*
X17540Y27000D02*
X17800D01*
X17540D02*
Y27250D01*
X9265Y22105D02*
X9355Y22015D01*
X9265Y21925D02*
X9355Y22015D01*
X9089Y21749D02*
X9265Y21925D01*
X8990Y21650D02*
X9089Y21749D01*
Y22009D02*
X9150Y22070D01*
X9089Y21749D02*
Y22009D01*
X9433Y21650D02*
Y21937D01*
X9355Y22015D02*
X9409Y22069D01*
X9379Y22279D02*
X9409Y22249D01*
X9540Y22380D01*
X9265Y22105D02*
X9409Y22249D01*
X9355Y22015D02*
X9433Y21937D01*
X9091Y22279D02*
X9265Y22105D01*
X8990Y22380D02*
X9091Y22279D01*
X9379D01*
X9265Y21650D02*
Y21925D01*
X9409Y22069D02*
Y22249D01*
X9433Y21650D02*
X9540D01*
X9265D02*
X9433D01*
X9045Y22512D02*
X9392D01*
X8896Y22660D02*
X9045Y22512D01*
X9540Y22030D02*
Y22380D01*
Y21650D02*
Y22030D01*
X8990Y21650D02*
X9265D01*
X8990Y22030D02*
Y22380D01*
Y21650D02*
Y22030D01*
X9265Y21925D02*
Y22030D01*
Y22105D01*
X9081Y22658D02*
X9380D01*
X8790Y22660D02*
Y22750D01*
Y22530D02*
Y22660D01*
Y22950D02*
X8990Y22750D01*
X8700Y22840D02*
Y23050D01*
X8790Y22660D02*
X8896D01*
X9040Y22617D02*
X9081Y22658D01*
X9380Y22560D02*
Y22658D01*
Y22560D02*
X9410Y22530D01*
X9392Y22512D02*
X9410Y22530D01*
X8700Y23050D02*
X8790Y22960D01*
X8560Y23190D02*
X8700Y23050D01*
X8550Y23190D02*
X8560D01*
X8700Y22840D02*
X8790Y22750D01*
Y22950D01*
Y22960D01*
X8990Y22750D02*
X9000Y22760D01*
X9280D01*
X9540D01*
Y22380D02*
Y22760D01*
X9280Y22380D02*
X9540D01*
X8990D02*
X9280D01*
X8840Y22530D02*
X8990Y22380D01*
X8790Y22530D02*
X8840D01*
X8550D02*
X8790D01*
X8550D02*
X8560Y22540D01*
Y22750D01*
Y22980D01*
Y23190D01*
X8550Y23200D02*
X8560Y23190D01*
X16040Y18460D02*
X16060Y18480D01*
X17244Y18230D02*
X17260D01*
X15520D02*
Y18450D01*
X15550Y18480D01*
Y18490D02*
X15796D01*
X16289D02*
X16535D01*
X16781D01*
X17027D01*
X17274D01*
X17520D01*
X15520Y18230D02*
X15766D01*
X16013D01*
X16259D01*
X16505D01*
X16751D01*
X16997D01*
X17244D01*
X15550Y18490D02*
X15660Y18380D01*
Y18360D02*
Y18380D01*
X15796Y18490D02*
X16289D01*
X15660Y18360D02*
X16040D01*
X17130D01*
X17260Y18230D01*
X16040Y18240D02*
Y18360D01*
Y18460D01*
X17260Y18230D02*
X17520Y18490D01*
X13210Y20020D02*
X13470D01*
X13210D02*
Y20280D01*
Y20790D02*
X13470D01*
X13470Y20790D01*
X13360D02*
X13470D01*
X13340Y20770D02*
X13360Y20790D01*
X13340Y20040D02*
Y20770D01*
X13210Y20280D02*
Y20540D01*
Y20790D01*
X11060Y21680D02*
X11070Y21690D01*
X11050D02*
X11060Y21680D01*
X11050Y21690D02*
Y21970D01*
X11210Y22130D02*
X11280Y22200D01*
X11450D01*
X11690D01*
X11710Y22180D01*
Y21920D02*
Y22180D01*
X11700Y21910D02*
X11710Y21920D01*
X11290D02*
Y21942D01*
X11700Y21690D02*
X11710D01*
X11050Y21970D02*
X11156Y22076D01*
X11210Y22130D01*
X11290Y21920D02*
X11490D01*
X11710D01*
X11170Y21850D02*
Y21900D01*
X11212Y21942D01*
X11710Y21700D02*
Y21810D01*
Y21920D01*
X11700Y21810D02*
Y21910D01*
X17182Y23680D02*
X17470D01*
X16884D02*
X17182D01*
X15470Y24270D02*
X15700D01*
X15742Y24280D02*
X16024D01*
X16306D01*
X16588D01*
X16870D01*
X16288Y23680D02*
X16586D01*
X16884D01*
X16287Y23980D02*
X16585D01*
X16882D01*
X15990D02*
X16287D01*
X16882D02*
X17170D01*
X17180D01*
X16870Y24280D02*
X17170Y23980D01*
X16120Y23830D02*
X16152Y23862D01*
X17288D02*
X17470Y23680D01*
X16825Y24085D02*
X16870Y24130D01*
X15700Y24270D02*
X15885Y24085D01*
X15990Y23980D01*
X10710Y24520D02*
Y24850D01*
Y25180D01*
Y25510D01*
Y25840D01*
X11080Y24852D02*
Y25183D01*
Y25515D01*
Y25847D01*
X8210Y24800D02*
Y25060D01*
X7960Y24800D02*
X8210D01*
X7710D02*
X7960D01*
X7710D02*
X7720Y24810D01*
X7710Y25060D02*
X7960D01*
X8210D01*
X7720Y24940D02*
X8070D01*
X8080Y24950D01*
X7720Y24810D02*
Y24940D01*
Y25050D01*
X2670Y14040D02*
X2917D01*
X3164D01*
X3411D01*
X3659D01*
X3906D01*
X4153D01*
X4400D01*
X14700Y5310D02*
Y5520D01*
Y5720D01*
X14490Y5520D02*
Y5720D01*
X14290Y5520D02*
X14490D01*
X14280Y5510D02*
X14290Y5520D01*
X14270D02*
X14280Y5510D01*
X14490Y5720D02*
X14560D01*
X14600Y5680D01*
X14280Y5310D02*
Y5510D01*
Y5710D01*
X14420Y5400D02*
X14560D01*
X14370Y5450D02*
X14420Y5400D01*
X14280Y5310D02*
X14490D01*
X14700D01*
X14270Y5520D02*
Y5720D01*
X14490D01*
X14560Y5400D02*
Y5640D01*
Y5720D02*
X14700D01*
X14560Y5640D02*
X14600Y5680D01*
X17580Y11950D02*
X17590Y11940D01*
X17580Y11950D02*
X17590Y11960D01*
X17790D01*
X18070D01*
Y12240D01*
Y12490D02*
X18080Y12500D01*
X17380Y12210D02*
X17580D01*
X17790D01*
X18040D01*
X18070Y12240D01*
Y12320D01*
X18030Y12360D02*
X18070Y12320D01*
X17990Y12070D02*
X18010Y12090D01*
X17180Y11950D02*
Y12210D01*
Y12490D01*
Y11690D02*
X17370D01*
X17590D01*
X17190Y12400D02*
X17275Y12315D01*
X18070Y12320D02*
Y12490D01*
X17180Y11950D02*
X17380D01*
X17580D01*
X18590Y12540D02*
X18810D01*
X19060Y12310D02*
Y12330D01*
X18810Y12080D02*
X18830D01*
X18650D02*
X18810D01*
X18590Y12020D02*
X18650Y12080D01*
X18590Y12020D02*
Y12310D01*
Y12500D01*
X18660Y12430D01*
X18810Y12310D02*
X18870D01*
X18740Y12240D02*
X18810Y12310D01*
X18740Y12180D02*
Y12240D01*
X19050Y12540D02*
X19270D01*
X17250Y12060D02*
X17260Y12070D01*
X17360Y11810D02*
X17460D01*
X17590Y11940D01*
X17260Y12070D02*
X17990D01*
X15990Y23680D02*
Y23980D01*
Y23680D02*
X16288D01*
X2360Y10330D02*
X2374Y10316D01*
X2350Y10530D02*
Y10740D01*
Y10530D02*
X2360Y10520D01*
X2350Y10530D02*
X2450Y10630D01*
X2350Y10330D02*
Y10530D01*
X2374Y10316D02*
X2548D01*
X2556D01*
X2760Y10550D02*
Y10560D01*
Y10520D02*
Y10550D01*
X2550Y10520D02*
X2760D01*
X2360D02*
X2550D01*
X2450Y10630D02*
Y10660D01*
X2550Y10740D02*
X2750D01*
X2350D02*
X2550D01*
X2750D02*
X2950D01*
X2660Y10660D02*
X2760Y10560D01*
X2556Y10316D02*
X2760Y10520D01*
Y10550D02*
X2950Y10740D01*
X2450Y10660D02*
X2660D01*
D85*
X16396Y21516D02*
X16504D01*
X16240Y21360D02*
X16396Y21516D01*
X16690Y21000D02*
X16700Y20990D01*
X16690Y21000D02*
Y21210D01*
Y21330D01*
X16504Y21516D02*
X16690Y21330D01*
X16370Y21650D02*
X16504Y21516D01*
X16370Y21650D02*
Y21880D01*
D87*
X30280Y9010D02*
Y9120D01*
X28740Y9280D02*
X30120D01*
X30280Y9120D01*
D89*
X16240Y9430D02*
X16260D01*
X16480Y9190D02*
Y9210D01*
Y9190D02*
X16700D01*
X16710Y9180D01*
X16950D01*
X16946Y9184D02*
X16950Y9180D01*
X16940Y9710D02*
X16946Y9704D01*
X16930Y9700D02*
X16940Y9710D01*
X16700Y9700D02*
X16930D01*
X16480D02*
X16700D01*
X16280D02*
X16480D01*
X16270Y9710D02*
X16280Y9700D01*
X16470Y9430D02*
X16480Y9440D01*
X16710D01*
X16040Y9630D02*
Y9840D01*
Y9630D02*
X16240Y9430D01*
X16270Y9630D02*
Y9710D01*
X16260Y9430D02*
X16480Y9210D01*
X16270Y9630D02*
X16470Y9430D01*
X16946Y9184D02*
Y9440D01*
Y9704D01*
D98*
X28227Y26910D02*
D03*
X23053D02*
D03*
D99*
X400Y19070D02*
D03*
Y1070D02*
D03*
X32890Y17290D02*
D03*
X36610Y21650D02*
D03*
X12600Y18140D02*
D03*
X38960Y24060D02*
D03*
Y23060D02*
D03*
Y12060D02*
D03*
X37960Y5060D02*
D03*
X38960D02*
D03*
Y1060D02*
D03*
D103*
X5670Y22370D02*
D03*
D104*
X14110Y27650D02*
D03*
X16570Y23000D02*
D03*
X15490Y24280D02*
D03*
X26840Y10890D02*
D03*
X17180Y11690D02*
D03*
X16840D02*
D03*
X17590D02*
D03*
X38600Y27950D02*
D03*
X38900Y27350D02*
D03*
X5600Y27950D02*
D03*
X5900Y27350D02*
D03*
X5600Y26750D02*
D03*
X5900Y24950D02*
D03*
X5600Y24350D02*
D03*
X5900Y23750D02*
D03*
X5000Y27950D02*
D03*
X5300Y27350D02*
D03*
X5000Y26750D02*
D03*
X5300Y24950D02*
D03*
X5000Y24350D02*
D03*
X5300Y23750D02*
D03*
X4700Y27350D02*
D03*
X4400Y26750D02*
D03*
Y25550D02*
D03*
X4700Y23750D02*
D03*
X3800Y27950D02*
D03*
X4100Y27350D02*
D03*
X3800Y26750D02*
D03*
Y25550D02*
D03*
X3200Y27950D02*
D03*
X3500Y27350D02*
D03*
X3200Y26750D02*
D03*
X3500Y26150D02*
D03*
X3200Y25550D02*
D03*
X2900Y27350D02*
D03*
Y26150D02*
D03*
Y24950D02*
D03*
X2000Y24350D02*
D03*
Y21950D02*
D03*
X1400Y27950D02*
D03*
Y25550D02*
D03*
Y21950D02*
D03*
X1700Y20150D02*
D03*
X1400Y19550D02*
D03*
X800Y27950D02*
D03*
X1100Y27350D02*
D03*
X800Y25550D02*
D03*
Y23150D02*
D03*
X1100Y22550D02*
D03*
X800Y21950D02*
D03*
X1100Y21350D02*
D03*
X800Y20750D02*
D03*
X200Y27950D02*
D03*
X500Y27350D02*
D03*
X200Y26750D02*
D03*
Y25550D02*
D03*
Y24350D02*
D03*
Y23150D02*
D03*
X500Y22550D02*
D03*
X200Y21950D02*
D03*
X500Y21350D02*
D03*
X200Y20750D02*
D03*
X500Y20150D02*
D03*
X200Y19550D02*
D03*
X500Y16550D02*
D03*
X200Y13550D02*
D03*
X500Y10550D02*
D03*
X31160Y26120D02*
D03*
X19857Y270D02*
D03*
X19570Y820D02*
D03*
X19060Y690D02*
D03*
Y270D02*
D03*
X28630D02*
D03*
X27833D02*
D03*
X27035D02*
D03*
X26237D02*
D03*
X25440D02*
D03*
X24643D02*
D03*
X23845D02*
D03*
X23047D02*
D03*
X22250D02*
D03*
X21453D02*
D03*
X20655D02*
D03*
X16550Y23290D02*
D03*
X16700Y23140D02*
D03*
X16370Y21650D02*
D03*
X16504Y21516D02*
D03*
X16690Y21210D02*
D03*
X16240Y21360D02*
D03*
X3880Y2380D02*
D03*
X14220Y640D02*
D03*
X12490Y2350D02*
D03*
X13850Y1610D02*
D03*
X10560Y2360D02*
D03*
X5300Y2390D02*
D03*
X5010Y2370D02*
D03*
X4530Y2390D02*
D03*
X3710Y4480D02*
D03*
X2760Y10520D02*
D03*
X2950Y10740D02*
D03*
X2350Y10530D02*
D03*
X2390Y800D02*
D03*
X4220Y9490D02*
D03*
X7560Y9180D02*
D03*
X10640Y7750D02*
D03*
X9200Y8070D02*
D03*
X15440Y3530D02*
D03*
X15850Y3550D02*
D03*
X16160Y3850D02*
D03*
X15850Y3860D02*
D03*
X15460D02*
D03*
X18320Y2660D02*
D03*
X17670Y2930D02*
D03*
X16040Y9840D02*
D03*
X16946Y9440D02*
D03*
X16480Y9700D02*
D03*
X16270Y9710D02*
D03*
X16470Y9430D02*
D03*
X16480Y9190D02*
D03*
X16710Y9180D02*
D03*
X16950D02*
D03*
X15820Y6400D02*
D03*
Y6140D02*
D03*
X15610Y5610D02*
D03*
X15380Y5850D02*
D03*
X15320Y6540D02*
D03*
X11170Y1660D02*
D03*
X2550Y10740D02*
D03*
X16850Y12500D02*
D03*
Y11950D02*
D03*
X17180D02*
D03*
Y12490D02*
D03*
X17380D02*
D03*
Y12210D02*
D03*
Y11950D02*
D03*
X17790Y11960D02*
D03*
Y12210D02*
D03*
Y12490D02*
D03*
X17580D02*
D03*
Y12210D02*
D03*
X17370Y11690D02*
D03*
X18070Y12240D02*
D03*
X18080Y12500D02*
D03*
X18070Y11960D02*
D03*
X17580Y11950D02*
D03*
X17180Y12210D02*
D03*
X21540Y19390D02*
D03*
X20810Y20070D02*
D03*
X20050Y20820D02*
D03*
X36070Y9050D02*
D03*
X16710Y9440D02*
D03*
X16260Y9430D02*
D03*
X16040Y9630D02*
D03*
X16700Y9700D02*
D03*
X16940Y9710D02*
D03*
X15570Y6140D02*
D03*
X15860Y5610D02*
D03*
X15380Y5590D02*
D03*
X15860Y5850D02*
D03*
X15620D02*
D03*
X15450Y6370D02*
D03*
X15280Y6160D02*
D03*
X16070Y6140D02*
D03*
Y6400D02*
D03*
X15610Y6510D02*
D03*
X14700Y5310D02*
D03*
X14490D02*
D03*
X14280D02*
D03*
Y5510D02*
D03*
X14490Y5520D02*
D03*
X14700D02*
D03*
Y5720D02*
D03*
X14490D02*
D03*
X14280Y5710D02*
D03*
X16700Y20990D02*
D03*
X16370Y21880D02*
D03*
X15520Y18230D02*
D03*
X15766D02*
D03*
X16505D02*
D03*
X16751D02*
D03*
X16997D02*
D03*
X17244D02*
D03*
X17520Y18490D02*
D03*
X17274D02*
D03*
X17027D02*
D03*
X16781D02*
D03*
X16535D02*
D03*
X16289D02*
D03*
X15796D02*
D03*
X15550D02*
D03*
X13210Y20790D02*
D03*
Y20540D02*
D03*
Y20280D02*
D03*
Y20020D02*
D03*
X13470Y20277D02*
D03*
Y20020D02*
D03*
Y20533D02*
D03*
Y20790D02*
D03*
X14600Y24270D02*
D03*
X10710Y24520D02*
D03*
Y25840D02*
D03*
Y25510D02*
D03*
Y25180D02*
D03*
Y24850D02*
D03*
X11080Y24852D02*
D03*
Y25183D02*
D03*
Y25515D02*
D03*
Y25847D02*
D03*
X14760Y27410D02*
D03*
X14530D02*
D03*
X14310D02*
D03*
X14110D02*
D03*
X14310Y27650D02*
D03*
X7710Y24800D02*
D03*
X7960D02*
D03*
X8210D02*
D03*
Y25060D02*
D03*
X7960D02*
D03*
X7710D02*
D03*
X9540Y22760D02*
D03*
X9280D02*
D03*
X8990Y22750D02*
D03*
X9540Y21650D02*
D03*
X9265Y22030D02*
D03*
X9540D02*
D03*
X9280Y22380D02*
D03*
X9540D02*
D03*
X8990Y22030D02*
D03*
Y21650D02*
D03*
X9265D02*
D03*
X8990Y22380D02*
D03*
X8790Y22530D02*
D03*
X8550D02*
D03*
X8790Y22960D02*
D03*
Y22750D02*
D03*
X8560D02*
D03*
Y22980D02*
D03*
X8550Y23200D02*
D03*
X2917Y14040D02*
D03*
X3164D02*
D03*
X3411D02*
D03*
X3659D02*
D03*
X3906D02*
D03*
X4153D02*
D03*
X4400D02*
D03*
X2670D02*
D03*
X3940Y24350D02*
D03*
X11290Y21920D02*
D03*
X11490D02*
D03*
X11710D02*
D03*
X11490Y21680D02*
D03*
X11290D02*
D03*
X11060D02*
D03*
X11710Y21690D02*
D03*
X11050Y21970D02*
D03*
X11210Y22130D02*
D03*
X11450Y22200D02*
D03*
X11690D02*
D03*
X18206Y6509D02*
D03*
X19270Y7960D02*
D03*
X18900Y6990D02*
D03*
X18590Y7620D02*
D03*
X21170Y8450D02*
D03*
X20160Y5730D02*
D03*
X18590Y5100D02*
D03*
Y4470D02*
D03*
X18420Y3470D02*
D03*
X18900Y5100D02*
D03*
Y5730D02*
D03*
X18076Y7269D02*
D03*
X18260Y8210D02*
D03*
X20486Y7309D02*
D03*
X21186Y8089D02*
D03*
X21146Y6849D02*
D03*
Y6499D02*
D03*
X21190Y4980D02*
D03*
X21186Y4299D02*
D03*
X21050Y3510D02*
D03*
X17800Y27000D02*
D03*
X17540D02*
D03*
Y27250D02*
D03*
X17800D02*
D03*
X21660Y14870D02*
D03*
X20520Y24660D02*
D03*
Y24460D02*
D03*
X20790Y24670D02*
D03*
Y24470D02*
D03*
X21030Y24670D02*
D03*
Y24470D02*
D03*
X19250Y25840D02*
D03*
X34040Y26300D02*
D03*
X34350Y25960D02*
D03*
X29380Y22860D02*
D03*
X37100Y26500D02*
D03*
X37240Y26270D02*
D03*
X37210Y23760D02*
D03*
X24210Y24190D02*
D03*
X24230Y23820D02*
D03*
X24620Y23770D02*
D03*
X21762Y14710D02*
D03*
X15742Y24280D02*
D03*
X16024D02*
D03*
X16306D02*
D03*
X16588D02*
D03*
X16870D02*
D03*
X16882Y23980D02*
D03*
X16585D02*
D03*
X16287D02*
D03*
X15990D02*
D03*
X16288Y23680D02*
D03*
X16586D02*
D03*
X16884D02*
D03*
X17182D02*
D03*
X17180Y23980D02*
D03*
X17480Y23680D02*
D03*
X16259Y18230D02*
D03*
X18590Y12540D02*
D03*
X19050D02*
D03*
X19300Y12570D02*
D03*
X19060Y12310D02*
D03*
X18810D02*
D03*
X18590D02*
D03*
X18810Y12080D02*
D03*
X18590Y12020D02*
D03*
X18810Y12540D02*
D03*
X3940Y24620D02*
D03*
X3740D02*
D03*
Y24350D02*
D03*
X3530D02*
D03*
Y24620D02*
D03*
X3520Y24020D02*
D03*
X3740Y24030D02*
D03*
X3950Y24040D02*
D03*
X4170D02*
D03*
X4180Y24350D02*
D03*
Y24610D02*
D03*
X28570Y9420D02*
D03*
X28840D02*
D03*
X29110D02*
D03*
X29440D02*
D03*
X29740D02*
D03*
X30030Y9430D02*
D03*
X30330Y9420D02*
D03*
X33820Y7330D02*
D03*
X34044D02*
D03*
X34268D02*
D03*
X34492D02*
D03*
X34716D02*
D03*
X34940D02*
D03*
Y7070D02*
D03*
X34716D02*
D03*
X34268D02*
D03*
X34044D02*
D03*
X33820D02*
D03*
X34492D02*
D03*
X12320Y11850D02*
D03*
X12554D02*
D03*
X12787D02*
D03*
X13021D02*
D03*
X13255D02*
D03*
X13489D02*
D03*
X13722D02*
D03*
X13956D02*
D03*
X14190D02*
D03*
X10130Y6720D02*
D03*
Y6428D02*
D03*
Y5842D02*
D03*
Y5550D02*
D03*
X10360Y5700D02*
D03*
Y5993D02*
D03*
Y6287D02*
D03*
X10590Y6460D02*
D03*
Y6165D02*
D03*
Y5870D02*
D03*
X10360Y6580D02*
D03*
X13730Y12330D02*
D03*
X10130Y6135D02*
D03*
X16060Y18480D02*
D03*
X16013Y18230D02*
D03*
X2040Y9050D02*
D03*
X2520Y6090D02*
D03*
X14320Y18200D02*
D03*
X3430Y9790D02*
D03*
X17690Y6230D02*
D03*
Y5380D02*
D03*
X17680Y4130D02*
D03*
X15990Y23680D02*
D03*
X15170Y23490D02*
D03*
X14360Y24260D02*
D03*
X11820Y24420D02*
D03*
X12210Y24660D02*
D03*
X12760Y1620D02*
D03*
X2350Y10330D02*
D03*
X2548Y10316D02*
D03*
X2550Y10520D02*
D03*
X2350Y10740D02*
D03*
X2750D02*
D03*
D105*
X30220Y10960D02*
D03*
D106*
Y11940D02*
D03*
Y9980D02*
D03*
X31200Y10960D02*
D03*
X29240D02*
D03*
X29350Y11820D02*
D03*
X29370Y10080D02*
D03*
X31080Y10090D02*
D03*
X31120Y11790D02*
D03*
D107*
X13910Y22320D02*
D03*
X13510D02*
D03*
X12710D02*
D03*
Y23520D02*
D03*
X13110D02*
D03*
X13510D02*
D03*
X13910D02*
D03*
X12710Y23120D02*
D03*
X13110D02*
D03*
X13510D02*
D03*
X13910D02*
D03*
X12710Y22720D02*
D03*
X13110D02*
D03*
X13510D02*
D03*
X13910D02*
D03*
X13110Y22320D02*
D03*
D110*
X10360Y6287D02*
X10533Y6460D01*
X10562Y6488D01*
X11810Y7737D01*
Y11120D01*
X12300Y11610D01*
X14060D01*
M02*
